<?xml version="1.0" standalone="no"?><!DOCTYPE svg PUBLIC "-//W3C//DTD SVG 1.1//EN" "http://www.w3.org/Graphics/SVG/1.1/DTD/svg11.dtd"><svg height="1024" node-id="1" sillyvg="true" template-height="1024" template-width="1024" version="1.1" viewBox="0 0 1024 1024" width="1024" xmlns="http://www.w3.org/2000/svg" xmlns:xlink="http://www.w3.org/1999/xlink"><defs node-id="44"><mask height="4157.383" id="mask-2" maskUnits="userSpaceOnUse" node-id="11" width="4158.4194" x="1709.9056" y="-7950.2065"><path d="M 3198.00 -5732.40 L 3208.90 -5720.30 L 3220.20 -5708.60 L 3231.70 -5697.30 L 3243.50 -5686.30 L 3255.70 -5675.80 L 3268.20 -5665.70 L 3281.00 -5656.00 L 3294.00 -5646.70 L 3307.30 -5637.80 L 3320.90 -5629.40 L 3334.80 -5621.30 L 3348.90 -5613.80 L 3363.20 -5606.60 L 3377.70 -5600.00 L 3392.40 -5593.70 L 3407.30 -5587.90 L 3422.40 -5582.70 L 3437.70 -5577.80 L 3453.10 -5573.50 L 3468.80 -5569.60 L 3484.50 -5566.20 L 3500.40 -5563.30 L 3516.30 -5560.90 L 3532.50 -5559.00 L 3548.70 -5557.60 L 3565.00 -5556.70 L 3581.20 -5556.40 L 3597.40 -5556.50 L 3613.50 -5557.20 L 3629.50 -5558.30 L 3645.60 -5560.00 L 3661.50 -5562.20 L 3677.30 -5564.80 L 3692.90 -5568.00 L 3708.50 -5571.60 L 3724.00 -5575.70 L 3739.30 -5580.30 L 3754.40 -5585.40 L 3769.40 -5590.90 L 3784.30 -5597.00 L 3798.90 -5603.40 L 3813.30 -5610.40 L 3827.50 -5617.70 L 3841.50 -5625.60 L 3855.30 -5633.90 L 3868.90 -5642.60 L 3882.10 -5651.80 L 3895.10 -5661.40 L 3907.80 -5671.40 L 3920.30 -5681.90 L 3932.50 -5692.80 L 3944.20 -5704.10 L 3955.50 -5715.60 L 3966.40 -5727.40 L 3977.00 -5739.60 L 3987.10 -5752.10 L 3996.80 -5764.90 L 4006.10 -5777.90 L 4015.00 -5791.30 L 4023.40 -5804.90 L 4031.50 -5818.70 L 4039.00 -5832.80 L 4046.10 -5847.10 L 4052.80 -5861.60 L 4059.10 -5876.30 L 4064.80 -5891.30 L 4070.10 -5906.30 L 4075.00 -5921.60 L 4079.30 -5937.10 L 4083.20 -5952.70 L 4086.60 -5968.40 L 4089.50 -5984.30 L 4091.90 -6000.20 L 4093.80 -6016.40 L 4095.20 -6032.60 L 4096.10 -6048.90 L 4096.40 -6065.20 L 4096.30 -6081.30 L 4095.60 -6097.40 L 4094.40 -6113.50 L 4092.80 -6129.50 L 4090.60 -6145.40 L 4088.00 -6161.20 L 4084.80 -6176.90 L 4081.20 -6192.40 L 4077.00 -6207.90 L 4072.40 -6223.20 L 4067.40 -6238.40 L 4061.80 -6253.30 L 4055.80 -6268.20 L 4049.40 -6282.80 L 4042.40 -6297.20 L 4035.00 -6311.40 L 4027.20 -6325.40 L 4018.90 -6339.30 L 4010.20 -6352.80 L 4001.00 -6366.00 L 3991.40 -6379.00 L 3981.40 -6391.80 L 3970.80 -6404.20 L 3959.90 -6416.40 L 3948.70 -6428.10 L 3937.20 -6439.40 L 3925.30 -6450.40 L 3913.20 -6460.90 L 3900.70 -6471.00 L 3887.90 -6480.70 L 3874.80 -6490.00 L 3861.50 -6498.90 L 3847.90 -6507.30 L 3834.10 -6515.40 L 3820.00 -6522.90 L 3805.70 -6530.10 L 3791.20 -6536.70 L 3776.50 -6543.00 L 3761.50 -6548.70 L 3746.40 -6554.00 L 3731.20 -6558.90 L 3715.70 -6563.20 L 3700.10 -6567.10 L 3684.40 -6570.50 L 3668.50 -6573.40 L 3652.50 -6575.80 L 3636.40 -6577.70 L 3620.10 -6579.10 L 3603.80 -6580.00 L 3587.60 -6580.30 L 3571.50 -6580.20 L 3555.40 -6579.50 L 3539.30 -6578.40 L 3523.30 -6576.70 L 3507.40 -6574.50 L 3491.60 -6571.90 L 3475.90 -6568.70 L 3460.30 -6565.10 L 3444.90 -6561.00 L 3429.60 -6556.40 L 3414.40 -6551.30 L 3399.40 -6545.80 L 3384.60 -6539.70 L 3370.00 -6533.30 L 3355.50 -6526.30 L 3341.30 -6519.00 L 3327.30 -6511.10 L 3313.50 -6502.80 L 3300.00 -6494.10 L 3286.80 -6484.90 L 3273.80 -6475.30 L 3261.00 -6465.30 L 3248.50 -6454.80 L 3236.40 -6443.80 L 3224.70 -6432.60 L 3213.30 -6421.10 L 3202.40 -6409.30 L 3191.90 -6397.10 L 3181.80 -6384.60 L 3172.00 -6371.80 L 3162.80 -6358.70 L 3153.90 -6345.40 L 3145.40 -6331.80 L 3137.40 -6318.00 L 3129.80 -6303.90 L 3122.70 -6289.60 L 3116.00 -6275.10 L 3109.80 -6260.40 L 3104.00 -6245.40 L 3098.70 -6230.40 L 3093.90 -6215.10 L 3089.60 -6199.60 L 3085.70 -6184.00 L 3082.30 -6168.30 L 3079.40 -6152.40 L 3077.00 -6136.40 L 3075.10 -6120.30 L 3073.70 -6104.10 L 3072.80 -6087.80 L 3072.40 -6071.50 L 3072.60 -6055.40 L 3073.30 -6039.30 L 3074.40 -6023.20 L 3076.10 -6007.20 L 3078.30 -5991.30 L 3080.90 -5975.50 L 3084.10 -5959.80 L 3087.70 -5944.20 L 3091.80 -5928.80 L 3096.40 -5913.50 L 3101.50 -5898.30 L 3107.00 -5883.40 L 3113.00 -5868.50 L 3119.50 -5853.90 L 3126.40 -5839.50 L 3141.70 -5811.20 L 3150.00 -5797.40 L 3158.70 -5783.90 L 3167.90 -5770.70 L 3177.50 -5757.70 L 3187.50 -5744.90 L 3198.00 -5732.40 Z" fill="#ffffff" fill-rule="evenodd" node-id="49" stroke="none" target-height="1023.8999" target-width="1024" target-x="3072.4" target-y="-6580.3"></path></mask><mask height="112.8" id="mask-4" maskUnits="userSpaceOnUse" node-id="22" width="189.6" x="-47.8" y="-51.4"><path d="M 0.00 0.00 L 94.00 0.00 L 94.00 103.00 L 0.00 103.00 Z" fill="#ffffff" fill-rule="evenodd" node-id="56" stroke="none" target-height="103" target-width="94" target-x="0" target-y="0"></path></mask><mask height="50.399998" id="mask-6" maskUnits="userSpaceOnUse" node-id="32" width="12" x="75" y="38.8"><path d="M 161.00 31.60 L 161.00 97.40 L 160.70 100.50 L 159.90 103.30 L 158.70 105.90 L 157.00 108.30 L 155.00 110.30 L 152.60 112.00 L 150.00 113.20 L 147.20 114.00 L 144.10 114.30 L 141.60 114.10 L 136.90 112.70 L 80.50 75.30 L 26.30 111.50 L 23.60 112.90 L 20.80 113.90 L 17.90 114.30 L 15.00 114.20 L 12.20 113.60 L 9.50 112.60 L 7.00 111.10 L 4.80 109.20 L 2.80 106.80 L 1.60 104.60 L 0.20 99.90 L 0.00 31.60 L 0.30 28.50 L 1.10 25.70 L 2.30 23.10 L 4.00 20.70 L 6.00 18.70 L 8.40 17.00 L 11.00 15.80 L 13.80 15.00 L 16.90 14.70 L 19.40 14.90 L 24.10 16.30 L 80.50 53.70 L 134.70 17.50 L 137.40 16.10 L 140.20 15.10 L 143.10 14.70 L 146.00 14.80 L 148.80 15.40 L 151.50 16.40 L 154.00 17.90 L 156.20 19.80 L 158.20 22.20 L 159.40 24.40 L 160.80 29.10 L 161.00 31.60 Z" fill="#ffffff" fill-rule="evenodd" node-id="63" stroke="none" target-height="99.600006" target-width="161" target-x="0" target-y="14.7"></path></mask></defs><path d="M 0.00 0.00 L 1024.00 0.00 L 1024.00 1024.00 L 0.00 1024.00 Z" fill="#ffffff" fill-rule="evenodd" node-id="69" stroke="none" target-height="1024" target-width="1024" target-x="0" target-y="0"></path><g node-id="118"><g node-id="119"><path d="M 1024.00 512.00 L 1023.70 528.30 L 1023.00 544.50 L 1021.70 560.60 L 1019.90 576.70 L 1017.60 592.60 L 1014.80 608.40 L 1011.60 624.20 L 1007.80 639.70 L 1003.60 655.20 L 998.90 670.40 L 993.70 685.60 L 988.00 700.50 L 981.90 715.30 L 975.30 729.80 L 968.30 744.20 L 960.80 758.40 L 952.90 772.30 L 944.60 785.90 L 935.80 799.40 L 926.50 812.60 L 916.90 825.40 L 906.80 838.00 L 896.30 850.30 L 885.40 862.30 L 874.00 874.00 L 862.30 885.40 L 850.30 896.30 L 838.00 906.80 L 825.40 916.90 L 812.60 926.50 L 799.40 935.80 L 785.90 944.60 L 772.30 952.90 L 758.40 960.80 L 744.20 968.30 L 729.80 975.30 L 715.30 981.90 L 700.50 988.00 L 685.60 993.70 L 670.40 998.90 L 655.20 1003.60 L 639.70 1007.80 L 624.20 1011.60 L 608.40 1014.80 L 592.60 1017.60 L 576.70 1019.90 L 560.60 1021.70 L 544.50 1023.00 L 528.30 1023.70 L 512.00 1024.00 L 495.70 1023.70 L 479.50 1023.00 L 463.40 1021.70 L 447.30 1019.90 L 431.40 1017.60 L 415.60 1014.80 L 399.80 1011.60 L 384.30 1007.80 L 368.80 1003.60 L 353.60 998.90 L 338.40 993.70 L 323.50 988.00 L 308.70 981.90 L 294.20 975.30 L 279.80 968.30 L 265.60 960.80 L 251.70 952.90 L 238.10 944.60 L 224.60 935.80 L 211.40 926.50 L 198.60 916.90 L 186.00 906.80 L 173.70 896.30 L 161.70 885.40 L 150.00 874.00 L 138.60 862.30 L 127.70 850.30 L 117.20 838.00 L 107.10 825.40 L 97.50 812.60 L 88.20 799.40 L 79.40 785.90 L 71.10 772.30 L 63.20 758.40 L 55.70 744.20 L 48.70 729.80 L 42.10 715.30 L 36.00 700.50 L 30.30 685.60 L 25.10 670.40 L 20.40 655.20 L 16.20 639.70 L 12.40 624.20 L 9.20 608.40 L 6.40 592.60 L 4.10 576.70 L 2.30 560.60 L 1.00 544.50 L 0.30 528.30 L 0.00 512.00 L 0.30 495.70 L 1.00 479.50 L 2.30 463.40 L 4.10 447.30 L 6.40 431.40 L 9.20 415.60 L 12.40 399.80 L 16.20 384.30 L 20.40 368.80 L 25.10 353.60 L 30.30 338.40 L 36.00 323.50 L 42.10 308.70 L 48.70 294.20 L 55.70 279.80 L 63.20 265.60 L 71.10 251.70 L 79.40 238.10 L 88.20 224.60 L 97.50 211.40 L 107.10 198.60 L 117.20 186.00 L 127.70 173.70 L 138.60 161.70 L 150.00 150.00 L 161.70 138.60 L 173.70 127.70 L 186.00 117.20 L 198.60 107.10 L 211.40 97.50 L 224.60 88.20 L 238.10 79.40 L 251.70 71.10 L 265.60 63.20 L 279.80 55.70 L 294.20 48.70 L 308.70 42.10 L 323.50 36.00 L 338.40 30.30 L 353.60 25.10 L 368.80 20.40 L 384.30 16.20 L 399.80 12.40 L 415.60 9.20 L 431.40 6.40 L 447.30 4.10 L 463.40 2.30 L 479.50 1.00 L 495.70 0.30 L 512.00 0.00 L 528.30 0.30 L 544.50 1.00 L 560.60 2.30 L 576.70 4.10 L 592.60 6.40 L 608.40 9.20 L 624.20 12.40 L 639.70 16.20 L 655.20 20.40 L 670.40 25.10 L 685.60 30.30 L 700.50 36.00 L 715.30 42.10 L 729.80 48.70 L 744.20 55.70 L 758.40 63.20 L 772.30 71.10 L 785.90 79.40 L 799.40 88.20 L 812.60 97.50 L 825.40 107.10 L 838.00 117.20 L 850.30 127.70 L 862.30 138.60 L 874.00 150.00 L 885.40 161.70 L 896.30 173.70 L 906.80 186.00 L 916.90 198.60 L 926.50 211.40 L 935.80 224.60 L 944.60 238.10 L 952.90 251.70 L 960.80 265.60 L 968.30 279.80 L 975.30 294.20 L 981.90 308.70 L 988.00 323.50 L 993.70 338.40 L 998.90 353.60 L 1003.60 368.80 L 1007.80 384.30 L 1011.60 399.80 L 1014.80 415.60 L 1017.60 431.40 L 1019.90 447.30 L 1021.70 463.40 L 1023.00 479.50 L 1023.70 495.70 L 1024.00 512.00 Z" fill="#6e66d4" fill-opacity="0.2" fill-rule="evenodd" group-id="1,2" node-id="73" stroke="none" target-height="1024" target-width="1024" target-x="0" target-y="0"></path></g><g node-id="120"><g node-id="121"><path d="M 275.40 629.80 L 278.60 628.00 L 281.30 625.90 L 283.70 623.50 L 285.70 620.80 L 287.40 617.90 L 288.70 614.70 L 289.70 611.30 L 290.30 607.70 L 290.30 600.30 L 288.80 592.30 L 285.90 584.40 L 281.30 576.30 L 277.50 571.30 L 273.30 566.80 L 268.80 562.80 L 263.90 559.20 L 258.90 556.30 L 253.80 554.00 L 245.90 551.70 L 238.30 550.80 L 234.40 551.00 L 230.80 551.50 L 227.30 552.50 L 223.90 553.90 L 220.80 555.70 L 218.10 557.80 L 215.70 560.20 L 213.70 562.90 L 212.00 565.90 L 210.70 569.00 L 209.70 572.40 L 209.10 576.00 L 209.10 583.40 L 210.60 591.40 L 213.50 599.30 L 218.10 607.40 L 221.90 612.50 L 226.10 617.00 L 230.60 621.00 L 235.50 624.50 L 240.50 627.40 L 245.60 629.70 L 253.50 632.00 L 261.10 632.90 L 265.00 632.70 L 268.60 632.20 L 272.10 631.20 L 275.40 629.80 Z" fill="#fbb4b4" fill-rule="evenodd" group-id="1,3,4" id="椭圆形备份-4" node-id="16" stroke="none" target-height="82.10004" target-width="81.19998" target-x="209.1" target-y="550.8"></path><path d="M 747.90 629.80 L 744.80 628.00 L 742.10 625.90 L 739.70 623.50 L 737.70 620.80 L 736.00 617.90 L 734.70 614.70 L 733.70 611.30 L 733.10 607.70 L 733.10 600.30 L 734.60 592.30 L 737.50 584.40 L 742.10 576.30 L 745.90 571.30 L 750.10 566.80 L 754.60 562.80 L 759.50 559.20 L 764.50 556.30 L 769.60 554.00 L 777.50 551.70 L 785.10 550.80 L 789.00 551.00 L 792.60 551.50 L 796.10 552.50 L 799.40 553.90 L 802.60 555.70 L 805.30 557.80 L 807.70 560.20 L 809.70 562.90 L 811.40 565.90 L 812.70 569.00 L 813.70 572.40 L 814.30 576.00 L 814.30 583.40 L 812.80 591.40 L 809.90 599.30 L 805.30 607.40 L 801.50 612.50 L 797.30 617.00 L 792.80 621.00 L 787.90 624.50 L 782.90 627.40 L 777.80 629.70 L 769.90 632.00 L 762.30 632.90 L 758.40 632.70 L 754.80 632.20 L 751.30 631.20 L 747.90 629.80 Z" fill="#fbb4b4" fill-rule="evenodd" group-id="1,3,4" id="椭圆形备份-12" node-id="17" stroke="none" target-height="82.10004" target-width="81.20001" target-x="733.1" target-y="550.8"></path><g node-id="122"><path d="M 512.00 781.00 L 523.20 781.30 L 534.20 782.20 L 545.00 783.60 L 555.70 785.50 L 566.20 788.00 L 576.60 791.00 L 586.90 794.50 L 597.00 798.50 L 606.90 803.00 L 616.70 808.00 L 626.20 813.50 L 635.50 819.30 L 644.70 825.70 L 653.60 832.50 L 662.40 839.70 L 670.80 847.30 L 679.00 855.30 L 687.00 863.70 L 694.70 872.50 L 702.20 881.80 L 709.30 891.20 L 716.20 901.00 L 722.70 911.20 L 729.00 921.70 L 735.10 932.70 L 740.70 943.70 L 745.90 955.10 L 750.90 966.70 L 755.50 978.80 L 759.90 991.10 L 763.70 1003.50 L 767.20 1016.10 L 770.40 1029.00 L 773.10 1042.20 L 775.50 1055.70 L 777.50 1069.10 L 779.00 1082.70 L 780.10 1096.60 L 780.80 1110.70 L 781.00 1125.00 L 780.80 1139.30 L 780.10 1153.40 L 779.00 1167.30 L 777.50 1180.90 L 775.50 1194.30 L 773.10 1207.80 L 770.40 1221.00 L 767.20 1233.90 L 763.70 1246.50 L 759.90 1258.90 L 755.50 1271.20 L 750.90 1283.30 L 745.90 1294.90 L 740.70 1306.30 L 735.10 1317.30 L 729.00 1328.30 L 722.70 1338.80 L 716.20 1349.00 L 709.30 1358.80 L 702.20 1368.20 L 694.70 1377.50 L 687.00 1386.30 L 679.00 1394.70 L 670.80 1402.70 L 662.40 1410.30 L 653.60 1417.50 L 644.70 1424.30 L 635.50 1430.70 L 626.20 1436.50 L 616.70 1442.00 L 606.90 1447.00 L 597.00 1451.50 L 586.90 1455.50 L 576.60 1459.00 L 566.20 1462.00 L 555.70 1464.50 L 545.00 1466.40 L 534.20 1467.80 L 523.20 1468.70 L 512.00 1469.00 L 500.80 1468.70 L 489.80 1467.80 L 479.00 1466.40 L 468.30 1464.50 L 457.80 1462.00 L 447.40 1459.00 L 437.10 1455.50 L 427.00 1451.50 L 417.10 1447.00 L 407.30 1442.00 L 397.80 1436.50 L 388.50 1430.70 L 379.30 1424.30 L 370.40 1417.50 L 361.60 1410.30 L 353.20 1402.70 L 345.00 1394.70 L 337.00 1386.30 L 329.30 1377.50 L 321.80 1368.20 L 314.70 1358.80 L 307.80 1349.00 L 301.30 1338.80 L 295.00 1328.30 L 288.90 1317.30 L 283.30 1306.30 L 278.10 1294.90 L 273.10 1283.30 L 268.50 1271.20 L 264.10 1258.90 L 260.30 1246.50 L 256.80 1233.90 L 253.60 1221.00 L 250.90 1207.80 L 248.50 1194.30 L 246.50 1180.90 L 245.00 1167.30 L 243.90 1153.40 L 243.20 1139.30 L 243.00 1125.00 L 243.20 1110.70 L 243.90 1096.60 L 245.00 1082.70 L 246.50 1069.10 L 248.50 1055.70 L 250.90 1042.20 L 253.60 1029.00 L 256.80 1016.10 L 260.30 1003.50 L 264.10 991.10 L 268.50 978.80 L 273.10 966.70 L 278.10 955.10 L 283.30 943.70 L 288.90 932.70 L 295.00 921.70 L 301.30 911.20 L 307.80 901.00 L 314.70 891.20 L 321.80 881.80 L 329.30 872.50 L 337.00 863.70 L 345.00 855.30 L 353.20 847.30 L 361.60 839.70 L 370.40 832.50 L 379.30 825.70 L 388.50 819.30 L 397.80 813.50 L 407.30 808.00 L 417.10 803.00 L 427.00 798.50 L 437.10 794.50 L 447.40 791.00 L 457.80 788.00 L 468.30 785.50 L 479.00 783.60 L 489.80 782.20 L 500.80 781.30 L 512.00 781.00 Z" fill="#6e66d4" fill-rule="evenodd" group-id="1,3,4,5" id="椭圆形" node-id="18" stroke="none" target-height="688" target-width="538" target-x="243" target-y="781"></path></g><g node-id="123"><path d="M 379.50 953.50 L 353.50 1039.60" fill="none" group-id="1,3,4,6" id="路径-6" node-id="19" stroke="#000000" stroke-linecap="round" stroke-opacity="0.10692633" stroke-width="7" target-height="86.099976" target-width="26" target-x="353.5" target-y="953.5"></path></g><g node-id="124"><path d="M 644.50 953.50 L 670.50 1039.60" fill="none" group-id="1,3,4,7" id="路径-6备份" node-id="20" stroke="#000000" stroke-linecap="round" stroke-opacity="0.10692633" stroke-width="7" target-height="86.099976" target-width="26" target-x="644.5" target-y="953.5"></path></g><g node-id="125"><g node-id="132"><path d="M 465.00 712.00 L 559.00 712.00 L 559.00 815.00 L 465.00 815.00 Z" fill="#ffcaca" fill-rule="evenodd" group-id="1,3,4,8,15" node-id="95" stroke="none" target-height="103" target-width="94" target-x="465" target-y="712"></path></g><path d="M 591.00 717.00 L 590.70 720.90 L 590.00 724.60 L 588.70 728.30 L 587.00 731.90 L 584.80 735.20 L 579.30 741.70 L 575.80 744.80 L 570.80 748.40 L 565.10 751.80 L 558.70 754.90 L 552.00 757.50 L 544.80 759.80 L 537.00 761.60 L 529.10 762.90 L 520.70 763.70 L 512.00 764.00 L 503.30 763.70 L 494.90 762.90 L 487.00 761.60 L 479.20 759.80 L 472.00 757.50 L 465.30 754.90 L 458.90 751.80 L 453.20 748.40 L 448.20 744.80 L 444.70 741.70 L 441.70 738.50 L 439.20 735.20 L 437.00 731.90 L 435.30 728.30 L 434.00 724.60 L 433.30 720.90 L 433.00 717.00 L 433.30 713.10 L 434.00 709.40 L 435.30 705.70 L 437.00 702.10 L 439.20 698.80 L 441.70 695.50 L 444.70 692.30 L 448.20 689.20 L 453.20 685.60 L 458.90 682.20 L 465.30 679.10 L 472.00 676.50 L 479.20 674.20 L 487.00 672.40 L 494.90 671.10 L 503.30 670.30 L 512.00 670.00 L 520.70 670.30 L 529.10 671.10 L 537.00 672.40 L 544.80 674.20 L 552.00 676.50 L 558.70 679.10 L 565.10 682.20 L 570.80 685.60 L 575.80 689.20 L 579.30 692.30 L 584.80 698.80 L 587.00 702.10 L 588.70 705.70 L 590.00 709.40 L 590.70 713.10 L 591.00 717.00 Z" fill="#ec8484" fill-opacity="0.21490623" fill-rule="evenodd" group-id="1,3,4,8,16" node-id="100" stroke="none" target-height="94" target-width="158" target-x="433" target-y="670"></path></g><path d="M 767.00 524.00 L 766.70 534.70 L 765.90 545.20 L 764.50 555.50 L 762.70 565.60 L 760.30 575.60 L 757.40 585.50 L 754.00 595.10 L 750.20 604.60 L 745.90 613.90 L 741.10 622.90 L 735.90 631.80 L 730.30 640.40 L 724.30 648.70 L 717.80 656.80 L 711.00 664.70 L 703.80 672.30 L 696.30 679.50 L 688.40 686.50 L 680.10 693.20 L 671.50 699.60 L 662.60 705.60 L 653.50 711.20 L 644.00 716.50 L 634.30 721.50 L 624.10 726.10 L 613.90 730.30 L 603.50 734.10 L 592.70 737.50 L 581.70 740.50 L 570.50 743.10 L 559.20 745.20 L 547.70 746.80 L 536.00 748.00 L 524.10 748.70 L 512.00 749.00 L 499.90 748.70 L 488.00 748.00 L 476.30 746.80 L 464.80 745.20 L 453.50 743.10 L 442.30 740.50 L 431.30 737.50 L 420.50 734.10 L 410.10 730.30 L 399.90 726.10 L 389.70 721.50 L 380.00 716.50 L 370.50 711.20 L 361.40 705.60 L 352.50 699.60 L 343.90 693.20 L 335.60 686.50 L 327.70 679.50 L 320.20 672.30 L 313.00 664.70 L 306.20 656.80 L 299.70 648.70 L 293.70 640.40 L 288.10 631.80 L 282.90 622.90 L 278.10 613.90 L 273.80 604.60 L 270.00 595.10 L 266.60 585.50 L 263.70 575.60 L 261.30 565.60 L 259.50 555.50 L 258.10 545.20 L 257.30 534.70 L 257.00 524.00 L 257.30 513.30 L 258.10 502.80 L 259.50 492.50 L 261.30 482.40 L 263.70 472.40 L 266.60 462.50 L 270.00 452.90 L 273.80 443.40 L 278.10 434.10 L 282.90 425.10 L 288.10 416.20 L 293.70 407.60 L 299.70 399.30 L 306.20 391.20 L 313.00 383.30 L 320.20 375.70 L 327.70 368.50 L 335.60 361.50 L 343.90 354.80 L 352.50 348.40 L 361.40 342.40 L 370.50 336.80 L 380.00 331.50 L 389.70 326.50 L 399.90 321.90 L 410.10 317.70 L 420.50 313.90 L 431.30 310.50 L 442.30 307.50 L 453.50 304.90 L 464.80 302.80 L 476.30 301.20 L 488.00 300.00 L 499.90 299.30 L 512.00 299.00 L 524.10 299.30 L 536.00 300.00 L 547.70 301.20 L 559.20 302.80 L 570.50 304.90 L 581.70 307.50 L 592.70 310.50 L 603.50 313.90 L 613.90 317.70 L 624.10 321.90 L 634.30 326.50 L 644.00 331.50 L 653.50 336.80 L 662.60 342.40 L 671.50 348.40 L 680.10 354.80 L 688.40 361.50 L 696.30 368.50 L 703.80 375.70 L 711.00 383.30 L 717.80 391.20 L 724.30 399.30 L 730.30 407.60 L 735.90 416.20 L 741.10 425.10 L 745.90 434.10 L 750.20 443.40 L 754.00 452.90 L 757.40 462.50 L 760.30 472.40 L 762.70 482.40 L 764.50 492.50 L 765.90 502.80 L 766.70 513.30 L 767.00 524.00 Z" fill="#ffcaca" fill-rule="evenodd" group-id="1,3,4" id="椭圆形" node-id="26" stroke="none" target-height="450" target-width="510" target-x="257" target-y="299"></path><path d="M 502.00 594.00 L 502.00 620.00 L 502.20 622.60 L 502.90 624.90 L 503.90 627.10 L 507.00 630.70 L 508.90 632.10 L 511.10 633.10 L 513.40 633.80 L 516.00 634.00 L 522.80 634.00" fill="none" group-id="1,3,4" id="路径-5备份" node-id="27" stroke="#ff9494" stroke-linecap="round" stroke-width="8" target-height="40" target-width="20.799988" target-x="502" target-y="594"></path><path d="M 434.00 567.00 L 433.70 570.50 L 432.80 573.60 L 431.40 576.60 L 429.50 579.30 L 427.30 581.50 L 424.60 583.40 L 421.60 584.80 L 418.50 585.70 L 415.00 586.00 L 411.50 585.70 L 408.40 584.80 L 405.40 583.40 L 402.70 581.50 L 400.50 579.30 L 398.60 576.60 L 397.20 573.60 L 396.30 570.50 L 396.00 567.00 L 396.30 563.50 L 397.20 560.40 L 398.60 557.40 L 400.50 554.70 L 402.70 552.50 L 405.40 550.60 L 408.40 549.20 L 411.50 548.30 L 415.00 548.00 L 418.50 548.30 L 421.60 549.20 L 424.60 550.60 L 427.30 552.50 L 429.50 554.70 L 431.40 557.40 L 432.80 560.40 L 433.70 563.50 L 434.00 567.00 Z" fill="#110d2e" fill-rule="evenodd" group-id="1,3,4" id="椭圆形" node-id="28" stroke="none" target-height="38" target-width="38" target-x="396" target-y="548"></path><path d="M 628.00 567.00 L 627.70 570.50 L 626.80 573.60 L 625.40 576.60 L 623.50 579.30 L 621.30 581.50 L 618.60 583.40 L 615.60 584.80 L 612.50 585.70 L 609.00 586.00 L 605.50 585.70 L 602.40 584.80 L 599.40 583.40 L 596.70 581.50 L 594.50 579.30 L 592.60 576.60 L 591.20 573.60 L 590.30 570.50 L 590.00 567.00 L 590.30 563.50 L 591.20 560.40 L 592.60 557.40 L 594.50 554.70 L 596.70 552.50 L 599.40 550.60 L 602.40 549.20 L 605.50 548.30 L 609.00 548.00 L 612.50 548.30 L 615.60 549.20 L 618.60 550.60 L 621.30 552.50 L 623.50 554.70 L 625.40 557.40 L 626.80 560.40 L 627.70 563.50 L 628.00 567.00 Z" fill="#110d2e" fill-rule="evenodd" group-id="1,3,4" id="椭圆形备份-7" node-id="29" stroke="none" target-height="38" target-width="38" target-x="590" target-y="548"></path><g node-id="126"><g node-id="134"><g node-id="135"><path d="M 593.00 781.60 L 593.00 847.40 L 592.70 850.50 L 591.90 853.30 L 590.70 855.90 L 589.00 858.30 L 587.00 860.30 L 584.60 862.00 L 582.00 863.20 L 579.20 864.00 L 576.10 864.30 L 573.60 864.10 L 568.90 862.70 L 512.50 825.30 L 458.30 861.50 L 455.60 862.90 L 452.80 863.90 L 449.90 864.30 L 447.00 864.20 L 444.20 863.60 L 441.50 862.60 L 439.00 861.10 L 436.80 859.20 L 434.80 856.80 L 433.60 854.60 L 432.20 849.90 L 432.00 781.60 L 432.30 778.50 L 433.10 775.70 L 434.30 773.10 L 436.00 770.70 L 438.00 768.70 L 440.40 767.00 L 443.00 765.80 L 445.80 765.00 L 448.90 764.70 L 451.40 764.90 L 456.10 766.30 L 512.50 803.70 L 566.70 767.50 L 569.40 766.10 L 572.20 765.10 L 575.10 764.70 L 578.00 764.80 L 580.80 765.40 L 583.50 766.40 L 586.00 767.90 L 588.20 769.80 L 590.20 772.20 L 591.40 774.40 L 592.80 779.10 L 593.00 781.60 Z" fill="#3c3596" fill-rule="nonzero" group-id="1,3,4,9,17,18" node-id="111" stroke="none" target-height="99.599976" target-width="161" target-x="432" target-y="764.7"></path></g><path d="M 518.00 814.00 L 517.80 819.70 L 516.50 829.10 L 515.50 832.10 L 514.60 833.90 L 513.80 834.70 L 513.00 835.00 L 512.20 834.70 L 511.40 833.90 L 510.50 832.10 L 509.50 829.10 L 508.70 824.60 L 508.20 819.70 L 508.00 814.00 L 508.70 803.40 L 509.50 798.90 L 510.50 795.90 L 511.40 794.10 L 512.20 793.30 L 513.00 793.00 L 513.80 793.30 L 514.60 794.10 L 515.50 795.90 L 516.50 798.90 L 517.80 808.30 L 518.00 814.00 Z" fill="#ffffff" fill-opacity="0.5585763" fill-rule="evenodd" group-id="1,3,4,9,17,19" node-id="116" stroke="none" target-height="42" target-width="10" target-x="508" target-y="793"></path></g></g><path d="M 469.00 680.50 L 481.50 685.60 L 487.30 687.40 L 493.30 688.70 L 499.30 689.60 L 505.40 690.00 L 511.50 690.00 L 517.50 689.60 L 523.50 688.60 L 529.50 687.30 L 535.30 685.50 L 541.00 683.20 L 546.60 680.50" fill="none" group-id="1,3,4" id="路径-35" node-id="36" stroke="#ec8484" stroke-linecap="round" stroke-width="10" target-height="9.5" target-width="77.599976" target-x="469" target-y="680.5"></path><path d="M 380.00 519.60 L 391.00 517.00 L 400.30 515.20 L 408.10 514.30 L 414.50 514.00 L 420.90 514.30 L 428.70 515.20 L 438.30 516.90 L 449.80 519.60" fill="none" group-id="1,3,4" id="路径-4备份" node-id="37" stroke="#110d2e" stroke-linecap="round" stroke-width="6" target-height="5.5999756" target-width="69.79999" target-x="380" target-y="514"></path><g node-id="127"><path d="M 643.80 519.60 L 632.70 517.00 L 623.40 515.20 L 615.70 514.30 L 609.30 514.00 L 602.90 514.30 L 595.00 515.20 L 585.50 516.90 L 574.00 519.60" fill="none" group-id="1,3,4,10" id="路径-4备份-2" node-id="38" stroke="#110d2e" stroke-linecap="round" stroke-width="6" target-height="5.5999756" target-width="69.79999" target-x="574" target-y="514"></path></g><g node-id="128"><path d="M 410.00 471.00 L 401.40 480.80 L 392.70 489.90 L 383.80 498.30 L 374.80 506.20 L 365.30 513.80 L 355.80 520.60 L 346.30 526.90 L 336.80 532.50 L 326.90 537.70 L 317.10 542.20 L 307.50 546.00 L 297.90 549.20 L 288.10 551.90 L 278.60 553.80 L 269.40 555.10 L 260.40 555.70 L 253.00 555.80 L 245.90 555.30 L 239.10 554.50 L 232.50 553.20 L 226.00 551.50 L 219.70 549.30 L 213.70 546.60 L 207.90 543.50 L 202.30 539.90 L 197.00 535.80 L 192.10 531.30 L 187.60 526.40 L 183.50 521.30 L 179.80 515.80 L 176.60 509.90 L 173.70 503.90 L 171.30 497.60 L 169.30 491.00 L 167.60 484.10 L 166.40 476.90 L 165.50 467.90 L 165.10 458.60 L 165.40 448.90 L 166.30 438.70 L 167.80 428.80 L 169.90 418.70 L 172.60 408.30 L 176.00 397.60 L 179.90 387.30 L 184.40 376.80 L 189.50 366.30 L 195.30 355.60 L 201.50 345.30 L 208.30 335.10 L 215.70 325.00 L 223.80 314.80 L 232.40 305.10 L 241.10 296.00 L 250.00 287.50 L 259.00 279.70 L 268.50 272.10 L 278.00 265.20 L 287.50 259.00 L 297.00 253.40 L 306.90 248.20 L 316.70 243.70 L 326.30 239.90 L 335.90 236.70 L 345.70 234.00 L 355.20 232.10 L 364.40 230.80 L 373.40 230.20 L 380.80 230.10 L 387.80 230.60 L 394.70 231.40 L 401.30 232.70 L 407.80 234.40 L 414.10 236.60 L 420.10 239.30 L 425.90 242.40 L 431.50 246.00 L 436.80 250.10 L 441.70 254.60 L 446.20 259.40 L 450.30 264.60 L 454.00 270.10 L 457.20 275.90 L 460.00 282.00 L 462.50 288.30 L 464.50 294.90 L 466.10 301.80 L 467.40 309.00 L 468.30 318.00 L 468.70 327.30 L 468.40 337.00 L 467.50 347.10 L 466.00 357.10 L 463.90 367.20 L 461.20 377.60 L 457.80 388.30 L 453.90 398.60 L 449.40 409.10 L 444.30 419.60 L 438.50 430.30 L 432.30 440.60 L 425.50 450.80 L 418.10 460.90 L 410.00 471.00 Z" fill="#110d2e" fill-rule="evenodd" group-id="1,3,4,11" id="椭圆形" node-id="39" stroke="none" target-height="325.69998" target-width="303.6" target-x="165.1" target-y="230.1"></path></g><g node-id="129"><path d="M 609.80 406.20 L 602.90 413.90 L 595.70 421.00 L 588.30 427.60 L 580.60 433.60 L 572.50 439.10 L 564.30 444.10 L 555.90 448.50 L 547.40 452.30 L 538.60 455.60 L 529.80 458.40 L 520.90 460.50 L 512.00 462.10 L 503.00 463.10 L 494.10 463.60 L 485.20 463.40 L 476.40 462.70 L 467.60 461.40 L 459.00 459.50 L 450.60 457.00 L 442.30 453.80 L 435.90 450.90 L 429.70 447.60 L 423.60 443.90 L 417.60 439.80 L 411.80 435.20 L 406.30 430.30 L 401.20 425.10 L 396.50 419.80 L 392.20 414.20 L 388.20 408.40 L 383.70 400.80 L 379.70 392.90 L 376.30 384.80 L 373.50 376.40 L 371.30 367.90 L 369.60 359.20 L 368.50 350.30 L 367.90 341.20 L 368.00 332.20 L 368.50 323.10 L 369.70 313.90 L 371.40 304.70 L 373.70 295.60 L 376.60 286.60 L 380.10 277.60 L 384.10 268.70 L 388.70 260.10 L 393.90 251.60 L 399.60 243.30 L 406.00 235.20 L 412.90 227.50 L 420.10 220.30 L 427.50 213.80 L 435.20 207.80 L 443.30 202.20 L 451.50 197.30 L 459.90 192.90 L 468.50 189.10 L 477.20 185.70 L 486.10 183.00 L 494.90 180.80 L 503.80 179.20 L 512.90 178.20 L 521.80 177.80 L 530.70 177.90 L 539.50 178.60 L 548.20 180.00 L 556.80 181.90 L 565.20 184.40 L 573.50 187.50 L 579.90 190.40 L 586.20 193.80 L 592.30 197.50 L 598.20 201.60 L 604.00 206.20 L 609.50 211.10 L 614.60 216.20 L 619.30 221.60 L 623.70 227.20 L 627.70 233.00 L 632.20 240.60 L 636.10 248.40 L 639.50 256.50 L 642.30 264.90 L 644.60 273.50 L 646.20 282.20 L 647.40 291.10 L 647.90 300.20 L 647.90 309.20 L 647.30 318.30 L 646.10 327.50 L 644.40 336.70 L 642.10 345.80 L 639.20 354.80 L 635.80 363.70 L 631.70 372.70 L 627.10 381.30 L 622.00 389.70 L 616.20 398.00 L 609.80 406.20 Z" fill="#110d2e" fill-rule="evenodd" group-id="1,3,4,12" id="椭圆形备份" node-id="40" stroke="none" target-height="285.8" target-width="280.00003" target-x="367.9" target-y="177.8"></path></g><g node-id="130"><path d="M 787.50 407.90 L 781.60 414.60 L 775.60 420.70 L 769.40 426.40 L 763.00 431.60 L 756.30 436.50 L 749.50 440.90 L 742.60 444.90 L 735.70 448.40 L 728.50 451.60 L 721.40 454.20 L 714.30 456.40 L 707.10 458.10 L 699.90 459.40 L 692.80 460.20 L 685.80 460.50 L 678.80 460.40 L 671.90 459.70 L 665.20 458.60 L 658.70 457.00 L 652.30 454.90 L 646.10 452.20 L 640.20 449.10 L 634.50 445.50 L 629.00 441.30 L 623.90 436.60 L 619.30 431.60 L 615.20 426.30 L 611.50 420.70 L 608.40 414.80 L 605.60 408.60 L 603.30 402.20 L 601.50 395.50 L 600.20 388.70 L 599.20 381.70 L 598.80 374.60 L 598.80 367.20 L 599.30 359.90 L 600.20 352.50 L 601.60 345.00 L 603.40 337.40 L 605.70 330.00 L 608.40 322.50 L 611.60 315.10 L 615.20 307.60 L 619.30 300.40 L 623.80 293.30 L 628.80 286.30 L 634.30 279.40 L 640.10 272.80 L 646.20 266.60 L 652.40 261.00 L 658.80 255.70 L 665.50 250.80 L 672.30 246.40 L 679.10 242.40 L 686.10 238.90 L 693.20 235.80 L 700.40 233.10 L 707.50 230.90 L 714.60 229.20 L 721.90 227.90 L 729.00 227.10 L 736.00 226.80 L 742.90 227.00 L 749.80 227.60 L 756.60 228.70 L 763.10 230.40 L 769.50 232.50 L 775.70 235.10 L 781.60 238.20 L 787.30 241.90 L 792.80 246.10 L 797.90 250.70 L 802.40 255.70 L 806.60 261.00 L 810.20 266.60 L 813.40 272.60 L 816.10 278.70 L 818.40 285.10 L 820.30 291.80 L 821.60 298.60 L 822.50 305.60 L 823.00 312.70 L 823.00 320.10 L 822.50 327.40 L 821.60 334.80 L 820.20 342.30 L 818.40 349.90 L 816.10 357.40 L 813.40 364.80 L 810.20 372.20 L 806.50 379.70 L 802.50 386.90 L 798.00 394.00 L 793.00 401.00 L 787.50 407.90 Z" fill="#110d2e" fill-rule="evenodd" group-id="1,3,4,13" id="椭圆形备份-2" node-id="41" stroke="none" target-height="233.7" target-width="224.20001" target-x="598.8" target-y="226.8"></path></g><path d="M 681.00 449.80 L 683.20 459.80 L 685.90 469.30 L 688.90 478.40 L 692.40 487.10 L 696.40 495.70 L 700.60 503.70 L 705.20 511.10 L 710.00 518.00 L 715.30 524.70 L 720.70 530.70 L 726.30 536.10 L 732.00 540.80 L 737.00 544.30 L 741.90 547.40 L 746.90 549.90 L 751.90 552.00 L 756.90 553.70 L 762.10 555.00 L 767.30 555.70 L 772.50 556.00 L 777.70 555.80 L 782.90 555.00 L 788.10 553.80 L 793.00 552.00 L 797.70 549.80 L 802.20 547.20 L 806.60 544.10 L 810.60 540.60 L 814.40 536.80 L 818.10 532.50 L 821.50 527.90 L 824.80 522.80 L 828.30 516.20 L 831.50 509.20 L 834.30 501.60 L 836.70 493.40 L 838.60 485.20 L 840.00 476.60 L 841.00 467.60 L 841.40 458.10 L 841.40 448.80 L 840.80 439.20 L 839.70 429.30 L 838.00 419.20 L 835.80 409.20 L 833.10 399.70 L 830.10 390.60 L 826.60 381.90 L 822.60 373.30 L 818.40 365.30 L 813.80 357.90 L 809.00 351.00 L 803.70 344.30 L 798.30 338.30 L 792.70 332.90 L 787.00 328.20 L 782.00 324.70 L 777.10 321.60 L 772.10 319.10 L 767.10 317.00 L 762.10 315.30 L 756.90 314.00 L 751.70 313.30 L 746.50 313.00 L 741.30 313.20 L 736.10 314.00 L 730.90 315.20 L 726.00 317.00 L 721.30 319.20 L 716.80 321.80 L 712.40 324.90 L 708.40 328.40 L 704.60 332.20 L 700.90 336.50 L 697.50 341.10 L 694.20 346.20 L 690.70 352.80 L 687.50 359.80 L 684.70 367.40 L 682.30 375.60 L 680.40 383.80 L 679.00 392.40 L 678.00 401.40 L 677.60 410.90 L 677.60 420.20 L 678.20 429.80 L 679.30 439.70 L 681.00 449.80 Z" fill="#110d2e" fill-rule="evenodd" group-id="1,3,4,14" id="椭圆形备份-3" node-id="42" stroke="none" target-height="243" target-width="163.80005" target-x="677.6" target-y="313"></path></g></g></g></svg>
