<?xml version="1.0" standalone="no"?><!DOCTYPE svg PUBLIC "-//W3C//DTD SVG 1.1//EN" "http://www.w3.org/Graphics/SVG/1.1/DTD/svg11.dtd"><svg height="1024" node-id="1" sillyvg="true" template-height="1024" template-width="1024" version="1.1" viewBox="0 0 1024 1024" width="1024" xmlns="http://www.w3.org/2000/svg" xmlns:xlink="http://www.w3.org/1999/xlink"><defs node-id="52"><mask height="837.6001" id="mask-2" maskUnits="userSpaceOnUse" node-id="11" width="1563.5996" x="4359.7" y="-130.04346"><path d="M 4836.00 800.80 L 4852.30 800.50 L 4868.50 799.70 L 4884.60 798.40 L 4900.70 796.70 L 4916.60 794.40 L 4932.40 791.60 L 4948.20 788.30 L 4963.70 784.60 L 4979.20 780.30 L 4994.40 775.60 L 5009.60 770.40 L 5024.50 764.80 L 5039.30 758.70 L 5053.80 752.10 L 5068.20 745.10 L 5082.40 737.60 L 5096.30 729.70 L 5109.90 721.30 L 5123.40 712.50 L 5136.60 703.30 L 5149.40 693.60 L 5162.00 683.60 L 5174.30 673.10 L 5186.30 662.20 L 5198.00 650.80 L 5209.40 639.10 L 5220.30 627.10 L 5230.80 614.80 L 5240.90 602.20 L 5250.50 589.30 L 5259.80 576.10 L 5268.60 562.70 L 5276.90 549.00 L 5284.80 535.10 L 5292.30 521.00 L 5299.30 506.60 L 5305.90 492.00 L 5312.00 477.30 L 5317.70 462.30 L 5322.90 447.20 L 5327.60 431.90 L 5331.80 416.50 L 5335.60 400.90 L 5338.80 385.20 L 5341.60 369.30 L 5343.90 353.40 L 5345.70 337.40 L 5347.00 321.30 L 5347.70 305.10 L 5348.00 288.80 L 5347.70 272.40 L 5347.00 256.20 L 5345.70 240.10 L 5343.90 224.10 L 5341.60 208.20 L 5338.80 192.30 L 5335.60 176.60 L 5331.80 161.00 L 5327.60 145.60 L 5322.90 130.30 L 5317.70 115.20 L 5312.00 100.20 L 5305.90 85.50 L 5299.30 70.90 L 5292.30 56.50 L 5284.80 42.40 L 5276.90 28.50 L 5268.60 14.80 L 5259.80 1.40 L 5250.50 -11.80 L 5240.90 -24.70 L 5230.80 -37.30 L 5220.30 -49.50 L 5209.40 -61.60 L 5198.00 -73.30 L 5186.30 -84.60 L 5174.30 -95.60 L 5162.00 -106.00 L 5149.40 -116.10 L 5136.60 -125.70 L 5123.40 -135.00 L 5109.90 -143.80 L 5096.30 -152.20 L 5082.40 -160.10 L 5068.20 -167.50 L 5053.80 -174.60 L 5039.30 -181.20 L 5024.50 -187.30 L 5009.60 -192.90 L 4994.40 -198.10 L 4979.20 -202.80 L 4963.70 -207.10 L 4948.20 -210.80 L 4932.40 -214.10 L 4916.60 -216.90 L 4900.70 -219.10 L 4884.60 -220.90 L 4868.50 -222.20 L 4852.30 -223.00 L 4836.00 -223.20 L 4819.70 -223.00 L 4803.50 -222.20 L 4787.40 -220.90 L 4771.30 -219.10 L 4755.40 -216.90 L 4739.60 -214.10 L 4723.80 -210.80 L 4708.30 -207.10 L 4692.80 -202.80 L 4677.60 -198.10 L 4662.40 -192.90 L 4647.50 -187.30 L 4632.70 -181.20 L 4618.20 -174.60 L 4603.80 -167.50 L 4589.60 -160.10 L 4575.70 -152.20 L 4562.10 -143.80 L 4548.60 -135.00 L 4535.40 -125.70 L 4522.60 -116.10 L 4510.00 -106.00 L 4497.70 -95.60 L 4485.70 -84.60 L 4474.00 -73.30 L 4462.60 -61.60 L 4451.70 -49.50 L 4441.20 -37.30 L 4431.10 -24.70 L 4421.50 -11.80 L 4412.20 1.40 L 4403.40 14.80 L 4395.10 28.50 L 4387.20 42.40 L 4379.70 56.50 L 4372.70 70.90 L 4366.10 85.50 L 4360.00 100.20 L 4354.30 115.20 L 4349.10 130.30 L 4344.40 145.60 L 4340.20 161.00 L 4336.40 176.60 L 4333.20 192.30 L 4330.40 208.20 L 4328.10 224.10 L 4326.30 240.10 L 4325.00 256.20 L 4324.30 272.40 L 4324.00 288.80 L 4324.30 305.10 L 4325.00 321.30 L 4326.30 337.40 L 4328.10 353.40 L 4330.40 369.30 L 4333.20 385.20 L 4336.40 400.90 L 4340.20 416.50 L 4344.40 431.90 L 4349.10 447.20 L 4354.30 462.30 L 4360.00 477.30 L 4366.10 492.00 L 4372.70 506.60 L 4379.70 521.00 L 4387.20 535.10 L 4395.10 549.00 L 4403.40 562.70 L 4412.20 576.10 L 4421.50 589.30 L 4431.10 602.20 L 4441.20 614.80 L 4451.70 627.10 L 4462.60 639.10 L 4474.00 650.80 L 4485.70 662.20 L 4497.70 673.10 L 4510.00 683.60 L 4522.60 693.60 L 4535.40 703.30 L 4548.60 712.50 L 4562.10 721.30 L 4575.70 729.70 L 4589.60 737.60 L 4603.80 745.10 L 4618.20 752.10 L 4632.70 758.70 L 4647.50 764.80 L 4662.40 770.40 L 4677.60 775.60 L 4692.80 780.30 L 4708.30 784.60 L 4723.80 788.30 L 4739.60 791.60 L 4755.40 794.40 L 4771.30 796.70 L 4787.40 798.40 L 4803.50 799.70 L 4819.70 800.50 L 4836.00 800.80 Z" fill="#ffffff" fill-rule="evenodd" node-id="57" stroke="none" target-height="1024" target-width="1024" target-x="4324" target-y="-223.2"></path></mask><mask height="112.8" id="mask-4" maskUnits="userSpaceOnUse" node-id="23" width="189.6" x="-47.8" y="-51.4"><path d="M 0.00 0.00 L 94.00 0.00 L 94.00 133.00 L 0.00 133.00 Z" fill="#ffffff" fill-rule="evenodd" node-id="64" stroke="none" target-height="133" target-width="94" target-x="0" target-y="0"></path></mask><mask height="85.15468" id="mask-6" maskUnits="userSpaceOnUse" node-id="44" width="112.80002" x="212.6" y="-14.05846"><path d="M 613.00 344.00 L 612.70 355.20 L 611.80 366.20 L 610.40 377.00 L 608.50 387.70 L 606.00 398.20 L 603.00 408.60 L 599.50 418.90 L 595.50 429.00 L 591.00 438.90 L 586.00 448.70 L 580.50 458.20 L 574.70 467.50 L 568.30 476.70 L 561.50 485.60 L 554.30 494.40 L 546.70 502.80 L 538.70 511.00 L 530.30 519.00 L 521.50 526.70 L 512.20 534.20 L 502.80 541.30 L 493.00 548.20 L 482.80 554.70 L 472.30 561.00 L 461.30 567.10 L 450.30 572.70 L 438.90 577.90 L 427.30 582.90 L 415.20 587.50 L 402.90 591.90 L 390.50 595.70 L 377.90 599.20 L 365.00 602.40 L 351.80 605.10 L 338.30 607.50 L 324.90 609.50 L 311.30 611.00 L 297.40 612.10 L 283.30 612.80 L 269.00 613.00 L 254.70 612.80 L 240.60 612.10 L 226.70 611.00 L 213.10 609.50 L 199.70 607.50 L 186.20 605.10 L 173.00 602.40 L 160.10 599.20 L 147.50 595.70 L 135.10 591.90 L 122.80 587.50 L 110.70 582.90 L 99.10 577.90 L 87.70 572.70 L 76.70 567.10 L 65.70 561.00 L 55.20 554.70 L 45.00 548.20 L 35.20 541.30 L 25.80 534.20 L 16.50 526.70 L 7.70 519.00 L -0.70 511.00 L -8.70 502.80 L -16.30 494.40 L -23.50 485.60 L -30.30 476.70 L -36.70 467.50 L -42.50 458.20 L -48.00 448.70 L -53.00 438.90 L -57.50 429.00 L -61.50 418.90 L -65.00 408.60 L -68.00 398.20 L -70.50 387.70 L -72.40 377.00 L -73.80 366.20 L -74.70 355.20 L -75.00 344.00 L -74.70 332.80 L -73.80 321.80 L -72.40 311.00 L -70.50 300.30 L -68.00 289.80 L -65.00 279.40 L -61.50 269.10 L -57.50 259.00 L -53.00 249.10 L -48.00 239.30 L -42.50 229.80 L -36.70 220.50 L -30.30 211.30 L -23.50 202.40 L -16.30 193.60 L -8.70 185.20 L -0.70 177.00 L 7.70 169.00 L 16.50 161.30 L 25.80 153.80 L 35.20 146.70 L 45.00 139.80 L 55.20 133.30 L 65.70 127.00 L 76.70 120.90 L 87.70 115.30 L 99.10 110.10 L 110.70 105.10 L 122.80 100.50 L 135.10 96.10 L 147.50 92.30 L 160.10 88.80 L 173.00 85.60 L 186.20 82.90 L 199.70 80.50 L 213.10 78.50 L 226.70 77.00 L 240.60 75.90 L 254.70 75.20 L 269.00 75.00 L 283.30 75.20 L 297.40 75.90 L 311.30 77.00 L 324.90 78.50 L 338.30 80.50 L 351.80 82.90 L 365.00 85.60 L 377.90 88.80 L 390.50 92.30 L 402.90 96.10 L 415.20 100.50 L 427.30 105.10 L 438.90 110.10 L 450.30 115.30 L 461.30 120.90 L 472.30 127.00 L 482.80 133.30 L 493.00 139.80 L 502.80 146.70 L 512.20 153.80 L 521.50 161.30 L 530.30 169.00 L 538.70 177.00 L 546.70 185.20 L 554.30 193.60 L 561.50 202.40 L 568.30 211.30 L 574.70 220.50 L 580.50 229.80 L 586.00 239.30 L 591.00 249.10 L 595.50 259.00 L 599.50 269.10 L 603.00 279.40 L 606.00 289.80 L 608.50 300.30 L 610.40 311.00 L 611.80 321.80 L 612.70 332.80 L 613.00 344.00 Z" fill="#ffffff" fill-rule="evenodd" node-id="71" stroke="none" target-height="538" target-width="688" target-x="-75" target-y="75"></path></mask></defs><path d="M 0.00 0.00 L 1024.00 0.00 L 1024.00 1024.00 L 0.00 1024.00 Z" fill="#ffffff" fill-rule="evenodd" node-id="77" stroke="none" target-height="1024" target-width="1024" target-x="0" target-y="0"></path><g node-id="139"><g node-id="140"><path d="M 1024.00 512.00 L 1023.70 528.30 L 1023.00 544.50 L 1021.70 560.60 L 1019.90 576.70 L 1017.60 592.60 L 1014.80 608.40 L 1011.60 624.20 L 1007.80 639.70 L 1003.60 655.20 L 998.90 670.40 L 993.70 685.60 L 988.00 700.50 L 981.90 715.30 L 975.30 729.80 L 968.30 744.20 L 960.80 758.40 L 952.90 772.30 L 944.60 785.90 L 935.80 799.40 L 926.50 812.60 L 916.90 825.40 L 906.80 838.00 L 896.30 850.30 L 885.40 862.30 L 874.00 874.00 L 862.30 885.40 L 850.30 896.30 L 838.00 906.80 L 825.40 916.90 L 812.60 926.50 L 799.40 935.80 L 785.90 944.60 L 772.30 952.90 L 758.40 960.80 L 744.20 968.30 L 729.80 975.30 L 715.30 981.90 L 700.50 988.00 L 685.60 993.70 L 670.40 998.90 L 655.20 1003.60 L 639.70 1007.80 L 624.20 1011.60 L 608.40 1014.80 L 592.60 1017.60 L 576.70 1019.90 L 560.60 1021.70 L 544.50 1023.00 L 528.30 1023.70 L 512.00 1024.00 L 495.70 1023.70 L 479.50 1023.00 L 463.40 1021.70 L 447.30 1019.90 L 431.40 1017.60 L 415.60 1014.80 L 399.80 1011.60 L 384.30 1007.80 L 368.80 1003.60 L 353.60 998.90 L 338.40 993.70 L 323.50 988.00 L 308.70 981.90 L 294.20 975.30 L 279.80 968.30 L 265.60 960.80 L 251.70 952.90 L 238.10 944.60 L 224.60 935.80 L 211.40 926.50 L 198.60 916.90 L 186.00 906.80 L 173.70 896.30 L 161.70 885.40 L 150.00 874.00 L 138.60 862.30 L 127.70 850.30 L 117.20 838.00 L 107.10 825.40 L 97.50 812.60 L 88.20 799.40 L 79.40 785.90 L 71.10 772.30 L 63.20 758.40 L 55.70 744.20 L 48.70 729.80 L 42.10 715.30 L 36.00 700.50 L 30.30 685.60 L 25.10 670.40 L 20.40 655.20 L 16.20 639.70 L 12.40 624.20 L 9.20 608.40 L 6.40 592.60 L 4.10 576.70 L 2.30 560.60 L 1.00 544.50 L 0.30 528.30 L 0.00 512.00 L 0.30 495.70 L 1.00 479.50 L 2.30 463.40 L 4.10 447.30 L 6.40 431.40 L 9.20 415.60 L 12.40 399.80 L 16.20 384.30 L 20.40 368.80 L 25.10 353.60 L 30.30 338.40 L 36.00 323.50 L 42.10 308.70 L 48.70 294.20 L 55.70 279.80 L 63.20 265.60 L 71.10 251.70 L 79.40 238.10 L 88.20 224.60 L 97.50 211.40 L 107.10 198.60 L 117.20 186.00 L 127.70 173.70 L 138.60 161.70 L 150.00 150.00 L 161.70 138.60 L 173.70 127.70 L 186.00 117.20 L 198.60 107.10 L 211.40 97.50 L 224.60 88.20 L 238.10 79.40 L 251.70 71.10 L 265.60 63.20 L 279.80 55.70 L 294.20 48.70 L 308.70 42.10 L 323.50 36.00 L 338.40 30.30 L 353.60 25.10 L 368.80 20.40 L 384.30 16.20 L 399.80 12.40 L 415.60 9.20 L 431.40 6.40 L 447.30 4.10 L 463.40 2.30 L 479.50 1.00 L 495.70 0.30 L 512.00 0.00 L 528.30 0.30 L 544.50 1.00 L 560.60 2.30 L 576.70 4.10 L 592.60 6.40 L 608.40 9.20 L 624.20 12.40 L 639.70 16.20 L 655.20 20.40 L 670.40 25.10 L 685.60 30.30 L 700.50 36.00 L 715.30 42.10 L 729.80 48.70 L 744.20 55.70 L 758.40 63.20 L 772.30 71.10 L 785.90 79.40 L 799.40 88.20 L 812.60 97.50 L 825.40 107.10 L 838.00 117.20 L 850.30 127.70 L 862.30 138.60 L 874.00 150.00 L 885.40 161.70 L 896.30 173.70 L 906.80 186.00 L 916.90 198.60 L 926.50 211.40 L 935.80 224.60 L 944.60 238.10 L 952.90 251.70 L 960.80 265.60 L 968.30 279.80 L 975.30 294.20 L 981.90 308.70 L 988.00 323.50 L 993.70 338.40 L 998.90 353.60 L 1003.60 368.80 L 1007.80 384.30 L 1011.60 399.80 L 1014.80 415.60 L 1017.60 431.40 L 1019.90 447.30 L 1021.70 463.40 L 1023.00 479.50 L 1023.70 495.70 L 1024.00 512.00 Z" fill="#cc5553" fill-opacity="0.2" fill-rule="evenodd" group-id="1,2" node-id="81" stroke="none" target-height="1024" target-width="1024" target-x="0" target-y="0"></path></g><g node-id="141"><g node-id="142"><path d="M 322.00 487.50 L 321.70 494.10 L 320.90 500.50 L 319.70 506.60 L 317.90 512.60 L 315.70 518.50 L 313.10 524.10 L 310.10 529.40 L 306.70 534.50 L 302.80 539.30 L 298.70 543.70 L 294.30 547.80 L 289.50 551.70 L 284.40 555.10 L 279.10 558.10 L 273.50 560.70 L 267.60 562.90 L 261.60 564.70 L 255.50 565.90 L 249.10 566.70 L 242.50 567.00 L 235.90 566.70 L 229.50 565.90 L 223.40 564.70 L 217.40 562.90 L 211.50 560.70 L 205.90 558.10 L 200.60 555.10 L 195.50 551.70 L 190.70 547.80 L 186.30 543.70 L 182.20 539.30 L 178.30 534.50 L 174.90 529.40 L 171.90 524.10 L 169.30 518.50 L 167.10 512.60 L 165.30 506.60 L 164.10 500.50 L 163.30 494.10 L 163.00 487.50 L 163.30 480.90 L 164.10 474.50 L 165.30 468.40 L 167.10 462.40 L 169.30 456.50 L 171.90 450.90 L 174.90 445.60 L 178.30 440.50 L 182.20 435.70 L 186.30 431.30 L 190.70 427.20 L 195.50 423.30 L 200.60 419.90 L 205.90 416.90 L 211.50 414.30 L 217.40 412.10 L 223.40 410.30 L 229.50 409.10 L 235.90 408.30 L 242.50 408.00 L 249.10 408.30 L 255.50 409.10 L 261.60 410.30 L 267.60 412.10 L 273.50 414.30 L 279.10 416.90 L 284.40 419.90 L 289.50 423.30 L 294.30 427.20 L 298.70 431.30 L 302.80 435.70 L 306.70 440.50 L 310.10 445.60 L 313.10 450.90 L 315.70 456.50 L 317.90 462.40 L 319.70 468.40 L 320.90 474.50 L 321.70 480.90 L 322.00 487.50 Z" fill="#110d2e" fill-rule="evenodd" group-id="1,3,4" id="椭圆形备份-8" node-id="16" stroke="none" target-height="159" target-width="159" target-x="163" target-y="408"></path><path d="M 861.00 487.50 L 860.70 494.10 L 859.90 500.50 L 858.70 506.60 L 856.90 512.60 L 854.70 518.50 L 852.10 524.10 L 849.10 529.40 L 845.70 534.50 L 841.80 539.30 L 837.70 543.70 L 833.30 547.80 L 828.50 551.70 L 823.40 555.10 L 818.10 558.10 L 812.50 560.70 L 806.60 562.90 L 800.60 564.70 L 794.50 565.90 L 788.10 566.70 L 781.50 567.00 L 774.90 566.70 L 768.50 565.90 L 762.40 564.70 L 756.40 562.90 L 750.50 560.70 L 744.90 558.10 L 739.60 555.10 L 734.50 551.70 L 729.70 547.80 L 725.30 543.70 L 721.20 539.30 L 717.30 534.50 L 713.90 529.40 L 710.90 524.10 L 708.30 518.50 L 706.10 512.60 L 704.30 506.60 L 703.10 500.50 L 702.30 494.10 L 702.00 487.50 L 702.30 480.90 L 703.10 474.50 L 704.30 468.40 L 706.10 462.40 L 708.30 456.50 L 710.90 450.90 L 713.90 445.60 L 717.30 440.50 L 721.20 435.70 L 725.30 431.30 L 729.70 427.20 L 734.50 423.30 L 739.60 419.90 L 744.90 416.90 L 750.50 414.30 L 756.40 412.10 L 762.40 410.30 L 768.50 409.10 L 774.90 408.30 L 781.50 408.00 L 788.10 408.30 L 794.50 409.10 L 800.60 410.30 L 806.60 412.10 L 812.50 414.30 L 818.10 416.90 L 823.40 419.90 L 828.50 423.30 L 833.30 427.20 L 837.70 431.30 L 841.80 435.70 L 845.70 440.50 L 849.10 445.60 L 852.10 450.90 L 854.70 456.50 L 856.90 462.40 L 858.70 468.40 L 859.90 474.50 L 860.70 480.90 L 861.00 487.50 Z" fill="#110d2e" fill-rule="evenodd" group-id="1,3,4" id="椭圆形备份-9" node-id="17" stroke="none" target-height="159" target-width="159" target-x="702" target-y="408"></path><path d="M 275.40 629.80 L 278.60 628.00 L 281.30 625.90 L 283.70 623.50 L 285.70 620.80 L 287.40 617.90 L 288.70 614.70 L 289.70 611.30 L 290.30 607.70 L 290.30 600.30 L 288.80 592.30 L 285.90 584.40 L 281.30 576.30 L 277.50 571.30 L 273.30 566.80 L 268.80 562.80 L 263.90 559.20 L 258.90 556.30 L 253.80 554.00 L 245.90 551.70 L 238.30 550.80 L 234.40 551.00 L 230.80 551.50 L 227.30 552.50 L 223.90 553.90 L 220.80 555.70 L 218.10 557.80 L 215.70 560.20 L 213.70 562.90 L 212.00 565.90 L 210.70 569.00 L 209.70 572.40 L 209.10 576.00 L 209.10 583.40 L 210.60 591.40 L 213.50 599.30 L 218.10 607.40 L 221.90 612.50 L 226.10 617.00 L 230.60 621.00 L 235.50 624.50 L 240.50 627.40 L 245.60 629.70 L 253.50 632.00 L 261.10 632.90 L 265.00 632.70 L 268.60 632.20 L 272.10 631.20 L 275.40 629.80 Z" fill="#fbb4b4" fill-rule="evenodd" group-id="1,3,4" id="椭圆形备份-4" node-id="18" stroke="none" target-height="82.10004" target-width="81.19998" target-x="209.1" target-y="550.8"></path><path d="M 747.90 629.80 L 744.80 628.00 L 742.10 625.90 L 739.70 623.50 L 737.70 620.80 L 736.00 617.90 L 734.70 614.70 L 733.70 611.30 L 733.10 607.70 L 733.10 600.30 L 734.60 592.30 L 737.50 584.40 L 742.10 576.30 L 745.90 571.30 L 750.10 566.80 L 754.60 562.80 L 759.50 559.20 L 764.50 556.30 L 769.60 554.00 L 777.50 551.70 L 785.10 550.80 L 789.00 551.00 L 792.60 551.50 L 796.10 552.50 L 799.40 553.90 L 802.60 555.70 L 805.30 557.80 L 807.70 560.20 L 809.70 562.90 L 811.40 565.90 L 812.70 569.00 L 813.70 572.40 L 814.30 576.00 L 814.30 583.40 L 812.80 591.40 L 809.90 599.30 L 805.30 607.40 L 801.50 612.50 L 797.30 617.00 L 792.80 621.00 L 787.90 624.50 L 782.90 627.40 L 777.80 629.70 L 769.90 632.00 L 762.30 632.90 L 758.40 632.70 L 754.80 632.20 L 751.30 631.20 L 747.90 629.80 Z" fill="#fbb4b4" fill-rule="evenodd" group-id="1,3,4" id="椭圆形备份-12" node-id="19" stroke="none" target-height="82.10004" target-width="81.20001" target-x="733.1" target-y="550.8"></path><g node-id="143"><path d="M 379.50 953.50 L 353.50 1039.60" fill="none" group-id="1,3,4,5" id="路径-6" node-id="20" stroke="#000000" stroke-linecap="round" stroke-opacity="0.10692633" stroke-width="7" target-height="86.099976" target-width="26" target-x="353.5" target-y="953.5"></path></g><g node-id="144"><path d="M 644.50 953.50 L 670.50 1039.60" fill="none" group-id="1,3,4,6" id="路径-6备份" node-id="21" stroke="#000000" stroke-linecap="round" stroke-opacity="0.10692633" stroke-width="7" target-height="86.099976" target-width="26" target-x="644.5" target-y="953.5"></path></g><g node-id="145"><g node-id="150"><path d="M 465.00 712.00 L 559.00 712.00 L 559.00 845.00 L 465.00 845.00 Z" fill="#ffcaca" fill-rule="evenodd" group-id="1,3,4,7,12" node-id="101" stroke="none" target-height="133" target-width="94" target-x="465" target-y="712"></path></g><path d="M 591.00 717.00 L 590.70 720.90 L 590.00 724.60 L 588.70 728.30 L 587.00 731.90 L 584.80 735.20 L 579.30 741.70 L 575.80 744.80 L 570.80 748.40 L 565.10 751.80 L 558.70 754.90 L 552.00 757.50 L 544.80 759.80 L 537.00 761.60 L 529.10 762.90 L 520.70 763.70 L 512.00 764.00 L 503.30 763.70 L 494.90 762.90 L 487.00 761.60 L 479.20 759.80 L 472.00 757.50 L 465.30 754.90 L 458.90 751.80 L 453.20 748.40 L 448.20 744.80 L 444.70 741.70 L 441.70 738.50 L 439.20 735.20 L 437.00 731.90 L 435.30 728.30 L 434.00 724.60 L 433.30 720.90 L 433.00 717.00 L 433.30 713.10 L 434.00 709.40 L 435.30 705.70 L 437.00 702.10 L 439.20 698.80 L 441.70 695.50 L 444.70 692.30 L 448.20 689.20 L 453.20 685.60 L 458.90 682.20 L 465.30 679.10 L 472.00 676.50 L 479.20 674.20 L 487.00 672.40 L 494.90 671.10 L 503.30 670.30 L 512.00 670.00 L 520.70 670.30 L 529.10 671.10 L 537.00 672.40 L 544.80 674.20 L 552.00 676.50 L 558.70 679.10 L 565.10 682.20 L 570.80 685.60 L 575.80 689.20 L 579.30 692.30 L 584.80 698.80 L 587.00 702.10 L 588.70 705.70 L 590.00 709.40 L 590.70 713.10 L 591.00 717.00 Z" fill="#ec8484" fill-opacity="0.21490623" fill-rule="evenodd" group-id="1,3,4,7,13" node-id="106" stroke="none" target-height="94" target-width="158" target-x="433" target-y="670"></path></g><path d="M 767.00 524.00 L 766.70 534.70 L 765.90 545.20 L 764.50 555.50 L 762.70 565.60 L 760.30 575.60 L 757.40 585.50 L 754.00 595.10 L 750.20 604.60 L 745.90 613.90 L 741.10 622.90 L 735.90 631.80 L 730.30 640.40 L 724.30 648.70 L 717.80 656.80 L 711.00 664.70 L 703.80 672.30 L 696.30 679.50 L 688.40 686.50 L 680.10 693.20 L 671.50 699.60 L 662.60 705.60 L 653.50 711.20 L 644.00 716.50 L 634.30 721.50 L 624.10 726.10 L 613.90 730.30 L 603.50 734.10 L 592.70 737.50 L 581.70 740.50 L 570.50 743.10 L 559.20 745.20 L 547.70 746.80 L 536.00 748.00 L 524.10 748.70 L 512.00 749.00 L 499.90 748.70 L 488.00 748.00 L 476.30 746.80 L 464.80 745.20 L 453.50 743.10 L 442.30 740.50 L 431.30 737.50 L 420.50 734.10 L 410.10 730.30 L 399.90 726.10 L 389.70 721.50 L 380.00 716.50 L 370.50 711.20 L 361.40 705.60 L 352.50 699.60 L 343.90 693.20 L 335.60 686.50 L 327.70 679.50 L 320.20 672.30 L 313.00 664.70 L 306.20 656.80 L 299.70 648.70 L 293.70 640.40 L 288.10 631.80 L 282.90 622.90 L 278.10 613.90 L 273.80 604.60 L 270.00 595.10 L 266.60 585.50 L 263.70 575.60 L 261.30 565.60 L 259.50 555.50 L 258.10 545.20 L 257.30 534.70 L 257.00 524.00 L 257.30 513.30 L 258.10 502.80 L 259.50 492.50 L 261.30 482.40 L 263.70 472.40 L 266.60 462.50 L 270.00 452.90 L 273.80 443.40 L 278.10 434.10 L 282.90 425.10 L 288.10 416.20 L 293.70 407.60 L 299.70 399.30 L 306.20 391.20 L 313.00 383.30 L 320.20 375.70 L 327.70 368.50 L 335.60 361.50 L 343.90 354.80 L 352.50 348.40 L 361.40 342.40 L 370.50 336.80 L 380.00 331.50 L 389.70 326.50 L 399.90 321.90 L 410.10 317.70 L 420.50 313.90 L 431.30 310.50 L 442.30 307.50 L 453.50 304.90 L 464.80 302.80 L 476.30 301.20 L 488.00 300.00 L 499.90 299.30 L 512.00 299.00 L 524.10 299.30 L 536.00 300.00 L 547.70 301.20 L 559.20 302.80 L 570.50 304.90 L 581.70 307.50 L 592.70 310.50 L 603.50 313.90 L 613.90 317.70 L 624.10 321.90 L 634.30 326.50 L 644.00 331.50 L 653.50 336.80 L 662.60 342.40 L 671.50 348.40 L 680.10 354.80 L 688.40 361.50 L 696.30 368.50 L 703.80 375.70 L 711.00 383.30 L 717.80 391.20 L 724.30 399.30 L 730.30 407.60 L 735.90 416.20 L 741.10 425.10 L 745.90 434.10 L 750.20 443.40 L 754.00 452.90 L 757.40 462.50 L 760.30 472.40 L 762.70 482.40 L 764.50 492.50 L 765.90 502.80 L 766.70 513.30 L 767.00 524.00 Z" fill="#ffcaca" fill-rule="evenodd" group-id="1,3,4" id="椭圆形" node-id="27" stroke="none" target-height="450" target-width="510" target-x="257" target-y="299"></path><path d="M 502.00 594.00 L 502.00 620.00 L 502.20 622.60 L 502.90 624.90 L 503.90 627.10 L 505.30 629.00 L 507.00 630.70 L 508.90 632.10 L 511.10 633.10 L 513.40 633.80 L 516.00 634.00 L 522.80 634.00" fill="none" group-id="1,3,4" id="路径-5备份" node-id="28" stroke="#ff9494" stroke-linecap="round" stroke-width="8" target-height="40" target-width="20.799988" target-x="502" target-y="594"></path><path d="M 434.00 567.00 L 433.70 570.50 L 432.80 573.60 L 431.40 576.60 L 429.50 579.30 L 427.30 581.50 L 424.60 583.40 L 421.60 584.80 L 418.50 585.70 L 415.00 586.00 L 411.50 585.70 L 408.40 584.80 L 405.40 583.40 L 402.70 581.50 L 400.50 579.30 L 398.60 576.60 L 397.20 573.60 L 396.30 570.50 L 396.00 567.00 L 396.30 563.50 L 397.20 560.40 L 398.60 557.40 L 400.50 554.70 L 402.70 552.50 L 405.40 550.60 L 408.40 549.20 L 411.50 548.30 L 415.00 548.00 L 418.50 548.30 L 421.60 549.20 L 424.60 550.60 L 427.30 552.50 L 429.50 554.70 L 431.40 557.40 L 432.80 560.40 L 433.70 563.50 L 434.00 567.00 Z" fill="#110d2e" fill-rule="evenodd" group-id="1,3,4" id="椭圆形" node-id="29" stroke="none" target-height="38" target-width="38" target-x="396" target-y="548"></path><path d="M 628.00 567.00 L 627.70 570.50 L 626.80 573.60 L 625.40 576.60 L 623.50 579.30 L 621.30 581.50 L 618.60 583.40 L 615.60 584.80 L 612.50 585.70 L 609.00 586.00 L 605.50 585.70 L 602.40 584.80 L 599.40 583.40 L 596.70 581.50 L 594.50 579.30 L 592.60 576.60 L 591.20 573.60 L 590.30 570.50 L 590.00 567.00 L 590.30 563.50 L 591.20 560.40 L 592.60 557.40 L 594.50 554.70 L 596.70 552.50 L 599.40 550.60 L 602.40 549.20 L 605.50 548.30 L 609.00 548.00 L 612.50 548.30 L 615.60 549.20 L 618.60 550.60 L 621.30 552.50 L 623.50 554.70 L 625.40 557.40 L 626.80 560.40 L 627.70 563.50 L 628.00 567.00 Z" fill="#110d2e" fill-rule="evenodd" group-id="1,3,4" id="椭圆形备份-7" node-id="30" stroke="none" target-height="38" target-width="38" target-x="590" target-y="548"></path><path d="M 469.00 680.50 L 481.50 685.60 L 487.30 687.40 L 493.30 688.70 L 499.30 689.60 L 505.40 690.00 L 511.50 690.00 L 517.50 689.60 L 523.50 688.60 L 529.50 687.30 L 535.30 685.50 L 541.00 683.20 L 546.60 680.50" fill="none" group-id="1,3,4" id="路径-35" node-id="31" stroke="#ec8484" stroke-linecap="round" stroke-width="10" target-height="9.5" target-width="77.599976" target-x="469" target-y="680.5"></path><path d="M 380.00 519.60 L 391.00 517.00 L 400.30 515.20 L 408.10 514.30 L 414.50 514.00 L 420.90 514.30 L 428.70 515.20 L 438.30 516.90 L 449.80 519.60" fill="none" group-id="1,3,4" id="路径-4备份" node-id="32" stroke="#110d2e" stroke-linecap="round" stroke-width="6" target-height="5.5999756" target-width="69.79999" target-x="380" target-y="514"></path><g node-id="146"><path d="M 643.80 519.60 L 632.70 517.00 L 623.40 515.20 L 615.70 514.30 L 609.30 514.00 L 602.90 514.30 L 595.00 515.20 L 585.50 516.90 L 574.00 519.60" fill="none" group-id="1,3,4,8" id="路径-4备份-2" node-id="33" stroke="#110d2e" stroke-linecap="round" stroke-width="6" target-height="5.5999756" target-width="69.79999" target-x="574" target-y="514"></path></g><g node-id="147"><path d="M 379.50 953.50 L 353.50 1039.60" fill="none" group-id="1,3,4,9" id="路径-6" node-id="34" stroke="#000000" stroke-linecap="round" stroke-opacity="0.10692633" stroke-width="7" target-height="86.099976" target-width="26" target-x="353.5" target-y="953.5"></path></g><g node-id="148"><path d="M 644.50 953.50 L 670.50 1039.60" fill="none" group-id="1,3,4,10" id="路径-6备份" node-id="35" stroke="#000000" stroke-linecap="round" stroke-opacity="0.10692633" stroke-width="7" target-height="86.099976" target-width="26" target-x="644.5" target-y="953.5"></path></g><path d="M 528.00 266.00 L 527.80 272.70 L 527.10 279.10 L 526.10 285.50 L 524.70 291.60 L 522.90 297.60 L 520.10 305.00 L 516.80 312.00 L 513.00 318.70 L 508.70 325.10 L 503.90 331.10 L 498.70 336.70 L 493.10 341.90 L 487.10 346.70 L 480.70 351.00 L 474.00 354.80 L 467.00 358.10 L 459.60 360.90 L 453.60 362.70 L 447.50 364.10 L 441.10 365.10 L 434.70 365.80 L 428.00 366.00 L 421.30 365.80 L 414.90 365.10 L 408.50 364.10 L 402.40 362.70 L 396.40 360.90 L 389.00 358.10 L 382.00 354.80 L 375.30 351.00 L 368.90 346.70 L 362.90 341.90 L 357.30 336.70 L 352.10 331.10 L 347.30 325.10 L 343.00 318.70 L 339.20 312.00 L 335.90 305.00 L 333.10 297.60 L 331.30 291.60 L 329.90 285.50 L 328.90 279.10 L 328.20 272.70 L 328.00 266.00 L 328.20 259.30 L 328.90 252.90 L 329.90 246.50 L 331.30 240.40 L 333.10 234.40 L 335.90 227.00 L 339.20 220.00 L 343.00 213.30 L 347.30 206.90 L 352.10 200.90 L 357.30 195.30 L 362.90 190.10 L 368.90 185.30 L 375.30 181.00 L 382.00 177.20 L 389.00 173.90 L 396.40 171.10 L 402.40 169.30 L 408.50 167.90 L 414.90 166.90 L 421.30 166.20 L 428.00 166.00 L 434.70 166.20 L 441.10 166.90 L 447.50 167.90 L 453.60 169.30 L 459.60 171.10 L 467.00 173.90 L 474.00 177.20 L 480.70 181.00 L 487.10 185.30 L 493.10 190.10 L 498.70 195.30 L 503.90 200.90 L 508.70 206.90 L 513.00 213.30 L 516.80 220.00 L 520.10 227.00 L 522.90 234.40 L 524.70 240.40 L 526.10 246.50 L 527.10 252.90 L 527.80 259.30 L 528.00 266.00 Z" fill="#110d2e" fill-rule="evenodd" group-id="1,3,4" id="椭圆形" node-id="36" stroke="none" target-height="200" target-width="200" target-x="328" target-y="166"></path><path d="M 384.90 315.80 L 384.60 323.50 L 383.70 330.80 L 382.20 338.00 L 380.20 344.90 L 377.70 351.60 L 374.70 358.10 L 371.20 364.20 L 367.20 370.10 L 362.80 375.60 L 358.00 380.80 L 352.90 385.60 L 347.30 390.00 L 341.50 393.90 L 335.30 397.40 L 328.90 400.40 L 322.10 403.00 L 315.20 405.00 L 308.10 406.50 L 300.70 407.40 L 293.10 407.70 L 285.40 407.40 L 278.10 406.50 L 271.00 405.00 L 264.00 403.00 L 257.30 400.40 L 250.80 397.40 L 244.70 393.90 L 238.80 390.00 L 233.30 385.60 L 228.10 380.80 L 223.40 375.60 L 219.00 370.10 L 215.00 364.20 L 211.50 358.10 L 208.50 351.60 L 205.90 344.90 L 203.90 338.00 L 202.40 330.80 L 201.60 323.50 L 201.20 315.80 L 201.60 308.20 L 202.40 300.90 L 203.90 293.70 L 205.90 286.80 L 208.50 280.00 L 211.50 273.60 L 215.00 267.50 L 219.00 261.60 L 223.40 256.10 L 228.10 250.90 L 233.30 246.10 L 238.80 241.70 L 244.70 237.80 L 250.80 234.30 L 257.30 231.20 L 264.00 228.70 L 271.00 226.70 L 278.10 225.20 L 285.40 224.30 L 293.10 224.00 L 300.70 224.30 L 308.10 225.20 L 315.20 226.70 L 322.10 228.70 L 328.90 231.20 L 335.30 234.30 L 341.50 237.80 L 347.30 241.70 L 352.90 246.10 L 358.00 250.90 L 362.80 256.10 L 367.20 261.60 L 371.20 267.50 L 374.70 273.60 L 377.70 280.00 L 380.20 286.80 L 382.20 293.70 L 383.70 300.90 L 384.60 308.20 L 384.90 315.80 Z" fill="#110d2e" fill-rule="evenodd" group-id="1,3,4" id="椭圆形备份-5" node-id="37" stroke="none" target-height="183.70001" target-width="183.7" target-x="201.2" target-y="224"></path><path d="M 822.80 318.20 L 822.40 325.80 L 821.60 333.10 L 820.10 340.30 L 818.10 347.20 L 815.50 354.00 L 812.50 360.40 L 809.00 366.50 L 805.00 372.40 L 800.60 377.90 L 795.90 383.10 L 790.70 387.90 L 785.20 392.30 L 779.30 396.20 L 773.20 399.70 L 766.70 402.80 L 760.00 405.30 L 753.00 407.30 L 745.90 408.80 L 738.60 409.70 L 730.90 410.00 L 723.30 409.70 L 715.90 408.80 L 708.80 407.30 L 701.90 405.30 L 695.10 402.80 L 688.70 399.70 L 682.50 396.20 L 676.70 392.30 L 671.10 387.90 L 666.00 383.10 L 661.20 377.90 L 656.80 372.40 L 652.80 366.50 L 649.30 360.40 L 646.30 354.00 L 643.80 347.20 L 641.80 340.30 L 640.30 333.10 L 639.40 325.80 L 639.10 318.20 L 639.40 310.50 L 640.30 303.20 L 641.80 296.00 L 643.80 289.10 L 646.30 282.40 L 649.30 275.90 L 652.80 269.80 L 656.80 263.90 L 661.20 258.40 L 666.00 253.20 L 671.10 248.40 L 676.70 244.00 L 682.50 240.10 L 688.70 236.60 L 695.10 233.60 L 701.90 231.00 L 708.80 229.00 L 715.90 227.50 L 723.30 226.60 L 730.90 226.30 L 738.60 226.60 L 745.90 227.50 L 753.00 229.00 L 760.00 231.00 L 766.70 233.60 L 773.20 236.60 L 779.30 240.10 L 785.20 244.00 L 790.70 248.40 L 795.90 253.20 L 800.60 258.40 L 805.00 263.90 L 809.00 269.80 L 812.50 275.90 L 815.50 282.40 L 818.10 289.10 L 820.10 296.00 L 821.60 303.20 L 822.40 310.50 L 822.80 318.20 Z" fill="#110d2e" fill-rule="evenodd" group-id="1,3,4" id="椭圆形备份-10" node-id="38" stroke="none" target-height="183.7" target-width="183.70001" target-x="639.1" target-y="226.3"></path><path d="M 322.00 410.50 L 321.70 417.10 L 320.90 423.50 L 319.70 429.60 L 317.90 435.60 L 315.70 441.50 L 313.10 447.10 L 310.10 452.40 L 306.70 457.50 L 302.80 462.30 L 298.70 466.70 L 294.30 470.80 L 289.50 474.70 L 284.40 478.10 L 279.10 481.10 L 273.50 483.70 L 267.60 485.90 L 261.60 487.70 L 255.50 488.90 L 249.10 489.70 L 242.50 490.00 L 235.90 489.70 L 229.50 488.90 L 223.40 487.70 L 217.40 485.90 L 211.50 483.70 L 205.90 481.10 L 200.60 478.10 L 195.50 474.70 L 190.70 470.80 L 186.30 466.70 L 182.20 462.30 L 178.30 457.50 L 174.90 452.40 L 171.90 447.10 L 169.30 441.50 L 167.10 435.60 L 165.30 429.60 L 164.10 423.50 L 163.30 417.10 L 163.00 410.50 L 163.30 403.90 L 164.10 397.50 L 165.30 391.40 L 167.10 385.40 L 169.30 379.50 L 171.90 373.90 L 174.90 368.60 L 178.30 363.50 L 182.20 358.70 L 186.30 354.30 L 190.70 350.20 L 195.50 346.30 L 200.60 342.90 L 205.90 339.90 L 211.50 337.30 L 217.40 335.10 L 223.40 333.30 L 229.50 332.10 L 235.90 331.30 L 242.50 331.00 L 249.10 331.30 L 255.50 332.10 L 261.60 333.30 L 267.60 335.10 L 273.50 337.30 L 279.10 339.90 L 284.40 342.90 L 289.50 346.30 L 294.30 350.20 L 298.70 354.30 L 302.80 358.70 L 306.70 363.50 L 310.10 368.60 L 313.10 373.90 L 315.70 379.50 L 317.90 385.40 L 319.70 391.40 L 320.90 397.50 L 321.70 403.90 L 322.00 410.50 Z" fill="#110d2e" fill-rule="evenodd" group-id="1,3,4" id="椭圆形备份-6" node-id="39" stroke="none" target-height="159" target-width="159" target-x="163" target-y="331"></path><path d="M 861.00 410.50 L 860.70 417.10 L 859.90 423.50 L 858.70 429.60 L 856.90 435.60 L 854.70 441.50 L 852.10 447.10 L 849.10 452.40 L 845.70 457.50 L 841.80 462.30 L 837.70 466.70 L 833.30 470.80 L 828.50 474.70 L 823.40 478.10 L 818.10 481.10 L 812.50 483.70 L 806.60 485.90 L 800.60 487.70 L 794.50 488.90 L 788.10 489.70 L 781.50 490.00 L 774.90 489.70 L 768.50 488.90 L 762.40 487.70 L 756.40 485.90 L 750.50 483.70 L 744.90 481.10 L 739.60 478.10 L 734.50 474.70 L 729.70 470.80 L 725.30 466.70 L 721.20 462.30 L 717.30 457.50 L 713.90 452.40 L 710.90 447.10 L 708.30 441.50 L 706.10 435.60 L 704.30 429.60 L 703.10 423.50 L 702.30 417.10 L 702.00 410.50 L 702.30 403.90 L 703.10 397.50 L 704.30 391.40 L 706.10 385.40 L 708.30 379.50 L 710.90 373.90 L 713.90 368.60 L 717.30 363.50 L 721.20 358.70 L 725.30 354.30 L 729.70 350.20 L 734.50 346.30 L 739.60 342.90 L 744.90 339.90 L 750.50 337.30 L 756.40 335.10 L 762.40 333.30 L 768.50 332.10 L 774.90 331.30 L 781.50 331.00 L 788.10 331.30 L 794.50 332.10 L 800.60 333.30 L 806.60 335.10 L 812.50 337.30 L 818.10 339.90 L 823.40 342.90 L 828.50 346.30 L 833.30 350.20 L 837.70 354.30 L 841.80 358.70 L 845.70 363.50 L 849.10 368.60 L 852.10 373.90 L 854.70 379.50 L 856.90 385.40 L 858.70 391.40 L 859.90 397.50 L 860.70 403.90 L 861.00 410.50 Z" fill="#110d2e" fill-rule="evenodd" group-id="1,3,4" id="椭圆形备份-13" node-id="40" stroke="none" target-height="159" target-width="159" target-x="702" target-y="331"></path><path d="M 718.00 266.00 L 717.80 272.70 L 717.10 279.10 L 716.10 285.50 L 714.70 291.60 L 712.90 297.60 L 710.10 305.00 L 706.80 312.00 L 703.00 318.70 L 698.70 325.10 L 693.90 331.10 L 688.70 336.70 L 683.10 341.90 L 677.10 346.70 L 670.70 351.00 L 664.00 354.80 L 657.00 358.10 L 649.60 360.90 L 643.60 362.70 L 637.50 364.10 L 631.10 365.10 L 624.70 365.80 L 618.00 366.00 L 611.30 365.80 L 604.90 365.10 L 598.50 364.10 L 592.40 362.70 L 586.40 360.90 L 579.00 358.10 L 572.00 354.80 L 565.30 351.00 L 558.90 346.70 L 552.90 341.90 L 547.30 336.70 L 542.10 331.10 L 537.30 325.10 L 533.00 318.70 L 529.20 312.00 L 525.90 305.00 L 523.10 297.60 L 521.30 291.60 L 519.90 285.50 L 518.90 279.10 L 518.20 272.70 L 518.00 266.00 L 518.20 259.30 L 518.90 252.90 L 519.90 246.50 L 521.30 240.40 L 523.10 234.40 L 525.90 227.00 L 529.20 220.00 L 533.00 213.30 L 537.30 206.90 L 542.10 200.90 L 547.30 195.30 L 552.90 190.10 L 558.90 185.30 L 565.30 181.00 L 572.00 177.20 L 579.00 173.90 L 586.40 171.10 L 592.40 169.30 L 598.50 167.90 L 604.90 166.90 L 611.30 166.20 L 618.00 166.00 L 624.70 166.20 L 631.10 166.90 L 637.50 167.90 L 643.60 169.30 L 649.60 171.10 L 657.00 173.90 L 664.00 177.20 L 670.70 181.00 L 677.10 185.30 L 683.10 190.10 L 688.70 195.30 L 693.90 200.90 L 698.70 206.90 L 703.00 213.30 L 706.80 220.00 L 710.10 227.00 L 712.90 234.40 L 714.70 240.40 L 716.10 246.50 L 717.10 252.90 L 717.80 259.30 L 718.00 266.00 Z" fill="#110d2e" fill-rule="evenodd" group-id="1,3,4" id="椭圆形备份" node-id="41" stroke="none" target-height="200" target-width="200" target-x="518" target-y="166"></path><path d="M 259.40 556.50 L 299.80 537.40 L 335.30 520.10 L 366.50 504.30 L 393.50 490.00 L 416.90 477.10 L 436.90 465.50 L 453.80 455.00 L 468.10 445.60 L 479.90 437.20 L 489.60 429.80 L 497.50 423.10 L 503.70 417.20 L 508.40 412.00 L 512.00 407.30 L 537.20 428.10 L 560.90 446.80 L 583.00 463.60 L 603.60 478.60 L 622.90 492.00 L 640.90 503.70 L 657.70 514.00 L 673.30 522.90 L 687.80 530.60 L 701.30 537.10 L 713.90 542.60 L 725.50 547.00 L 736.30 550.60 L 746.40 553.30 L 755.70 555.30 L 764.40 556.50 L 814.50 402.50 L 616.20 299.00 L 556.50 286.50 L 502.00 286.50 L 257.00 341.30 L 208.90 441.10 L 259.40 556.50 Z" fill="#110d2e" fill-rule="evenodd" group-id="1,3,4" id="路径-38" node-id="42" stroke="none" target-height="270" target-width="605.6" target-x="208.9" target-y="286.5"></path><g node-id="149"><g node-id="152"><path d="M 512.00 781.00 L 523.20 781.30 L 534.20 782.20 L 545.00 783.60 L 555.70 785.50 L 566.20 788.00 L 576.60 791.00 L 586.90 794.50 L 597.00 798.50 L 606.90 803.00 L 616.70 808.00 L 626.20 813.50 L 635.50 819.30 L 644.70 825.70 L 653.60 832.50 L 662.40 839.70 L 670.80 847.30 L 679.00 855.30 L 687.00 863.70 L 694.70 872.50 L 702.20 881.80 L 709.30 891.20 L 716.20 901.00 L 722.70 911.20 L 729.00 921.70 L 735.10 932.70 L 740.70 943.70 L 745.90 955.10 L 750.90 966.70 L 755.50 978.80 L 759.90 991.10 L 763.70 1003.50 L 767.20 1016.10 L 770.40 1029.00 L 773.10 1042.20 L 775.50 1055.70 L 777.50 1069.10 L 779.00 1082.70 L 780.10 1096.60 L 780.80 1110.70 L 781.00 1125.00 L 780.80 1139.30 L 780.10 1153.40 L 779.00 1167.30 L 777.50 1180.90 L 775.50 1194.30 L 773.10 1207.80 L 770.40 1221.00 L 767.20 1233.90 L 763.70 1246.50 L 759.90 1258.90 L 755.50 1271.20 L 750.90 1283.30 L 745.90 1294.90 L 740.70 1306.30 L 735.10 1317.30 L 729.00 1328.30 L 722.70 1338.80 L 716.20 1349.00 L 709.30 1358.80 L 702.20 1368.20 L 694.70 1377.50 L 687.00 1386.30 L 679.00 1394.70 L 670.80 1402.70 L 662.40 1410.30 L 653.60 1417.50 L 644.70 1424.30 L 635.50 1430.70 L 626.20 1436.50 L 616.70 1442.00 L 606.90 1447.00 L 597.00 1451.50 L 586.90 1455.50 L 576.60 1459.00 L 566.20 1462.00 L 555.70 1464.50 L 545.00 1466.40 L 534.20 1467.80 L 523.20 1468.70 L 512.00 1469.00 L 500.80 1468.70 L 489.80 1467.80 L 479.00 1466.40 L 468.30 1464.50 L 457.80 1462.00 L 447.40 1459.00 L 437.10 1455.50 L 427.00 1451.50 L 417.10 1447.00 L 407.30 1442.00 L 397.80 1436.50 L 388.50 1430.70 L 379.30 1424.30 L 370.40 1417.50 L 361.60 1410.30 L 353.20 1402.70 L 345.00 1394.70 L 337.00 1386.30 L 329.30 1377.50 L 321.80 1368.20 L 314.70 1358.80 L 307.80 1349.00 L 301.30 1338.80 L 295.00 1328.30 L 288.90 1317.30 L 283.30 1306.30 L 278.10 1294.90 L 273.10 1283.30 L 268.50 1271.20 L 264.10 1258.90 L 260.30 1246.50 L 256.80 1233.90 L 253.60 1221.00 L 250.90 1207.80 L 248.50 1194.30 L 246.50 1180.90 L 245.00 1167.30 L 243.90 1153.40 L 243.20 1139.30 L 243.00 1125.00 L 243.20 1110.70 L 243.90 1096.60 L 245.00 1082.70 L 246.50 1069.10 L 248.50 1055.70 L 250.90 1042.20 L 253.60 1029.00 L 256.80 1016.10 L 260.30 1003.50 L 264.10 991.10 L 268.50 978.80 L 273.10 966.70 L 278.10 955.10 L 283.30 943.70 L 288.90 932.70 L 295.00 921.70 L 301.30 911.20 L 307.80 901.00 L 314.70 891.20 L 321.80 881.80 L 329.30 872.50 L 337.00 863.70 L 345.00 855.30 L 353.20 847.30 L 361.60 839.70 L 370.40 832.50 L 379.30 825.70 L 388.50 819.30 L 397.80 813.50 L 407.30 808.00 L 417.10 803.00 L 427.00 798.50 L 437.10 794.50 L 447.40 791.00 L 457.80 788.00 L 468.30 785.50 L 479.00 783.60 L 489.80 782.20 L 500.80 781.30 L 512.00 781.00 Z" fill="#cc5553" fill-rule="evenodd" group-id="1,3,4,11,14" node-id="137" stroke="none" target-height="688" target-width="538" target-x="243" target-y="781"></path></g><path d="M 465.00 786.70 L 512.00 845.00 L 559.00 786.70 L 547.40 782.30 L 537.50 779.00 L 529.20 776.60 L 522.20 775.10 L 516.40 774.30 L 511.70 774.00 L 507.00 774.30 L 501.20 775.10 L 494.30 776.60 L 486.10 779.00 L 476.40 782.30 L 465.00 786.70 Z" fill="#ffcaca" fill-rule="evenodd" group-id="1,3,4,11,15" id="路径-39" node-id="47" stroke="none" target-height="71" target-width="94" target-x="465" target-y="774"></path></g><path d="M 520.00 871.00 L 519.70 873.10 L 518.90 875.00 L 517.70 876.70 L 516.00 877.90 L 514.10 878.70 L 512.00 879.00 L 509.90 878.70 L 508.00 877.90 L 506.30 876.70 L 505.10 875.00 L 504.30 873.10 L 504.00 871.00 L 504.30 868.90 L 505.10 867.00 L 506.30 865.30 L 508.00 864.10 L 509.90 863.30 L 512.00 863.00 L 514.10 863.30 L 516.00 864.10 L 517.70 865.30 L 518.90 867.00 L 519.70 868.90 L 520.00 871.00 Z" fill="#ffffff" fill-rule="evenodd" group-id="1,3,4" id="椭圆形" node-id="48" stroke="none" target-height="16" target-width="16" target-x="504" target-y="863"></path><path d="M 520.00 934.00 L 519.70 936.10 L 518.90 938.00 L 517.70 939.70 L 516.00 940.90 L 514.10 941.70 L 512.00 942.00 L 509.90 941.70 L 508.00 940.90 L 506.30 939.70 L 505.10 938.00 L 504.30 936.10 L 504.00 934.00 L 504.30 931.90 L 505.10 930.00 L 506.30 928.30 L 508.00 927.10 L 509.90 926.30 L 512.00 926.00 L 514.10 926.30 L 516.00 927.10 L 517.70 928.30 L 518.90 930.00 L 519.70 931.90 L 520.00 934.00 Z" fill="#ffffff" fill-rule="evenodd" group-id="1,3,4" id="椭圆形备份-2" node-id="49" stroke="none" target-height="16" target-width="16" target-x="504" target-y="926"></path><path d="M 520.00 997.00 L 519.70 999.10 L 518.90 1001.00 L 517.70 1002.70 L 516.00 1003.90 L 514.10 1004.70 L 512.00 1005.00 L 509.90 1004.70 L 508.00 1003.90 L 506.30 1002.70 L 505.10 1001.00 L 504.30 999.10 L 504.00 997.00 L 504.30 994.90 L 505.10 993.00 L 506.30 991.30 L 508.00 990.10 L 509.90 989.30 L 512.00 989.00 L 514.10 989.30 L 516.00 990.10 L 517.70 991.30 L 518.90 993.00 L 519.70 994.90 L 520.00 997.00 Z" fill="#ffffff" fill-rule="evenodd" group-id="1,3,4" id="椭圆形备份-3" node-id="50" stroke="none" target-height="16" target-width="16" target-x="504" target-y="989"></path></g></g></g></svg>