<?xml version="1.0" standalone="no"?><!DOCTYPE svg PUBLIC "-//W3C//DTD SVG 1.1//EN" "http://www.w3.org/Graphics/SVG/1.1/DTD/svg11.dtd"><svg height="1024" node-id="1" sillyvg="true" template-height="1024" template-width="1024" version="1.1" viewBox="0 0 1024 1024" width="1024" xmlns="http://www.w3.org/2000/svg" xmlns:xlink="http://www.w3.org/1999/xlink"><defs node-id="50"><mask height="3353.0068" id="mask-2" maskUnits="userSpaceOnUse" node-id="11" width="3399.4414" x="-2196.2124" y="4789.439"><path d="M -1021.00 6754.30 L -1006.70 6762.30 L -992.30 6769.70 L -977.70 6776.70 L -962.90 6783.10 L -948.00 6789.10 L -932.80 6794.60 L -917.60 6799.70 L -902.30 6804.20 L -886.80 6808.20 L -871.20 6811.80 L -855.50 6814.90 L -839.70 6817.50 L -823.90 6819.50 L -808.00 6821.10 L -792.00 6822.20 L -776.00 6822.80 L -760.00 6822.90 L -744.00 6822.50 L -728.00 6821.60 L -711.90 6820.20 L -696.00 6818.30 L -680.00 6815.90 L -664.10 6812.90 L -648.30 6809.50 L -632.40 6805.50 L -616.70 6801.00 L -601.30 6796.10 L -586.10 6790.70 L -571.10 6784.80 L -556.30 6778.50 L -541.70 6771.70 L -527.30 6764.50 L -513.30 6756.80 L -499.50 6748.70 L -485.90 6740.20 L -472.60 6731.30 L -459.60 6721.90 L -447.00 6712.20 L -434.60 6702.10 L -422.50 6691.60 L -410.80 6680.70 L -399.40 6669.50 L -388.40 6657.90 L -377.70 6645.90 L -367.40 6633.50 L -357.40 6620.90 L -347.90 6607.90 L -338.70 6594.60 L -329.90 6580.90 L -321.60 6566.90 L -313.60 6552.70 L -306.20 6538.20 L -299.20 6523.70 L -292.80 6508.90 L -286.80 6494.00 L -281.30 6478.80 L -276.20 6463.60 L -271.70 6448.20 L -267.70 6432.80 L -264.10 6417.20 L -261.00 6401.40 L -258.40 6385.70 L -256.40 6369.80 L -254.80 6354.00 L -253.70 6338.00 L -253.10 6322.00 L -253.00 6306.00 L -253.40 6290.00 L -254.30 6274.00 L -255.70 6257.90 L -257.60 6241.90 L -260.00 6226.00 L -263.00 6210.10 L -266.40 6194.30 L -270.40 6178.40 L -274.90 6162.70 L -279.80 6147.30 L -285.20 6132.00 L -291.10 6117.00 L -297.40 6102.20 L -304.20 6087.60 L -311.40 6073.30 L -319.10 6059.20 L -327.20 6045.40 L -335.70 6031.90 L -344.60 6018.60 L -354.00 6005.60 L -363.70 5993.00 L -373.80 5980.60 L -384.30 5968.50 L -395.20 5956.80 L -406.40 5945.40 L -418.00 5934.40 L -430.00 5923.70 L -442.40 5913.30 L -455.00 5903.40 L -468.00 5893.90 L -481.30 5884.70 L -495.00 5875.90 L -509.00 5867.50 L -523.20 5859.60 L -537.70 5852.20 L -552.20 5845.20 L -567.00 5838.80 L -581.90 5832.80 L -597.10 5827.30 L -612.30 5822.20 L -627.70 5817.70 L -643.10 5813.60 L -658.70 5810.10 L -674.50 5807.00 L -690.20 5804.40 L -706.10 5802.30 L -721.90 5800.80 L -737.90 5799.70 L -753.90 5799.10 L -769.90 5799.00 L -785.90 5799.40 L -801.90 5800.30 L -818.00 5801.70 L -834.00 5803.60 L -849.90 5806.00 L -865.80 5809.00 L -881.60 5812.40 L -897.50 5816.40 L -913.20 5820.90 L -928.60 5825.80 L -943.90 5831.20 L -958.90 5837.10 L -973.70 5843.40 L -988.30 5850.20 L -1002.60 5857.40 L -1016.70 5865.10 L -1030.50 5873.20 L -1044.00 5881.70 L -1057.30 5890.60 L -1070.30 5899.90 L -1082.90 5909.70 L -1095.30 5919.80 L -1107.40 5930.30 L -1119.10 5941.20 L -1130.50 5952.40 L -1141.50 5964.00 L -1152.20 5976.00 L -1162.60 5988.30 L -1172.50 6001.00 L -1182.00 6014.00 L -1191.20 6027.30 L -1200.00 6040.90 L -1208.40 6054.90 L -1216.30 6069.20 L -1223.70 6083.60 L -1230.70 6098.20 L -1237.10 6113.00 L -1243.10 6127.90 L -1248.70 6143.10 L -1253.70 6158.30 L -1258.20 6173.70 L -1262.30 6189.10 L -1265.80 6204.70 L -1268.90 6220.40 L -1271.50 6236.20 L -1273.60 6252.00 L -1275.10 6267.90 L -1276.20 6283.90 L -1276.80 6299.90 L -1276.90 6315.90 L -1276.50 6331.90 L -1275.60 6347.90 L -1274.20 6364.00 L -1272.30 6379.90 L -1269.90 6395.90 L -1266.90 6411.80 L -1263.50 6427.60 L -1259.50 6443.50 L -1255.00 6459.20 L -1250.10 6474.60 L -1244.70 6489.80 L -1238.80 6504.80 L -1232.50 6519.60 L -1225.70 6534.20 L -1218.50 6548.60 L -1210.80 6562.60 L -1202.70 6576.40 L -1194.20 6590.00 L -1185.30 6603.30 L -1176.00 6616.30 L -1166.20 6628.90 L -1156.10 6641.30 L -1145.60 6653.40 L -1134.70 6665.10 L -1123.50 6676.50 L -1111.90 6687.50 L -1099.90 6698.20 L -1087.60 6708.50 L -1074.90 6718.50 L -1061.90 6728.00 L -1048.60 6737.20 L -1035.00 6746.00 L -1021.00 6754.30 Z" fill="#ffffff" fill-rule="evenodd" node-id="55" stroke="none" target-height="1023.8999" target-width="1023.9" target-x="-1276.9" target-y="5799"></path></mask><mask height="112.8" id="mask-4" maskUnits="userSpaceOnUse" node-id="23" width="189.6" x="-47.8" y="-51.4"><path d="M 0.00 0.00 L 94.00 0.00 L 94.00 133.00 L 0.00 133.00 Z" fill="#ffffff" fill-rule="evenodd" node-id="62" stroke="none" target-height="133" target-width="94" target-x="0" target-y="0"></path></mask><mask height="57.600002" id="mask-6" maskUnits="userSpaceOnUse" node-id="35" width="172.80002" x="182.6" y="-26.8"><path d="M 613.00 344.00 L 612.70 355.20 L 611.80 366.20 L 610.40 377.00 L 608.50 387.70 L 606.00 398.20 L 603.00 408.60 L 599.50 418.90 L 595.50 429.00 L 591.00 438.90 L 586.00 448.70 L 580.50 458.20 L 574.70 467.50 L 568.30 476.70 L 561.50 485.60 L 554.30 494.40 L 546.70 502.80 L 538.70 511.00 L 530.30 519.00 L 521.50 526.70 L 512.20 534.20 L 502.80 541.30 L 493.00 548.20 L 482.80 554.70 L 472.30 561.00 L 461.30 567.10 L 450.30 572.70 L 438.90 577.90 L 427.30 582.90 L 415.20 587.50 L 402.90 591.90 L 390.50 595.70 L 377.90 599.20 L 365.00 602.40 L 351.80 605.10 L 338.30 607.50 L 324.90 609.50 L 311.30 611.00 L 297.40 612.10 L 283.30 612.80 L 269.00 613.00 L 254.70 612.80 L 240.60 612.10 L 226.70 611.00 L 213.10 609.50 L 199.70 607.50 L 186.20 605.10 L 173.00 602.40 L 160.10 599.20 L 147.50 595.70 L 135.10 591.90 L 122.80 587.50 L 110.70 582.90 L 99.10 577.90 L 87.70 572.70 L 76.70 567.10 L 65.70 561.00 L 55.20 554.70 L 45.00 548.20 L 35.20 541.30 L 25.80 534.20 L 16.50 526.70 L 7.70 519.00 L -0.70 511.00 L -8.70 502.80 L -16.30 494.40 L -23.50 485.60 L -30.30 476.70 L -36.70 467.50 L -42.50 458.20 L -48.00 448.70 L -53.00 438.90 L -57.50 429.00 L -61.50 418.90 L -65.00 408.60 L -68.00 398.20 L -70.50 387.70 L -72.40 377.00 L -73.80 366.20 L -74.70 355.20 L -75.00 344.00 L -74.70 332.80 L -73.80 321.80 L -72.40 311.00 L -70.50 300.30 L -68.00 289.80 L -65.00 279.40 L -61.50 269.10 L -57.50 259.00 L -53.00 249.10 L -48.00 239.30 L -42.50 229.80 L -36.70 220.50 L -30.30 211.30 L -23.50 202.40 L -16.30 193.60 L -8.70 185.20 L -0.70 177.00 L 7.70 169.00 L 16.50 161.30 L 25.80 153.80 L 35.20 146.70 L 45.00 139.80 L 55.20 133.30 L 65.70 127.00 L 76.70 120.90 L 87.70 115.30 L 99.10 110.10 L 110.70 105.10 L 122.80 100.50 L 135.10 96.10 L 147.50 92.30 L 160.10 88.80 L 173.00 85.60 L 186.20 82.90 L 199.70 80.50 L 213.10 78.50 L 226.70 77.00 L 240.60 75.90 L 254.70 75.20 L 269.00 75.00 L 283.30 75.20 L 297.40 75.90 L 311.30 77.00 L 324.90 78.50 L 338.30 80.50 L 351.80 82.90 L 365.00 85.60 L 377.90 88.80 L 390.50 92.30 L 402.90 96.10 L 415.20 100.50 L 427.30 105.10 L 438.90 110.10 L 450.30 115.30 L 461.30 120.90 L 472.30 127.00 L 482.80 133.30 L 493.00 139.80 L 502.80 146.70 L 512.20 153.80 L 521.50 161.30 L 530.30 169.00 L 538.70 177.00 L 546.70 185.20 L 554.30 193.60 L 561.50 202.40 L 568.30 211.30 L 574.70 220.50 L 580.50 229.80 L 586.00 239.30 L 591.00 249.10 L 595.50 259.00 L 599.50 269.10 L 603.00 279.40 L 606.00 289.80 L 608.50 300.30 L 610.40 311.00 L 611.80 321.80 L 612.70 332.80 L 613.00 344.00 Z" fill="#ffffff" fill-rule="evenodd" node-id="69" stroke="none" target-height="538" target-width="688" target-x="-75" target-y="75"></path></mask><mask height="89.70426" id="mask1" maskUnits="userSpaceOnUse" node-id="73" width="110.15759" x="259.8202" y="-0.40585327"><path d="M 613.00 344.00 L 612.70 355.20 L 611.80 366.20 L 610.40 377.00 L 608.50 387.70 L 606.00 398.20 L 603.00 408.60 L 599.50 418.90 L 595.50 429.00 L 591.00 438.90 L 586.00 448.70 L 580.50 458.20 L 574.70 467.50 L 568.30 476.70 L 561.50 485.60 L 554.30 494.40 L 546.70 502.80 L 538.70 511.00 L 530.30 519.00 L 521.50 526.70 L 512.20 534.20 L 502.80 541.30 L 493.00 548.20 L 482.80 554.70 L 472.30 561.00 L 461.30 567.10 L 450.30 572.70 L 438.90 577.90 L 427.30 582.90 L 415.20 587.50 L 402.90 591.90 L 390.50 595.70 L 377.90 599.20 L 365.00 602.40 L 351.80 605.10 L 338.30 607.50 L 324.90 609.50 L 311.30 611.00 L 297.40 612.10 L 283.30 612.80 L 269.00 613.00 L 254.70 612.80 L 240.60 612.10 L 226.70 611.00 L 213.10 609.50 L 199.70 607.50 L 186.20 605.10 L 173.00 602.40 L 160.10 599.20 L 147.50 595.70 L 135.10 591.90 L 122.80 587.50 L 110.70 582.90 L 99.10 577.90 L 87.70 572.70 L 76.70 567.10 L 65.70 561.00 L 55.20 554.70 L 45.00 548.20 L 35.20 541.30 L 25.80 534.20 L 16.50 526.70 L 7.70 519.00 L -0.70 511.00 L -8.70 502.80 L -16.30 494.40 L -23.50 485.60 L -30.30 476.70 L -36.70 467.50 L -42.50 458.20 L -48.00 448.70 L -53.00 438.90 L -57.50 429.00 L -61.50 418.90 L -65.00 408.60 L -68.00 398.20 L -70.50 387.70 L -72.40 377.00 L -73.80 366.20 L -74.70 355.20 L -75.00 344.00 L -74.70 332.80 L -73.80 321.80 L -72.40 311.00 L -70.50 300.30 L -68.00 289.80 L -65.00 279.40 L -61.50 269.10 L -57.50 259.00 L -53.00 249.10 L -48.00 239.30 L -42.50 229.80 L -36.70 220.50 L -30.30 211.30 L -23.50 202.40 L -16.30 193.60 L -8.70 185.20 L -0.70 177.00 L 7.70 169.00 L 16.50 161.30 L 25.80 153.80 L 35.20 146.70 L 45.00 139.80 L 55.20 133.30 L 65.70 127.00 L 76.70 120.90 L 87.70 115.30 L 99.10 110.10 L 110.70 105.10 L 122.80 100.50 L 135.10 96.10 L 147.50 92.30 L 160.10 88.80 L 173.00 85.60 L 186.20 82.90 L 199.70 80.50 L 213.10 78.50 L 226.70 77.00 L 240.60 75.90 L 254.70 75.20 L 269.00 75.00 L 283.30 75.20 L 297.40 75.90 L 311.30 77.00 L 324.90 78.50 L 338.30 80.50 L 351.80 82.90 L 365.00 85.60 L 377.90 88.80 L 390.50 92.30 L 402.90 96.10 L 415.20 100.50 L 427.30 105.10 L 438.90 110.10 L 450.30 115.30 L 461.30 120.90 L 472.30 127.00 L 482.80 133.30 L 493.00 139.80 L 502.80 146.70 L 512.20 153.80 L 521.50 161.30 L 530.30 169.00 L 538.70 177.00 L 546.70 185.20 L 554.30 193.60 L 561.50 202.40 L 568.30 211.30 L 574.70 220.50 L 580.50 229.80 L 586.00 239.30 L 591.00 249.10 L 595.50 259.00 L 599.50 269.10 L 603.00 279.40 L 606.00 289.80 L 608.50 300.30 L 610.40 311.00 L 611.80 321.80 L 612.70 332.80 L 613.00 344.00 Z" fill="#ffffff" fill-rule="evenodd" node-id="77" stroke="none" target-height="538" target-width="688" target-x="-75" target-y="75"></path></mask><mask height="89.70426" id="mask2" maskUnits="userSpaceOnUse" node-id="81" width="110.15761" x="167.8202" y="-0.40585327"><path d="M 613.00 344.00 L 612.70 355.20 L 611.80 366.20 L 610.40 377.00 L 608.50 387.70 L 606.00 398.20 L 603.00 408.60 L 599.50 418.90 L 595.50 429.00 L 591.00 438.90 L 586.00 448.70 L 580.50 458.20 L 574.70 467.50 L 568.30 476.70 L 561.50 485.60 L 554.30 494.40 L 546.70 502.80 L 538.70 511.00 L 530.30 519.00 L 521.50 526.70 L 512.20 534.20 L 502.80 541.30 L 493.00 548.20 L 482.80 554.70 L 472.30 561.00 L 461.30 567.10 L 450.30 572.70 L 438.90 577.90 L 427.30 582.90 L 415.20 587.50 L 402.90 591.90 L 390.50 595.70 L 377.90 599.20 L 365.00 602.40 L 351.80 605.10 L 338.30 607.50 L 324.90 609.50 L 311.30 611.00 L 297.40 612.10 L 283.30 612.80 L 269.00 613.00 L 254.70 612.80 L 240.60 612.10 L 226.70 611.00 L 213.10 609.50 L 199.70 607.50 L 186.20 605.10 L 173.00 602.40 L 160.10 599.20 L 147.50 595.70 L 135.10 591.90 L 122.80 587.50 L 110.70 582.90 L 99.10 577.90 L 87.70 572.70 L 76.70 567.10 L 65.70 561.00 L 55.20 554.70 L 45.00 548.20 L 35.20 541.30 L 25.80 534.20 L 16.50 526.70 L 7.70 519.00 L -0.70 511.00 L -8.70 502.80 L -16.30 494.40 L -23.50 485.60 L -30.30 476.70 L -36.70 467.50 L -42.50 458.20 L -48.00 448.70 L -53.00 438.90 L -57.50 429.00 L -61.50 418.90 L -65.00 408.60 L -68.00 398.20 L -70.50 387.70 L -72.40 377.00 L -73.80 366.20 L -74.70 355.20 L -75.00 344.00 L -74.70 332.80 L -73.80 321.80 L -72.40 311.00 L -70.50 300.30 L -68.00 289.80 L -65.00 279.40 L -61.50 269.10 L -57.50 259.00 L -53.00 249.10 L -48.00 239.30 L -42.50 229.80 L -36.70 220.50 L -30.30 211.30 L -23.50 202.40 L -16.30 193.60 L -8.70 185.20 L -0.70 177.00 L 7.70 169.00 L 16.50 161.30 L 25.80 153.80 L 35.20 146.70 L 45.00 139.80 L 55.20 133.30 L 65.70 127.00 L 76.70 120.90 L 87.70 115.30 L 99.10 110.10 L 110.70 105.10 L 122.80 100.50 L 135.10 96.10 L 147.50 92.30 L 160.10 88.80 L 173.00 85.60 L 186.20 82.90 L 199.70 80.50 L 213.10 78.50 L 226.70 77.00 L 240.60 75.90 L 254.70 75.20 L 269.00 75.00 L 283.30 75.20 L 297.40 75.90 L 311.30 77.00 L 324.90 78.50 L 338.30 80.50 L 351.80 82.90 L 365.00 85.60 L 377.90 88.80 L 390.50 92.30 L 402.90 96.10 L 415.20 100.50 L 427.30 105.10 L 438.90 110.10 L 450.30 115.30 L 461.30 120.90 L 472.30 127.00 L 482.80 133.30 L 493.00 139.80 L 502.80 146.70 L 512.20 153.80 L 521.50 161.30 L 530.30 169.00 L 538.70 177.00 L 546.70 185.20 L 554.30 193.60 L 561.50 202.40 L 568.30 211.30 L 574.70 220.50 L 580.50 229.80 L 586.00 239.30 L 591.00 249.10 L 595.50 259.00 L 599.50 269.10 L 603.00 279.40 L 606.00 289.80 L 608.50 300.30 L 610.40 311.00 L 611.80 321.80 L 612.70 332.80 L 613.00 344.00 Z" fill="#ffffff" fill-rule="evenodd" node-id="85" stroke="none" target-height="538" target-width="688" target-x="-75" target-y="75"></path></mask></defs><path d="M 0.00 0.00 L 1024.00 0.00 L 1024.00 1024.00 L 0.00 1024.00 Z" fill="#ffffff" fill-rule="evenodd" node-id="91" stroke="none" target-height="1024" target-width="1024" target-x="0" target-y="0"></path><g node-id="144"><g node-id="145"><path d="M 1024.00 512.00 L 1023.70 528.30 L 1023.00 544.50 L 1021.70 560.60 L 1019.90 576.70 L 1017.60 592.60 L 1014.80 608.40 L 1011.60 624.20 L 1007.80 639.70 L 1003.60 655.20 L 998.90 670.40 L 993.70 685.60 L 988.00 700.50 L 981.90 715.30 L 975.30 729.80 L 968.30 744.20 L 960.80 758.40 L 952.90 772.30 L 944.60 785.90 L 935.80 799.40 L 926.50 812.60 L 916.90 825.40 L 906.80 838.00 L 896.30 850.30 L 885.40 862.30 L 874.00 874.00 L 862.30 885.40 L 850.30 896.30 L 838.00 906.80 L 825.40 916.90 L 812.60 926.50 L 799.40 935.80 L 785.90 944.60 L 772.30 952.90 L 758.40 960.80 L 744.20 968.30 L 729.80 975.30 L 715.30 981.90 L 700.50 988.00 L 685.60 993.70 L 670.40 998.90 L 655.20 1003.60 L 639.70 1007.80 L 624.20 1011.60 L 608.40 1014.80 L 592.60 1017.60 L 576.70 1019.90 L 560.60 1021.70 L 544.50 1023.00 L 528.30 1023.70 L 512.00 1024.00 L 495.70 1023.70 L 479.50 1023.00 L 463.40 1021.70 L 447.30 1019.90 L 431.40 1017.60 L 415.60 1014.80 L 399.80 1011.60 L 384.30 1007.80 L 368.80 1003.60 L 353.60 998.90 L 338.40 993.70 L 323.50 988.00 L 308.70 981.90 L 294.20 975.30 L 279.80 968.30 L 265.60 960.80 L 251.70 952.90 L 238.10 944.60 L 224.60 935.80 L 211.40 926.50 L 198.60 916.90 L 186.00 906.80 L 173.70 896.30 L 161.70 885.40 L 150.00 874.00 L 138.60 862.30 L 127.70 850.30 L 117.20 838.00 L 107.10 825.40 L 97.50 812.60 L 88.20 799.40 L 79.40 785.90 L 71.10 772.30 L 63.20 758.40 L 55.70 744.20 L 48.70 729.80 L 42.10 715.30 L 36.00 700.50 L 30.30 685.60 L 25.10 670.40 L 20.40 655.20 L 16.20 639.70 L 12.40 624.20 L 9.20 608.40 L 6.40 592.60 L 4.10 576.70 L 2.30 560.60 L 1.00 544.50 L 0.30 528.30 L 0.00 512.00 L 0.30 495.70 L 1.00 479.50 L 2.30 463.40 L 4.10 447.30 L 6.40 431.40 L 9.20 415.60 L 12.40 399.80 L 16.20 384.30 L 20.40 368.80 L 25.10 353.60 L 30.30 338.40 L 36.00 323.50 L 42.10 308.70 L 48.70 294.20 L 55.70 279.80 L 63.20 265.60 L 71.10 251.70 L 79.40 238.10 L 88.20 224.60 L 97.50 211.40 L 107.10 198.60 L 117.20 186.00 L 127.70 173.70 L 138.60 161.70 L 150.00 150.00 L 161.70 138.60 L 173.70 127.70 L 186.00 117.20 L 198.60 107.10 L 211.40 97.50 L 224.60 88.20 L 238.10 79.40 L 251.70 71.10 L 265.60 63.20 L 279.80 55.70 L 294.20 48.70 L 308.70 42.10 L 323.50 36.00 L 338.40 30.30 L 353.60 25.10 L 368.80 20.40 L 384.30 16.20 L 399.80 12.40 L 415.60 9.20 L 431.40 6.40 L 447.30 4.10 L 463.40 2.30 L 479.50 1.00 L 495.70 0.30 L 512.00 0.00 L 528.30 0.30 L 544.50 1.00 L 560.60 2.30 L 576.70 4.10 L 592.60 6.40 L 608.40 9.20 L 624.20 12.40 L 639.70 16.20 L 655.20 20.40 L 670.40 25.10 L 685.60 30.30 L 700.50 36.00 L 715.30 42.10 L 729.80 48.70 L 744.20 55.70 L 758.40 63.20 L 772.30 71.10 L 785.90 79.40 L 799.40 88.20 L 812.60 97.50 L 825.40 107.10 L 838.00 117.20 L 850.30 127.70 L 862.30 138.60 L 874.00 150.00 L 885.40 161.70 L 896.30 173.70 L 906.80 186.00 L 916.90 198.60 L 926.50 211.40 L 935.80 224.60 L 944.60 238.10 L 952.90 251.70 L 960.80 265.60 L 968.30 279.80 L 975.30 294.20 L 981.90 308.70 L 988.00 323.50 L 993.70 338.40 L 998.90 353.60 L 1003.60 368.80 L 1007.80 384.30 L 1011.60 399.80 L 1014.80 415.60 L 1017.60 431.40 L 1019.90 447.30 L 1021.70 463.40 L 1023.00 479.50 L 1023.70 495.70 L 1024.00 512.00 Z" fill="#339456" fill-opacity="0.2" fill-rule="evenodd" group-id="1,2" node-id="95" stroke="none" target-height="1024" target-width="1024" target-x="0" target-y="0"></path></g><g node-id="146"><g node-id="147"><g node-id="148"><path d="M 353.10 448.50 L 350.50 457.50 L 344.30 474.50 L 340.80 482.50 L 332.90 497.90 L 324.20 511.60 L 319.40 518.10 L 314.40 524.00 L 304.30 534.60 L 298.80 539.40 L 293.30 543.70 L 287.70 547.40 L 282.20 550.60 L 276.30 553.50 L 270.50 555.70 L 264.80 557.40 L 259.00 558.60 L 253.20 559.20 L 247.40 559.20 L 241.60 558.60 L 235.90 557.40 L 230.40 555.60 L 225.10 553.20 L 220.10 550.30 L 215.40 546.90 L 211.00 543.00 L 206.80 538.60 L 202.90 533.80 L 199.30 528.40 L 196.10 522.80 L 193.10 516.80 L 190.50 510.40 L 188.10 503.50 L 184.60 489.30 L 183.30 481.60 L 182.40 473.60 L 181.70 457.40 L 182.50 440.10 L 183.50 431.40 L 186.70 413.60 L 188.90 404.50 L 191.50 395.50 L 197.70 378.50 L 201.20 370.50 L 209.10 355.10 L 217.80 341.40 L 222.60 334.90 L 227.60 329.00 L 237.70 318.40 L 243.20 313.60 L 248.70 309.30 L 254.30 305.60 L 259.80 302.40 L 265.70 299.50 L 271.50 297.30 L 277.20 295.60 L 283.00 294.40 L 288.80 293.80 L 294.60 293.80 L 300.40 294.40 L 306.10 295.60 L 311.60 297.40 L 316.90 299.80 L 321.90 302.70 L 326.60 306.10 L 331.00 310.00 L 335.20 314.40 L 339.10 319.20 L 342.70 324.60 L 345.90 330.20 L 348.90 336.20 L 351.50 342.60 L 353.90 349.50 L 357.40 363.70 L 358.70 371.40 L 359.60 379.40 L 360.30 395.60 L 359.50 412.90 L 358.50 421.60 L 355.30 439.40 L 353.10 448.50 Z" fill="#110d2e" fill-rule="evenodd" group-id="1,3,4,5" id="椭圆形" node-id="16" stroke="none" target-height="265.40002" target-width="178.59999" target-x="181.7" target-y="293.8"></path></g><g node-id="149"><path d="M 670.90 448.50 L 673.50 457.50 L 679.70 474.50 L 683.20 482.50 L 691.10 497.90 L 699.80 511.60 L 704.60 518.10 L 709.60 524.00 L 719.70 534.60 L 725.20 539.40 L 730.70 543.70 L 736.30 547.40 L 741.80 550.60 L 747.70 553.50 L 753.50 555.70 L 759.20 557.40 L 765.00 558.60 L 770.80 559.20 L 776.60 559.20 L 782.40 558.60 L 788.10 557.40 L 793.60 555.60 L 798.90 553.20 L 803.90 550.30 L 808.60 546.90 L 813.00 543.00 L 817.20 538.60 L 821.10 533.80 L 824.70 528.40 L 827.90 522.80 L 830.90 516.80 L 833.50 510.40 L 835.90 503.50 L 839.40 489.30 L 840.70 481.60 L 841.60 473.60 L 842.30 457.40 L 841.50 440.10 L 840.50 431.40 L 837.30 413.60 L 835.10 404.50 L 832.50 395.50 L 826.30 378.50 L 822.80 370.50 L 814.90 355.10 L 806.20 341.40 L 801.40 334.90 L 796.40 329.00 L 786.30 318.40 L 780.80 313.60 L 775.30 309.30 L 769.70 305.60 L 764.20 302.40 L 758.30 299.50 L 752.50 297.30 L 746.80 295.60 L 741.00 294.40 L 735.20 293.80 L 729.40 293.80 L 723.60 294.40 L 717.90 295.60 L 712.40 297.40 L 707.10 299.80 L 702.10 302.70 L 697.40 306.10 L 693.00 310.00 L 688.80 314.40 L 684.90 319.20 L 681.30 324.60 L 678.10 330.20 L 675.10 336.20 L 672.50 342.60 L 670.10 349.50 L 666.60 363.70 L 665.30 371.40 L 664.40 379.40 L 663.70 395.60 L 664.50 412.90 L 665.50 421.60 L 668.70 439.40 L 670.90 448.50 Z" fill="#110d2e" fill-rule="evenodd" group-id="1,3,4,6" id="椭圆形备份" node-id="17" stroke="none" target-height="265.40002" target-width="178.59998" target-x="663.7" target-y="293.8"></path></g><path d="M 275.40 629.80 L 278.60 628.00 L 281.30 625.90 L 283.70 623.50 L 285.70 620.80 L 287.40 617.90 L 288.70 614.70 L 289.70 611.30 L 290.30 607.70 L 290.30 600.30 L 288.80 592.30 L 285.90 584.40 L 281.30 576.30 L 277.50 571.30 L 273.30 566.80 L 268.80 562.80 L 263.90 559.20 L 258.90 556.30 L 253.80 554.00 L 245.90 551.70 L 238.30 550.80 L 234.40 551.00 L 230.80 551.50 L 227.30 552.50 L 223.90 553.90 L 220.80 555.70 L 218.10 557.80 L 215.70 560.20 L 213.70 562.90 L 212.00 565.90 L 210.70 569.00 L 209.70 572.40 L 209.10 576.00 L 209.10 583.40 L 210.60 591.40 L 213.50 599.30 L 218.10 607.40 L 221.90 612.50 L 226.10 617.00 L 230.60 621.00 L 235.50 624.50 L 240.50 627.40 L 245.60 629.70 L 253.50 632.00 L 261.10 632.90 L 265.00 632.70 L 268.60 632.20 L 272.10 631.20 L 275.40 629.80 Z" fill="#fbb4b4" fill-rule="evenodd" group-id="1,3,4" id="椭圆形备份-4" node-id="18" stroke="none" target-height="82.10004" target-width="81.19998" target-x="209.1" target-y="550.8"></path><path d="M 747.90 629.80 L 744.80 628.00 L 742.10 625.90 L 739.70 623.50 L 737.70 620.80 L 736.00 617.90 L 734.70 614.70 L 733.70 611.30 L 733.10 607.70 L 733.10 600.30 L 734.60 592.30 L 737.50 584.40 L 742.10 576.30 L 745.90 571.30 L 750.10 566.80 L 754.60 562.80 L 759.50 559.20 L 764.50 556.30 L 769.60 554.00 L 777.50 551.70 L 785.10 550.80 L 789.00 551.00 L 792.60 551.50 L 796.10 552.50 L 799.40 553.90 L 802.60 555.70 L 805.30 557.80 L 807.70 560.20 L 809.70 562.90 L 811.40 565.90 L 812.70 569.00 L 813.70 572.40 L 814.30 576.00 L 814.30 583.40 L 812.80 591.40 L 809.90 599.30 L 805.30 607.40 L 801.50 612.50 L 797.30 617.00 L 792.80 621.00 L 787.90 624.50 L 782.90 627.40 L 777.80 629.70 L 769.90 632.00 L 762.30 632.90 L 758.40 632.70 L 754.80 632.20 L 751.30 631.20 L 747.90 629.80 Z" fill="#fbb4b4" fill-rule="evenodd" group-id="1,3,4" id="椭圆形备份-12" node-id="19" stroke="none" target-height="82.10004" target-width="81.20001" target-x="733.1" target-y="550.8"></path><g node-id="150"><path d="M 379.50 953.50 L 353.50 1039.60" fill="none" group-id="1,3,4,7" id="路径-6" node-id="20" stroke="#000000" stroke-linecap="round" stroke-opacity="0.10692633" stroke-width="7" target-height="86.099976" target-width="26" target-x="353.5" target-y="953.5"></path></g><g node-id="151"><path d="M 644.50 953.50 L 670.50 1039.60" fill="none" group-id="1,3,4,8" id="路径-6备份" node-id="21" stroke="#000000" stroke-linecap="round" stroke-opacity="0.10692633" stroke-width="7" target-height="86.099976" target-width="26" target-x="644.5" target-y="953.5"></path></g><g node-id="152"><g node-id="159"><path d="M 465.00 712.00 L 559.00 712.00 L 559.00 845.00 L 465.00 845.00 Z" fill="#ffcaca" fill-rule="evenodd" group-id="1,3,4,9,16" node-id="121" stroke="none" target-height="133" target-width="94" target-x="465" target-y="712"></path></g><path d="M 591.00 717.00 L 590.70 720.90 L 590.00 724.60 L 588.70 728.30 L 587.00 731.90 L 584.80 735.20 L 579.30 741.70 L 575.80 744.80 L 570.80 748.40 L 565.10 751.80 L 558.70 754.90 L 552.00 757.50 L 544.80 759.80 L 537.00 761.60 L 529.10 762.90 L 520.70 763.70 L 512.00 764.00 L 503.30 763.70 L 494.90 762.90 L 487.00 761.60 L 479.20 759.80 L 472.00 757.50 L 465.30 754.90 L 458.90 751.80 L 453.20 748.40 L 448.20 744.80 L 444.70 741.70 L 441.70 738.50 L 439.20 735.20 L 437.00 731.90 L 435.30 728.30 L 434.00 724.60 L 433.30 720.90 L 433.00 717.00 L 433.30 713.10 L 434.00 709.40 L 435.30 705.70 L 437.00 702.10 L 439.20 698.80 L 441.70 695.50 L 444.70 692.30 L 448.20 689.20 L 453.20 685.60 L 458.90 682.20 L 465.30 679.10 L 472.00 676.50 L 479.20 674.20 L 487.00 672.40 L 494.90 671.10 L 503.30 670.30 L 512.00 670.00 L 520.70 670.30 L 529.10 671.10 L 537.00 672.40 L 544.80 674.20 L 552.00 676.50 L 558.70 679.10 L 565.10 682.20 L 570.80 685.60 L 575.80 689.20 L 579.30 692.30 L 584.80 698.80 L 587.00 702.10 L 588.70 705.70 L 590.00 709.40 L 590.70 713.10 L 591.00 717.00 Z" fill="#ec8484" fill-opacity="0.21490623" fill-rule="evenodd" group-id="1,3,4,9,17" node-id="126" stroke="none" target-height="94" target-width="158" target-x="433" target-y="670"></path></g><path d="M 767.00 524.00 L 766.70 534.70 L 765.90 545.20 L 764.50 555.50 L 762.70 565.60 L 760.30 575.60 L 757.40 585.50 L 754.00 595.10 L 750.20 604.60 L 745.90 613.90 L 741.10 622.90 L 735.90 631.80 L 730.30 640.40 L 724.30 648.70 L 717.80 656.80 L 711.00 664.70 L 703.80 672.30 L 696.30 679.50 L 688.40 686.50 L 680.10 693.20 L 671.50 699.60 L 662.60 705.60 L 653.50 711.20 L 644.00 716.50 L 634.30 721.50 L 624.10 726.10 L 613.90 730.30 L 603.50 734.10 L 592.70 737.50 L 581.70 740.50 L 570.50 743.10 L 559.20 745.20 L 547.70 746.80 L 536.00 748.00 L 524.10 748.70 L 512.00 749.00 L 499.90 748.70 L 488.00 748.00 L 476.30 746.80 L 464.80 745.20 L 453.50 743.10 L 442.30 740.50 L 431.30 737.50 L 420.50 734.10 L 410.10 730.30 L 399.90 726.10 L 389.70 721.50 L 380.00 716.50 L 370.50 711.20 L 361.40 705.60 L 352.50 699.60 L 343.90 693.20 L 335.60 686.50 L 327.70 679.50 L 320.20 672.30 L 313.00 664.70 L 306.20 656.80 L 299.70 648.70 L 293.70 640.40 L 288.10 631.80 L 282.90 622.90 L 278.10 613.90 L 273.80 604.60 L 270.00 595.10 L 266.60 585.50 L 263.70 575.60 L 261.30 565.60 L 259.50 555.50 L 258.10 545.20 L 257.30 534.70 L 257.00 524.00 L 257.30 513.30 L 258.10 502.80 L 259.50 492.50 L 261.30 482.40 L 263.70 472.40 L 266.60 462.50 L 270.00 452.90 L 273.80 443.40 L 278.10 434.10 L 282.90 425.10 L 288.10 416.20 L 293.70 407.60 L 299.70 399.30 L 306.20 391.20 L 313.00 383.30 L 320.20 375.70 L 327.70 368.50 L 335.60 361.50 L 343.90 354.80 L 352.50 348.40 L 361.40 342.40 L 370.50 336.80 L 380.00 331.50 L 389.70 326.50 L 399.90 321.90 L 410.10 317.70 L 420.50 313.90 L 431.30 310.50 L 442.30 307.50 L 453.50 304.90 L 464.80 302.80 L 476.30 301.20 L 488.00 300.00 L 499.90 299.30 L 512.00 299.00 L 524.10 299.30 L 536.00 300.00 L 547.70 301.20 L 559.20 302.80 L 570.50 304.90 L 581.70 307.50 L 592.70 310.50 L 603.50 313.90 L 613.90 317.70 L 624.10 321.90 L 634.30 326.50 L 644.00 331.50 L 653.50 336.80 L 662.60 342.40 L 671.50 348.40 L 680.10 354.80 L 688.40 361.50 L 696.30 368.50 L 703.80 375.70 L 711.00 383.30 L 717.80 391.20 L 724.30 399.30 L 730.30 407.60 L 735.90 416.20 L 741.10 425.10 L 745.90 434.10 L 750.20 443.40 L 754.00 452.90 L 757.40 462.50 L 760.30 472.40 L 762.70 482.40 L 764.50 492.50 L 765.90 502.80 L 766.70 513.30 L 767.00 524.00 Z" fill="#ffcaca" fill-rule="evenodd" group-id="1,3,4" id="椭圆形" node-id="27" stroke="none" target-height="450" target-width="510" target-x="257" target-y="299"></path><path d="M 502.00 594.00 L 502.00 620.00 L 502.20 622.60 L 502.90 624.90 L 503.90 627.10 L 505.30 629.00 L 507.00 630.70 L 508.90 632.10 L 511.10 633.10 L 513.40 633.80 L 516.00 634.00 L 522.80 634.00" fill="none" group-id="1,3,4" id="路径-5备份" node-id="28" stroke="#ff9494" stroke-linecap="round" stroke-width="8" target-height="40" target-width="20.799988" target-x="502" target-y="594"></path><path d="M 434.00 567.00 L 433.70 570.50 L 432.80 573.60 L 431.40 576.60 L 429.50 579.30 L 427.30 581.50 L 424.60 583.40 L 421.60 584.80 L 418.50 585.70 L 415.00 586.00 L 411.50 585.70 L 408.40 584.80 L 405.40 583.40 L 402.70 581.50 L 400.50 579.30 L 398.60 576.60 L 397.20 573.60 L 396.30 570.50 L 396.00 567.00 L 396.30 563.50 L 397.20 560.40 L 398.60 557.40 L 400.50 554.70 L 402.70 552.50 L 405.40 550.60 L 408.40 549.20 L 411.50 548.30 L 415.00 548.00 L 418.50 548.30 L 421.60 549.20 L 424.60 550.60 L 427.30 552.50 L 429.50 554.70 L 431.40 557.40 L 432.80 560.40 L 433.70 563.50 L 434.00 567.00 Z" fill="#110d2e" fill-rule="evenodd" group-id="1,3,4" id="椭圆形" node-id="29" stroke="none" target-height="38" target-width="38" target-x="396" target-y="548"></path><path d="M 628.00 567.00 L 627.70 570.50 L 626.80 573.60 L 625.40 576.60 L 623.50 579.30 L 621.30 581.50 L 618.60 583.40 L 615.60 584.80 L 612.50 585.70 L 609.00 586.00 L 605.50 585.70 L 602.40 584.80 L 599.40 583.40 L 596.70 581.50 L 594.50 579.30 L 592.60 576.60 L 591.20 573.60 L 590.30 570.50 L 590.00 567.00 L 590.30 563.50 L 591.20 560.40 L 592.60 557.40 L 594.50 554.70 L 596.70 552.50 L 599.40 550.60 L 602.40 549.20 L 605.50 548.30 L 609.00 548.00 L 612.50 548.30 L 615.60 549.20 L 618.60 550.60 L 621.30 552.50 L 623.50 554.70 L 625.40 557.40 L 626.80 560.40 L 627.70 563.50 L 628.00 567.00 Z" fill="#110d2e" fill-rule="evenodd" group-id="1,3,4" id="椭圆形备份-7" node-id="30" stroke="none" target-height="38" target-width="38" target-x="590" target-y="548"></path><path d="M 469.00 680.50 L 481.50 685.60 L 487.30 687.40 L 493.30 688.70 L 499.30 689.60 L 505.40 690.00 L 511.50 690.00 L 517.50 689.60 L 523.50 688.60 L 529.50 687.30 L 535.30 685.50 L 541.00 683.20 L 546.60 680.50" fill="none" group-id="1,3,4" id="路径-35" node-id="31" stroke="#ec8484" stroke-linecap="round" stroke-width="10" target-height="9.5" target-width="77.599976" target-x="469" target-y="680.5"></path><path d="M 380.00 519.60 L 391.00 517.00 L 400.30 515.20 L 408.10 514.30 L 414.50 514.00 L 420.90 514.30 L 428.70 515.20 L 438.30 516.90 L 449.80 519.60" fill="none" group-id="1,3,4" id="路径-4备份" node-id="32" stroke="#110d2e" stroke-linecap="round" stroke-width="6" target-height="5.5999756" target-width="69.79999" target-x="380" target-y="514"></path><g node-id="153"><path d="M 643.80 519.60 L 632.70 517.00 L 623.40 515.20 L 615.70 514.30 L 609.30 514.00 L 602.90 514.30 L 595.00 515.20 L 585.50 516.90 L 574.00 519.60" fill="none" group-id="1,3,4,10" id="路径-4备份-2" node-id="33" stroke="#110d2e" stroke-linecap="round" stroke-width="6" target-height="5.5999756" target-width="69.79999" target-x="574" target-y="514"></path></g><g node-id="154"><g node-id="161"><path d="M 512.00 781.00 L 523.20 781.30 L 534.20 782.20 L 545.00 783.60 L 555.70 785.50 L 566.20 788.00 L 576.60 791.00 L 586.90 794.50 L 597.00 798.50 L 606.90 803.00 L 616.70 808.00 L 626.20 813.50 L 635.50 819.30 L 644.70 825.70 L 653.60 832.50 L 662.40 839.70 L 670.80 847.30 L 679.00 855.30 L 687.00 863.70 L 694.70 872.50 L 702.20 881.80 L 709.30 891.20 L 716.20 901.00 L 722.70 911.20 L 729.00 921.70 L 735.10 932.70 L 740.70 943.70 L 745.90 955.10 L 750.90 966.70 L 755.50 978.80 L 759.90 991.10 L 763.70 1003.50 L 767.20 1016.10 L 770.40 1029.00 L 773.10 1042.20 L 775.50 1055.70 L 777.50 1069.10 L 779.00 1082.70 L 780.10 1096.60 L 780.80 1110.70 L 781.00 1125.00 L 780.80 1139.30 L 780.10 1153.40 L 779.00 1167.30 L 777.50 1180.90 L 775.50 1194.30 L 773.10 1207.80 L 770.40 1221.00 L 767.20 1233.90 L 763.70 1246.50 L 759.90 1258.90 L 755.50 1271.20 L 750.90 1283.30 L 745.90 1294.90 L 740.70 1306.30 L 735.10 1317.30 L 729.00 1328.30 L 722.70 1338.80 L 716.20 1349.00 L 709.30 1358.80 L 702.20 1368.20 L 694.70 1377.50 L 687.00 1386.30 L 679.00 1394.70 L 670.80 1402.70 L 662.40 1410.30 L 653.60 1417.50 L 644.70 1424.30 L 635.50 1430.70 L 626.20 1436.50 L 616.70 1442.00 L 606.90 1447.00 L 597.00 1451.50 L 586.90 1455.50 L 576.60 1459.00 L 566.20 1462.00 L 555.70 1464.50 L 545.00 1466.40 L 534.20 1467.80 L 523.20 1468.70 L 512.00 1469.00 L 500.80 1468.70 L 489.80 1467.80 L 479.00 1466.40 L 468.30 1464.50 L 457.80 1462.00 L 447.40 1459.00 L 437.10 1455.50 L 427.00 1451.50 L 417.10 1447.00 L 407.30 1442.00 L 397.80 1436.50 L 388.50 1430.70 L 379.30 1424.30 L 370.40 1417.50 L 361.60 1410.30 L 353.20 1402.70 L 345.00 1394.70 L 337.00 1386.30 L 329.30 1377.50 L 321.80 1368.20 L 314.70 1358.80 L 307.80 1349.00 L 301.30 1338.80 L 295.00 1328.30 L 288.90 1317.30 L 283.30 1306.30 L 278.10 1294.90 L 273.10 1283.30 L 268.50 1271.20 L 264.10 1258.90 L 260.30 1246.50 L 256.80 1233.90 L 253.60 1221.00 L 250.90 1207.80 L 248.50 1194.30 L 246.50 1180.90 L 245.00 1167.30 L 243.90 1153.40 L 243.20 1139.30 L 243.00 1125.00 L 243.20 1110.70 L 243.90 1096.60 L 245.00 1082.70 L 246.50 1069.10 L 248.50 1055.70 L 250.90 1042.20 L 253.60 1029.00 L 256.80 1016.10 L 260.30 1003.50 L 264.10 991.10 L 268.50 978.80 L 273.10 966.70 L 278.10 955.10 L 283.30 943.70 L 288.90 932.70 L 295.00 921.70 L 301.30 911.20 L 307.80 901.00 L 314.70 891.20 L 321.80 881.80 L 329.30 872.50 L 337.00 863.70 L 345.00 855.30 L 353.20 847.30 L 361.60 839.70 L 370.40 832.50 L 379.30 825.70 L 388.50 819.30 L 397.80 813.50 L 407.30 808.00 L 417.10 803.00 L 427.00 798.50 L 437.10 794.50 L 447.40 791.00 L 457.80 788.00 L 468.30 785.50 L 479.00 783.60 L 489.80 782.20 L 500.80 781.30 L 512.00 781.00 Z" fill="#339456" fill-rule="evenodd" group-id="1,3,4,11,18" node-id="142" stroke="none" target-height="688" target-width="538" target-x="243" target-y="781"></path></g><g node-id="162"><path d="M 584.00 783.00 L 583.70 785.30 L 582.70 787.60 L 581.00 789.90 L 578.30 792.30 L 572.10 796.20 L 562.90 800.00 L 556.30 801.90 L 548.70 803.70 L 540.00 805.10 L 531.30 806.10 L 522.00 806.80 L 512.00 807.00 L 502.00 806.80 L 492.70 806.10 L 484.00 805.10 L 475.30 803.70 L 467.70 801.90 L 461.10 800.00 L 451.90 796.20 L 445.70 792.30 L 443.00 789.90 L 441.30 787.60 L 440.30 785.30 L 440.00 783.00 L 440.30 780.70 L 441.30 778.40 L 443.00 776.10 L 445.70 773.70 L 451.90 769.80 L 461.10 766.00 L 467.70 764.10 L 475.30 762.30 L 484.00 760.90 L 492.70 759.90 L 502.00 759.20 L 512.00 759.00 L 522.00 759.20 L 531.30 759.90 L 540.00 760.90 L 548.70 762.30 L 556.30 764.10 L 562.90 766.00 L 572.10 769.80 L 578.30 773.70 L 581.00 776.10 L 582.70 778.40 L 583.70 780.70 L 584.00 783.00 Z" fill="#ffcaca" fill-rule="evenodd" group-id="1,3,4,11,19" id="椭圆形" node-id="38" stroke="none" target-height="48" target-width="144" target-x="440" target-y="759"></path></g><g node-id="163"><path d="M 568.00 788.10 L 512.00 807.00 L 565.90 862.80 L 603.80 793.10 L 586.10 791.20 L 568.00 788.10 Z" fill="#ffffff" fill-rule="evenodd" group-id="1,3,4,11,20" id="路径-23备份" node-id="39" stroke="none" target-height="74.70001" target-width="91.79999" target-x="512" target-y="788.1"></path></g><path d="M 455.80 788.10 L 511.80 807.00 L 457.90 862.80 L 420.00 793.10 L 437.70 791.20 L 455.80 788.10 Z" fill="#ffffff" fill-rule="evenodd" group-id="1,3,4,11,21" id="路径-23备份" node-id="40" stroke="none" target-height="74.70001" target-width="91.79999" target-x="420" target-y="788.1"></path></g><path d="M 798.00 311.50 L 797.70 317.90 L 796.80 324.20 L 795.30 330.50 L 793.20 336.60 L 790.40 342.80 L 787.30 348.60 L 783.60 354.40 L 779.30 360.10 L 774.40 365.80 L 768.90 371.50 L 763.30 376.70 L 750.40 386.90 L 735.20 396.90 L 725.30 402.40 L 714.60 407.80 L 703.20 413.00 L 690.90 418.00 L 678.60 422.50 L 665.70 426.60 L 652.10 430.50 L 637.80 434.10 L 623.50 437.20 L 608.80 440.00 L 593.50 442.40 L 577.60 444.40 L 561.80 445.90 L 545.60 447.10 L 529.00 447.80 L 512.00 448.00 L 495.00 447.80 L 478.40 447.10 L 462.20 445.90 L 446.40 444.40 L 430.50 442.40 L 415.20 440.00 L 400.50 437.20 L 386.20 434.10 L 371.90 430.50 L 358.30 426.60 L 345.40 422.50 L 333.10 418.00 L 320.80 413.00 L 309.40 407.80 L 298.70 402.40 L 288.80 396.90 L 273.60 386.90 L 260.70 376.70 L 255.10 371.50 L 249.60 365.80 L 244.70 360.10 L 240.40 354.40 L 236.70 348.60 L 233.60 342.80 L 230.80 336.60 L 228.70 330.50 L 227.20 324.20 L 226.30 317.90 L 226.00 311.50 L 226.30 305.10 L 227.20 298.80 L 228.70 292.50 L 230.80 286.40 L 233.60 280.20 L 236.70 274.40 L 240.40 268.60 L 244.70 262.90 L 249.60 257.20 L 255.10 251.50 L 266.90 241.10 L 273.60 236.10 L 288.80 226.10 L 298.70 220.60 L 309.40 215.20 L 320.80 210.00 L 333.10 205.00 L 345.40 200.50 L 358.30 196.40 L 371.90 192.50 L 386.20 188.90 L 400.50 185.80 L 415.20 183.00 L 430.50 180.60 L 446.40 178.60 L 462.20 177.10 L 478.40 175.90 L 495.00 175.20 L 512.00 175.00 L 529.00 175.20 L 545.60 175.90 L 561.80 177.10 L 577.60 178.60 L 593.50 180.60 L 608.80 183.00 L 623.50 185.80 L 637.80 188.90 L 652.10 192.50 L 665.70 196.40 L 678.60 200.50 L 690.90 205.00 L 703.20 210.00 L 714.60 215.20 L 725.30 220.60 L 735.20 226.10 L 750.40 236.10 L 763.30 246.30 L 768.90 251.50 L 774.40 257.20 L 779.30 262.90 L 783.60 268.60 L 787.30 274.40 L 790.40 280.20 L 793.20 286.40 L 795.30 292.50 L 796.80 298.80 L 797.70 305.10 L 798.00 311.50 Z" fill="#110d2e" fill-rule="evenodd" group-id="1,3,4" id="椭圆形" node-id="41" stroke="none" target-height="273" target-width="572" target-x="226" target-y="175"></path><g node-id="155"><path d="M 316.40 364.40 L 427.40 451.60 L 336.40 504.10 Z" fill="#ffcaca" fill-rule="evenodd" group-id="1,3,4,12" id="三角形" node-id="42" stroke="none" target-height="139.70001" target-width="111" target-x="316.4" target-y="364.4"></path></g><g node-id="156"><path d="M 430.30 354.70 L 519.80 449.70 L 467.90 479.70 Z" fill="#ffcaca" fill-rule="evenodd" group-id="1,3,4,13" id="三角形备份" node-id="43" stroke="none" target-height="125" target-width="89.5" target-x="430.3" target-y="354.7"></path></g><path d="M 520.00 871.00 L 519.70 873.10 L 518.90 875.00 L 517.70 876.70 L 516.00 877.90 L 514.10 878.70 L 512.00 879.00 L 509.90 878.70 L 508.00 877.90 L 506.30 876.70 L 505.10 875.00 L 504.30 873.10 L 504.00 871.00 L 504.30 868.90 L 505.10 867.00 L 506.30 865.30 L 508.00 864.10 L 509.90 863.30 L 512.00 863.00 L 514.10 863.30 L 516.00 864.10 L 517.70 865.30 L 518.90 867.00 L 519.70 868.90 L 520.00 871.00 Z" fill="#10592a" fill-rule="evenodd" group-id="1,3,4" id="椭圆形" node-id="44" stroke="none" target-height="16" target-width="16" target-x="504" target-y="863"></path><path d="M 520.00 934.00 L 519.70 936.10 L 518.90 938.00 L 517.70 939.70 L 516.00 940.90 L 514.10 941.70 L 512.00 942.00 L 509.90 941.70 L 508.00 940.90 L 506.30 939.70 L 505.10 938.00 L 504.30 936.10 L 504.00 934.00 L 504.30 931.90 L 505.10 930.00 L 506.30 928.30 L 508.00 927.10 L 509.90 926.30 L 512.00 926.00 L 514.10 926.30 L 516.00 927.10 L 517.70 928.30 L 518.90 930.00 L 519.70 931.90 L 520.00 934.00 Z" fill="#10592a" fill-rule="evenodd" group-id="1,3,4" id="椭圆形备份-2" node-id="45" stroke="none" target-height="16" target-width="16" target-x="504" target-y="926"></path><path d="M 520.00 997.00 L 519.70 999.10 L 518.90 1001.00 L 517.70 1002.70 L 516.00 1003.90 L 514.10 1004.70 L 512.00 1005.00 L 509.90 1004.70 L 508.00 1003.90 L 506.30 1002.70 L 505.10 1001.00 L 504.30 999.10 L 504.00 997.00 L 504.30 994.90 L 505.10 993.00 L 506.30 991.30 L 508.00 990.10 L 509.90 989.30 L 512.00 989.00 L 514.10 989.30 L 516.00 990.10 L 517.70 991.30 L 518.90 993.00 L 519.70 994.90 L 520.00 997.00 Z" fill="#10592a" fill-rule="evenodd" group-id="1,3,4" id="椭圆形备份-3" node-id="46" stroke="none" target-height="16" target-width="16" target-x="504" target-y="989"></path><g node-id="157"><path d="M 379.50 953.50 L 353.50 1039.60" fill="none" group-id="1,3,4,14" id="路径-6" node-id="47" stroke="#000000" stroke-linecap="round" stroke-opacity="0.10692633" stroke-width="7" target-height="86.099976" target-width="26" target-x="353.5" target-y="953.5"></path></g><path d="M 644.50 953.50 L 670.50 1039.60" fill="none" group-id="1,3,4,15" id="路径-6备份" node-id="48" stroke="#000000" stroke-linecap="round" stroke-opacity="0.10692633" stroke-width="7" target-height="86.099976" target-width="26" target-x="644.5" target-y="953.5"></path></g></g></g></svg>