<?xml version="1.0" standalone="no"?><!DOCTYPE svg PUBLIC "-//W3C//DTD SVG 1.1//EN" "http://www.w3.org/Graphics/SVG/1.1/DTD/svg11.dtd"><svg height="1024" node-id="1" sillyvg="true" template-height="1024" template-width="1024" version="1.1" viewBox="0 0 1024 1024" width="1024" xmlns="http://www.w3.org/2000/svg" xmlns:xlink="http://www.w3.org/1999/xlink"><defs node-id="50"><mask height="4020.1519" id="mask-2" maskUnits="userSpaceOnUse" node-id="11" width="4004.8708" x="3050.3005" y="1306.0736"><path d="M 4537.20 3022.20 L 4551.50 3014.30 L 4565.90 3006.90 L 4580.50 2999.90 L 4595.30 2993.40 L 4610.20 2987.50 L 4625.30 2981.90 L 4640.60 2976.90 L 4655.90 2972.40 L 4671.40 2968.30 L 4687.00 2964.80 L 4702.70 2961.70 L 4718.50 2959.10 L 4734.30 2957.00 L 4750.20 2955.40 L 4766.20 2954.30 L 4782.20 2953.80 L 4798.20 2953.70 L 4814.20 2954.10 L 4830.20 2955.00 L 4846.30 2956.40 L 4862.20 2958.30 L 4878.20 2960.70 L 4894.00 2963.70 L 4909.90 2967.10 L 4925.70 2971.10 L 4941.40 2975.60 L 4956.90 2980.50 L 4972.10 2985.90 L 4987.10 2991.80 L 5001.90 2998.10 L 5016.50 3004.90 L 5030.90 3012.10 L 5044.90 3019.80 L 5058.70 3027.90 L 5072.30 3036.40 L 5085.60 3045.30 L 5098.50 3054.60 L 5111.20 3064.30 L 5123.60 3074.50 L 5135.60 3085.00 L 5147.40 3095.90 L 5158.70 3107.10 L 5169.80 3118.70 L 5180.50 3130.70 L 5190.80 3143.00 L 5200.80 3155.70 L 5210.30 3168.70 L 5219.50 3182.00 L 5228.20 3195.60 L 5236.60 3209.60 L 5244.60 3223.90 L 5252.00 3238.30 L 5258.90 3252.90 L 5265.40 3267.70 L 5271.40 3282.60 L 5276.90 3297.70 L 5281.90 3313.00 L 5286.50 3328.30 L 5290.50 3343.80 L 5294.10 3359.40 L 5297.20 3375.10 L 5299.70 3390.90 L 5303.40 3422.60 L 5304.50 3438.60 L 5305.10 3454.60 L 5305.20 3470.60 L 5304.80 3486.60 L 5303.90 3502.60 L 5302.50 3518.70 L 5300.60 3534.60 L 5298.10 3550.60 L 5295.20 3566.50 L 5291.70 3582.30 L 5287.80 3598.10 L 5283.30 3613.80 L 5278.40 3629.30 L 5273.00 3644.50 L 5267.10 3659.50 L 5254.00 3688.90 L 5246.70 3703.30 L 5239.10 3717.30 L 5231.00 3731.10 L 5222.50 3744.70 L 5213.60 3758.00 L 5204.20 3770.90 L 5194.50 3783.60 L 5184.40 3796.00 L 5173.90 3808.10 L 5163.00 3819.80 L 5151.70 3831.20 L 5140.10 3842.20 L 5128.20 3852.90 L 5115.80 3863.20 L 5103.20 3873.20 L 5090.20 3882.70 L 5076.90 3891.90 L 5063.20 3900.60 L 5049.20 3909.00 L 5035.00 3917.00 L 5020.50 3924.40 L 5005.90 3931.40 L 4991.20 3937.80 L 4976.30 3943.80 L 4961.10 3949.30 L 4945.90 3954.40 L 4930.50 3958.90 L 4915.00 3962.90 L 4899.40 3966.50 L 4883.70 3969.60 L 4868.00 3972.10 L 4852.10 3974.20 L 4836.20 3975.80 L 4820.30 3976.90 L 4804.30 3977.50 L 4788.30 3977.60 L 4772.30 3977.20 L 4756.20 3976.30 L 4740.20 3974.90 L 4724.20 3973.00 L 4708.30 3970.50 L 4692.40 3967.60 L 4676.50 3964.20 L 4660.70 3960.20 L 4645.00 3955.70 L 4629.50 3950.80 L 4614.30 3945.40 L 4599.30 3939.50 L 4584.50 3933.20 L 4569.90 3926.40 L 4555.60 3919.10 L 4541.50 3911.50 L 4527.70 3903.40 L 4514.20 3894.90 L 4500.90 3886.00 L 4487.90 3876.60 L 4475.20 3866.90 L 4462.90 3856.80 L 4450.80 3846.30 L 4439.10 3835.40 L 4427.70 3824.20 L 4416.70 3812.60 L 4406.00 3800.60 L 4395.60 3788.20 L 4385.70 3775.60 L 4376.10 3762.60 L 4367.00 3749.30 L 4358.20 3735.60 L 4349.80 3721.60 L 4341.90 3707.40 L 4334.40 3692.90 L 4327.50 3678.40 L 4321.00 3663.60 L 4315.10 3648.70 L 4309.50 3633.50 L 4304.50 3618.30 L 4300.00 3602.90 L 4295.90 3587.40 L 4292.40 3571.80 L 4289.30 3556.10 L 4286.70 3540.40 L 4284.60 3524.50 L 4283.00 3508.60 L 4281.90 3492.70 L 4281.30 3476.70 L 4281.20 3460.70 L 4281.70 3444.70 L 4282.60 3428.70 L 4284.00 3412.60 L 4285.90 3396.60 L 4288.30 3380.70 L 4291.20 3364.80 L 4294.70 3349.00 L 4298.70 3333.10 L 4303.10 3317.40 L 4308.10 3302.00 L 4313.50 3286.70 L 4319.40 3271.70 L 4325.70 3256.90 L 4332.50 3242.30 L 4339.70 3228.00 L 4347.40 3213.90 L 4355.40 3200.10 L 4364.00 3186.60 L 4372.90 3173.30 L 4382.20 3160.30 L 4391.90 3147.70 L 4402.10 3135.30 L 4412.60 3123.20 L 4423.50 3111.50 L 4434.70 3100.10 L 4446.30 3089.10 L 4458.30 3078.40 L 4470.60 3068.00 L 4483.30 3058.10 L 4496.30 3048.60 L 4509.60 3039.40 L 4523.20 3030.60 L 4537.20 3022.20 Z" fill="#ffffff" fill-rule="evenodd" node-id="55" stroke="none" target-height="1023.90015" target-width="1024" target-x="4281.2" target-y="2953.7"></path></mask><mask height="112.8" id="mask-4" maskUnits="userSpaceOnUse" node-id="23" width="189.6" x="-47.8" y="-51.4"><path d="M 0.00 0.00 L 94.00 0.00 L 94.00 133.00 L 0.00 133.00 Z" fill="#ffffff" fill-rule="evenodd" node-id="62" stroke="none" target-height="133" target-width="94" target-x="0" target-y="0"></path></mask><mask height="218.40001" id="mask-6" maskUnits="userSpaceOnUse" node-id="40" width="52.799995" x="105.6" y="0.89556694"><path d="M 347.60 -0.00 L 358.50 4.60 L 369.10 9.70 L 379.60 15.40 L 389.90 21.70 L 400.00 28.50 L 409.60 35.80 L 419.10 43.60 L 428.30 51.80 L 437.20 60.60 L 445.90 70.00 L 454.20 79.60 L 462.10 89.60 L 469.80 100.10 L 477.10 111.10 L 484.10 122.50 L 490.70 134.10 L 496.80 146.10 L 502.60 158.50 L 508.10 171.20 L 513.10 184.40 L 517.70 197.70 L 521.80 211.20 L 525.50 225.10 L 528.70 239.30 L 531.50 253.90 L 533.80 268.40 L 535.60 283.20 L 536.90 298.20 L 537.70 313.50 L 538.00 329.10 L 537.80 343.40 L 537.10 357.50 L 536.00 371.40 L 534.50 385.00 L 532.50 398.40 L 530.10 411.90 L 527.40 425.10 L 524.20 438.00 L 520.70 450.60 L 516.90 463.00 L 512.50 475.30 L 507.90 487.40 L 502.90 499.00 L 497.70 510.40 L 492.10 521.40 L 486.00 532.40 L 479.70 542.90 L 473.20 553.10 L 466.30 562.90 L 459.20 572.30 L 451.70 581.60 L 444.00 590.40 L 436.00 598.80 L 427.80 606.80 L 419.40 614.30 L 410.60 621.60 L 401.70 628.40 L 392.50 634.80 L 383.20 640.60 L 373.70 646.10 L 363.90 651.10 L 354.00 655.60 L 343.90 659.60 L 333.60 663.10 L 323.20 666.10 L 312.70 668.60 L 302.00 670.50 L 291.20 671.90 L 280.20 672.80 L 269.00 673.10 L 257.80 672.80 L 246.80 671.90 L 236.00 670.50 L 225.30 668.60 L 214.80 666.10 L 204.40 663.10 L 194.10 659.60 L 184.00 655.60 L 174.10 651.10 L 164.30 646.10 L 154.80 640.60 L 145.50 634.80 L 136.30 628.40 L 127.40 621.60 L 118.60 614.30 L 110.20 606.80 L 102.00 598.80 L 94.00 590.40 L 86.30 581.60 L 78.80 572.30 L 71.70 562.90 L 64.80 553.10 L 58.30 542.90 L 52.00 532.40 L 45.90 521.40 L 40.30 510.40 L 35.10 499.00 L 30.10 487.40 L 25.50 475.30 L 21.10 463.00 L 17.30 450.60 L 13.80 438.00 L 10.60 425.10 L 7.90 411.90 L 5.50 398.40 L 3.50 385.00 L 2.00 371.40 L 0.90 357.50 L 0.20 343.40 L 0.00 329.10 L 0.30 313.50 L 1.10 298.20 L 2.40 283.20 L 4.20 268.40 L 6.50 253.90 L 9.30 239.30 L 12.50 225.10 L 16.20 211.20 L 20.30 197.70 L 24.90 184.40 L 29.90 171.20 L 35.40 158.50 L 41.20 146.10 L 47.30 134.10 L 53.90 122.50 L 60.90 111.10 L 68.20 100.10 L 75.90 89.60 L 83.80 79.60 L 92.10 70.00 L 100.80 60.60 L 109.70 51.80 L 118.90 43.60 L 128.40 35.80 L 138.00 28.50 L 148.10 21.70 L 158.40 15.40 L 168.90 9.70 L 179.50 4.60 L 190.40 0.00 L 200.80 6.90 L 206.50 10.00 L 212.60 12.80 L 225.30 17.60 L 239.20 21.10 L 246.30 22.40 L 261.20 23.90 L 269.00 24.10 L 276.70 23.90 L 291.50 22.40 L 298.50 21.20 L 312.30 17.70 L 324.90 13.10 L 331.00 10.20 L 336.70 7.20 L 346.90 0.50 Z" fill="#ffffff" fill-rule="evenodd" node-id="69" stroke="none" target-height="673.1" target-width="538" target-x="0" target-y="-0"></path></mask><mask height="218.40002" id="mask1" maskUnits="userSpaceOnUse" node-id="73" width="381.59998" x="78.2" y="111.89556"><path d="M 347.60 -0.00 L 358.50 4.60 L 369.10 9.70 L 379.60 15.40 L 389.90 21.70 L 400.00 28.50 L 409.60 35.80 L 419.10 43.60 L 428.30 51.80 L 437.20 60.60 L 445.90 70.00 L 454.20 79.60 L 462.10 89.60 L 469.80 100.10 L 477.10 111.10 L 484.10 122.50 L 490.70 134.10 L 496.80 146.10 L 502.60 158.50 L 508.10 171.20 L 513.10 184.40 L 517.70 197.70 L 521.80 211.20 L 525.50 225.10 L 528.70 239.30 L 531.50 253.90 L 533.80 268.40 L 535.60 283.20 L 536.90 298.20 L 537.70 313.50 L 538.00 329.10 L 537.80 343.40 L 537.10 357.50 L 536.00 371.40 L 534.50 385.00 L 532.50 398.40 L 530.10 411.90 L 527.40 425.10 L 524.20 438.00 L 520.70 450.60 L 516.90 463.00 L 512.50 475.30 L 507.90 487.40 L 502.90 499.00 L 497.70 510.40 L 492.10 521.40 L 486.00 532.40 L 479.70 542.90 L 473.20 553.10 L 466.30 562.90 L 459.20 572.30 L 451.70 581.60 L 444.00 590.40 L 436.00 598.80 L 427.80 606.80 L 419.40 614.30 L 410.60 621.60 L 401.70 628.40 L 392.50 634.80 L 383.20 640.60 L 373.70 646.10 L 363.90 651.10 L 354.00 655.60 L 343.90 659.60 L 333.60 663.10 L 323.20 666.10 L 312.70 668.60 L 302.00 670.50 L 291.20 671.90 L 280.20 672.80 L 269.00 673.10 L 257.80 672.80 L 246.80 671.90 L 236.00 670.50 L 225.30 668.60 L 214.80 666.10 L 204.40 663.10 L 194.10 659.60 L 184.00 655.60 L 174.10 651.10 L 164.30 646.10 L 154.80 640.60 L 145.50 634.80 L 136.30 628.40 L 127.40 621.60 L 118.60 614.30 L 110.20 606.80 L 102.00 598.80 L 94.00 590.40 L 86.30 581.60 L 78.80 572.30 L 71.70 562.90 L 64.80 553.10 L 58.30 542.90 L 52.00 532.40 L 45.90 521.40 L 40.30 510.40 L 35.10 499.00 L 30.10 487.40 L 25.50 475.30 L 21.10 463.00 L 17.30 450.60 L 13.80 438.00 L 10.60 425.10 L 7.90 411.90 L 5.50 398.40 L 3.50 385.00 L 2.00 371.40 L 0.90 357.50 L 0.20 343.40 L 0.00 329.10 L 0.30 313.50 L 1.10 298.20 L 2.40 283.20 L 4.20 268.40 L 6.50 253.90 L 9.30 239.30 L 12.50 225.10 L 16.20 211.20 L 20.30 197.70 L 24.90 184.40 L 29.90 171.20 L 35.40 158.50 L 41.20 146.10 L 47.30 134.10 L 53.90 122.50 L 60.90 111.10 L 68.20 100.10 L 75.90 89.60 L 83.80 79.60 L 92.10 70.00 L 100.80 60.60 L 109.70 51.80 L 118.90 43.60 L 128.40 35.80 L 138.00 28.50 L 148.10 21.70 L 158.40 15.40 L 168.90 9.70 L 179.50 4.60 L 190.40 0.00 L 200.80 6.90 L 206.50 10.00 L 212.60 12.80 L 225.30 17.60 L 239.20 21.10 L 246.30 22.40 L 261.20 23.90 L 269.00 24.10 L 276.70 23.90 L 291.50 22.40 L 298.50 21.20 L 312.30 17.70 L 324.90 13.10 L 331.00 10.20 L 336.70 7.20 L 346.90 0.50 Z" fill="#ffffff" fill-rule="evenodd" node-id="77" stroke="none" target-height="673.1" target-width="538" target-x="0" target-y="-0"></path></mask><mask height="218.40001" id="mask2" maskUnits="userSpaceOnUse" node-id="81" width="52.80002" x="379.6" y="0.89556694"><path d="M 347.60 -0.00 L 358.50 4.60 L 369.10 9.70 L 379.60 15.40 L 389.90 21.70 L 400.00 28.50 L 409.60 35.80 L 419.10 43.60 L 428.30 51.80 L 437.20 60.60 L 445.90 70.00 L 454.20 79.60 L 462.10 89.60 L 469.80 100.10 L 477.10 111.10 L 484.10 122.50 L 490.70 134.10 L 496.80 146.10 L 502.60 158.50 L 508.10 171.20 L 513.10 184.40 L 517.70 197.70 L 521.80 211.20 L 525.50 225.10 L 528.70 239.30 L 531.50 253.90 L 533.80 268.40 L 535.60 283.20 L 536.90 298.20 L 537.70 313.50 L 538.00 329.10 L 537.80 343.40 L 537.10 357.50 L 536.00 371.40 L 534.50 385.00 L 532.50 398.40 L 530.10 411.90 L 527.40 425.10 L 524.20 438.00 L 520.70 450.60 L 516.90 463.00 L 512.50 475.30 L 507.90 487.40 L 502.90 499.00 L 497.70 510.40 L 492.10 521.40 L 486.00 532.40 L 479.70 542.90 L 473.20 553.10 L 466.30 562.90 L 459.20 572.30 L 451.70 581.60 L 444.00 590.40 L 436.00 598.80 L 427.80 606.80 L 419.40 614.30 L 410.60 621.60 L 401.70 628.40 L 392.50 634.80 L 383.20 640.60 L 373.70 646.10 L 363.90 651.10 L 354.00 655.60 L 343.90 659.60 L 333.60 663.10 L 323.20 666.10 L 312.70 668.60 L 302.00 670.50 L 291.20 671.90 L 280.20 672.80 L 269.00 673.10 L 257.80 672.80 L 246.80 671.90 L 236.00 670.50 L 225.30 668.60 L 214.80 666.10 L 204.40 663.10 L 194.10 659.60 L 184.00 655.60 L 174.10 651.10 L 164.30 646.10 L 154.80 640.60 L 145.50 634.80 L 136.30 628.40 L 127.40 621.60 L 118.60 614.30 L 110.20 606.80 L 102.00 598.80 L 94.00 590.40 L 86.30 581.60 L 78.80 572.30 L 71.70 562.90 L 64.80 553.10 L 58.30 542.90 L 52.00 532.40 L 45.90 521.40 L 40.30 510.40 L 35.10 499.00 L 30.10 487.40 L 25.50 475.30 L 21.10 463.00 L 17.30 450.60 L 13.80 438.00 L 10.60 425.10 L 7.90 411.90 L 5.50 398.40 L 3.50 385.00 L 2.00 371.40 L 0.90 357.50 L 0.20 343.40 L 0.00 329.10 L 0.30 313.50 L 1.10 298.20 L 2.40 283.20 L 4.20 268.40 L 6.50 253.90 L 9.30 239.30 L 12.50 225.10 L 16.20 211.20 L 20.30 197.70 L 24.90 184.40 L 29.90 171.20 L 35.40 158.50 L 41.20 146.10 L 47.30 134.10 L 53.90 122.50 L 60.90 111.10 L 68.20 100.10 L 75.90 89.60 L 83.80 79.60 L 92.10 70.00 L 100.80 60.60 L 109.70 51.80 L 118.90 43.60 L 128.40 35.80 L 138.00 28.50 L 148.10 21.70 L 158.40 15.40 L 168.90 9.70 L 179.50 4.60 L 190.40 0.00 L 200.80 6.90 L 206.50 10.00 L 212.60 12.80 L 225.30 17.60 L 239.20 21.10 L 246.30 22.40 L 261.20 23.90 L 269.00 24.10 L 276.70 23.90 L 291.50 22.40 L 298.50 21.20 L 312.30 17.70 L 324.90 13.10 L 331.00 10.20 L 336.70 7.20 L 346.90 0.50 Z" fill="#ffffff" fill-rule="evenodd" node-id="85" stroke="none" target-height="673.1" target-width="538" target-x="0" target-y="-0"></path></mask></defs><path d="M 0.00 0.00 L 1024.00 0.00 L 1024.00 1024.00 L 0.00 1024.00 Z" fill="#ffffff" fill-rule="evenodd" node-id="91" stroke="none" target-height="1024" target-width="1024" target-x="0" target-y="0"></path><g node-id="154"><g node-id="155"><path d="M 1024.00 512.00 L 1023.70 528.30 L 1023.00 544.50 L 1021.70 560.60 L 1019.90 576.70 L 1017.60 592.60 L 1014.80 608.40 L 1011.60 624.20 L 1007.80 639.70 L 1003.60 655.20 L 998.90 670.40 L 993.70 685.60 L 988.00 700.50 L 981.90 715.30 L 975.30 729.80 L 968.30 744.20 L 960.80 758.40 L 952.90 772.30 L 944.60 785.90 L 935.80 799.40 L 926.50 812.60 L 916.90 825.40 L 906.80 838.00 L 896.30 850.30 L 885.40 862.30 L 874.00 874.00 L 862.30 885.40 L 850.30 896.30 L 838.00 906.80 L 825.40 916.90 L 812.60 926.50 L 799.40 935.80 L 785.90 944.60 L 772.30 952.90 L 758.40 960.80 L 744.20 968.30 L 729.80 975.30 L 715.30 981.90 L 700.50 988.00 L 685.60 993.70 L 670.40 998.90 L 655.20 1003.60 L 639.70 1007.80 L 624.20 1011.60 L 608.40 1014.80 L 592.60 1017.60 L 576.70 1019.90 L 560.60 1021.70 L 544.50 1023.00 L 528.30 1023.70 L 512.00 1024.00 L 495.70 1023.70 L 479.50 1023.00 L 463.40 1021.70 L 447.30 1019.90 L 431.40 1017.60 L 415.60 1014.80 L 399.80 1011.60 L 384.30 1007.80 L 368.80 1003.60 L 353.60 998.90 L 338.40 993.70 L 323.50 988.00 L 308.70 981.90 L 294.20 975.30 L 279.80 968.30 L 265.60 960.80 L 251.70 952.90 L 238.10 944.60 L 224.60 935.80 L 211.40 926.50 L 198.60 916.90 L 186.00 906.80 L 173.70 896.30 L 161.70 885.40 L 150.00 874.00 L 138.60 862.30 L 127.70 850.30 L 117.20 838.00 L 107.10 825.40 L 97.50 812.60 L 88.20 799.40 L 79.40 785.90 L 71.10 772.30 L 63.20 758.40 L 55.70 744.20 L 48.70 729.80 L 42.10 715.30 L 36.00 700.50 L 30.30 685.60 L 25.10 670.40 L 20.40 655.20 L 16.20 639.70 L 12.40 624.20 L 9.20 608.40 L 6.40 592.60 L 4.10 576.70 L 2.30 560.60 L 1.00 544.50 L 0.30 528.30 L 0.00 512.00 L 0.30 495.70 L 1.00 479.50 L 2.30 463.40 L 4.10 447.30 L 6.40 431.40 L 9.20 415.60 L 12.40 399.80 L 16.20 384.30 L 20.40 368.80 L 25.10 353.60 L 30.30 338.40 L 36.00 323.50 L 42.10 308.70 L 48.70 294.20 L 55.70 279.80 L 63.20 265.60 L 71.10 251.70 L 79.40 238.10 L 88.20 224.60 L 97.50 211.40 L 107.10 198.60 L 117.20 186.00 L 127.70 173.70 L 138.60 161.70 L 150.00 150.00 L 161.70 138.60 L 173.70 127.70 L 186.00 117.20 L 198.60 107.10 L 211.40 97.50 L 224.60 88.20 L 238.10 79.40 L 251.70 71.10 L 265.60 63.20 L 279.80 55.70 L 294.20 48.70 L 308.70 42.10 L 323.50 36.00 L 338.40 30.30 L 353.60 25.10 L 368.80 20.40 L 384.30 16.20 L 399.80 12.40 L 415.60 9.20 L 431.40 6.40 L 447.30 4.10 L 463.40 2.30 L 479.50 1.00 L 495.70 0.30 L 512.00 0.00 L 528.30 0.30 L 544.50 1.00 L 560.60 2.30 L 576.70 4.10 L 592.60 6.40 L 608.40 9.20 L 624.20 12.40 L 639.70 16.20 L 655.20 20.40 L 670.40 25.10 L 685.60 30.30 L 700.50 36.00 L 715.30 42.10 L 729.80 48.70 L 744.20 55.70 L 758.40 63.20 L 772.30 71.10 L 785.90 79.40 L 799.40 88.20 L 812.60 97.50 L 825.40 107.10 L 838.00 117.20 L 850.30 127.70 L 862.30 138.60 L 874.00 150.00 L 885.40 161.70 L 896.30 173.70 L 906.80 186.00 L 916.90 198.60 L 926.50 211.40 L 935.80 224.60 L 944.60 238.10 L 952.90 251.70 L 960.80 265.60 L 968.30 279.80 L 975.30 294.20 L 981.90 308.70 L 988.00 323.50 L 993.70 338.40 L 998.90 353.60 L 1003.60 368.80 L 1007.80 384.30 L 1011.60 399.80 L 1014.80 415.60 L 1017.60 431.40 L 1019.90 447.30 L 1021.70 463.40 L 1023.00 479.50 L 1023.70 495.70 L 1024.00 512.00 Z" fill="#77c4f9" fill-opacity="0.2" fill-rule="evenodd" group-id="1,2" node-id="95" stroke="none" target-height="1024" target-width="1024" target-x="0" target-y="0"></path></g><g node-id="156"><g node-id="157"><path d="M 512.00 781.00 L 522.30 781.20 L 532.40 782.00 L 542.30 783.20 L 552.20 784.80 L 562.00 786.90 L 571.70 789.50 L 581.20 792.50 L 590.60 795.90 L 580.20 802.80 L 574.50 805.90 L 568.40 808.70 L 555.70 813.50 L 541.80 817.00 L 534.70 818.30 L 519.80 819.80 L 512.00 820.00 L 504.20 819.80 L 489.30 818.30 L 482.20 817.00 L 468.30 813.50 L 455.60 808.70 L 449.50 805.90 L 443.80 802.80 L 433.40 795.90 L 442.80 792.50 L 452.30 789.50 L 462.00 786.90 L 471.80 784.80 L 481.70 783.20 L 491.60 782.00 L 501.70 781.20 L 512.00 781.00 Z" fill="#489ad2" fill-rule="evenodd" group-id="1,3,4" id="形状结合" node-id="16" stroke="none" target-height="39" target-width="157.19998" target-x="433.4" target-y="781"></path><path d="M 334.00 270.00 L 690.00 270.00 L 697.70 270.30 L 705.30 271.00 L 712.60 272.30 L 719.80 274.00 L 726.80 276.20 L 733.60 278.80 L 740.20 281.80 L 746.50 285.30 L 752.60 289.10 L 758.40 293.30 L 764.00 297.90 L 769.20 302.80 L 774.10 308.00 L 778.70 313.60 L 782.90 319.40 L 786.70 325.50 L 790.20 331.80 L 793.20 338.40 L 795.80 345.20 L 798.00 352.20 L 799.70 359.40 L 801.00 366.70 L 801.70 374.30 L 802.00 382.00 L 802.00 482.00 L 801.70 489.70 L 801.00 497.30 L 799.70 504.60 L 798.00 511.80 L 795.80 518.80 L 793.20 525.60 L 790.20 532.20 L 786.70 538.50 L 782.90 544.60 L 778.70 550.40 L 774.10 556.00 L 769.20 561.20 L 764.00 566.10 L 758.40 570.70 L 752.60 574.90 L 746.50 578.70 L 740.20 582.20 L 733.60 585.20 L 726.80 587.80 L 719.80 590.00 L 712.60 591.70 L 705.30 593.00 L 697.70 593.70 L 690.00 594.00 L 334.00 594.00 L 326.30 593.70 L 318.70 593.00 L 311.40 591.70 L 304.20 590.00 L 297.20 587.80 L 290.40 585.20 L 283.80 582.20 L 277.50 578.70 L 271.40 574.90 L 265.60 570.70 L 260.00 566.10 L 254.80 561.20 L 249.90 556.00 L 245.30 550.40 L 241.10 544.60 L 237.30 538.50 L 233.80 532.20 L 230.80 525.60 L 228.20 518.80 L 226.00 511.80 L 224.30 504.60 L 223.00 497.30 L 222.30 489.70 L 222.00 482.00 L 222.00 382.00 L 222.30 374.30 L 223.00 366.70 L 224.30 359.40 L 226.00 352.20 L 228.20 345.20 L 230.80 338.40 L 233.80 331.80 L 237.30 325.50 L 241.10 319.40 L 245.30 313.60 L 249.90 308.00 L 254.80 302.80 L 260.00 297.90 L 265.60 293.30 L 271.40 289.10 L 277.50 285.30 L 283.80 281.80 L 290.40 278.80 L 297.20 276.20 L 304.20 274.00 L 311.40 272.30 L 318.70 271.00 L 326.30 270.30 L 334.00 270.00 Z" fill="#110d2e" fill-rule="evenodd" group-id="1,3,4" id="矩形" node-id="17" stroke="none" target-height="324" target-width="580" target-x="222" target-y="270"></path><path d="M 275.40 629.80 L 278.60 628.00 L 281.30 625.90 L 283.70 623.50 L 285.70 620.80 L 287.40 617.90 L 288.70 614.70 L 289.70 611.30 L 290.30 607.70 L 290.30 600.30 L 288.80 592.30 L 285.90 584.40 L 281.30 576.30 L 277.50 571.30 L 273.30 566.80 L 268.80 562.80 L 263.90 559.20 L 258.90 556.30 L 253.80 554.00 L 245.90 551.70 L 238.30 550.80 L 234.40 551.00 L 230.80 551.50 L 227.30 552.50 L 223.90 553.90 L 220.80 555.70 L 218.10 557.80 L 215.70 560.20 L 213.70 562.90 L 212.00 565.90 L 210.70 569.00 L 209.70 572.40 L 209.10 576.00 L 209.10 583.40 L 210.60 591.40 L 213.50 599.30 L 218.10 607.40 L 221.90 612.50 L 226.10 617.00 L 230.60 621.00 L 235.50 624.50 L 240.50 627.40 L 245.60 629.70 L 253.50 632.00 L 261.10 632.90 L 265.00 632.70 L 268.60 632.20 L 272.10 631.20 L 275.40 629.80 Z" fill="#fbb4b4" fill-rule="evenodd" group-id="1,3,4" id="椭圆形备份-4" node-id="18" stroke="none" target-height="82.10004" target-width="81.19998" target-x="209.1" target-y="550.8"></path><path d="M 747.90 629.80 L 744.80 628.00 L 742.10 625.90 L 739.70 623.50 L 737.70 620.80 L 736.00 617.90 L 734.70 614.70 L 733.70 611.30 L 733.10 607.70 L 733.10 600.30 L 734.60 592.30 L 737.50 584.40 L 742.10 576.30 L 745.90 571.30 L 750.10 566.80 L 754.60 562.80 L 759.50 559.20 L 764.50 556.30 L 769.60 554.00 L 777.50 551.70 L 785.10 550.80 L 789.00 551.00 L 792.60 551.50 L 796.10 552.50 L 799.40 553.90 L 802.60 555.70 L 805.30 557.80 L 807.70 560.20 L 809.70 562.90 L 811.40 565.90 L 812.70 569.00 L 813.70 572.40 L 814.30 576.00 L 814.30 583.40 L 812.80 591.40 L 809.90 599.30 L 805.30 607.40 L 801.50 612.50 L 797.30 617.00 L 792.80 621.00 L 787.90 624.50 L 782.90 627.40 L 777.80 629.70 L 769.90 632.00 L 762.30 632.90 L 758.40 632.70 L 754.80 632.20 L 751.30 631.20 L 747.90 629.80 Z" fill="#fbb4b4" fill-rule="evenodd" group-id="1,3,4" id="椭圆形备份-12" node-id="19" stroke="none" target-height="82.10004" target-width="81.20001" target-x="733.1" target-y="550.8"></path><g node-id="158"><path d="M 379.50 953.50 L 353.50 1039.60" fill="none" group-id="1,3,4,5" id="路径-6" node-id="20" stroke="#000000" stroke-linecap="round" stroke-opacity="0.10692633" stroke-width="7" target-height="86.099976" target-width="26" target-x="353.5" target-y="953.5"></path></g><g node-id="159"><path d="M 644.50 953.50 L 670.50 1039.60" fill="none" group-id="1,3,4,6" id="路径-6备份" node-id="21" stroke="#000000" stroke-linecap="round" stroke-opacity="0.10692633" stroke-width="7" target-height="86.099976" target-width="26" target-x="644.5" target-y="953.5"></path></g><g node-id="160"><g node-id="167"><path d="M 465.00 712.00 L 559.00 712.00 L 559.00 845.00 L 465.00 845.00 Z" fill="#ffcaca" fill-rule="evenodd" group-id="1,3,4,7,14" node-id="114" stroke="none" target-height="133" target-width="94" target-x="465" target-y="712"></path></g><path d="M 591.00 717.00 L 590.70 720.90 L 590.00 724.60 L 588.70 728.30 L 587.00 731.90 L 584.80 735.20 L 579.30 741.70 L 575.80 744.80 L 570.80 748.40 L 565.10 751.80 L 558.70 754.90 L 552.00 757.50 L 544.80 759.80 L 537.00 761.60 L 529.10 762.90 L 520.70 763.70 L 512.00 764.00 L 503.30 763.70 L 494.90 762.90 L 487.00 761.60 L 479.20 759.80 L 472.00 757.50 L 465.30 754.90 L 458.90 751.80 L 453.20 748.40 L 448.20 744.80 L 444.70 741.70 L 441.70 738.50 L 439.20 735.20 L 437.00 731.90 L 435.30 728.30 L 434.00 724.60 L 433.30 720.90 L 433.00 717.00 L 433.30 713.10 L 434.00 709.40 L 435.30 705.70 L 437.00 702.10 L 439.20 698.80 L 441.70 695.50 L 444.70 692.30 L 448.20 689.20 L 453.20 685.60 L 458.90 682.20 L 465.30 679.10 L 472.00 676.50 L 479.20 674.20 L 487.00 672.40 L 494.90 671.10 L 503.30 670.30 L 512.00 670.00 L 520.70 670.30 L 529.10 671.10 L 537.00 672.40 L 544.80 674.20 L 552.00 676.50 L 558.70 679.10 L 565.10 682.20 L 570.80 685.60 L 575.80 689.20 L 579.30 692.30 L 584.80 698.80 L 587.00 702.10 L 588.70 705.70 L 590.00 709.40 L 590.70 713.10 L 591.00 717.00 Z" fill="#ec8484" fill-opacity="0.21490623" fill-rule="evenodd" group-id="1,3,4,7,15" node-id="119" stroke="none" target-height="94" target-width="158" target-x="433" target-y="670"></path></g><path d="M 767.00 524.00 L 766.70 534.70 L 765.90 545.20 L 764.50 555.50 L 762.70 565.60 L 760.30 575.60 L 757.40 585.50 L 754.00 595.10 L 750.20 604.60 L 745.90 613.90 L 741.10 622.90 L 735.90 631.80 L 730.30 640.40 L 724.30 648.70 L 717.80 656.80 L 711.00 664.70 L 703.80 672.30 L 696.30 679.50 L 688.40 686.50 L 680.10 693.20 L 671.50 699.60 L 662.60 705.60 L 653.50 711.20 L 644.00 716.50 L 634.30 721.50 L 624.10 726.10 L 613.90 730.30 L 603.50 734.10 L 592.70 737.50 L 581.70 740.50 L 570.50 743.10 L 559.20 745.20 L 547.70 746.80 L 536.00 748.00 L 524.10 748.70 L 512.00 749.00 L 499.90 748.70 L 488.00 748.00 L 476.30 746.80 L 464.80 745.20 L 453.50 743.10 L 442.30 740.50 L 431.30 737.50 L 420.50 734.10 L 410.10 730.30 L 399.90 726.10 L 389.70 721.50 L 380.00 716.50 L 370.50 711.20 L 361.40 705.60 L 352.50 699.60 L 343.90 693.20 L 335.60 686.50 L 327.70 679.50 L 320.20 672.30 L 313.00 664.70 L 306.20 656.80 L 299.70 648.70 L 293.70 640.40 L 288.10 631.80 L 282.90 622.90 L 278.10 613.90 L 273.80 604.60 L 270.00 595.10 L 266.60 585.50 L 263.70 575.60 L 261.30 565.60 L 259.50 555.50 L 258.10 545.20 L 257.30 534.70 L 257.00 524.00 L 257.30 513.30 L 258.10 502.80 L 259.50 492.50 L 261.30 482.40 L 263.70 472.40 L 266.60 462.50 L 270.00 452.90 L 273.80 443.40 L 278.10 434.10 L 282.90 425.10 L 288.10 416.20 L 293.70 407.60 L 299.70 399.30 L 306.20 391.20 L 313.00 383.30 L 320.20 375.70 L 327.70 368.50 L 335.60 361.50 L 343.90 354.80 L 352.50 348.40 L 361.40 342.40 L 370.50 336.80 L 380.00 331.50 L 389.70 326.50 L 399.90 321.90 L 410.10 317.70 L 420.50 313.90 L 431.30 310.50 L 442.30 307.50 L 453.50 304.90 L 464.80 302.80 L 476.30 301.20 L 488.00 300.00 L 499.90 299.30 L 512.00 299.00 L 524.10 299.30 L 536.00 300.00 L 547.70 301.20 L 559.20 302.80 L 570.50 304.90 L 581.70 307.50 L 592.70 310.50 L 603.50 313.90 L 613.90 317.70 L 624.10 321.90 L 634.30 326.50 L 644.00 331.50 L 653.50 336.80 L 662.60 342.40 L 671.50 348.40 L 680.10 354.80 L 688.40 361.50 L 696.30 368.50 L 703.80 375.70 L 711.00 383.30 L 717.80 391.20 L 724.30 399.30 L 730.30 407.60 L 735.90 416.20 L 741.10 425.10 L 745.90 434.10 L 750.20 443.40 L 754.00 452.90 L 757.40 462.50 L 760.30 472.40 L 762.70 482.40 L 764.50 492.50 L 765.90 502.80 L 766.70 513.30 L 767.00 524.00 Z" fill="#ffcaca" fill-rule="evenodd" group-id="1,3,4" id="椭圆形" node-id="27" stroke="none" target-height="450" target-width="510" target-x="257" target-y="299"></path><path d="M 502.00 594.00 L 502.00 620.00 L 502.20 622.60 L 502.90 624.90 L 503.90 627.10 L 505.30 629.00 L 507.00 630.70 L 508.90 632.10 L 511.10 633.10 L 513.40 633.80 L 516.00 634.00 L 522.80 634.00" fill="none" group-id="1,3,4" id="路径-5备份" node-id="28" stroke="#ff9494" stroke-linecap="round" stroke-width="8" target-height="40" target-width="20.799988" target-x="502" target-y="594"></path><path d="M 434.00 567.00 L 433.70 570.50 L 432.80 573.60 L 431.40 576.60 L 429.50 579.30 L 427.30 581.50 L 424.60 583.40 L 421.60 584.80 L 418.50 585.70 L 415.00 586.00 L 411.50 585.70 L 408.40 584.80 L 405.40 583.40 L 402.70 581.50 L 400.50 579.30 L 398.60 576.60 L 397.20 573.60 L 396.30 570.50 L 396.00 567.00 L 396.30 563.50 L 397.20 560.40 L 398.60 557.40 L 400.50 554.70 L 402.70 552.50 L 405.40 550.60 L 408.40 549.20 L 411.50 548.30 L 415.00 548.00 L 418.50 548.30 L 421.60 549.20 L 424.60 550.60 L 427.30 552.50 L 429.50 554.70 L 431.40 557.40 L 432.80 560.40 L 433.70 563.50 L 434.00 567.00 Z" fill="#110d2e" fill-rule="evenodd" group-id="1,3,4" id="椭圆形" node-id="29" stroke="none" target-height="38" target-width="38" target-x="396" target-y="548"></path><path d="M 628.00 567.00 L 627.70 570.50 L 626.80 573.60 L 625.40 576.60 L 623.50 579.30 L 621.30 581.50 L 618.60 583.40 L 615.60 584.80 L 612.50 585.70 L 609.00 586.00 L 605.50 585.70 L 602.40 584.80 L 599.40 583.40 L 596.70 581.50 L 594.50 579.30 L 592.60 576.60 L 591.20 573.60 L 590.30 570.50 L 590.00 567.00 L 590.30 563.50 L 591.20 560.40 L 592.60 557.40 L 594.50 554.70 L 596.70 552.50 L 599.40 550.60 L 602.40 549.20 L 605.50 548.30 L 609.00 548.00 L 612.50 548.30 L 615.60 549.20 L 618.60 550.60 L 621.30 552.50 L 623.50 554.70 L 625.40 557.40 L 626.80 560.40 L 627.70 563.50 L 628.00 567.00 Z" fill="#110d2e" fill-rule="evenodd" group-id="1,3,4" id="椭圆形备份-7" node-id="30" stroke="none" target-height="38" target-width="38" target-x="590" target-y="548"></path><path d="M 469.00 680.50 L 481.50 685.60 L 487.30 687.40 L 493.30 688.70 L 499.30 689.60 L 505.40 690.00 L 511.50 690.00 L 517.50 689.60 L 523.50 688.60 L 529.50 687.30 L 535.30 685.50 L 541.00 683.20 L 546.60 680.50" fill="none" group-id="1,3,4" id="路径-35" node-id="31" stroke="#ec8484" stroke-linecap="round" stroke-width="10" target-height="9.5" target-width="77.599976" target-x="469" target-y="680.5"></path><path d="M 380.00 519.60 L 391.00 517.00 L 400.30 515.20 L 408.10 514.30 L 414.50 514.00 L 420.90 514.30 L 428.70 515.20 L 438.30 516.90 L 449.80 519.60" fill="none" group-id="1,3,4" id="路径-4备份" node-id="32" stroke="#110d2e" stroke-linecap="round" stroke-width="6" target-height="5.5999756" target-width="69.79999" target-x="380" target-y="514"></path><g node-id="161"><path d="M 643.80 519.60 L 632.70 517.00 L 623.40 515.20 L 615.70 514.30 L 609.30 514.00 L 602.90 514.30 L 595.00 515.20 L 585.50 516.90 L 574.00 519.60" fill="none" group-id="1,3,4,8" id="路径-4备份-2" node-id="33" stroke="#110d2e" stroke-linecap="round" stroke-width="6" target-height="5.5999756" target-width="69.79999" target-x="574" target-y="514"></path></g><path d="M 352.50 223.00 L 672.50 223.00 L 680.30 223.30 L 687.90 224.00 L 695.20 225.30 L 702.40 227.00 L 709.50 229.20 L 716.30 231.90 L 722.90 234.90 L 729.30 238.40 L 735.40 242.20 L 741.30 246.40 L 746.80 251.00 L 752.00 256.00 L 757.00 261.20 L 761.60 266.70 L 765.80 272.60 L 769.60 278.70 L 773.10 285.10 L 776.10 291.70 L 778.80 298.50 L 781.00 305.60 L 782.70 312.80 L 784.00 320.10 L 784.70 327.70 L 785.00 335.50 L 784.70 343.30 L 784.00 350.90 L 782.70 358.20 L 781.00 365.40 L 778.80 372.50 L 776.10 379.30 L 773.10 385.90 L 769.60 392.30 L 765.80 398.40 L 761.60 404.30 L 757.00 409.80 L 752.00 415.00 L 746.80 420.00 L 741.30 424.60 L 735.40 428.80 L 729.30 432.60 L 722.90 436.10 L 716.30 439.10 L 709.50 441.80 L 702.40 444.00 L 695.20 445.70 L 687.90 447.00 L 680.30 447.70 L 672.50 448.00 L 352.50 448.00 L 344.70 447.70 L 337.10 447.00 L 329.80 445.70 L 322.60 444.00 L 315.50 441.80 L 308.70 439.10 L 302.10 436.10 L 295.70 432.60 L 289.60 428.80 L 283.70 424.60 L 278.20 420.00 L 273.00 415.00 L 268.00 409.80 L 263.40 404.30 L 259.20 398.40 L 255.40 392.30 L 251.90 385.90 L 248.90 379.30 L 246.20 372.50 L 244.00 365.40 L 242.30 358.20 L 241.00 350.90 L 240.30 343.30 L 240.00 335.50 L 240.30 327.70 L 241.00 320.10 L 242.30 312.80 L 244.00 305.60 L 246.20 298.50 L 248.90 291.70 L 251.90 285.10 L 255.40 278.70 L 259.20 272.60 L 263.40 266.70 L 268.00 261.20 L 273.00 256.00 L 278.20 251.00 L 283.70 246.40 L 289.60 242.20 L 295.70 238.40 L 302.10 234.90 L 308.70 231.90 L 315.50 229.20 L 322.60 227.00 L 329.80 225.30 L 337.10 224.00 L 344.70 223.30 L 352.50 223.00 Z" fill="#110d2e" fill-rule="evenodd" group-id="1,3,4" id="矩形" node-id="34" stroke="none" target-height="225" target-width="545" target-x="240" target-y="223"></path><g node-id="162"><path d="M 524.00 251.90 L 517.20 255.60 L 510.60 258.70 L 504.00 261.30 L 497.40 263.50 L 491.00 265.20 L 484.90 266.40 L 478.80 267.10 L 473.10 267.30 L 468.00 267.00 L 462.80 266.30 L 458.30 265.00 L 454.40 263.30 L 451.60 261.60 L 449.30 259.70 L 447.30 257.50 L 445.60 255.10 L 444.30 252.40 L 443.40 249.60 L 442.90 246.50 L 442.90 243.30 L 443.40 239.10 L 444.50 234.50 L 446.40 229.70 L 448.80 225.10 L 451.80 220.30 L 455.50 215.30 L 459.50 210.70 L 464.20 206.00 L 469.40 201.30 L 474.90 197.00 L 480.90 192.80 L 487.50 188.70 L 494.30 185.10 L 500.90 182.00 L 507.50 179.40 L 514.10 177.10 L 520.50 175.50 L 526.60 174.30 L 532.70 173.60 L 538.40 173.40 L 543.50 173.60 L 548.70 174.40 L 553.20 175.70 L 557.10 177.40 L 559.90 179.00 L 562.20 180.90 L 564.20 183.10 L 565.90 185.60 L 567.20 188.30 L 568.10 191.10 L 568.60 194.10 L 568.60 197.30 L 568.10 201.60 L 567.00 206.10 L 565.10 211.00 L 562.70 215.60 L 559.70 220.40 L 556.00 225.30 L 552.00 230.00 L 547.30 234.70 L 542.10 239.30 L 536.60 243.70 L 530.60 247.90 L 524.00 251.90 Z" fill="#110d2e" fill-rule="evenodd" group-id="1,3,4,9" id="椭圆形" node-id="35" stroke="none" target-height="93.899994" target-width="125.69998" target-x="442.9" target-y="173.4"></path></g><g node-id="163"><path d="M 589.00 254.90 L 582.20 258.60 L 575.60 261.70 L 569.00 264.30 L 562.40 266.50 L 556.00 268.20 L 549.90 269.40 L 543.80 270.10 L 538.10 270.30 L 533.00 270.00 L 527.80 269.30 L 523.30 268.00 L 519.40 266.30 L 516.60 264.60 L 514.30 262.70 L 512.30 260.50 L 510.60 258.10 L 509.30 255.40 L 508.40 252.60 L 507.90 249.50 L 507.90 246.30 L 508.40 242.10 L 509.50 237.50 L 511.40 232.70 L 513.80 228.10 L 516.80 223.30 L 520.50 218.30 L 524.50 213.70 L 529.20 209.00 L 534.40 204.30 L 539.90 200.00 L 545.90 195.80 L 552.50 191.70 L 559.30 188.10 L 565.90 185.00 L 572.50 182.40 L 579.10 180.10 L 585.50 178.50 L 591.60 177.30 L 597.70 176.60 L 603.40 176.40 L 608.50 176.60 L 613.70 177.40 L 618.20 178.70 L 622.10 180.40 L 624.90 182.00 L 627.20 183.90 L 629.20 186.10 L 630.90 188.60 L 632.20 191.30 L 633.10 194.10 L 633.60 197.10 L 633.60 200.30 L 633.10 204.60 L 632.00 209.10 L 630.10 214.00 L 627.70 218.60 L 624.70 223.40 L 621.00 228.30 L 617.00 233.00 L 612.30 237.70 L 607.10 242.30 L 601.60 246.70 L 595.60 250.90 L 589.00 254.90 Z" fill="#110d2e" fill-rule="evenodd" group-id="1,3,4,10" id="椭圆形备份" node-id="36" stroke="none" target-height="93.899994" target-width="125.69998" target-x="507.9" target-y="176.4"></path></g><g node-id="164"><path d="M 703.00 251.90 L 696.20 255.60 L 689.60 258.70 L 683.00 261.30 L 676.40 263.50 L 670.00 265.20 L 663.90 266.40 L 657.80 267.10 L 652.10 267.30 L 647.00 267.00 L 641.80 266.30 L 637.30 265.00 L 633.40 263.30 L 630.60 261.60 L 628.30 259.70 L 626.30 257.50 L 624.60 255.10 L 623.30 252.40 L 622.40 249.60 L 621.90 246.50 L 621.90 243.30 L 622.40 239.10 L 623.50 234.50 L 625.40 229.70 L 627.80 225.10 L 630.80 220.30 L 634.50 215.30 L 638.50 210.70 L 643.20 206.00 L 648.40 201.30 L 653.90 197.00 L 659.90 192.80 L 666.50 188.70 L 673.30 185.10 L 679.90 182.00 L 686.50 179.40 L 693.10 177.10 L 699.50 175.50 L 705.60 174.30 L 711.70 173.60 L 717.40 173.40 L 722.50 173.60 L 727.70 174.40 L 732.20 175.70 L 736.10 177.40 L 738.90 179.00 L 741.20 180.90 L 743.20 183.10 L 744.90 185.60 L 746.20 188.30 L 747.10 191.10 L 747.60 194.10 L 747.60 197.30 L 747.10 201.60 L 746.00 206.10 L 744.10 211.00 L 741.70 215.60 L 738.70 220.40 L 735.00 225.30 L 731.00 230.00 L 726.30 234.70 L 721.10 239.30 L 715.60 243.70 L 709.60 247.90 L 703.00 251.90 Z" fill="#110d2e" fill-rule="evenodd" group-id="1,3,4,11" id="椭圆形备份-2" node-id="37" stroke="none" target-height="93.899994" target-width="125.69995" target-x="621.9" target-y="173.4"></path></g><g node-id="165"><path d="M 720.00 300.90 L 713.20 304.60 L 706.60 307.70 L 700.00 310.30 L 693.40 312.50 L 687.00 314.20 L 680.90 315.40 L 674.80 316.10 L 669.10 316.30 L 664.00 316.00 L 658.80 315.30 L 654.30 314.00 L 650.40 312.30 L 647.60 310.60 L 645.30 308.70 L 643.30 306.50 L 641.60 304.10 L 640.30 301.40 L 639.40 298.60 L 638.90 295.50 L 638.90 292.30 L 639.40 288.10 L 640.50 283.50 L 642.40 278.70 L 644.80 274.10 L 647.80 269.30 L 651.50 264.30 L 655.50 259.70 L 660.20 255.00 L 665.40 250.30 L 670.90 246.00 L 676.90 241.80 L 683.50 237.70 L 690.30 234.10 L 696.90 231.00 L 703.50 228.40 L 710.10 226.10 L 716.50 224.50 L 722.60 223.30 L 728.70 222.60 L 734.40 222.40 L 739.50 222.60 L 744.70 223.40 L 749.20 224.70 L 753.10 226.40 L 755.90 228.00 L 758.20 229.90 L 760.20 232.10 L 761.90 234.60 L 763.20 237.30 L 764.10 240.10 L 764.60 243.10 L 764.60 246.30 L 764.10 250.60 L 763.00 255.10 L 761.10 260.00 L 758.70 264.60 L 755.70 269.40 L 752.00 274.30 L 748.00 279.00 L 743.30 283.70 L 738.10 288.30 L 732.60 292.70 L 726.60 296.90 L 720.00 300.90 Z" fill="#110d2e" fill-rule="evenodd" group-id="1,3,4,12" id="椭圆形备份-3" node-id="38" stroke="none" target-height="93.899994" target-width="125.69995" target-x="638.9" target-y="222.4"></path></g><g node-id="166"><g node-id="169"><path d="M 590.60 795.90 L 601.50 800.50 L 612.10 805.60 L 622.60 811.30 L 632.90 817.60 L 642.90 824.40 L 652.60 831.70 L 662.10 839.50 L 671.30 847.70 L 680.20 856.50 L 688.90 865.90 L 697.20 875.50 L 705.10 885.50 L 712.80 896.00 L 720.10 907.00 L 727.10 918.40 L 733.70 930.00 L 739.80 942.00 L 745.60 954.40 L 751.10 967.10 L 756.10 980.30 L 760.70 993.60 L 764.80 1007.10 L 768.50 1021.00 L 771.70 1035.20 L 774.50 1049.80 L 776.80 1064.30 L 778.60 1079.10 L 779.90 1094.10 L 780.70 1109.40 L 781.00 1125.00 L 780.80 1139.30 L 780.10 1153.40 L 779.00 1167.30 L 777.50 1180.90 L 775.50 1194.30 L 773.10 1207.80 L 770.40 1221.00 L 767.20 1233.90 L 763.70 1246.50 L 759.90 1258.90 L 755.50 1271.20 L 750.90 1283.30 L 745.90 1294.90 L 740.70 1306.30 L 735.10 1317.30 L 729.00 1328.30 L 722.70 1338.80 L 716.20 1349.00 L 709.30 1358.80 L 702.20 1368.20 L 694.70 1377.50 L 687.00 1386.30 L 679.00 1394.70 L 670.80 1402.70 L 662.40 1410.30 L 653.60 1417.50 L 644.70 1424.30 L 635.50 1430.70 L 626.20 1436.50 L 616.70 1442.00 L 606.90 1447.00 L 597.00 1451.50 L 586.90 1455.50 L 576.60 1459.00 L 566.20 1462.00 L 555.70 1464.50 L 545.00 1466.40 L 534.20 1467.80 L 523.20 1468.70 L 512.00 1469.00 L 500.80 1468.70 L 489.80 1467.80 L 479.00 1466.40 L 468.30 1464.50 L 457.80 1462.00 L 447.40 1459.00 L 437.10 1455.50 L 427.00 1451.50 L 417.10 1447.00 L 407.30 1442.00 L 397.80 1436.50 L 388.50 1430.70 L 379.30 1424.30 L 370.40 1417.50 L 361.60 1410.30 L 353.20 1402.70 L 345.00 1394.70 L 337.00 1386.30 L 329.30 1377.50 L 321.80 1368.20 L 314.70 1358.80 L 307.80 1349.00 L 301.30 1338.80 L 295.00 1328.30 L 288.90 1317.30 L 283.30 1306.30 L 278.10 1294.90 L 273.10 1283.30 L 268.50 1271.20 L 264.10 1258.90 L 260.30 1246.50 L 256.80 1233.90 L 253.60 1221.00 L 250.90 1207.80 L 248.50 1194.30 L 246.50 1180.90 L 245.00 1167.30 L 243.90 1153.40 L 243.20 1139.30 L 243.00 1125.00 L 243.30 1109.40 L 244.10 1094.10 L 245.40 1079.10 L 247.20 1064.30 L 249.50 1049.80 L 252.30 1035.20 L 255.50 1021.00 L 259.20 1007.10 L 263.30 993.60 L 267.90 980.30 L 272.90 967.10 L 278.40 954.40 L 284.20 942.00 L 290.30 930.00 L 296.90 918.40 L 303.90 907.00 L 311.20 896.00 L 318.90 885.50 L 326.80 875.50 L 335.10 865.90 L 343.80 856.50 L 352.70 847.70 L 361.90 839.50 L 371.40 831.70 L 381.00 824.40 L 391.10 817.60 L 401.40 811.30 L 411.90 805.60 L 422.50 800.50 L 433.40 795.90 L 443.80 802.80 L 449.50 805.90 L 455.60 808.70 L 468.30 813.50 L 482.20 817.00 L 489.30 818.30 L 504.20 819.80 L 512.00 820.00 L 519.70 819.80 L 534.50 818.30 L 541.50 817.10 L 555.30 813.60 L 567.90 809.00 L 574.00 806.10 L 579.70 803.10 L 589.90 796.40 Z" fill="#77c4f9" fill-rule="evenodd" group-id="1,3,4,13,16" node-id="152" stroke="none" target-height="673.1" target-width="538" target-x="243" target-y="795.9"></path></g><g node-id="170"><path d="M 353.00 815.00 L 397.00 815.00 L 397.00 997.00 L 353.00 997.00 Z" fill="#1a82c9" fill-rule="evenodd" group-id="1,3,4,13,17" id="矩形" node-id="43" stroke="none" target-height="182" target-width="44" target-x="353" target-y="815"></path></g><g node-id="171"><path d="M 353.00 926.00 L 671.00 926.00 L 671.00 1108.00 L 353.00 1108.00 Z" fill="#1a82c9" fill-rule="evenodd" group-id="1,3,4,13,18" id="矩形备份-2" node-id="44" stroke="none" target-height="182" target-width="318" target-x="353" target-y="926"></path></g><path d="M 627.00 815.00 L 671.00 815.00 L 671.00 997.00 L 627.00 997.00 Z" fill="#1a82c9" fill-rule="evenodd" group-id="1,3,4,13,19" id="矩形备份" node-id="45" stroke="none" target-height="182" target-width="44" target-x="627" target-y="815"></path></g><path d="M 520.00 849.00 L 519.70 851.10 L 518.90 853.00 L 517.70 854.70 L 516.00 855.90 L 514.10 856.70 L 512.00 857.00 L 509.90 856.70 L 508.00 855.90 L 506.30 854.70 L 505.10 853.00 L 504.30 851.10 L 504.00 849.00 L 504.30 846.90 L 505.10 845.00 L 506.30 843.30 L 508.00 842.10 L 509.90 841.30 L 512.00 841.00 L 514.10 841.30 L 516.00 842.10 L 517.70 843.30 L 518.90 845.00 L 519.70 846.90 L 520.00 849.00 Z" fill="#1a82c9" fill-rule="evenodd" group-id="1,3,4" id="椭圆形" node-id="46" stroke="none" target-height="16" target-width="16" target-x="504" target-y="841"></path><path d="M 520.00 907.00 L 519.70 909.10 L 518.90 911.00 L 517.70 912.70 L 516.00 913.90 L 514.10 914.70 L 512.00 915.00 L 509.90 914.70 L 508.00 913.90 L 506.30 912.70 L 505.10 911.00 L 504.30 909.10 L 504.00 907.00 L 504.30 904.90 L 505.10 903.00 L 506.30 901.30 L 508.00 900.10 L 509.90 899.30 L 512.00 899.00 L 514.10 899.30 L 516.00 900.10 L 517.70 901.30 L 518.90 903.00 L 519.70 904.90 L 520.00 907.00 Z" fill="#1a82c9" fill-rule="evenodd" group-id="1,3,4" id="椭圆形备份-5" node-id="47" stroke="none" target-height="16" target-width="16" target-x="504" target-y="899"></path><path d="M 520.00 878.00 L 519.70 880.10 L 518.90 882.00 L 517.70 883.70 L 516.00 884.90 L 514.10 885.70 L 512.00 886.00 L 509.90 885.70 L 508.00 884.90 L 506.30 883.70 L 505.10 882.00 L 504.30 880.10 L 504.00 878.00 L 504.30 875.90 L 505.10 874.00 L 506.30 872.30 L 508.00 871.10 L 509.90 870.30 L 512.00 870.00 L 514.10 870.30 L 516.00 871.10 L 517.70 872.30 L 518.90 874.00 L 519.70 875.90 L 520.00 878.00 Z" fill="#1a82c9" fill-rule="evenodd" group-id="1,3,4" id="椭圆形备份-6" node-id="48" stroke="none" target-height="16" target-width="16" target-x="504" target-y="870"></path></g></g></g></svg>