<?xml version="1.0" standalone="no"?><!DOCTYPE svg PUBLIC "-//W3C//DTD SVG 1.1//EN" "http://www.w3.org/Graphics/SVG/1.1/DTD/svg11.dtd"><svg height="1024" node-id="1" sillyvg="true" template-height="1024" template-width="1024" version="1.1" viewBox="0 0 1024 1024" width="1024" xmlns="http://www.w3.org/2000/svg" xmlns:xlink="http://www.w3.org/1999/xlink"><defs node-id="57"><mask height="4118.2295" id="mask-2" maskUnits="userSpaceOnUse" node-id="11" width="4104.334" x="6649.1406" y="-5620.973"><path d="M 8694.00 -2967.00 L 8708.00 -2975.40 L 8721.70 -2984.20 L 8735.00 -2993.30 L 8747.90 -3002.90 L 8760.60 -3012.80 L 8772.90 -3023.20 L 8784.90 -3033.90 L 8796.50 -3044.90 L 8807.80 -3056.30 L 8818.70 -3068.00 L 8829.20 -3080.10 L 8839.30 -3092.40 L 8849.00 -3105.10 L 8858.30 -3118.10 L 8867.30 -3131.40 L 8875.80 -3144.90 L 8883.90 -3158.70 L 8891.50 -3172.80 L 8898.70 -3187.10 L 8905.50 -3201.70 L 8911.90 -3216.50 L 8917.70 -3231.50 L 8923.10 -3246.70 L 8928.10 -3262.20 L 8932.60 -3277.90 L 8936.50 -3293.70 L 8940.00 -3309.60 L 8942.90 -3325.50 L 8945.30 -3341.40 L 8947.30 -3357.40 L 8948.70 -3373.40 L 8949.60 -3389.50 L 8950.00 -3405.50 L 8949.90 -3421.50 L 8949.30 -3437.50 L 8948.20 -3453.40 L 8946.60 -3469.30 L 8944.50 -3485.20 L 8941.90 -3500.90 L 8938.90 -3516.60 L 8935.30 -3532.20 L 8931.30 -3547.70 L 8926.70 -3563.10 L 8921.70 -3578.30 L 8916.20 -3593.40 L 8910.20 -3608.40 L 8903.70 -3623.10 L 8896.80 -3637.70 L 8889.30 -3652.10 L 8881.40 -3666.40 L 8873.00 -3680.40 L 8864.20 -3694.10 L 8855.10 -3707.40 L 8845.50 -3720.40 L 8835.60 -3733.00 L 8825.20 -3745.40 L 8814.60 -3757.30 L 8803.50 -3768.90 L 8792.10 -3780.20 L 8780.40 -3791.10 L 8768.30 -3801.60 L 8756.00 -3811.70 L 8743.30 -3821.40 L 8730.30 -3830.70 L 8717.10 -3839.70 L 8703.50 -3848.20 L 8689.70 -3856.30 L 8675.60 -3863.90 L 8661.30 -3871.20 L 8646.70 -3878.00 L 8631.90 -3884.30 L 8616.90 -3890.10 L 8601.70 -3895.60 L 8586.20 -3900.50 L 8570.50 -3905.00 L 8554.70 -3908.90 L 8538.80 -3912.40 L 8522.90 -3915.30 L 8507.00 -3917.80 L 8491.00 -3919.70 L 8475.00 -3921.10 L 8459.00 -3922.00 L 8443.00 -3922.40 L 8427.00 -3922.30 L 8411.00 -3921.70 L 8395.00 -3920.60 L 8379.10 -3919.00 L 8363.30 -3916.90 L 8347.50 -3914.40 L 8331.80 -3911.30 L 8316.20 -3907.70 L 8300.70 -3903.70 L 8285.40 -3899.10 L 8270.10 -3894.10 L 8255.00 -3888.60 L 8240.00 -3882.60 L 8225.30 -3876.10 L 8210.70 -3869.20 L 8196.30 -3861.80 L 8182.00 -3853.80 L 8168.00 -3845.40 L 8154.30 -3836.70 L 8141.00 -3827.50 L 8128.10 -3818.00 L 8115.40 -3808.00 L 8103.10 -3797.70 L 8091.10 -3787.00 L 8079.50 -3775.90 L 8068.20 -3764.60 L 8057.40 -3752.80 L 8036.70 -3728.40 L 8027.00 -3715.70 L 8017.70 -3702.80 L 8008.70 -3689.50 L 8000.20 -3675.90 L 7992.10 -3662.10 L 7984.50 -3648.10 L 7977.30 -3633.70 L 7970.50 -3619.10 L 7964.10 -3604.30 L 7958.30 -3589.30 L 7952.90 -3574.10 L 7947.90 -3558.60 L 7943.40 -3542.90 L 7939.50 -3527.10 L 7936.00 -3511.20 L 7933.10 -3495.30 L 7930.70 -3479.40 L 7928.80 -3463.50 L 7927.30 -3447.40 L 7926.40 -3431.40 L 7926.00 -3415.40 L 7926.10 -3399.40 L 7926.70 -3383.40 L 7927.80 -3367.40 L 7929.40 -3351.50 L 7931.50 -3335.70 L 7934.10 -3319.90 L 7937.10 -3304.20 L 7940.70 -3288.60 L 7944.80 -3273.10 L 7949.30 -3257.80 L 7954.30 -3242.50 L 7959.80 -3227.40 L 7965.80 -3212.50 L 7972.30 -3197.70 L 7979.20 -3183.10 L 7986.70 -3168.70 L 7994.60 -3154.40 L 8003.00 -3140.40 L 8011.80 -3126.80 L 8020.90 -3113.40 L 8030.50 -3100.50 L 8040.40 -3087.80 L 8050.80 -3075.50 L 8061.40 -3063.50 L 8072.50 -3051.90 L 8083.90 -3040.70 L 8095.60 -3029.80 L 8107.70 -3019.20 L 8120.00 -3009.10 L 8132.70 -2999.40 L 8145.70 -2990.10 L 8158.90 -2981.10 L 8172.50 -2972.60 L 8186.30 -2964.60 L 8200.40 -2956.90 L 8214.70 -2949.70 L 8229.30 -2942.90 L 8244.10 -2936.60 L 8259.10 -2930.70 L 8274.30 -2925.30 L 8289.80 -2920.30 L 8305.50 -2915.90 L 8321.30 -2911.90 L 8337.20 -2908.40 L 8353.10 -2905.50 L 8369.00 -2903.10 L 8385.00 -2901.20 L 8401.00 -2899.80 L 8417.00 -2898.80 L 8433.10 -2898.40 L 8449.00 -2898.50 L 8465.00 -2899.10 L 8481.00 -2900.20 L 8496.90 -2901.80 L 8512.70 -2903.90 L 8528.50 -2906.50 L 8544.20 -2909.60 L 8559.80 -2913.10 L 8575.30 -2917.20 L 8590.60 -2921.70 L 8605.90 -2926.70 L 8621.00 -2932.20 L 8636.00 -2938.20 L 8650.70 -2944.70 L 8665.30 -2951.60 L 8679.70 -2959.10 L 8694.00 -2967.00 Z" fill="#ffffff" fill-rule="evenodd" node-id="62" stroke="none" target-height="1024" target-width="1024" target-x="7926" target-y="-3922.4"></path></mask><mask height="112.8" id="mask-4" maskUnits="userSpaceOnUse" node-id="30" width="189.6" x="-47.8" y="-51.4"><path d="M 0.00 0.00 L 94.00 0.00 L 94.00 133.00 L 0.00 133.00 Z" fill="#ffffff" fill-rule="evenodd" node-id="69" stroke="none" target-height="133" target-width="94" target-x="0" target-y="0"></path></mask><mask height="218.40001" id="mask-6" maskUnits="userSpaceOnUse" node-id="42" width="52.799995" x="105.6" y="0.89556694"><path d="M 347.60 -0.00 L 358.50 4.60 L 369.10 9.70 L 379.60 15.40 L 389.90 21.70 L 400.00 28.50 L 409.60 35.80 L 419.10 43.60 L 428.30 51.80 L 437.20 60.60 L 445.90 70.00 L 454.20 79.60 L 462.10 89.60 L 469.80 100.10 L 477.10 111.10 L 484.10 122.50 L 490.70 134.10 L 496.80 146.10 L 502.60 158.50 L 508.10 171.20 L 513.10 184.40 L 517.70 197.70 L 521.80 211.20 L 525.50 225.10 L 528.70 239.30 L 531.50 253.90 L 533.80 268.40 L 535.60 283.20 L 536.90 298.20 L 537.70 313.50 L 538.00 329.10 L 537.80 343.40 L 537.10 357.50 L 536.00 371.40 L 534.50 385.00 L 532.50 398.40 L 530.10 411.90 L 527.40 425.10 L 524.20 438.00 L 520.70 450.60 L 516.90 463.00 L 512.50 475.30 L 507.90 487.40 L 502.90 499.00 L 497.70 510.40 L 492.10 521.40 L 486.00 532.40 L 479.70 542.90 L 473.20 553.10 L 466.30 562.90 L 459.20 572.30 L 451.70 581.60 L 444.00 590.40 L 436.00 598.80 L 427.80 606.80 L 419.40 614.30 L 410.60 621.60 L 401.70 628.40 L 392.50 634.80 L 383.20 640.60 L 373.70 646.10 L 363.90 651.10 L 354.00 655.60 L 343.90 659.60 L 333.60 663.10 L 323.20 666.10 L 312.70 668.60 L 302.00 670.50 L 291.20 671.90 L 280.20 672.80 L 269.00 673.10 L 257.80 672.80 L 246.80 671.90 L 236.00 670.50 L 225.30 668.60 L 214.80 666.10 L 204.40 663.10 L 194.10 659.60 L 184.00 655.60 L 174.10 651.10 L 164.30 646.10 L 154.80 640.60 L 145.50 634.80 L 136.30 628.40 L 127.40 621.60 L 118.60 614.30 L 110.20 606.80 L 102.00 598.80 L 94.00 590.40 L 86.30 581.60 L 78.80 572.30 L 71.70 562.90 L 64.80 553.10 L 58.30 542.90 L 52.00 532.40 L 45.90 521.40 L 40.30 510.40 L 35.10 499.00 L 30.10 487.40 L 25.50 475.30 L 21.10 463.00 L 17.30 450.60 L 13.80 438.00 L 10.60 425.10 L 7.90 411.90 L 5.50 398.40 L 3.50 385.00 L 2.00 371.40 L 0.90 357.50 L 0.20 343.40 L 0.00 329.10 L 0.30 313.50 L 1.10 298.20 L 2.40 283.20 L 4.20 268.40 L 6.50 253.90 L 9.30 239.30 L 12.50 225.10 L 16.20 211.20 L 20.30 197.70 L 24.90 184.40 L 29.90 171.20 L 35.40 158.50 L 41.20 146.10 L 47.30 134.10 L 53.90 122.50 L 60.90 111.10 L 68.20 100.10 L 75.90 89.60 L 83.80 79.60 L 92.10 70.00 L 100.80 60.60 L 109.70 51.80 L 118.90 43.60 L 128.40 35.80 L 138.00 28.50 L 148.10 21.70 L 158.40 15.40 L 168.90 9.70 L 179.50 4.60 L 190.40 0.00 L 200.80 6.90 L 206.50 10.00 L 212.60 12.80 L 225.30 17.60 L 239.20 21.10 L 246.30 22.40 L 261.20 23.90 L 269.00 24.10 L 276.70 23.90 L 291.50 22.40 L 298.50 21.20 L 312.30 17.70 L 324.90 13.10 L 331.00 10.20 L 336.70 7.20 L 346.90 0.50 Z" fill="#ffffff" fill-rule="evenodd" node-id="76" stroke="none" target-height="673.1" target-width="538" target-x="0" target-y="-0"></path></mask><mask height="218.40002" id="mask1" maskUnits="userSpaceOnUse" node-id="80" width="381.59998" x="78.2" y="111.89556"><path d="M 347.60 -0.00 L 358.50 4.60 L 369.10 9.70 L 379.60 15.40 L 389.90 21.70 L 400.00 28.50 L 409.60 35.80 L 419.10 43.60 L 428.30 51.80 L 437.20 60.60 L 445.90 70.00 L 454.20 79.60 L 462.10 89.60 L 469.80 100.10 L 477.10 111.10 L 484.10 122.50 L 490.70 134.10 L 496.80 146.10 L 502.60 158.50 L 508.10 171.20 L 513.10 184.40 L 517.70 197.70 L 521.80 211.20 L 525.50 225.10 L 528.70 239.30 L 531.50 253.90 L 533.80 268.40 L 535.60 283.20 L 536.90 298.20 L 537.70 313.50 L 538.00 329.10 L 537.80 343.40 L 537.10 357.50 L 536.00 371.40 L 534.50 385.00 L 532.50 398.40 L 530.10 411.90 L 527.40 425.10 L 524.20 438.00 L 520.70 450.60 L 516.90 463.00 L 512.50 475.30 L 507.90 487.40 L 502.90 499.00 L 497.70 510.40 L 492.10 521.40 L 486.00 532.40 L 479.70 542.90 L 473.20 553.10 L 466.30 562.90 L 459.20 572.30 L 451.70 581.60 L 444.00 590.40 L 436.00 598.80 L 427.80 606.80 L 419.40 614.30 L 410.60 621.60 L 401.70 628.40 L 392.50 634.80 L 383.20 640.60 L 373.70 646.10 L 363.90 651.10 L 354.00 655.60 L 343.90 659.60 L 333.60 663.10 L 323.20 666.10 L 312.70 668.60 L 302.00 670.50 L 291.20 671.90 L 280.20 672.80 L 269.00 673.10 L 257.80 672.80 L 246.80 671.90 L 236.00 670.50 L 225.30 668.60 L 214.80 666.10 L 204.40 663.10 L 194.10 659.60 L 184.00 655.60 L 174.10 651.10 L 164.30 646.10 L 154.80 640.60 L 145.50 634.80 L 136.30 628.40 L 127.40 621.60 L 118.60 614.30 L 110.20 606.80 L 102.00 598.80 L 94.00 590.40 L 86.30 581.60 L 78.80 572.30 L 71.70 562.90 L 64.80 553.10 L 58.30 542.90 L 52.00 532.40 L 45.90 521.40 L 40.30 510.40 L 35.10 499.00 L 30.10 487.40 L 25.50 475.30 L 21.10 463.00 L 17.30 450.60 L 13.80 438.00 L 10.60 425.10 L 7.90 411.90 L 5.50 398.40 L 3.50 385.00 L 2.00 371.40 L 0.90 357.50 L 0.20 343.40 L 0.00 329.10 L 0.30 313.50 L 1.10 298.20 L 2.40 283.20 L 4.20 268.40 L 6.50 253.90 L 9.30 239.30 L 12.50 225.10 L 16.20 211.20 L 20.30 197.70 L 24.90 184.40 L 29.90 171.20 L 35.40 158.50 L 41.20 146.10 L 47.30 134.10 L 53.90 122.50 L 60.90 111.10 L 68.20 100.10 L 75.90 89.60 L 83.80 79.60 L 92.10 70.00 L 100.80 60.60 L 109.70 51.80 L 118.90 43.60 L 128.40 35.80 L 138.00 28.50 L 148.10 21.70 L 158.40 15.40 L 168.90 9.70 L 179.50 4.60 L 190.40 0.00 L 200.80 6.90 L 206.50 10.00 L 212.60 12.80 L 225.30 17.60 L 239.20 21.10 L 246.30 22.40 L 261.20 23.90 L 269.00 24.10 L 276.70 23.90 L 291.50 22.40 L 298.50 21.20 L 312.30 17.70 L 324.90 13.10 L 331.00 10.20 L 336.70 7.20 L 346.90 0.50 Z" fill="#ffffff" fill-rule="evenodd" node-id="84" stroke="none" target-height="673.1" target-width="538" target-x="0" target-y="-0"></path></mask><mask height="218.40001" id="mask2" maskUnits="userSpaceOnUse" node-id="88" width="52.80002" x="379.6" y="0.89556694"><path d="M 347.60 -0.00 L 358.50 4.60 L 369.10 9.70 L 379.60 15.40 L 389.90 21.70 L 400.00 28.50 L 409.60 35.80 L 419.10 43.60 L 428.30 51.80 L 437.20 60.60 L 445.90 70.00 L 454.20 79.60 L 462.10 89.60 L 469.80 100.10 L 477.10 111.10 L 484.10 122.50 L 490.70 134.10 L 496.80 146.10 L 502.60 158.50 L 508.10 171.20 L 513.10 184.40 L 517.70 197.70 L 521.80 211.20 L 525.50 225.10 L 528.70 239.30 L 531.50 253.90 L 533.80 268.40 L 535.60 283.20 L 536.90 298.20 L 537.70 313.50 L 538.00 329.10 L 537.80 343.40 L 537.10 357.50 L 536.00 371.40 L 534.50 385.00 L 532.50 398.40 L 530.10 411.90 L 527.40 425.10 L 524.20 438.00 L 520.70 450.60 L 516.90 463.00 L 512.50 475.30 L 507.90 487.40 L 502.90 499.00 L 497.70 510.40 L 492.10 521.40 L 486.00 532.40 L 479.70 542.90 L 473.20 553.10 L 466.30 562.90 L 459.20 572.30 L 451.70 581.60 L 444.00 590.40 L 436.00 598.80 L 427.80 606.80 L 419.40 614.30 L 410.60 621.60 L 401.70 628.40 L 392.50 634.80 L 383.20 640.60 L 373.70 646.10 L 363.90 651.10 L 354.00 655.60 L 343.90 659.60 L 333.60 663.10 L 323.20 666.10 L 312.70 668.60 L 302.00 670.50 L 291.20 671.90 L 280.20 672.80 L 269.00 673.10 L 257.80 672.80 L 246.80 671.90 L 236.00 670.50 L 225.30 668.60 L 214.80 666.10 L 204.40 663.10 L 194.10 659.60 L 184.00 655.60 L 174.10 651.10 L 164.30 646.10 L 154.80 640.60 L 145.50 634.80 L 136.30 628.40 L 127.40 621.60 L 118.60 614.30 L 110.20 606.80 L 102.00 598.80 L 94.00 590.40 L 86.30 581.60 L 78.80 572.30 L 71.70 562.90 L 64.80 553.10 L 58.30 542.90 L 52.00 532.40 L 45.90 521.40 L 40.30 510.40 L 35.10 499.00 L 30.10 487.40 L 25.50 475.30 L 21.10 463.00 L 17.30 450.60 L 13.80 438.00 L 10.60 425.10 L 7.90 411.90 L 5.50 398.40 L 3.50 385.00 L 2.00 371.40 L 0.90 357.50 L 0.20 343.40 L 0.00 329.10 L 0.30 313.50 L 1.10 298.20 L 2.40 283.20 L 4.20 268.40 L 6.50 253.90 L 9.30 239.30 L 12.50 225.10 L 16.20 211.20 L 20.30 197.70 L 24.90 184.40 L 29.90 171.20 L 35.40 158.50 L 41.20 146.10 L 47.30 134.10 L 53.90 122.50 L 60.90 111.10 L 68.20 100.10 L 75.90 89.60 L 83.80 79.60 L 92.10 70.00 L 100.80 60.60 L 109.70 51.80 L 118.90 43.60 L 128.40 35.80 L 138.00 28.50 L 148.10 21.70 L 158.40 15.40 L 168.90 9.70 L 179.50 4.60 L 190.40 0.00 L 200.80 6.90 L 206.50 10.00 L 212.60 12.80 L 225.30 17.60 L 239.20 21.10 L 246.30 22.40 L 261.20 23.90 L 269.00 24.10 L 276.70 23.90 L 291.50 22.40 L 298.50 21.20 L 312.30 17.70 L 324.90 13.10 L 331.00 10.20 L 336.70 7.20 L 346.90 0.50 Z" fill="#ffffff" fill-rule="evenodd" node-id="92" stroke="none" target-height="673.1" target-width="538" target-x="0" target-y="-0"></path></mask></defs><path d="M 0.00 0.00 L 1024.00 0.00 L 1024.00 1024.00 L 0.00 1024.00 Z" fill="#ffffff" fill-rule="evenodd" node-id="98" stroke="none" target-height="1024" target-width="1024" target-x="0" target-y="0"></path><g node-id="154"><g node-id="155"><path d="M 1024.00 512.00 L 1023.70 528.30 L 1023.00 544.50 L 1021.70 560.60 L 1019.90 576.70 L 1017.60 592.60 L 1014.80 608.40 L 1011.60 624.20 L 1007.80 639.70 L 1003.60 655.20 L 998.90 670.40 L 993.70 685.60 L 988.00 700.50 L 981.90 715.30 L 975.30 729.80 L 968.30 744.20 L 960.80 758.40 L 952.90 772.30 L 944.60 785.90 L 935.80 799.40 L 926.50 812.60 L 916.90 825.40 L 906.80 838.00 L 896.30 850.30 L 885.40 862.30 L 874.00 874.00 L 862.30 885.40 L 850.30 896.30 L 838.00 906.80 L 825.40 916.90 L 812.60 926.50 L 799.40 935.80 L 785.90 944.60 L 772.30 952.90 L 758.40 960.80 L 744.20 968.30 L 729.80 975.30 L 715.30 981.90 L 700.50 988.00 L 685.60 993.70 L 670.40 998.90 L 655.20 1003.60 L 639.70 1007.80 L 624.20 1011.60 L 608.40 1014.80 L 592.60 1017.60 L 576.70 1019.90 L 560.60 1021.70 L 544.50 1023.00 L 528.30 1023.70 L 512.00 1024.00 L 495.70 1023.70 L 479.50 1023.00 L 463.40 1021.70 L 447.30 1019.90 L 431.40 1017.60 L 415.60 1014.80 L 399.80 1011.60 L 384.30 1007.80 L 368.80 1003.60 L 353.60 998.90 L 338.40 993.70 L 323.50 988.00 L 308.70 981.90 L 294.20 975.30 L 279.80 968.30 L 265.60 960.80 L 251.70 952.90 L 238.10 944.60 L 224.60 935.80 L 211.40 926.50 L 198.60 916.90 L 186.00 906.80 L 173.70 896.30 L 161.70 885.40 L 150.00 874.00 L 138.60 862.30 L 127.70 850.30 L 117.20 838.00 L 107.10 825.40 L 97.50 812.60 L 88.20 799.40 L 79.40 785.90 L 71.10 772.30 L 63.20 758.40 L 55.70 744.20 L 48.70 729.80 L 42.10 715.30 L 36.00 700.50 L 30.30 685.60 L 25.10 670.40 L 20.40 655.20 L 16.20 639.70 L 12.40 624.20 L 9.20 608.40 L 6.40 592.60 L 4.10 576.70 L 2.30 560.60 L 1.00 544.50 L 0.30 528.30 L 0.00 512.00 L 0.30 495.70 L 1.00 479.50 L 2.30 463.40 L 4.10 447.30 L 6.40 431.40 L 9.20 415.60 L 12.40 399.80 L 16.20 384.30 L 20.40 368.80 L 25.10 353.60 L 30.30 338.40 L 36.00 323.50 L 42.10 308.70 L 48.70 294.20 L 55.70 279.80 L 63.20 265.60 L 71.10 251.70 L 79.40 238.10 L 88.20 224.60 L 97.50 211.40 L 107.10 198.60 L 117.20 186.00 L 127.70 173.70 L 138.60 161.70 L 150.00 150.00 L 161.70 138.60 L 173.70 127.70 L 186.00 117.20 L 198.60 107.10 L 211.40 97.50 L 224.60 88.20 L 238.10 79.40 L 251.70 71.10 L 265.60 63.20 L 279.80 55.70 L 294.20 48.70 L 308.70 42.10 L 323.50 36.00 L 338.40 30.30 L 353.60 25.10 L 368.80 20.40 L 384.30 16.20 L 399.80 12.40 L 415.60 9.20 L 431.40 6.40 L 447.30 4.10 L 463.40 2.30 L 479.50 1.00 L 495.70 0.30 L 512.00 0.00 L 528.30 0.30 L 544.50 1.00 L 560.60 2.30 L 576.70 4.10 L 592.60 6.40 L 608.40 9.20 L 624.20 12.40 L 639.70 16.20 L 655.20 20.40 L 670.40 25.10 L 685.60 30.30 L 700.50 36.00 L 715.30 42.10 L 729.80 48.70 L 744.20 55.70 L 758.40 63.20 L 772.30 71.10 L 785.90 79.40 L 799.40 88.20 L 812.60 97.50 L 825.40 107.10 L 838.00 117.20 L 850.30 127.70 L 862.30 138.60 L 874.00 150.00 L 885.40 161.70 L 896.30 173.70 L 906.80 186.00 L 916.90 198.60 L 926.50 211.40 L 935.80 224.60 L 944.60 238.10 L 952.90 251.70 L 960.80 265.60 L 968.30 279.80 L 975.30 294.20 L 981.90 308.70 L 988.00 323.50 L 993.70 338.40 L 998.90 353.60 L 1003.60 368.80 L 1007.80 384.30 L 1011.60 399.80 L 1014.80 415.60 L 1017.60 431.40 L 1019.90 447.30 L 1021.70 463.40 L 1023.00 479.50 L 1023.70 495.70 L 1024.00 512.00 Z" fill="#77c4f9" fill-opacity="0.2" fill-rule="evenodd" group-id="1,2" node-id="102" stroke="none" target-height="1024" target-width="1024" target-x="0" target-y="0"></path></g><g node-id="156"><g node-id="157"><g node-id="158"><path d="M 322.00 674.00 L 321.70 679.50 L 320.90 684.80 L 319.60 689.80 L 317.80 694.60 L 315.60 699.30 L 312.90 703.70 L 309.90 707.70 L 306.50 711.50 L 302.70 714.90 L 298.60 717.90 L 294.30 720.60 L 289.60 722.80 L 284.80 724.60 L 279.80 725.90 L 274.50 726.70 L 269.00 727.00 L 263.50 726.70 L 258.20 725.90 L 253.20 724.60 L 248.40 722.80 L 243.70 720.60 L 239.30 717.90 L 235.30 714.90 L 231.50 711.50 L 228.10 707.70 L 225.10 703.70 L 222.40 699.30 L 220.20 694.60 L 218.40 689.80 L 217.10 684.80 L 216.30 679.50 L 216.00 674.00 L 216.30 668.50 L 217.10 663.20 L 218.40 658.20 L 220.20 653.40 L 222.40 648.70 L 225.10 644.40 L 228.10 640.30 L 231.50 636.50 L 235.30 633.10 L 239.30 630.10 L 243.70 627.40 L 248.40 625.20 L 253.20 623.40 L 258.20 622.10 L 263.50 621.30 L 269.00 621.00 L 274.50 621.30 L 279.80 622.10 L 284.80 623.40 L 289.60 625.20 L 294.30 627.40 L 298.60 630.10 L 302.70 633.10 L 306.50 636.50 L 309.90 640.30 L 312.90 644.40 L 315.60 648.70 L 317.80 653.40 L 319.60 658.20 L 320.90 663.20 L 321.70 668.50 L 322.00 674.00 Z" fill="#110d2e" fill-rule="evenodd" group-id="1,3,4,5" id="椭圆形" node-id="17" stroke="none" target-height="106" target-width="106" target-x="216" target-y="621"></path><path d="M 287.80 752.00 L 287.50 757.50 L 286.70 762.80 L 285.50 767.80 L 283.70 772.60 L 281.40 777.30 L 278.80 781.60 L 275.70 785.70 L 272.30 789.50 L 268.50 792.90 L 264.50 795.90 L 260.10 798.60 L 255.50 800.80 L 250.60 802.60 L 245.60 803.90 L 240.30 804.70 L 234.80 805.00 L 229.30 804.70 L 224.10 803.90 L 219.00 802.60 L 214.20 800.80 L 209.50 798.60 L 205.20 795.90 L 201.10 792.90 L 197.40 789.50 L 193.90 785.70 L 190.90 781.60 L 188.20 777.30 L 186.00 772.60 L 184.20 767.80 L 182.90 762.80 L 182.10 757.50 L 181.80 752.00 L 182.10 746.50 L 182.90 741.20 L 184.20 736.20 L 186.00 731.40 L 188.20 726.70 L 190.90 722.30 L 193.90 718.30 L 197.40 714.50 L 201.10 711.10 L 205.20 708.10 L 209.50 705.40 L 214.20 703.20 L 219.00 701.40 L 224.10 700.10 L 229.30 699.30 L 234.80 699.00 L 240.30 699.30 L 245.60 700.10 L 250.60 701.40 L 255.50 703.20 L 260.10 705.40 L 264.50 708.10 L 268.50 711.10 L 272.30 714.50 L 275.70 718.30 L 278.80 722.30 L 281.40 726.70 L 283.70 731.40 L 285.50 736.20 L 286.70 741.20 L 287.50 746.50 L 287.80 752.00 Z" fill="#110d2e" fill-rule="evenodd" group-id="1,3,4,5" id="椭圆形备份" node-id="18" stroke="none" target-height="106" target-width="105.999985" target-x="181.8" target-y="699"></path></g><g node-id="159"><path d="M 703.00 674.00 L 703.30 679.50 L 704.10 684.80 L 705.40 689.80 L 707.20 694.60 L 709.40 699.30 L 712.10 703.70 L 715.10 707.70 L 718.50 711.50 L 722.30 714.90 L 726.40 717.90 L 730.70 720.60 L 735.40 722.80 L 740.20 724.60 L 745.20 725.90 L 750.50 726.70 L 756.00 727.00 L 761.50 726.70 L 766.80 725.90 L 771.80 724.60 L 776.60 722.80 L 781.30 720.60 L 785.70 717.90 L 789.70 714.90 L 793.50 711.50 L 796.90 707.70 L 799.90 703.70 L 802.60 699.30 L 804.80 694.60 L 806.60 689.80 L 807.90 684.80 L 808.70 679.50 L 809.00 674.00 L 808.70 668.50 L 807.90 663.20 L 806.60 658.20 L 804.80 653.40 L 802.60 648.70 L 799.90 644.40 L 796.90 640.30 L 793.50 636.50 L 789.70 633.10 L 785.70 630.10 L 781.30 627.40 L 776.60 625.20 L 771.80 623.40 L 766.80 622.10 L 761.50 621.30 L 756.00 621.00 L 750.50 621.30 L 745.20 622.10 L 740.20 623.40 L 735.40 625.20 L 730.70 627.40 L 726.40 630.10 L 722.30 633.10 L 718.50 636.50 L 715.10 640.30 L 712.10 644.40 L 709.40 648.70 L 707.20 653.40 L 705.40 658.20 L 704.10 663.20 L 703.30 668.50 L 703.00 674.00 Z" fill="#110d2e" fill-rule="evenodd" group-id="1,3,4,6" id="椭圆形" node-id="20" stroke="none" target-height="106" target-width="106" target-x="703" target-y="621"></path><path d="M 737.20 752.00 L 737.50 757.50 L 738.30 762.80 L 739.50 767.80 L 741.30 772.60 L 743.60 777.30 L 746.20 781.60 L 749.30 785.70 L 752.70 789.50 L 756.50 792.90 L 760.50 795.90 L 764.90 798.60 L 769.50 800.80 L 774.40 802.60 L 779.40 803.90 L 784.70 804.70 L 790.20 805.00 L 795.70 804.70 L 800.90 803.90 L 806.00 802.60 L 810.80 800.80 L 815.50 798.60 L 819.80 795.90 L 823.90 792.90 L 827.60 789.50 L 831.10 785.70 L 834.10 781.60 L 836.80 777.30 L 839.00 772.60 L 840.80 767.80 L 842.10 762.80 L 842.90 757.50 L 843.20 752.00 L 842.90 746.50 L 842.10 741.20 L 840.80 736.20 L 839.00 731.40 L 836.80 726.70 L 834.10 722.30 L 831.10 718.30 L 827.60 714.50 L 823.90 711.10 L 819.80 708.10 L 815.50 705.40 L 810.80 703.20 L 806.00 701.40 L 800.90 700.10 L 795.70 699.30 L 790.20 699.00 L 784.70 699.30 L 779.40 700.10 L 774.40 701.40 L 769.50 703.20 L 764.90 705.40 L 760.50 708.10 L 756.50 711.10 L 752.70 714.50 L 749.30 718.30 L 746.20 722.30 L 743.60 726.70 L 741.30 731.40 L 739.50 736.20 L 738.30 741.20 L 737.50 746.50 L 737.20 752.00 Z" fill="#110d2e" fill-rule="evenodd" group-id="1,3,4,6" id="椭圆形备份" node-id="21" stroke="none" target-height="106" target-width="106" target-x="737.2" target-y="699"></path></g><path d="M 235.00 514.00 L 790.00 514.00 L 790.00 545.00 L 789.70 552.40 L 788.80 559.50 L 787.40 566.40 L 785.50 573.10 L 783.00 579.70 L 780.10 585.90 L 776.70 591.90 L 772.80 597.60 L 768.60 602.90 L 763.90 607.90 L 758.90 612.60 L 753.60 616.80 L 747.90 620.70 L 741.90 624.10 L 735.70 627.00 L 729.10 629.50 L 722.40 631.40 L 715.50 632.80 L 708.40 633.70 L 701.00 634.00 L 324.00 634.00 L 316.60 633.70 L 309.50 632.80 L 302.60 631.40 L 295.90 629.50 L 289.30 627.00 L 283.10 624.10 L 277.10 620.70 L 271.40 616.80 L 266.10 612.60 L 261.10 607.90 L 256.40 602.90 L 252.20 597.60 L 248.30 591.90 L 244.90 585.90 L 242.00 579.70 L 239.50 573.10 L 237.60 566.40 L 236.20 559.50 L 235.30 552.40 L 235.00 545.00 L 235.00 514.00 Z" fill="#110d2e" fill-rule="evenodd" group-id="1,3,4" id="矩形" node-id="22" stroke="none" target-height="120" target-width="555" target-x="235" target-y="514"></path><path d="M 820.00 439.50 L 819.70 450.50 L 819.10 461.30 L 817.90 471.90 L 816.30 482.40 L 814.30 492.80 L 811.90 503.00 L 808.40 515.20 L 804.30 527.10 L 799.70 538.70 L 794.50 550.10 L 788.70 561.30 L 782.40 572.20 L 775.60 582.80 L 768.40 593.10 L 760.60 603.00 L 752.30 612.70 L 743.70 622.00 L 734.60 631.00 L 725.00 639.60 L 715.10 647.80 L 704.60 655.60 L 693.90 663.00 L 682.90 670.00 L 671.50 676.50 L 659.70 682.60 L 647.50 688.30 L 635.10 693.50 L 622.50 698.20 L 609.50 702.30 L 596.20 706.00 L 582.60 709.20 L 569.00 711.80 L 555.10 713.80 L 541.00 715.30 L 526.70 716.20 L 512.00 716.50 L 497.30 716.20 L 483.00 715.30 L 468.90 713.80 L 455.00 711.80 L 441.40 709.20 L 427.80 706.00 L 414.50 702.30 L 401.50 698.20 L 388.90 693.50 L 376.50 688.30 L 364.30 682.60 L 352.50 676.50 L 341.10 670.00 L 330.10 663.00 L 319.40 655.60 L 308.90 647.80 L 299.00 639.60 L 289.40 631.00 L 280.30 622.00 L 271.70 612.70 L 263.40 603.00 L 255.60 593.10 L 248.40 582.80 L 241.60 572.20 L 235.30 561.30 L 229.50 550.10 L 224.30 538.70 L 219.70 527.10 L 215.60 515.20 L 212.10 503.00 L 209.70 492.80 L 207.70 482.40 L 206.10 471.90 L 204.90 461.30 L 204.30 450.50 L 204.00 439.50 L 204.30 428.50 L 204.90 417.70 L 206.10 407.10 L 207.70 396.60 L 209.70 386.20 L 212.10 376.00 L 215.60 363.80 L 219.70 351.90 L 224.30 340.30 L 229.50 328.90 L 235.30 317.70 L 241.60 306.80 L 248.40 296.20 L 255.60 285.90 L 263.40 276.00 L 271.70 266.30 L 280.30 257.00 L 289.40 248.00 L 299.00 239.40 L 308.90 231.20 L 319.40 223.40 L 330.10 216.00 L 341.10 209.00 L 352.50 202.50 L 364.30 196.40 L 376.50 190.70 L 388.90 185.50 L 401.50 180.80 L 414.50 176.70 L 427.80 173.00 L 441.40 169.80 L 455.00 167.20 L 468.90 165.20 L 483.00 163.70 L 497.30 162.80 L 512.00 162.50 L 526.70 162.80 L 541.00 163.70 L 555.10 165.20 L 569.00 167.20 L 582.60 169.80 L 596.20 173.00 L 609.50 176.70 L 622.50 180.80 L 635.10 185.50 L 647.50 190.70 L 659.70 196.40 L 671.50 202.50 L 682.90 209.00 L 693.90 216.00 L 704.60 223.40 L 715.10 231.20 L 725.00 239.40 L 734.60 248.00 L 743.70 257.00 L 752.30 266.30 L 760.60 276.00 L 768.40 285.90 L 775.60 296.20 L 782.40 306.80 L 788.70 317.70 L 794.50 328.90 L 799.70 340.30 L 804.30 351.90 L 808.40 363.80 L 811.90 376.00 L 814.30 386.20 L 816.30 396.60 L 817.90 407.10 L 819.10 417.70 L 819.70 428.50 L 820.00 439.50 Z" fill="#110d2e" fill-rule="evenodd" group-id="1,3,4" id="椭圆形" node-id="23" stroke="#979797" stroke-linecap="butt" stroke-width="1" target-height="554" target-width="616" target-x="204" target-y="162.5"></path><path d="M 512.00 781.00 L 522.30 781.20 L 532.40 782.00 L 542.30 783.20 L 552.20 784.80 L 562.00 786.90 L 571.70 789.50 L 581.20 792.50 L 590.60 795.90 L 580.20 802.80 L 574.50 805.90 L 568.40 808.70 L 555.70 813.50 L 541.80 817.00 L 534.70 818.30 L 519.80 819.80 L 512.00 820.00 L 504.20 819.80 L 489.30 818.30 L 482.20 817.00 L 468.30 813.50 L 455.60 808.70 L 449.50 805.90 L 443.80 802.80 L 433.40 795.90 L 442.80 792.50 L 452.30 789.50 L 462.00 786.90 L 471.80 784.80 L 481.70 783.20 L 491.60 782.00 L 501.70 781.20 L 512.00 781.00 Z" fill="#489ad2" fill-rule="evenodd" group-id="1,3,4" id="形状结合" node-id="24" stroke="none" target-height="39" target-width="157.19998" target-x="433.4" target-y="781"></path><path d="M 275.40 629.80 L 278.60 628.00 L 281.30 625.90 L 283.70 623.50 L 285.70 620.80 L 287.40 617.90 L 288.70 614.70 L 289.70 611.30 L 290.30 607.70 L 290.30 600.30 L 288.80 592.30 L 285.90 584.40 L 281.30 576.30 L 277.50 571.30 L 273.30 566.80 L 268.80 562.80 L 263.90 559.20 L 258.90 556.30 L 253.80 554.00 L 245.90 551.70 L 238.30 550.80 L 234.40 551.00 L 230.80 551.50 L 227.30 552.50 L 223.90 553.90 L 220.80 555.70 L 218.10 557.80 L 215.70 560.20 L 213.70 562.90 L 212.00 565.90 L 210.70 569.00 L 209.70 572.40 L 209.10 576.00 L 209.10 583.40 L 210.60 591.40 L 213.50 599.30 L 218.10 607.40 L 221.90 612.50 L 226.10 617.00 L 230.60 621.00 L 235.50 624.50 L 240.50 627.40 L 245.60 629.70 L 253.50 632.00 L 261.10 632.90 L 265.00 632.70 L 268.60 632.20 L 272.10 631.20 L 275.40 629.80 Z" fill="#fbb4b4" fill-rule="evenodd" group-id="1,3,4" id="椭圆形备份-4" node-id="25" stroke="none" target-height="82.10004" target-width="81.19998" target-x="209.1" target-y="550.8"></path><path d="M 747.90 629.80 L 744.80 628.00 L 742.10 625.90 L 739.70 623.50 L 737.70 620.80 L 736.00 617.90 L 734.70 614.70 L 733.70 611.30 L 733.10 607.70 L 733.10 600.30 L 734.60 592.30 L 737.50 584.40 L 742.10 576.30 L 745.90 571.30 L 750.10 566.80 L 754.60 562.80 L 759.50 559.20 L 764.50 556.30 L 769.60 554.00 L 777.50 551.70 L 785.10 550.80 L 789.00 551.00 L 792.60 551.50 L 796.10 552.50 L 799.40 553.90 L 802.60 555.70 L 805.30 557.80 L 807.70 560.20 L 809.70 562.90 L 811.40 565.90 L 812.70 569.00 L 813.70 572.40 L 814.30 576.00 L 814.30 583.40 L 812.80 591.40 L 809.90 599.30 L 805.30 607.40 L 801.50 612.50 L 797.30 617.00 L 792.80 621.00 L 787.90 624.50 L 782.90 627.40 L 777.80 629.70 L 769.90 632.00 L 762.30 632.90 L 758.40 632.70 L 754.80 632.20 L 751.30 631.20 L 747.90 629.80 Z" fill="#fbb4b4" fill-rule="evenodd" group-id="1,3,4" id="椭圆形备份-12" node-id="26" stroke="none" target-height="82.10004" target-width="81.20001" target-x="733.1" target-y="550.8"></path><g node-id="160"><path d="M 379.50 953.50 L 353.50 1039.60" fill="none" group-id="1,3,4,7" id="路径-6" node-id="27" stroke="#000000" stroke-linecap="round" stroke-opacity="0.10692633" stroke-width="7" target-height="86.099976" target-width="26" target-x="353.5" target-y="953.5"></path></g><g node-id="161"><path d="M 644.50 953.50 L 670.50 1039.60" fill="none" group-id="1,3,4,8" id="路径-6备份" node-id="28" stroke="#000000" stroke-linecap="round" stroke-opacity="0.10692633" stroke-width="7" target-height="86.099976" target-width="26" target-x="644.5" target-y="953.5"></path></g><g node-id="162"><g node-id="169"><path d="M 465.00 712.00 L 559.00 712.00 L 559.00 845.00 L 465.00 845.00 Z" fill="#ffcaca" fill-rule="evenodd" group-id="1,3,4,9,16" node-id="131" stroke="none" target-height="133" target-width="94" target-x="465" target-y="712"></path></g><path d="M 591.00 717.00 L 590.70 720.90 L 590.00 724.60 L 588.70 728.30 L 587.00 731.90 L 584.80 735.20 L 579.30 741.70 L 575.80 744.80 L 570.80 748.40 L 565.10 751.80 L 558.70 754.90 L 552.00 757.50 L 544.80 759.80 L 537.00 761.60 L 529.10 762.90 L 520.70 763.70 L 512.00 764.00 L 503.30 763.70 L 494.90 762.90 L 487.00 761.60 L 479.20 759.80 L 472.00 757.50 L 465.30 754.90 L 458.90 751.80 L 453.20 748.40 L 448.20 744.80 L 444.70 741.70 L 441.70 738.50 L 439.20 735.20 L 437.00 731.90 L 435.30 728.30 L 434.00 724.60 L 433.30 720.90 L 433.00 717.00 L 433.30 713.10 L 434.00 709.40 L 435.30 705.70 L 437.00 702.10 L 439.20 698.80 L 441.70 695.50 L 444.70 692.30 L 448.20 689.20 L 453.20 685.60 L 458.90 682.20 L 465.30 679.10 L 472.00 676.50 L 479.20 674.20 L 487.00 672.40 L 494.90 671.10 L 503.30 670.30 L 512.00 670.00 L 520.70 670.30 L 529.10 671.10 L 537.00 672.40 L 544.80 674.20 L 552.00 676.50 L 558.70 679.10 L 565.10 682.20 L 570.80 685.60 L 575.80 689.20 L 579.30 692.30 L 584.80 698.80 L 587.00 702.10 L 588.70 705.70 L 590.00 709.40 L 590.70 713.10 L 591.00 717.00 Z" fill="#ec8484" fill-opacity="0.21490623" fill-rule="evenodd" group-id="1,3,4,9,17" node-id="136" stroke="none" target-height="94" target-width="158" target-x="433" target-y="670"></path></g><path d="M 767.00 524.00 L 766.70 534.70 L 765.90 545.20 L 764.50 555.50 L 762.70 565.60 L 760.30 575.60 L 757.40 585.50 L 754.00 595.10 L 750.20 604.60 L 745.90 613.90 L 741.10 622.90 L 735.90 631.80 L 730.30 640.40 L 724.30 648.70 L 717.80 656.80 L 711.00 664.70 L 703.80 672.30 L 696.30 679.50 L 688.40 686.50 L 680.10 693.20 L 671.50 699.60 L 662.60 705.60 L 653.50 711.20 L 644.00 716.50 L 634.30 721.50 L 624.10 726.10 L 613.90 730.30 L 603.50 734.10 L 592.70 737.50 L 581.70 740.50 L 570.50 743.10 L 559.20 745.20 L 547.70 746.80 L 536.00 748.00 L 524.10 748.70 L 512.00 749.00 L 499.90 748.70 L 488.00 748.00 L 476.30 746.80 L 464.80 745.20 L 453.50 743.10 L 442.30 740.50 L 431.30 737.50 L 420.50 734.10 L 410.10 730.30 L 399.90 726.10 L 389.70 721.50 L 380.00 716.50 L 370.50 711.20 L 361.40 705.60 L 352.50 699.60 L 343.90 693.20 L 335.60 686.50 L 327.70 679.50 L 320.20 672.30 L 313.00 664.70 L 306.20 656.80 L 299.70 648.70 L 293.70 640.40 L 288.10 631.80 L 282.90 622.90 L 278.10 613.90 L 273.80 604.60 L 270.00 595.10 L 266.60 585.50 L 263.70 575.60 L 261.30 565.60 L 259.50 555.50 L 258.10 545.20 L 257.30 534.70 L 257.00 524.00 L 257.30 513.30 L 258.10 502.80 L 259.50 492.50 L 261.30 482.40 L 263.70 472.40 L 266.60 462.50 L 270.00 452.90 L 273.80 443.40 L 278.10 434.10 L 282.90 425.10 L 288.10 416.20 L 293.70 407.60 L 299.70 399.30 L 306.20 391.20 L 313.00 383.30 L 320.20 375.70 L 327.70 368.50 L 335.60 361.50 L 343.90 354.80 L 352.50 348.40 L 361.40 342.40 L 370.50 336.80 L 380.00 331.50 L 389.70 326.50 L 399.90 321.90 L 410.10 317.70 L 420.50 313.90 L 431.30 310.50 L 442.30 307.50 L 453.50 304.90 L 464.80 302.80 L 476.30 301.20 L 488.00 300.00 L 499.90 299.30 L 512.00 299.00 L 524.10 299.30 L 536.00 300.00 L 547.70 301.20 L 559.20 302.80 L 570.50 304.90 L 581.70 307.50 L 592.70 310.50 L 603.50 313.90 L 613.90 317.70 L 624.10 321.90 L 634.30 326.50 L 644.00 331.50 L 653.50 336.80 L 662.60 342.40 L 671.50 348.40 L 680.10 354.80 L 688.40 361.50 L 696.30 368.50 L 703.80 375.70 L 711.00 383.30 L 717.80 391.20 L 724.30 399.30 L 730.30 407.60 L 735.90 416.20 L 741.10 425.10 L 745.90 434.10 L 750.20 443.40 L 754.00 452.90 L 757.40 462.50 L 760.30 472.40 L 762.70 482.40 L 764.50 492.50 L 765.90 502.80 L 766.70 513.30 L 767.00 524.00 Z" fill="#ffcaca" fill-rule="evenodd" group-id="1,3,4" id="椭圆形" node-id="34" stroke="none" target-height="450" target-width="510" target-x="257" target-y="299"></path><path d="M 502.00 594.00 L 502.00 620.00 L 502.20 622.60 L 502.90 624.90 L 503.90 627.10 L 505.30 629.00 L 507.00 630.70 L 508.90 632.10 L 511.10 633.10 L 513.40 633.80 L 516.00 634.00 L 522.80 634.00" fill="none" group-id="1,3,4" id="路径-5备份" node-id="35" stroke="#ff9494" stroke-linecap="round" stroke-width="8" target-height="40" target-width="20.799988" target-x="502" target-y="594"></path><path d="M 434.00 567.00 L 433.70 570.50 L 432.80 573.60 L 431.40 576.60 L 429.50 579.30 L 427.30 581.50 L 424.60 583.40 L 421.60 584.80 L 418.50 585.70 L 415.00 586.00 L 411.50 585.70 L 408.40 584.80 L 405.40 583.40 L 402.70 581.50 L 400.50 579.30 L 398.60 576.60 L 397.20 573.60 L 396.30 570.50 L 396.00 567.00 L 396.30 563.50 L 397.20 560.40 L 398.60 557.40 L 400.50 554.70 L 402.70 552.50 L 405.40 550.60 L 408.40 549.20 L 411.50 548.30 L 415.00 548.00 L 418.50 548.30 L 421.60 549.20 L 424.60 550.60 L 427.30 552.50 L 429.50 554.70 L 431.40 557.40 L 432.80 560.40 L 433.70 563.50 L 434.00 567.00 Z" fill="#110d2e" fill-rule="evenodd" group-id="1,3,4" id="椭圆形" node-id="36" stroke="none" target-height="38" target-width="38" target-x="396" target-y="548"></path><path d="M 628.00 567.00 L 627.70 570.50 L 626.80 573.60 L 625.40 576.60 L 623.50 579.30 L 621.30 581.50 L 618.60 583.40 L 615.60 584.80 L 612.50 585.70 L 609.00 586.00 L 605.50 585.70 L 602.40 584.80 L 599.40 583.40 L 596.70 581.50 L 594.50 579.30 L 592.60 576.60 L 591.20 573.60 L 590.30 570.50 L 590.00 567.00 L 590.30 563.50 L 591.20 560.40 L 592.60 557.40 L 594.50 554.70 L 596.70 552.50 L 599.40 550.60 L 602.40 549.20 L 605.50 548.30 L 609.00 548.00 L 612.50 548.30 L 615.60 549.20 L 618.60 550.60 L 621.30 552.50 L 623.50 554.70 L 625.40 557.40 L 626.80 560.40 L 627.70 563.50 L 628.00 567.00 Z" fill="#110d2e" fill-rule="evenodd" group-id="1,3,4" id="椭圆形备份-7" node-id="37" stroke="none" target-height="38" target-width="38" target-x="590" target-y="548"></path><path d="M 469.00 680.50 L 481.50 685.60 L 487.30 687.40 L 493.30 688.70 L 499.30 689.60 L 505.40 690.00 L 511.50 690.00 L 517.50 689.60 L 523.50 688.60 L 529.50 687.30 L 535.30 685.50 L 541.00 683.20 L 546.60 680.50" fill="none" group-id="1,3,4" id="路径-35" node-id="38" stroke="#ec8484" stroke-linecap="round" stroke-width="10" target-height="9.5" target-width="77.599976" target-x="469" target-y="680.5"></path><path d="M 380.00 519.60 L 391.00 517.00 L 400.30 515.20 L 408.10 514.30 L 414.50 514.00 L 420.90 514.30 L 428.70 515.20 L 438.30 516.90 L 449.80 519.60" fill="none" group-id="1,3,4" id="路径-4备份" node-id="39" stroke="#110d2e" stroke-linecap="round" stroke-width="6" target-height="5.5999756" target-width="69.79999" target-x="380" target-y="514"></path><g node-id="163"><path d="M 643.80 519.60 L 632.70 517.00 L 623.40 515.20 L 615.70 514.30 L 609.30 514.00 L 602.90 514.30 L 595.00 515.20 L 585.50 516.90 L 574.00 519.60" fill="none" group-id="1,3,4,10" id="路径-4备份-2" node-id="40" stroke="#110d2e" stroke-linecap="round" stroke-width="6" target-height="5.5999756" target-width="69.79999" target-x="574" target-y="514"></path></g><g node-id="164"><g node-id="171"><path d="M 590.60 795.90 L 601.50 800.50 L 612.10 805.60 L 622.60 811.30 L 632.90 817.60 L 642.90 824.40 L 652.60 831.70 L 662.10 839.50 L 671.30 847.70 L 680.20 856.50 L 688.90 865.90 L 697.20 875.50 L 705.10 885.50 L 712.80 896.00 L 720.10 907.00 L 727.10 918.40 L 733.70 930.00 L 739.80 942.00 L 745.60 954.40 L 751.10 967.10 L 756.10 980.30 L 760.70 993.60 L 764.80 1007.10 L 768.50 1021.00 L 771.70 1035.20 L 774.50 1049.80 L 776.80 1064.30 L 778.60 1079.10 L 779.90 1094.10 L 780.70 1109.40 L 781.00 1125.00 L 780.80 1139.30 L 780.10 1153.40 L 779.00 1167.30 L 777.50 1180.90 L 775.50 1194.30 L 773.10 1207.80 L 770.40 1221.00 L 767.20 1233.90 L 763.70 1246.50 L 759.90 1258.90 L 755.50 1271.20 L 750.90 1283.30 L 745.90 1294.90 L 740.70 1306.30 L 735.10 1317.30 L 729.00 1328.30 L 722.70 1338.80 L 716.20 1349.00 L 709.30 1358.80 L 702.20 1368.20 L 694.70 1377.50 L 687.00 1386.30 L 679.00 1394.70 L 670.80 1402.70 L 662.40 1410.30 L 653.60 1417.50 L 644.70 1424.30 L 635.50 1430.70 L 626.20 1436.50 L 616.70 1442.00 L 606.90 1447.00 L 597.00 1451.50 L 586.90 1455.50 L 576.60 1459.00 L 566.20 1462.00 L 555.70 1464.50 L 545.00 1466.40 L 534.20 1467.80 L 523.20 1468.70 L 512.00 1469.00 L 500.80 1468.70 L 489.80 1467.80 L 479.00 1466.40 L 468.30 1464.50 L 457.80 1462.00 L 447.40 1459.00 L 437.10 1455.50 L 427.00 1451.50 L 417.10 1447.00 L 407.30 1442.00 L 397.80 1436.50 L 388.50 1430.70 L 379.30 1424.30 L 370.40 1417.50 L 361.60 1410.30 L 353.20 1402.70 L 345.00 1394.70 L 337.00 1386.30 L 329.30 1377.50 L 321.80 1368.20 L 314.70 1358.80 L 307.80 1349.00 L 301.30 1338.80 L 295.00 1328.30 L 288.90 1317.30 L 283.30 1306.30 L 278.10 1294.90 L 273.10 1283.30 L 268.50 1271.20 L 264.10 1258.90 L 260.30 1246.50 L 256.80 1233.90 L 253.60 1221.00 L 250.90 1207.80 L 248.50 1194.30 L 246.50 1180.90 L 245.00 1167.30 L 243.90 1153.40 L 243.20 1139.30 L 243.00 1125.00 L 243.30 1109.40 L 244.10 1094.10 L 245.40 1079.10 L 247.20 1064.30 L 249.50 1049.80 L 252.30 1035.20 L 255.50 1021.00 L 259.20 1007.10 L 263.30 993.60 L 267.90 980.30 L 272.90 967.10 L 278.40 954.40 L 284.20 942.00 L 290.30 930.00 L 296.90 918.40 L 303.90 907.00 L 311.20 896.00 L 318.90 885.50 L 326.80 875.50 L 335.10 865.90 L 343.80 856.50 L 352.70 847.70 L 361.90 839.50 L 371.40 831.70 L 381.00 824.40 L 391.10 817.60 L 401.40 811.30 L 411.90 805.60 L 422.50 800.50 L 433.40 795.90 L 443.80 802.80 L 449.50 805.90 L 455.60 808.70 L 468.30 813.50 L 482.20 817.00 L 489.30 818.30 L 504.20 819.80 L 512.00 820.00 L 519.70 819.80 L 534.50 818.30 L 541.50 817.10 L 555.30 813.60 L 567.90 809.00 L 574.00 806.10 L 579.70 803.10 L 589.90 796.40 Z" fill="#77c4f9" fill-rule="evenodd" group-id="1,3,4,11,18" node-id="152" stroke="none" target-height="673.1" target-width="538" target-x="243" target-y="795.9"></path></g><g node-id="172"><path d="M 353.00 815.00 L 397.00 815.00 L 397.00 997.00 L 353.00 997.00 Z" fill="#1a82c9" fill-rule="evenodd" group-id="1,3,4,11,19" id="矩形" node-id="45" stroke="none" target-height="182" target-width="44" target-x="353" target-y="815"></path></g><g node-id="173"><path d="M 353.00 926.00 L 671.00 926.00 L 671.00 1108.00 L 353.00 1108.00 Z" fill="#1a82c9" fill-rule="evenodd" group-id="1,3,4,11,20" id="矩形备份-2" node-id="46" stroke="none" target-height="182" target-width="318" target-x="353" target-y="926"></path></g><path d="M 627.00 815.00 L 671.00 815.00 L 671.00 997.00 L 627.00 997.00 Z" fill="#1a82c9" fill-rule="evenodd" group-id="1,3,4,11,21" id="矩形备份" node-id="47" stroke="none" target-height="182" target-width="44" target-x="627" target-y="815"></path></g><path d="M 520.00 849.00 L 519.70 851.10 L 518.90 853.00 L 517.70 854.70 L 516.00 855.90 L 514.10 856.70 L 512.00 857.00 L 509.90 856.70 L 508.00 855.90 L 506.30 854.70 L 505.10 853.00 L 504.30 851.10 L 504.00 849.00 L 504.30 846.90 L 505.10 845.00 L 506.30 843.30 L 508.00 842.10 L 509.90 841.30 L 512.00 841.00 L 514.10 841.30 L 516.00 842.10 L 517.70 843.30 L 518.90 845.00 L 519.70 846.90 L 520.00 849.00 Z" fill="#1a82c9" fill-rule="evenodd" group-id="1,3,4" id="椭圆形" node-id="48" stroke="none" target-height="16" target-width="16" target-x="504" target-y="841"></path><path d="M 520.00 907.00 L 519.70 909.10 L 518.90 911.00 L 517.70 912.70 L 516.00 913.90 L 514.10 914.70 L 512.00 915.00 L 509.90 914.70 L 508.00 913.90 L 506.30 912.70 L 505.10 911.00 L 504.30 909.10 L 504.00 907.00 L 504.30 904.90 L 505.10 903.00 L 506.30 901.30 L 508.00 900.10 L 509.90 899.30 L 512.00 899.00 L 514.10 899.30 L 516.00 900.10 L 517.70 901.30 L 518.90 903.00 L 519.70 904.90 L 520.00 907.00 Z" fill="#1a82c9" fill-rule="evenodd" group-id="1,3,4" id="椭圆形备份-5" node-id="49" stroke="none" target-height="16" target-width="16" target-x="504" target-y="899"></path><path d="M 520.00 878.00 L 519.70 880.10 L 518.90 882.00 L 517.70 883.70 L 516.00 884.90 L 514.10 885.70 L 512.00 886.00 L 509.90 885.70 L 508.00 884.90 L 506.30 883.70 L 505.10 882.00 L 504.30 880.10 L 504.00 878.00 L 504.30 875.90 L 505.10 874.00 L 506.30 872.30 L 508.00 871.10 L 509.90 870.30 L 512.00 870.00 L 514.10 870.30 L 516.00 871.10 L 517.70 872.30 L 518.90 874.00 L 519.70 875.90 L 520.00 878.00 Z" fill="#1a82c9" fill-rule="evenodd" group-id="1,3,4" id="椭圆形备份-6" node-id="50" stroke="none" target-height="16" target-width="16" target-x="504" target-y="870"></path><path d="M 559.00 234.30 L 589.20 253.30 L 615.40 270.40 L 638.00 285.80 L 737.30 315.10 L 796.70 424.00 L 765.70 557.10 L 763.20 546.30 L 760.10 535.50 L 756.60 524.80 L 752.60 514.10 L 748.00 503.50 L 743.00 492.80 L 737.30 482.20 L 733.30 475.50 L 728.90 469.30 L 724.10 463.50 L 718.80 458.20 L 713.20 453.20 L 707.20 448.70 L 701.00 444.60 L 694.40 441.00 L 687.60 438.00 L 680.60 435.40 L 673.30 433.40 L 665.90 431.90 L 511.40 431.20 L 356.80 431.90 L 349.50 433.30 L 342.30 435.30 L 335.40 437.90 L 328.60 440.90 L 322.10 444.40 L 315.90 448.40 L 310.00 452.80 L 304.40 457.70 L 299.20 463.00 L 294.30 468.60 L 289.90 474.70 L 285.90 481.20 L 279.70 492.80 L 274.70 503.50 L 270.10 514.10 L 266.10 524.80 L 262.60 535.50 L 259.50 546.30 L 257.00 557.10 L 226.00 424.00 L 285.40 315.10 L 384.70 285.80 L 407.30 270.40 L 433.50 253.30 L 463.70 234.30 L 511.40 248.40 Z" fill="#110d2e" fill-rule="evenodd" group-id="1,3,4" id="形状结合" node-id="51" stroke="none" target-height="322.8" target-width="570.7" target-x="226" target-y="234.3"></path><g node-id="165"><path d="M 304.40 364.40 L 415.40 451.60 L 324.40 504.10 Z" fill="#ffcaca" fill-rule="evenodd" group-id="1,3,4,12" id="三角形" node-id="52" stroke="none" target-height="139.70001" target-width="111" target-x="304.4" target-y="364.4"></path></g><g node-id="166"><path d="M 419.00 361.20 L 524.40 451.60 L 444.70 497.60 Z" fill="#ffcaca" fill-rule="evenodd" group-id="1,3,4,13" id="三角形备份-6" node-id="53" stroke="none" target-height="136.4" target-width="105.400024" target-x="419" target-y="361.2"></path></g><g node-id="167"><path d="M 531.00 373.20 L 636.40 463.60 L 556.70 509.60 Z" fill="#ffcaca" fill-rule="evenodd" group-id="1,3,4,14" id="三角形备份-7" node-id="54" stroke="none" target-height="136.4" target-width="105.400024" target-x="531" target-y="373.2"></path></g><path d="M 637.80 396.90 L 705.90 447.70 L 647.80 481.20 Z" fill="#ffcaca" fill-rule="evenodd" group-id="1,3,4,15" id="三角形备份-8" node-id="55" stroke="none" target-height="84.30002" target-width="68.10004" target-x="637.8" target-y="396.9"></path></g></g></g></svg>