<?xml version="1.0" standalone="no"?><!DOCTYPE svg PUBLIC "-//W3C//DTD SVG 1.1//EN" "http://www.w3.org/Graphics/SVG/1.1/DTD/svg11.dtd"><svg height="1024" node-id="1" sillyvg="true" template-height="1024" template-width="1024" version="1.1" viewBox="0 0 1024 1024" width="1024" xmlns="http://www.w3.org/2000/svg" xmlns:xlink="http://www.w3.org/1999/xlink"><defs node-id="43"><mask height="771.604" id="mask-2" maskUnits="userSpaceOnUse" node-id="10" width="1527" x="-2553.5872" y="5393.6963"><path d="M -2110.80 6291.60 L -2094.50 6291.30 L -2078.30 6290.60 L -2062.20 6289.30 L -2046.20 6287.50 L -2030.30 6285.20 L -2014.40 6282.40 L -1998.70 6279.20 L -1983.10 6275.40 L -1967.70 6271.20 L -1952.40 6266.50 L -1937.20 6261.30 L -1922.30 6255.60 L -1907.60 6249.50 L -1893.00 6242.90 L -1878.60 6235.90 L -1864.50 6228.40 L -1850.60 6220.50 L -1836.90 6212.10 L -1823.50 6203.30 L -1810.30 6194.10 L -1797.40 6184.50 L -1784.80 6174.40 L -1772.50 6163.90 L -1760.50 6153.00 L -1748.80 6141.60 L -1737.40 6129.90 L -1726.50 6117.90 L -1716.00 6105.60 L -1706.00 6093.00 L -1696.30 6080.10 L -1687.10 6066.90 L -1678.30 6053.50 L -1669.90 6039.90 L -1662.00 6026.00 L -1654.50 6011.80 L -1647.50 5997.40 L -1640.90 5982.90 L -1634.80 5968.10 L -1629.20 5953.20 L -1624.00 5938.00 L -1619.30 5922.70 L -1615.00 5907.30 L -1611.30 5891.80 L -1608.00 5876.00 L -1605.20 5860.20 L -1602.90 5844.20 L -1601.10 5828.20 L -1599.90 5812.10 L -1599.10 5795.90 L -1598.80 5779.60 L -1599.10 5763.30 L -1599.90 5747.10 L -1601.20 5730.90 L -1602.90 5714.90 L -1605.20 5699.00 L -1608.00 5683.10 L -1611.30 5667.40 L -1615.00 5651.90 L -1619.30 5636.40 L -1624.00 5621.10 L -1629.20 5606.00 L -1634.80 5591.10 L -1640.90 5576.30 L -1647.50 5561.70 L -1654.50 5547.40 L -1662.00 5533.20 L -1669.90 5519.30 L -1678.30 5505.70 L -1687.10 5492.20 L -1696.30 5479.00 L -1706.00 5466.20 L -1716.00 5453.60 L -1726.50 5441.30 L -1737.40 5429.30 L -1748.80 5417.60 L -1760.50 5406.20 L -1772.50 5395.30 L -1784.80 5384.80 L -1797.40 5374.70 L -1810.30 5365.10 L -1823.50 5355.80 L -1836.90 5347.00 L -1850.60 5338.70 L -1864.50 5330.80 L -1878.60 5323.30 L -1893.00 5316.20 L -1907.60 5309.70 L -1922.30 5303.60 L -1937.20 5297.90 L -1952.40 5292.70 L -1967.70 5288.00 L -1983.10 5283.80 L -1998.70 5280.00 L -2014.40 5276.80 L -2030.30 5274.00 L -2046.20 5271.70 L -2062.20 5269.90 L -2078.30 5268.60 L -2094.50 5267.90 L -2110.80 5267.60 L -2127.20 5267.90 L -2143.40 5268.60 L -2159.50 5269.90 L -2175.50 5271.70 L -2191.40 5274.00 L -2207.30 5276.80 L -2223.00 5280.00 L -2238.60 5283.80 L -2254.00 5288.00 L -2269.30 5292.70 L -2284.40 5297.90 L -2299.40 5303.60 L -2314.10 5309.70 L -2328.70 5316.20 L -2343.10 5323.30 L -2357.20 5330.80 L -2371.10 5338.70 L -2384.80 5347.00 L -2398.20 5355.80 L -2411.40 5365.10 L -2424.30 5374.70 L -2436.80 5384.80 L -2449.10 5395.30 L -2461.10 5406.20 L -2472.90 5417.60 L -2484.20 5429.30 L -2495.20 5441.30 L -2505.60 5453.60 L -2515.70 5466.20 L -2525.30 5479.00 L -2534.60 5492.20 L -2543.40 5505.70 L -2551.70 5519.30 L -2559.70 5533.20 L -2567.10 5547.40 L -2574.20 5561.70 L -2580.80 5576.30 L -2586.90 5591.10 L -2592.50 5606.00 L -2597.70 5621.10 L -2602.40 5636.40 L -2606.70 5651.90 L -2610.40 5667.40 L -2613.70 5683.10 L -2616.50 5699.00 L -2618.70 5714.90 L -2620.50 5730.90 L -2621.80 5747.10 L -2622.60 5763.30 L -2622.80 5779.60 L -2622.60 5795.90 L -2621.80 5812.10 L -2620.50 5828.20 L -2618.70 5844.20 L -2616.50 5860.20 L -2613.70 5876.00 L -2610.40 5891.80 L -2606.70 5907.30 L -2602.40 5922.70 L -2597.70 5938.00 L -2592.50 5953.20 L -2586.90 5968.10 L -2580.80 5982.90 L -2574.20 5997.40 L -2567.10 6011.80 L -2559.70 6026.00 L -2551.70 6039.90 L -2543.40 6053.50 L -2534.60 6066.90 L -2525.30 6080.10 L -2515.70 6093.00 L -2505.60 6105.60 L -2495.20 6117.90 L -2484.20 6129.90 L -2472.90 6141.60 L -2461.10 6153.00 L -2449.10 6163.90 L -2436.80 6174.40 L -2424.30 6184.50 L -2411.40 6194.10 L -2398.20 6203.30 L -2384.80 6212.10 L -2371.10 6220.50 L -2357.20 6228.40 L -2343.10 6235.90 L -2328.70 6242.90 L -2314.10 6249.50 L -2299.40 6255.60 L -2284.40 6261.30 L -2269.30 6266.50 L -2254.00 6271.20 L -2238.60 6275.40 L -2223.00 6279.20 L -2207.30 6282.40 L -2191.40 6285.20 L -2175.50 6287.50 L -2159.50 6289.30 L -2143.40 6290.60 L -2127.20 6291.30 L -2110.80 6291.60 Z" fill="#ffffff" fill-rule="evenodd" node-id="48" stroke="none" target-height="1024" target-width="1024" target-x="-2622.8" target-y="5267.6"></path></mask><mask height="112.8" id="mask-4" maskUnits="userSpaceOnUse" node-id="25" width="189.6" x="-47.8" y="-51.4"><path d="M 0.00 0.00 L 94.00 0.00 L 94.00 103.00 L 0.00 103.00 Z" fill="#ffffff" fill-rule="evenodd" node-id="55" stroke="none" target-height="103" target-width="94" target-x="0" target-y="0"></path></mask><mask height="50.399998" id="mask-6" maskUnits="userSpaceOnUse" node-id="34" width="12" x="75" y="38.8"><path d="M 161.00 31.60 L 161.00 97.40 L 160.70 100.50 L 159.90 103.30 L 158.70 105.90 L 157.00 108.30 L 155.00 110.30 L 152.60 112.00 L 150.00 113.20 L 147.20 114.00 L 144.10 114.30 L 141.60 114.10 L 136.90 112.70 L 80.50 75.30 L 26.30 111.50 L 23.60 112.90 L 20.80 113.90 L 17.90 114.30 L 15.00 114.20 L 12.20 113.60 L 9.50 112.60 L 7.00 111.10 L 4.80 109.20 L 2.80 106.80 L 1.60 104.60 L 0.20 99.90 L 0.00 31.60 L 0.30 28.50 L 1.10 25.70 L 2.30 23.10 L 4.00 20.70 L 6.00 18.70 L 8.40 17.00 L 11.00 15.80 L 13.80 15.00 L 16.90 14.70 L 19.40 14.90 L 24.10 16.30 L 80.50 53.70 L 134.70 17.50 L 137.40 16.10 L 140.20 15.10 L 143.10 14.70 L 146.00 14.80 L 148.80 15.40 L 151.50 16.40 L 154.00 17.90 L 156.20 19.80 L 158.20 22.20 L 159.40 24.40 L 160.80 29.10 L 161.00 31.60 Z" fill="#ffffff" fill-rule="evenodd" node-id="62" stroke="none" target-height="99.600006" target-width="161" target-x="0" target-y="14.7"></path></mask></defs><path d="M 0.00 0.00 L 1024.00 0.00 L 1024.00 1024.00 L 0.00 1024.00 Z" fill="#ffffff" fill-rule="evenodd" node-id="68" stroke="none" target-height="1024" target-width="1024" target-x="0" target-y="0"></path><g node-id="121"><path d="M 1024.00 512.00 L 1023.70 528.30 L 1023.00 544.50 L 1021.70 560.60 L 1019.90 576.70 L 1017.60 592.60 L 1014.80 608.40 L 1011.60 624.20 L 1007.80 639.70 L 1003.60 655.20 L 998.90 670.40 L 993.70 685.60 L 988.00 700.50 L 981.90 715.30 L 975.30 729.80 L 968.30 744.20 L 960.80 758.40 L 952.90 772.30 L 944.60 785.90 L 935.80 799.40 L 926.50 812.60 L 916.90 825.40 L 906.80 838.00 L 896.30 850.30 L 885.40 862.30 L 874.00 874.00 L 862.30 885.40 L 850.30 896.30 L 838.00 906.80 L 825.40 916.90 L 812.60 926.50 L 799.40 935.80 L 785.90 944.60 L 772.30 952.90 L 758.40 960.80 L 744.20 968.30 L 729.80 975.30 L 715.30 981.90 L 700.50 988.00 L 685.60 993.70 L 670.40 998.90 L 655.20 1003.60 L 639.70 1007.80 L 624.20 1011.60 L 608.40 1014.80 L 592.60 1017.60 L 576.70 1019.90 L 560.60 1021.70 L 544.50 1023.00 L 528.30 1023.70 L 512.00 1024.00 L 495.70 1023.70 L 479.50 1023.00 L 463.40 1021.70 L 447.30 1019.90 L 431.40 1017.60 L 415.60 1014.80 L 399.80 1011.60 L 384.30 1007.80 L 368.80 1003.60 L 353.60 998.90 L 338.40 993.70 L 323.50 988.00 L 308.70 981.90 L 294.20 975.30 L 279.80 968.30 L 265.60 960.80 L 251.70 952.90 L 238.10 944.60 L 224.60 935.80 L 211.40 926.50 L 198.60 916.90 L 186.00 906.80 L 173.70 896.30 L 161.70 885.40 L 150.00 874.00 L 138.60 862.30 L 127.70 850.30 L 117.20 838.00 L 107.10 825.40 L 97.50 812.60 L 88.20 799.40 L 79.40 785.90 L 71.10 772.30 L 63.20 758.40 L 55.70 744.20 L 48.70 729.80 L 42.10 715.30 L 36.00 700.50 L 30.30 685.60 L 25.10 670.40 L 20.40 655.20 L 16.20 639.70 L 12.40 624.20 L 9.20 608.40 L 6.40 592.60 L 4.10 576.70 L 2.30 560.60 L 1.00 544.50 L 0.30 528.30 L 0.00 512.00 L 0.30 495.70 L 1.00 479.50 L 2.30 463.40 L 4.10 447.30 L 6.40 431.40 L 9.20 415.60 L 12.40 399.80 L 16.20 384.30 L 20.40 368.80 L 25.10 353.60 L 30.30 338.40 L 36.00 323.50 L 42.10 308.70 L 48.70 294.20 L 55.70 279.80 L 63.20 265.60 L 71.10 251.70 L 79.40 238.10 L 88.20 224.60 L 97.50 211.40 L 107.10 198.60 L 117.20 186.00 L 127.70 173.70 L 138.60 161.70 L 150.00 150.00 L 161.70 138.60 L 173.70 127.70 L 186.00 117.20 L 198.60 107.10 L 211.40 97.50 L 224.60 88.20 L 238.10 79.40 L 251.70 71.10 L 265.60 63.20 L 279.80 55.70 L 294.20 48.70 L 308.70 42.10 L 323.50 36.00 L 338.40 30.30 L 353.60 25.10 L 368.80 20.40 L 384.30 16.20 L 399.80 12.40 L 415.60 9.20 L 431.40 6.40 L 447.30 4.10 L 463.40 2.30 L 479.50 1.00 L 495.70 0.30 L 512.00 0.00 L 528.30 0.30 L 544.50 1.00 L 560.60 2.30 L 576.70 4.10 L 592.60 6.40 L 608.40 9.20 L 624.20 12.40 L 639.70 16.20 L 655.20 20.40 L 670.40 25.10 L 685.60 30.30 L 700.50 36.00 L 715.30 42.10 L 729.80 48.70 L 744.20 55.70 L 758.40 63.20 L 772.30 71.10 L 785.90 79.40 L 799.40 88.20 L 812.60 97.50 L 825.40 107.10 L 838.00 117.20 L 850.30 127.70 L 862.30 138.60 L 874.00 150.00 L 885.40 161.70 L 896.30 173.70 L 906.80 186.00 L 916.90 198.60 L 926.50 211.40 L 935.80 224.60 L 944.60 238.10 L 952.90 251.70 L 960.80 265.60 L 968.30 279.80 L 975.30 294.20 L 981.90 308.70 L 988.00 323.50 L 993.70 338.40 L 998.90 353.60 L 1003.60 368.80 L 1007.80 384.30 L 1011.60 399.80 L 1014.80 415.60 L 1017.60 431.40 L 1019.90 447.30 L 1021.70 463.40 L 1023.00 479.50 L 1023.70 495.70 L 1024.00 512.00 Z" fill="#6e66d4" fill-opacity="0.2" fill-rule="evenodd" group-id="1" node-id="71" stroke="none" target-height="1024" target-width="1024" target-x="0" target-y="0"></path></g><g node-id="122"><g node-id="123"><path d="M 285.60 852.50 L 284.30 824.70 L 283.80 800.10 L 283.80 778.50 L 284.40 759.60 L 285.50 743.10 L 287.00 728.80 L 288.80 716.60 L 290.90 706.10 L 293.30 697.20 L 295.80 689.80 L 298.40 683.60 L 301.20 678.50 L 304.10 674.40 L 307.00 671.10 L 310.00 668.50 L 313.10 666.60 L 316.40 665.20 L 319.80 664.40 L 323.40 664.10 L 323.40 622.70 L 313.80 623.70 L 304.70 625.30 L 296.00 627.30 L 287.70 629.90 L 279.80 632.90 L 272.20 636.40 L 264.90 640.40 L 257.90 644.80 L 251.20 649.80 L 244.80 655.30 L 238.60 661.30 L 232.70 667.90 L 227.10 675.00 L 221.70 682.80 L 216.50 691.20 L 211.70 700.30 L 207.10 710.20 L 202.80 720.80 L 198.70 732.30 L 195.00 744.60 L 191.70 757.90 L 190.70 768.60 L 190.40 778.40 L 190.70 787.30 L 191.50 795.40 L 192.70 802.80 L 194.50 809.50 L 196.60 815.50 L 199.10 821.10 L 202.00 826.10 L 205.30 830.60 L 209.00 834.80 L 213.10 838.50 L 217.70 841.80 L 222.70 844.70 L 228.20 847.30 L 234.20 849.50 L 240.90 851.20 L 248.20 852.50 L 256.30 853.40 L 265.20 853.70 L 274.90 853.40 L 285.60 852.50 Z" fill="#110d2e" fill-rule="evenodd" group-id="2,3" id="路径-36" node-id="15" stroke="none" target-height="231" target-width="133" target-x="190.4" target-y="622.7"></path><g node-id="124"><path d="M 738.20 852.50 L 739.50 824.70 L 740.00 800.10 L 740.00 778.50 L 739.40 759.60 L 738.30 743.10 L 736.80 728.80 L 735.00 716.60 L 732.90 706.10 L 730.60 697.20 L 728.00 689.80 L 725.40 683.60 L 722.60 678.50 L 719.80 674.40 L 716.80 671.10 L 713.80 668.50 L 710.70 666.60 L 707.40 665.20 L 704.00 664.40 L 700.40 664.10 L 700.40 622.70 L 710.00 623.70 L 719.10 625.30 L 727.80 627.30 L 736.10 629.90 L 744.10 632.90 L 751.70 636.40 L 758.90 640.40 L 765.90 644.80 L 772.60 649.80 L 779.00 655.30 L 785.20 661.30 L 791.10 667.90 L 796.70 675.00 L 802.10 682.80 L 807.30 691.20 L 812.10 700.30 L 816.70 710.20 L 821.10 720.80 L 825.10 732.30 L 828.80 744.60 L 832.10 757.90 L 833.10 768.60 L 833.40 778.40 L 833.10 787.30 L 832.40 795.40 L 831.10 802.80 L 829.40 809.50 L 827.20 815.50 L 824.70 821.10 L 821.80 826.10 L 818.50 830.60 L 814.80 834.80 L 810.70 838.50 L 806.20 841.80 L 801.20 844.70 L 795.70 847.30 L 789.60 849.50 L 782.90 851.20 L 775.60 852.50 L 767.50 853.40 L 758.70 853.70 L 748.90 853.40 L 738.20 852.50 Z" fill="#110d2e" fill-rule="evenodd" group-id="2,3,4" id="路径-36备份" node-id="16" stroke="none" target-height="231" target-width="133" target-x="700.4" target-y="622.7"></path></g><path d="M 235.00 514.00 L 790.00 514.00 L 790.00 579.00 L 789.70 586.40 L 788.80 593.50 L 787.40 600.40 L 785.50 607.10 L 783.00 613.70 L 780.10 619.90 L 776.70 625.90 L 772.80 631.60 L 768.60 636.90 L 763.90 641.90 L 758.90 646.60 L 753.60 650.80 L 747.90 654.70 L 741.90 658.10 L 735.70 661.00 L 729.10 663.50 L 722.40 665.40 L 715.50 666.80 L 708.40 667.70 L 701.00 668.00 L 324.00 668.00 L 316.60 667.70 L 309.50 666.80 L 302.60 665.40 L 295.90 663.50 L 289.30 661.00 L 283.10 658.10 L 277.10 654.70 L 271.40 650.80 L 266.10 646.60 L 261.10 641.90 L 256.40 636.90 L 252.20 631.60 L 248.30 625.90 L 244.90 619.90 L 242.00 613.70 L 239.50 607.10 L 237.60 600.40 L 236.20 593.50 L 235.30 586.40 L 235.00 579.00 L 235.00 514.00 Z" fill="#110d2e" fill-rule="evenodd" group-id="2,3" id="矩形" node-id="17" stroke="none" target-height="154" target-width="555" target-x="235" target-y="514"></path><path d="M 820.00 456.50 L 819.70 466.80 L 819.10 476.90 L 817.90 486.90 L 816.30 496.80 L 814.30 506.50 L 811.90 516.10 L 808.40 527.50 L 804.30 538.70 L 799.70 549.60 L 794.50 560.30 L 788.70 570.80 L 782.40 581.00 L 775.70 590.90 L 768.40 600.60 L 760.60 610.00 L 752.30 619.10 L 743.70 627.80 L 734.60 636.20 L 725.10 644.20 L 715.10 652.00 L 704.60 659.40 L 694.00 666.30 L 682.90 672.80 L 671.50 679.00 L 659.70 684.70 L 647.50 690.10 L 635.10 694.90 L 622.50 699.30 L 609.50 703.20 L 596.20 706.60 L 582.60 709.60 L 569.00 712.10 L 555.20 714.00 L 541.00 715.40 L 526.70 716.20 L 512.00 716.50 L 497.30 716.20 L 483.00 715.40 L 468.80 714.00 L 455.00 712.10 L 441.40 709.60 L 427.80 706.60 L 414.50 703.20 L 401.50 699.30 L 388.90 694.90 L 376.50 690.10 L 364.30 684.70 L 352.50 679.00 L 341.10 672.80 L 330.00 666.30 L 319.40 659.40 L 308.90 652.00 L 298.90 644.20 L 289.40 636.20 L 280.30 627.80 L 271.70 619.10 L 263.40 610.00 L 255.60 600.60 L 248.30 590.90 L 241.60 581.00 L 235.30 570.80 L 229.50 560.30 L 224.30 549.60 L 219.70 538.70 L 215.60 527.50 L 212.10 516.10 L 209.70 506.50 L 207.70 496.80 L 206.10 486.90 L 204.90 476.90 L 204.30 466.80 L 204.00 456.50 L 204.30 446.20 L 204.90 436.10 L 206.10 426.10 L 207.70 416.20 L 209.70 406.50 L 212.10 396.90 L 215.60 385.50 L 219.70 374.30 L 224.30 363.40 L 229.50 352.70 L 235.30 342.20 L 241.60 332.00 L 248.30 322.10 L 255.60 312.40 L 263.40 303.00 L 271.70 293.90 L 280.30 285.20 L 289.40 276.80 L 298.90 268.80 L 308.90 261.00 L 319.40 253.60 L 330.00 246.70 L 341.10 240.20 L 352.50 234.00 L 364.30 228.30 L 376.50 222.90 L 388.90 218.10 L 401.50 213.70 L 414.50 209.80 L 427.80 206.40 L 441.40 203.40 L 455.00 200.90 L 468.80 199.00 L 483.00 197.60 L 497.30 196.80 L 512.00 196.50 L 526.70 196.80 L 541.00 197.60 L 555.20 199.00 L 569.00 200.90 L 582.60 203.40 L 596.20 206.40 L 609.50 209.80 L 622.50 213.70 L 635.10 218.10 L 647.50 222.90 L 659.70 228.30 L 671.50 234.00 L 682.90 240.20 L 694.00 246.70 L 704.60 253.60 L 715.10 261.00 L 725.10 268.80 L 734.60 276.80 L 743.70 285.20 L 752.30 293.90 L 760.60 303.00 L 768.40 312.40 L 775.70 322.10 L 782.40 332.00 L 788.70 342.20 L 794.50 352.70 L 799.70 363.40 L 804.30 374.30 L 808.40 385.50 L 811.90 396.90 L 814.30 406.50 L 816.30 416.20 L 817.90 426.10 L 819.10 436.10 L 819.70 446.20 L 820.00 456.50 Z" fill="#110d2e" fill-rule="evenodd" group-id="2,3" id="椭圆形" node-id="18" stroke="#979797" stroke-linecap="butt" stroke-width="1" target-height="520" target-width="616" target-x="204" target-y="196.5"></path><path d="M 275.40 629.80 L 278.60 628.00 L 281.30 625.90 L 283.70 623.50 L 285.70 620.80 L 287.40 617.90 L 288.70 614.70 L 289.70 611.30 L 290.30 607.70 L 290.30 600.30 L 288.80 592.30 L 285.90 584.40 L 281.30 576.30 L 277.50 571.30 L 273.30 566.80 L 268.80 562.80 L 263.90 559.20 L 258.90 556.30 L 253.80 554.00 L 245.90 551.70 L 238.30 550.80 L 234.40 551.00 L 230.80 551.50 L 227.30 552.50 L 223.90 553.90 L 220.80 555.70 L 218.10 557.80 L 215.70 560.20 L 213.70 562.90 L 212.00 565.90 L 210.70 569.00 L 209.70 572.40 L 209.10 576.00 L 209.10 583.40 L 210.60 591.40 L 213.50 599.30 L 218.10 607.40 L 221.90 612.50 L 226.10 617.00 L 230.60 621.00 L 235.50 624.50 L 240.50 627.40 L 245.60 629.70 L 253.50 632.00 L 261.10 632.90 L 265.00 632.70 L 268.60 632.20 L 272.10 631.20 L 275.40 629.80 Z" fill="#fbb4b4" fill-rule="evenodd" group-id="2,3" id="椭圆形备份-4" node-id="19" stroke="none" target-height="82.10004" target-width="81.19998" target-x="209.1" target-y="550.8"></path><path d="M 747.90 629.80 L 744.80 628.00 L 742.10 625.90 L 739.70 623.50 L 737.70 620.80 L 736.00 617.90 L 734.70 614.70 L 733.70 611.30 L 733.10 607.70 L 733.10 600.30 L 734.60 592.30 L 737.50 584.40 L 742.10 576.30 L 745.90 571.30 L 750.10 566.80 L 754.60 562.80 L 759.50 559.20 L 764.50 556.30 L 769.60 554.00 L 777.50 551.70 L 785.10 550.80 L 789.00 551.00 L 792.60 551.50 L 796.10 552.50 L 799.40 553.90 L 802.60 555.70 L 805.30 557.80 L 807.70 560.20 L 809.70 562.90 L 811.40 565.90 L 812.70 569.00 L 813.70 572.40 L 814.30 576.00 L 814.30 583.40 L 812.80 591.40 L 809.90 599.30 L 805.30 607.40 L 801.50 612.50 L 797.30 617.00 L 792.80 621.00 L 787.90 624.50 L 782.90 627.40 L 777.80 629.70 L 769.90 632.00 L 762.30 632.90 L 758.40 632.70 L 754.80 632.20 L 751.30 631.20 L 747.90 629.80 Z" fill="#fbb4b4" fill-rule="evenodd" group-id="2,3" id="椭圆形备份-12" node-id="20" stroke="none" target-height="82.10004" target-width="81.20001" target-x="733.1" target-y="550.8"></path><g node-id="125"><path d="M 512.00 781.00 L 523.20 781.30 L 534.20 782.20 L 545.00 783.60 L 555.70 785.50 L 566.20 788.00 L 576.60 791.00 L 586.90 794.50 L 597.00 798.50 L 606.90 803.00 L 616.70 808.00 L 626.20 813.50 L 635.50 819.30 L 644.70 825.70 L 653.60 832.50 L 662.40 839.70 L 670.80 847.30 L 679.00 855.30 L 687.00 863.70 L 694.70 872.50 L 702.20 881.80 L 709.30 891.20 L 716.20 901.00 L 722.70 911.20 L 729.00 921.70 L 735.10 932.70 L 740.70 943.70 L 745.90 955.10 L 750.90 966.70 L 755.50 978.80 L 759.90 991.10 L 763.70 1003.50 L 767.20 1016.10 L 770.40 1029.00 L 773.10 1042.20 L 775.50 1055.70 L 777.50 1069.10 L 779.00 1082.70 L 780.10 1096.60 L 780.80 1110.70 L 781.00 1125.00 L 780.80 1139.30 L 780.10 1153.40 L 779.00 1167.30 L 777.50 1180.90 L 775.50 1194.30 L 773.10 1207.80 L 770.40 1221.00 L 767.20 1233.90 L 763.70 1246.50 L 759.90 1258.90 L 755.50 1271.20 L 750.90 1283.30 L 745.90 1294.90 L 740.70 1306.30 L 735.10 1317.30 L 729.00 1328.30 L 722.70 1338.80 L 716.20 1349.00 L 709.30 1358.80 L 702.20 1368.20 L 694.70 1377.50 L 687.00 1386.30 L 679.00 1394.70 L 670.80 1402.70 L 662.40 1410.30 L 653.60 1417.50 L 644.70 1424.30 L 635.50 1430.70 L 626.20 1436.50 L 616.70 1442.00 L 606.90 1447.00 L 597.00 1451.50 L 586.90 1455.50 L 576.60 1459.00 L 566.20 1462.00 L 555.70 1464.50 L 545.00 1466.40 L 534.20 1467.80 L 523.20 1468.70 L 512.00 1469.00 L 500.80 1468.70 L 489.80 1467.80 L 479.00 1466.40 L 468.30 1464.50 L 457.80 1462.00 L 447.40 1459.00 L 437.10 1455.50 L 427.00 1451.50 L 417.10 1447.00 L 407.30 1442.00 L 397.80 1436.50 L 388.50 1430.70 L 379.30 1424.30 L 370.40 1417.50 L 361.60 1410.30 L 353.20 1402.70 L 345.00 1394.70 L 337.00 1386.30 L 329.30 1377.50 L 321.80 1368.20 L 314.70 1358.80 L 307.80 1349.00 L 301.30 1338.80 L 295.00 1328.30 L 288.90 1317.30 L 283.30 1306.30 L 278.10 1294.90 L 273.10 1283.30 L 268.50 1271.20 L 264.10 1258.90 L 260.30 1246.50 L 256.80 1233.90 L 253.60 1221.00 L 250.90 1207.80 L 248.50 1194.30 L 246.50 1180.90 L 245.00 1167.30 L 243.90 1153.40 L 243.20 1139.30 L 243.00 1125.00 L 243.20 1110.70 L 243.90 1096.60 L 245.00 1082.70 L 246.50 1069.10 L 248.50 1055.70 L 250.90 1042.20 L 253.60 1029.00 L 256.80 1016.10 L 260.30 1003.50 L 264.10 991.10 L 268.50 978.80 L 273.10 966.70 L 278.10 955.10 L 283.30 943.70 L 288.90 932.70 L 295.00 921.70 L 301.30 911.20 L 307.80 901.00 L 314.70 891.20 L 321.80 881.80 L 329.30 872.50 L 337.00 863.70 L 345.00 855.30 L 353.20 847.30 L 361.60 839.70 L 370.40 832.50 L 379.30 825.70 L 388.50 819.30 L 397.80 813.50 L 407.30 808.00 L 417.10 803.00 L 427.00 798.50 L 437.10 794.50 L 447.40 791.00 L 457.80 788.00 L 468.30 785.50 L 479.00 783.60 L 489.80 782.20 L 500.80 781.30 L 512.00 781.00 Z" fill="#6e66d4" fill-rule="evenodd" group-id="2,3,5" id="椭圆形" node-id="21" stroke="none" target-height="688" target-width="538" target-x="243" target-y="781"></path></g><g node-id="126"><path d="M 379.50 953.50 L 353.50 1039.60" fill="none" group-id="2,3,6" id="路径-6" node-id="22" stroke="#000000" stroke-linecap="round" stroke-opacity="0.10692633" stroke-width="7" target-height="86.099976" target-width="26" target-x="353.5" target-y="953.5"></path></g><g node-id="127"><path d="M 644.50 953.50 L 670.50 1039.60" fill="none" group-id="2,3,7" id="路径-6备份" node-id="23" stroke="#000000" stroke-linecap="round" stroke-opacity="0.10692633" stroke-width="7" target-height="86.099976" target-width="26" target-x="644.5" target-y="953.5"></path></g><g node-id="128"><g node-id="131"><path d="M 465.00 712.00 L 559.00 712.00 L 559.00 815.00 L 465.00 815.00 Z" fill="#ffcaca" fill-rule="evenodd" group-id="2,3,8,11" node-id="99" stroke="none" target-height="103" target-width="94" target-x="465" target-y="712"></path></g><path d="M 591.00 717.00 L 590.70 720.90 L 590.00 724.60 L 588.70 728.30 L 587.00 731.90 L 584.80 735.20 L 579.30 741.70 L 575.80 744.80 L 570.80 748.40 L 565.10 751.80 L 558.70 754.90 L 552.00 757.50 L 544.80 759.80 L 537.00 761.60 L 529.10 762.90 L 520.70 763.70 L 512.00 764.00 L 503.30 763.70 L 494.90 762.90 L 487.00 761.60 L 479.20 759.80 L 472.00 757.50 L 465.30 754.90 L 458.90 751.80 L 453.20 748.40 L 448.20 744.80 L 444.70 741.70 L 441.70 738.50 L 439.20 735.20 L 437.00 731.90 L 435.30 728.30 L 434.00 724.60 L 433.30 720.90 L 433.00 717.00 L 433.30 713.10 L 434.00 709.40 L 435.30 705.70 L 437.00 702.10 L 439.20 698.80 L 441.70 695.50 L 444.70 692.30 L 448.20 689.20 L 453.20 685.60 L 458.90 682.20 L 465.30 679.10 L 472.00 676.50 L 479.20 674.20 L 487.00 672.40 L 494.90 671.10 L 503.30 670.30 L 512.00 670.00 L 520.70 670.30 L 529.10 671.10 L 537.00 672.40 L 544.80 674.20 L 552.00 676.50 L 558.70 679.10 L 565.10 682.20 L 570.80 685.60 L 575.80 689.20 L 579.30 692.30 L 584.80 698.80 L 587.00 702.10 L 588.70 705.70 L 590.00 709.40 L 590.70 713.10 L 591.00 717.00 Z" fill="#ec8484" fill-opacity="0.21490623" fill-rule="evenodd" group-id="2,3,8,12" node-id="104" stroke="none" target-height="94" target-width="158" target-x="433" target-y="670"></path></g><path d="M 767.00 524.00 L 766.70 534.70 L 765.90 545.20 L 764.50 555.50 L 762.70 565.60 L 760.30 575.60 L 757.40 585.50 L 754.00 595.10 L 750.20 604.60 L 745.90 613.90 L 741.10 622.90 L 735.90 631.80 L 730.30 640.40 L 724.30 648.70 L 717.80 656.80 L 711.00 664.70 L 703.80 672.30 L 696.30 679.50 L 688.40 686.50 L 680.10 693.20 L 671.50 699.60 L 662.60 705.60 L 653.50 711.20 L 644.00 716.50 L 634.30 721.50 L 624.10 726.10 L 613.90 730.30 L 603.50 734.10 L 592.70 737.50 L 581.70 740.50 L 570.50 743.10 L 559.20 745.20 L 547.70 746.80 L 536.00 748.00 L 524.10 748.70 L 512.00 749.00 L 499.90 748.70 L 488.00 748.00 L 476.30 746.80 L 464.80 745.20 L 453.50 743.10 L 442.30 740.50 L 431.30 737.50 L 420.50 734.10 L 410.10 730.30 L 399.90 726.10 L 389.70 721.50 L 380.00 716.50 L 370.50 711.20 L 361.40 705.60 L 352.50 699.60 L 343.90 693.20 L 335.60 686.50 L 327.70 679.50 L 320.20 672.30 L 313.00 664.70 L 306.20 656.80 L 299.70 648.70 L 293.70 640.40 L 288.10 631.80 L 282.90 622.90 L 278.10 613.90 L 273.80 604.60 L 270.00 595.10 L 266.60 585.50 L 263.70 575.60 L 261.30 565.60 L 259.50 555.50 L 258.10 545.20 L 257.30 534.70 L 257.00 524.00 L 257.30 513.30 L 258.10 502.80 L 259.50 492.50 L 261.30 482.40 L 263.70 472.40 L 266.60 462.50 L 270.00 452.90 L 273.80 443.40 L 278.10 434.10 L 282.90 425.10 L 288.10 416.20 L 293.70 407.60 L 299.70 399.30 L 306.20 391.20 L 313.00 383.30 L 320.20 375.70 L 327.70 368.50 L 335.60 361.50 L 343.90 354.80 L 352.50 348.40 L 361.40 342.40 L 370.50 336.80 L 380.00 331.50 L 389.70 326.50 L 399.90 321.90 L 410.10 317.70 L 420.50 313.90 L 431.30 310.50 L 442.30 307.50 L 453.50 304.90 L 464.80 302.80 L 476.30 301.20 L 488.00 300.00 L 499.90 299.30 L 512.00 299.00 L 524.10 299.30 L 536.00 300.00 L 547.70 301.20 L 559.20 302.80 L 570.50 304.90 L 581.70 307.50 L 592.70 310.50 L 603.50 313.90 L 613.90 317.70 L 624.10 321.90 L 634.30 326.50 L 644.00 331.50 L 653.50 336.80 L 662.60 342.40 L 671.50 348.40 L 680.10 354.80 L 688.40 361.50 L 696.30 368.50 L 703.80 375.70 L 711.00 383.30 L 717.80 391.20 L 724.30 399.30 L 730.30 407.60 L 735.90 416.20 L 741.10 425.10 L 745.90 434.10 L 750.20 443.40 L 754.00 452.90 L 757.40 462.50 L 760.30 472.40 L 762.70 482.40 L 764.50 492.50 L 765.90 502.80 L 766.70 513.30 L 767.00 524.00 Z" fill="#ffcaca" fill-rule="evenodd" group-id="2,3" id="椭圆形" node-id="29" stroke="none" target-height="450" target-width="510" target-x="257" target-y="299"></path><path d="M 502.00 594.00 L 502.00 620.00 L 502.20 622.60 L 502.90 624.90 L 503.90 627.10 L 505.30 629.00 L 507.00 630.70 L 508.90 632.10 L 511.10 633.10 L 513.40 633.80 L 516.00 634.00 L 522.80 634.00" fill="none" group-id="2,3" id="路径-5备份" node-id="30" stroke="#ff9494" stroke-linecap="round" stroke-width="8" target-height="40" target-width="20.799988" target-x="502" target-y="594"></path><path d="M 434.00 567.00 L 433.70 570.50 L 432.80 573.60 L 431.40 576.60 L 429.50 579.30 L 427.30 581.50 L 424.60 583.40 L 421.60 584.80 L 418.50 585.70 L 415.00 586.00 L 411.50 585.70 L 408.40 584.80 L 405.40 583.40 L 402.70 581.50 L 400.50 579.30 L 398.60 576.60 L 397.20 573.60 L 396.30 570.50 L 396.00 567.00 L 396.30 563.50 L 397.20 560.40 L 398.60 557.40 L 400.50 554.70 L 402.70 552.50 L 405.40 550.60 L 408.40 549.20 L 411.50 548.30 L 415.00 548.00 L 418.50 548.30 L 421.60 549.20 L 424.60 550.60 L 427.30 552.50 L 429.50 554.70 L 431.40 557.40 L 432.80 560.40 L 433.70 563.50 L 434.00 567.00 Z" fill="#110d2e" fill-rule="evenodd" group-id="2,3" id="椭圆形" node-id="31" stroke="none" target-height="38" target-width="38" target-x="396" target-y="548"></path><path d="M 628.00 567.00 L 627.70 570.50 L 626.80 573.60 L 625.40 576.60 L 623.50 579.30 L 621.30 581.50 L 618.60 583.40 L 615.60 584.80 L 612.50 585.70 L 609.00 586.00 L 605.50 585.70 L 602.40 584.80 L 599.40 583.40 L 596.70 581.50 L 594.50 579.30 L 592.60 576.60 L 591.20 573.60 L 590.30 570.50 L 590.00 567.00 L 590.30 563.50 L 591.20 560.40 L 592.60 557.40 L 594.50 554.70 L 596.70 552.50 L 599.40 550.60 L 602.40 549.20 L 605.50 548.30 L 609.00 548.00 L 612.50 548.30 L 615.60 549.20 L 618.60 550.60 L 621.30 552.50 L 623.50 554.70 L 625.40 557.40 L 626.80 560.40 L 627.70 563.50 L 628.00 567.00 Z" fill="#110d2e" fill-rule="evenodd" group-id="2,3" id="椭圆形备份-7" node-id="32" stroke="none" target-height="38" target-width="38" target-x="590" target-y="548"></path><g node-id="129"><g node-id="133"><path d="M 593.00 781.60 L 593.00 847.40 L 592.70 850.50 L 591.90 853.30 L 590.70 855.90 L 589.00 858.30 L 587.00 860.30 L 584.60 862.00 L 582.00 863.20 L 579.20 864.00 L 576.10 864.30 L 573.60 864.10 L 568.90 862.70 L 512.50 825.30 L 458.30 861.50 L 455.60 862.90 L 452.80 863.90 L 449.90 864.30 L 447.00 864.20 L 444.20 863.60 L 441.50 862.60 L 439.00 861.10 L 436.80 859.20 L 434.80 856.80 L 433.60 854.60 L 432.20 849.90 L 432.00 781.60 L 432.30 778.50 L 433.10 775.70 L 434.30 773.10 L 436.00 770.70 L 438.00 768.70 L 440.40 767.00 L 443.00 765.80 L 445.80 765.00 L 448.90 764.70 L 451.40 764.90 L 456.10 766.30 L 512.50 803.70 L 566.70 767.50 L 569.40 766.10 L 572.20 765.10 L 575.10 764.70 L 578.00 764.80 L 580.80 765.40 L 583.50 766.40 L 586.00 767.90 L 588.20 769.80 L 590.20 772.20 L 591.40 774.40 L 592.80 779.10 L 593.00 781.60 Z" fill="#3c3596" fill-rule="nonzero" group-id="2,3,9,13" node-id="114" stroke="none" target-height="99.599976" target-width="161" target-x="432" target-y="764.7"></path></g><path d="M 518.00 814.00 L 517.80 819.70 L 516.50 829.10 L 515.50 832.10 L 514.60 833.90 L 513.80 834.70 L 513.00 835.00 L 512.20 834.70 L 511.40 833.90 L 510.50 832.10 L 509.50 829.10 L 508.70 824.60 L 508.20 819.70 L 508.00 814.00 L 508.70 803.40 L 509.50 798.90 L 510.50 795.90 L 511.40 794.10 L 512.20 793.30 L 513.00 793.00 L 513.80 793.30 L 514.60 794.10 L 515.50 795.90 L 516.50 798.90 L 517.80 808.30 L 518.00 814.00 Z" fill="#ffffff" fill-opacity="0.5585763" fill-rule="evenodd" group-id="2,3,9,14" node-id="119" stroke="none" target-height="42" target-width="10" target-x="508" target-y="793"></path></g><path d="M 469.00 680.50 L 481.50 685.60 L 487.30 687.40 L 493.30 688.70 L 499.30 689.60 L 505.40 690.00 L 511.50 690.00 L 517.50 689.60 L 523.50 688.60 L 529.50 687.30 L 535.30 685.50 L 541.00 683.20 L 546.60 680.50" fill="none" group-id="2,3" id="路径-35" node-id="38" stroke="#ec8484" stroke-linecap="round" stroke-width="10" target-height="9.5" target-width="77.599976" target-x="469" target-y="680.5"></path><path d="M 380.00 519.60 L 391.00 517.00 L 400.30 515.20 L 408.10 514.30 L 414.50 514.00 L 420.90 514.30 L 428.70 515.20 L 438.30 516.90 L 449.80 519.60" fill="none" group-id="2,3" id="路径-4备份" node-id="39" stroke="#110d2e" stroke-linecap="round" stroke-width="6" target-height="5.5999756" target-width="69.79999" target-x="380" target-y="514"></path><g node-id="130"><path d="M 643.80 519.60 L 632.70 517.00 L 623.40 515.20 L 615.70 514.30 L 609.30 514.00 L 602.90 514.30 L 595.00 515.20 L 585.50 516.90 L 574.00 519.60" fill="none" group-id="2,3,10" id="路径-4备份-2" node-id="40" stroke="#110d2e" stroke-linecap="round" stroke-width="6" target-height="5.5999756" target-width="69.79999" target-x="574" target-y="514"></path></g><path d="M 590.00 350.10 L 571.50 369.20 L 553.40 387.10 L 535.70 403.90 L 518.40 419.50 L 501.50 434.00 L 485.00 447.40 L 468.90 459.90 L 453.10 471.40 L 437.60 482.00 L 422.50 491.70 L 407.70 500.50 L 393.20 508.50 L 378.90 515.80 L 365.00 522.20 L 351.30 528.00 L 337.90 533.10 L 324.70 537.50 L 311.70 541.20 L 299.00 544.30 L 286.40 546.80 L 274.00 548.70 L 261.80 550.10 L 249.70 550.80 L 244.60 531.70 L 240.60 514.60 L 237.60 499.50 L 235.30 486.00 L 233.90 474.10 L 233.10 463.70 L 232.90 454.60 L 233.20 446.70 L 233.90 439.80 L 235.00 433.80 L 236.80 427.20 L 239.40 420.00 L 242.80 412.00 L 247.20 403.20 L 252.70 393.50 L 259.40 382.80 L 267.40 371.10 L 277.00 358.30 L 288.10 344.20 L 301.00 328.90 L 512.00 265.30 L 608.90 265.30 L 790.00 433.80 L 767.00 557.10 L 744.70 541.80 L 725.40 527.80 L 708.70 515.20 L 694.40 503.80 L 682.40 493.40 L 672.30 484.10 L 663.90 475.80 L 657.10 468.20 L 650.70 460.30 L 643.80 450.80 L 636.30 439.50 L 628.30 426.30 L 619.70 411.00 L 610.50 393.40 L 600.60 373.10 L 590.00 350.10 Z" fill="#110d2e" fill-rule="evenodd" group-id="2,3" id="路径-37" node-id="41" stroke="none" target-height="291.8" target-width="557.1" target-x="232.9" target-y="265.3"></path></g></g></svg>