<?xml version="1.0" standalone="no"?><!DOCTYPE svg PUBLIC "-//W3C//DTD SVG 1.1//EN" "http://www.w3.org/Graphics/SVG/1.1/DTD/svg11.dtd"><svg height="1024" node-id="1" sillyvg="true" template-height="1024" template-width="1024" version="1.1" viewBox="0 0 1024 1024" width="1024" xmlns="http://www.w3.org/2000/svg" xmlns:xlink="http://www.w3.org/1999/xlink"><defs node-id="58"><mask height="2397.2256" id="mask-2" maskUnits="userSpaceOnUse" node-id="11" width="2462.6204" x="823.1721" y="6231.082"><path d="M 2655.00 7400.90 L 2647.60 7415.40 L 2639.80 7429.70 L 2631.60 7443.60 L 2623.00 7457.20 L 2614.00 7470.50 L 2604.50 7483.50 L 2594.70 7496.20 L 2584.50 7508.60 L 2573.90 7520.60 L 2563.00 7532.30 L 2551.70 7543.60 L 2540.00 7554.50 L 2528.10 7565.10 L 2515.80 7575.30 L 2503.20 7585.20 L 2490.20 7594.60 L 2477.00 7603.60 L 2463.50 7612.20 L 2449.70 7620.50 L 2435.60 7628.30 L 2421.30 7635.60 L 2406.80 7642.50 L 2392.00 7649.00 L 2376.90 7655.00 L 2361.50 7660.50 L 2346.00 7665.60 L 2330.40 7670.10 L 2314.80 7674.20 L 2299.10 7677.70 L 2283.30 7680.70 L 2267.30 7683.30 L 2251.40 7685.30 L 2219.50 7687.80 L 2203.50 7688.30 L 2187.50 7688.40 L 2171.50 7687.90 L 2155.60 7686.90 L 2139.70 7685.40 L 2123.80 7683.50 L 2108.00 7681.00 L 2092.30 7678.00 L 2076.60 7674.60 L 2061.10 7670.60 L 2045.60 7666.20 L 2030.30 7661.30 L 2015.10 7655.80 L 2000.10 7649.90 L 1985.20 7643.50 L 1970.40 7636.60 L 1955.80 7629.20 L 1941.60 7621.40 L 1927.70 7613.20 L 1914.10 7604.60 L 1900.80 7595.50 L 1887.70 7586.10 L 1875.00 7576.30 L 1862.70 7566.10 L 1850.70 7555.50 L 1839.00 7544.60 L 1827.70 7533.20 L 1816.70 7521.60 L 1806.10 7509.70 L 1795.90 7497.40 L 1786.10 7484.70 L 1776.60 7471.80 L 1767.60 7458.60 L 1759.00 7445.10 L 1750.80 7431.30 L 1743.00 7417.20 L 1735.60 7402.90 L 1728.80 7388.40 L 1722.30 7373.50 L 1716.30 7358.50 L 1710.70 7343.10 L 1705.70 7327.60 L 1701.10 7312.00 L 1697.10 7296.40 L 1693.50 7280.60 L 1690.50 7264.80 L 1688.00 7248.90 L 1686.00 7233.00 L 1684.40 7217.10 L 1683.40 7201.10 L 1682.90 7185.10 L 1682.90 7169.10 L 1683.40 7153.10 L 1684.30 7137.20 L 1685.80 7121.30 L 1687.80 7105.40 L 1690.20 7089.60 L 1693.20 7073.90 L 1696.70 7058.20 L 1700.60 7042.70 L 1705.10 7027.20 L 1710.00 7011.90 L 1715.40 6996.70 L 1721.30 6981.70 L 1727.70 6966.80 L 1734.70 6952.00 L 1742.00 6937.40 L 1749.80 6923.20 L 1758.10 6909.30 L 1766.70 6895.70 L 1775.70 6882.30 L 1785.20 6869.30 L 1795.00 6856.60 L 1805.20 6844.30 L 1815.80 6832.30 L 1826.70 6820.60 L 1838.00 6809.20 L 1849.60 6798.30 L 1861.60 6787.70 L 1873.90 6777.50 L 1886.50 6767.70 L 1899.40 6758.20 L 1912.60 6749.20 L 1926.10 6740.60 L 1939.90 6732.40 L 1954.00 6724.60 L 1968.30 6717.20 L 1982.90 6710.30 L 1997.70 6703.90 L 2012.80 6697.90 L 2028.10 6692.30 L 2043.70 6687.20 L 2059.20 6682.70 L 2074.90 6678.70 L 2090.60 6675.10 L 2106.40 6672.10 L 2122.30 6669.60 L 2138.20 6667.60 L 2154.20 6666.00 L 2170.10 6665.00 L 2186.10 6664.50 L 2202.10 6664.50 L 2218.10 6664.90 L 2234.10 6665.90 L 2250.00 6667.40 L 2265.90 6669.40 L 2281.70 6671.80 L 2297.40 6674.80 L 2313.00 6678.20 L 2328.60 6682.20 L 2344.10 6686.60 L 2359.40 6691.60 L 2374.50 6697.00 L 2389.60 6702.90 L 2404.50 6709.30 L 2419.30 6716.20 L 2433.80 6723.60 L 2448.10 6731.40 L 2462.00 6739.60 L 2475.60 6748.30 L 2488.90 6757.30 L 2501.90 6766.80 L 2514.60 6776.60 L 2527.00 6786.80 L 2539.00 6797.30 L 2550.70 6808.30 L 2562.00 6819.60 L 2573.00 6831.20 L 2583.50 6843.20 L 2593.70 6855.50 L 2603.60 6868.10 L 2613.00 6881.00 L 2622.00 6894.20 L 2630.70 6907.70 L 2638.90 6921.50 L 2646.70 6935.60 L 2654.00 6949.90 L 2660.90 6964.50 L 2667.40 6979.30 L 2673.40 6994.40 L 2678.90 7009.70 L 2684.00 7025.20 L 2688.60 7040.80 L 2692.60 7056.50 L 2696.10 7072.20 L 2699.10 7088.00 L 2701.70 7103.90 L 2703.70 7119.80 L 2705.20 7135.80 L 2706.20 7151.70 L 2706.80 7167.70 L 2706.80 7183.70 L 2706.30 7199.70 L 2705.30 7215.60 L 2703.90 7231.50 L 2701.90 7247.40 L 2699.40 7263.20 L 2693.00 7294.60 L 2689.10 7310.20 L 2684.60 7325.60 L 2679.70 7341.00 L 2674.30 7356.10 L 2668.30 7371.20 L 2661.90 7386.10 L 2655.00 7400.90 Z" fill="#ffffff" fill-rule="evenodd" node-id="63" stroke="none" target-height="1023.8999" target-width="1023.9" target-x="1682.9" target-y="6664.5"></path></mask><mask height="112.8" id="mask-4" maskUnits="userSpaceOnUse" node-id="30" width="189.6" x="-47.8" y="-51.4"><path d="M 0.00 0.00 L 94.00 0.00 L 94.00 133.00 L 0.00 133.00 Z" fill="#ffffff" fill-rule="evenodd" node-id="70" stroke="none" target-height="133" target-width="94" target-x="0" target-y="0"></path></mask><mask height="57.600002" id="mask-6" maskUnits="userSpaceOnUse" node-id="42" width="172.80002" x="182.6" y="-26.8"><path d="M 613.00 344.00 L 612.70 355.20 L 611.80 366.20 L 610.40 377.00 L 608.50 387.70 L 606.00 398.20 L 603.00 408.60 L 599.50 418.90 L 595.50 429.00 L 591.00 438.90 L 586.00 448.70 L 580.50 458.20 L 574.70 467.50 L 568.30 476.70 L 561.50 485.60 L 554.30 494.40 L 546.70 502.80 L 538.70 511.00 L 530.30 519.00 L 521.50 526.70 L 512.20 534.20 L 502.80 541.30 L 493.00 548.20 L 482.80 554.70 L 472.30 561.00 L 461.30 567.10 L 450.30 572.70 L 438.90 577.90 L 427.30 582.90 L 415.20 587.50 L 402.90 591.90 L 390.50 595.70 L 377.90 599.20 L 365.00 602.40 L 351.80 605.10 L 338.30 607.50 L 324.90 609.50 L 311.30 611.00 L 297.40 612.10 L 283.30 612.80 L 269.00 613.00 L 254.70 612.80 L 240.60 612.10 L 226.70 611.00 L 213.10 609.50 L 199.70 607.50 L 186.20 605.10 L 173.00 602.40 L 160.10 599.20 L 147.50 595.70 L 135.10 591.90 L 122.80 587.50 L 110.70 582.90 L 99.10 577.90 L 87.70 572.70 L 76.70 567.10 L 65.70 561.00 L 55.20 554.70 L 45.00 548.20 L 35.20 541.30 L 25.80 534.20 L 16.50 526.70 L 7.70 519.00 L -0.70 511.00 L -8.70 502.80 L -16.30 494.40 L -23.50 485.60 L -30.30 476.70 L -36.70 467.50 L -42.50 458.20 L -48.00 448.70 L -53.00 438.90 L -57.50 429.00 L -61.50 418.90 L -65.00 408.60 L -68.00 398.20 L -70.50 387.70 L -72.40 377.00 L -73.80 366.20 L -74.70 355.20 L -75.00 344.00 L -74.70 332.80 L -73.80 321.80 L -72.40 311.00 L -70.50 300.30 L -68.00 289.80 L -65.00 279.40 L -61.50 269.10 L -57.50 259.00 L -53.00 249.10 L -48.00 239.30 L -42.50 229.80 L -36.70 220.50 L -30.30 211.30 L -23.50 202.40 L -16.30 193.60 L -8.70 185.20 L -0.70 177.00 L 7.70 169.00 L 16.50 161.30 L 25.80 153.80 L 35.20 146.70 L 45.00 139.80 L 55.20 133.30 L 65.70 127.00 L 76.70 120.90 L 87.70 115.30 L 99.10 110.10 L 110.70 105.10 L 122.80 100.50 L 135.10 96.10 L 147.50 92.30 L 160.10 88.80 L 173.00 85.60 L 186.20 82.90 L 199.70 80.50 L 213.10 78.50 L 226.70 77.00 L 240.60 75.90 L 254.70 75.20 L 269.00 75.00 L 283.30 75.20 L 297.40 75.90 L 311.30 77.00 L 324.90 78.50 L 338.30 80.50 L 351.80 82.90 L 365.00 85.60 L 377.90 88.80 L 390.50 92.30 L 402.90 96.10 L 415.20 100.50 L 427.30 105.10 L 438.90 110.10 L 450.30 115.30 L 461.30 120.90 L 472.30 127.00 L 482.80 133.30 L 493.00 139.80 L 502.80 146.70 L 512.20 153.80 L 521.50 161.30 L 530.30 169.00 L 538.70 177.00 L 546.70 185.20 L 554.30 193.60 L 561.50 202.40 L 568.30 211.30 L 574.70 220.50 L 580.50 229.80 L 586.00 239.30 L 591.00 249.10 L 595.50 259.00 L 599.50 269.10 L 603.00 279.40 L 606.00 289.80 L 608.50 300.30 L 610.40 311.00 L 611.80 321.80 L 612.70 332.80 L 613.00 344.00 Z" fill="#ffffff" fill-rule="evenodd" node-id="77" stroke="none" target-height="538" target-width="688" target-x="-75" target-y="75"></path></mask><mask height="89.70426" id="mask1" maskUnits="userSpaceOnUse" node-id="81" width="110.15759" x="259.8202" y="-0.40585327"><path d="M 613.00 344.00 L 612.70 355.20 L 611.80 366.20 L 610.40 377.00 L 608.50 387.70 L 606.00 398.20 L 603.00 408.60 L 599.50 418.90 L 595.50 429.00 L 591.00 438.90 L 586.00 448.70 L 580.50 458.20 L 574.70 467.50 L 568.30 476.70 L 561.50 485.60 L 554.30 494.40 L 546.70 502.80 L 538.70 511.00 L 530.30 519.00 L 521.50 526.70 L 512.20 534.20 L 502.80 541.30 L 493.00 548.20 L 482.80 554.70 L 472.30 561.00 L 461.30 567.10 L 450.30 572.70 L 438.90 577.90 L 427.30 582.90 L 415.20 587.50 L 402.90 591.90 L 390.50 595.70 L 377.90 599.20 L 365.00 602.40 L 351.80 605.10 L 338.30 607.50 L 324.90 609.50 L 311.30 611.00 L 297.40 612.10 L 283.30 612.80 L 269.00 613.00 L 254.70 612.80 L 240.60 612.10 L 226.70 611.00 L 213.10 609.50 L 199.70 607.50 L 186.20 605.10 L 173.00 602.40 L 160.10 599.20 L 147.50 595.70 L 135.10 591.90 L 122.80 587.50 L 110.70 582.90 L 99.10 577.90 L 87.70 572.70 L 76.70 567.10 L 65.70 561.00 L 55.20 554.70 L 45.00 548.20 L 35.20 541.30 L 25.80 534.20 L 16.50 526.70 L 7.70 519.00 L -0.70 511.00 L -8.70 502.80 L -16.30 494.40 L -23.50 485.60 L -30.30 476.70 L -36.70 467.50 L -42.50 458.20 L -48.00 448.70 L -53.00 438.90 L -57.50 429.00 L -61.50 418.90 L -65.00 408.60 L -68.00 398.20 L -70.50 387.70 L -72.40 377.00 L -73.80 366.20 L -74.70 355.20 L -75.00 344.00 L -74.70 332.80 L -73.80 321.80 L -72.40 311.00 L -70.50 300.30 L -68.00 289.80 L -65.00 279.40 L -61.50 269.10 L -57.50 259.00 L -53.00 249.10 L -48.00 239.30 L -42.50 229.80 L -36.70 220.50 L -30.30 211.30 L -23.50 202.40 L -16.30 193.60 L -8.70 185.20 L -0.70 177.00 L 7.70 169.00 L 16.50 161.30 L 25.80 153.80 L 35.20 146.70 L 45.00 139.80 L 55.20 133.30 L 65.70 127.00 L 76.70 120.90 L 87.70 115.30 L 99.10 110.10 L 110.70 105.10 L 122.80 100.50 L 135.10 96.10 L 147.50 92.30 L 160.10 88.80 L 173.00 85.60 L 186.20 82.90 L 199.70 80.50 L 213.10 78.50 L 226.70 77.00 L 240.60 75.90 L 254.70 75.20 L 269.00 75.00 L 283.30 75.20 L 297.40 75.90 L 311.30 77.00 L 324.90 78.50 L 338.30 80.50 L 351.80 82.90 L 365.00 85.60 L 377.90 88.80 L 390.50 92.30 L 402.90 96.10 L 415.20 100.50 L 427.30 105.10 L 438.90 110.10 L 450.30 115.30 L 461.30 120.90 L 472.30 127.00 L 482.80 133.30 L 493.00 139.80 L 502.80 146.70 L 512.20 153.80 L 521.50 161.30 L 530.30 169.00 L 538.70 177.00 L 546.70 185.20 L 554.30 193.60 L 561.50 202.40 L 568.30 211.30 L 574.70 220.50 L 580.50 229.80 L 586.00 239.30 L 591.00 249.10 L 595.50 259.00 L 599.50 269.10 L 603.00 279.40 L 606.00 289.80 L 608.50 300.30 L 610.40 311.00 L 611.80 321.80 L 612.70 332.80 L 613.00 344.00 Z" fill="#ffffff" fill-rule="evenodd" node-id="85" stroke="none" target-height="538" target-width="688" target-x="-75" target-y="75"></path></mask><mask height="89.70426" id="mask2" maskUnits="userSpaceOnUse" node-id="89" width="110.15761" x="167.8202" y="-0.40585327"><path d="M 613.00 344.00 L 612.70 355.20 L 611.80 366.20 L 610.40 377.00 L 608.50 387.70 L 606.00 398.20 L 603.00 408.60 L 599.50 418.90 L 595.50 429.00 L 591.00 438.90 L 586.00 448.70 L 580.50 458.20 L 574.70 467.50 L 568.30 476.70 L 561.50 485.60 L 554.30 494.40 L 546.70 502.80 L 538.70 511.00 L 530.30 519.00 L 521.50 526.70 L 512.20 534.20 L 502.80 541.30 L 493.00 548.20 L 482.80 554.70 L 472.30 561.00 L 461.30 567.10 L 450.30 572.70 L 438.90 577.90 L 427.30 582.90 L 415.20 587.50 L 402.90 591.90 L 390.50 595.70 L 377.90 599.20 L 365.00 602.40 L 351.80 605.10 L 338.30 607.50 L 324.90 609.50 L 311.30 611.00 L 297.40 612.10 L 283.30 612.80 L 269.00 613.00 L 254.70 612.80 L 240.60 612.10 L 226.70 611.00 L 213.10 609.50 L 199.70 607.50 L 186.20 605.10 L 173.00 602.40 L 160.10 599.20 L 147.50 595.70 L 135.10 591.90 L 122.80 587.50 L 110.70 582.90 L 99.10 577.90 L 87.70 572.70 L 76.70 567.10 L 65.70 561.00 L 55.20 554.70 L 45.00 548.20 L 35.20 541.30 L 25.80 534.20 L 16.50 526.70 L 7.70 519.00 L -0.70 511.00 L -8.70 502.80 L -16.30 494.40 L -23.50 485.60 L -30.30 476.70 L -36.70 467.50 L -42.50 458.20 L -48.00 448.70 L -53.00 438.90 L -57.50 429.00 L -61.50 418.90 L -65.00 408.60 L -68.00 398.20 L -70.50 387.70 L -72.40 377.00 L -73.80 366.20 L -74.70 355.20 L -75.00 344.00 L -74.70 332.80 L -73.80 321.80 L -72.40 311.00 L -70.50 300.30 L -68.00 289.80 L -65.00 279.40 L -61.50 269.10 L -57.50 259.00 L -53.00 249.10 L -48.00 239.30 L -42.50 229.80 L -36.70 220.50 L -30.30 211.30 L -23.50 202.40 L -16.30 193.60 L -8.70 185.20 L -0.70 177.00 L 7.70 169.00 L 16.50 161.30 L 25.80 153.80 L 35.20 146.70 L 45.00 139.80 L 55.20 133.30 L 65.70 127.00 L 76.70 120.90 L 87.70 115.30 L 99.10 110.10 L 110.70 105.10 L 122.80 100.50 L 135.10 96.10 L 147.50 92.30 L 160.10 88.80 L 173.00 85.60 L 186.20 82.90 L 199.70 80.50 L 213.10 78.50 L 226.70 77.00 L 240.60 75.90 L 254.70 75.20 L 269.00 75.00 L 283.30 75.20 L 297.40 75.90 L 311.30 77.00 L 324.90 78.50 L 338.30 80.50 L 351.80 82.90 L 365.00 85.60 L 377.90 88.80 L 390.50 92.30 L 402.90 96.10 L 415.20 100.50 L 427.30 105.10 L 438.90 110.10 L 450.30 115.30 L 461.30 120.90 L 472.30 127.00 L 482.80 133.30 L 493.00 139.80 L 502.80 146.70 L 512.20 153.80 L 521.50 161.30 L 530.30 169.00 L 538.70 177.00 L 546.70 185.20 L 554.30 193.60 L 561.50 202.40 L 568.30 211.30 L 574.70 220.50 L 580.50 229.80 L 586.00 239.30 L 591.00 249.10 L 595.50 259.00 L 599.50 269.10 L 603.00 279.40 L 606.00 289.80 L 608.50 300.30 L 610.40 311.00 L 611.80 321.80 L 612.70 332.80 L 613.00 344.00 Z" fill="#ffffff" fill-rule="evenodd" node-id="93" stroke="none" target-height="538" target-width="688" target-x="-75" target-y="75"></path></mask></defs><path d="M 0.00 0.00 L 1024.00 0.00 L 1024.00 1024.00 L 0.00 1024.00 Z" fill="#ffffff" fill-rule="evenodd" node-id="99" stroke="none" target-height="1024" target-width="1024" target-x="0" target-y="0"></path><g node-id="155"><g node-id="156"><path d="M 1024.00 512.00 L 1023.70 528.30 L 1023.00 544.50 L 1021.70 560.60 L 1019.90 576.70 L 1017.60 592.60 L 1014.80 608.40 L 1011.60 624.20 L 1007.80 639.70 L 1003.60 655.20 L 998.90 670.40 L 993.70 685.60 L 988.00 700.50 L 981.90 715.30 L 975.30 729.80 L 968.30 744.20 L 960.80 758.40 L 952.90 772.30 L 944.60 785.90 L 935.80 799.40 L 926.50 812.60 L 916.90 825.40 L 906.80 838.00 L 896.30 850.30 L 885.40 862.30 L 874.00 874.00 L 862.30 885.40 L 850.30 896.30 L 838.00 906.80 L 825.40 916.90 L 812.60 926.50 L 799.40 935.80 L 785.90 944.60 L 772.30 952.90 L 758.40 960.80 L 744.20 968.30 L 729.80 975.30 L 715.30 981.90 L 700.50 988.00 L 685.60 993.70 L 670.40 998.90 L 655.20 1003.60 L 639.70 1007.80 L 624.20 1011.60 L 608.40 1014.80 L 592.60 1017.60 L 576.70 1019.90 L 560.60 1021.70 L 544.50 1023.00 L 528.30 1023.70 L 512.00 1024.00 L 495.70 1023.70 L 479.50 1023.00 L 463.40 1021.70 L 447.30 1019.90 L 431.40 1017.60 L 415.60 1014.80 L 399.80 1011.60 L 384.30 1007.80 L 368.80 1003.60 L 353.60 998.90 L 338.40 993.70 L 323.50 988.00 L 308.70 981.90 L 294.20 975.30 L 279.80 968.30 L 265.60 960.80 L 251.70 952.90 L 238.10 944.60 L 224.60 935.80 L 211.40 926.50 L 198.60 916.90 L 186.00 906.80 L 173.70 896.30 L 161.70 885.40 L 150.00 874.00 L 138.60 862.30 L 127.70 850.30 L 117.20 838.00 L 107.10 825.40 L 97.50 812.60 L 88.20 799.40 L 79.40 785.90 L 71.10 772.30 L 63.20 758.40 L 55.70 744.20 L 48.70 729.80 L 42.10 715.30 L 36.00 700.50 L 30.30 685.60 L 25.10 670.40 L 20.40 655.20 L 16.20 639.70 L 12.40 624.20 L 9.20 608.40 L 6.40 592.60 L 4.10 576.70 L 2.30 560.60 L 1.00 544.50 L 0.30 528.30 L 0.00 512.00 L 0.30 495.70 L 1.00 479.50 L 2.30 463.40 L 4.10 447.30 L 6.40 431.40 L 9.20 415.60 L 12.40 399.80 L 16.20 384.30 L 20.40 368.80 L 25.10 353.60 L 30.30 338.40 L 36.00 323.50 L 42.10 308.70 L 48.70 294.20 L 55.70 279.80 L 63.20 265.60 L 71.10 251.70 L 79.40 238.10 L 88.20 224.60 L 97.50 211.40 L 107.10 198.60 L 117.20 186.00 L 127.70 173.70 L 138.60 161.70 L 150.00 150.00 L 161.70 138.60 L 173.70 127.70 L 186.00 117.20 L 198.60 107.10 L 211.40 97.50 L 224.60 88.20 L 238.10 79.40 L 251.70 71.10 L 265.60 63.20 L 279.80 55.70 L 294.20 48.70 L 308.70 42.10 L 323.50 36.00 L 338.40 30.30 L 353.60 25.10 L 368.80 20.40 L 384.30 16.20 L 399.80 12.40 L 415.60 9.20 L 431.40 6.40 L 447.30 4.10 L 463.40 2.30 L 479.50 1.00 L 495.70 0.30 L 512.00 0.00 L 528.30 0.30 L 544.50 1.00 L 560.60 2.30 L 576.70 4.10 L 592.60 6.40 L 608.40 9.20 L 624.20 12.40 L 639.70 16.20 L 655.20 20.40 L 670.40 25.10 L 685.60 30.30 L 700.50 36.00 L 715.30 42.10 L 729.80 48.70 L 744.20 55.70 L 758.40 63.20 L 772.30 71.10 L 785.90 79.40 L 799.40 88.20 L 812.60 97.50 L 825.40 107.10 L 838.00 117.20 L 850.30 127.70 L 862.30 138.60 L 874.00 150.00 L 885.40 161.70 L 896.30 173.70 L 906.80 186.00 L 916.90 198.60 L 926.50 211.40 L 935.80 224.60 L 944.60 238.10 L 952.90 251.70 L 960.80 265.60 L 968.30 279.80 L 975.30 294.20 L 981.90 308.70 L 988.00 323.50 L 993.70 338.40 L 998.90 353.60 L 1003.60 368.80 L 1007.80 384.30 L 1011.60 399.80 L 1014.80 415.60 L 1017.60 431.40 L 1019.90 447.30 L 1021.70 463.40 L 1023.00 479.50 L 1023.70 495.70 L 1024.00 512.00 Z" fill="#339456" fill-opacity="0.2" fill-rule="evenodd" group-id="1,2" node-id="103" stroke="none" target-height="1024" target-width="1024" target-x="0" target-y="0"></path></g><g node-id="157"><g node-id="158"><path d="M 257.00 408.00 L 781.00 408.00 L 781.00 989.00 L 257.00 989.00 Z" fill="#110d2e" fill-rule="evenodd" group-id="1,3,4" id="矩形" node-id="16" stroke="none" target-height="581" target-width="524" target-x="257" target-y="408"></path><g node-id="159"><path d="M 307.20 616.80 L 306.90 623.50 L 306.20 629.90 L 304.90 636.10 L 303.20 642.10 L 300.90 648.00 L 298.30 653.60 L 295.20 659.00 L 291.80 664.10 L 288.00 668.90 L 283.80 673.40 L 279.30 677.60 L 274.50 681.40 L 269.40 684.90 L 264.00 687.90 L 258.40 690.50 L 252.50 692.80 L 246.50 694.50 L 240.30 695.80 L 233.90 696.60 L 227.20 696.80 L 220.60 696.60 L 214.20 695.80 L 208.00 694.50 L 201.90 692.80 L 196.10 690.50 L 190.40 687.90 L 185.10 684.90 L 180.00 681.40 L 175.10 677.60 L 170.70 673.40 L 166.50 668.90 L 162.70 664.10 L 159.20 659.00 L 156.20 653.60 L 153.50 648.00 L 151.30 642.10 L 149.60 636.10 L 148.30 629.90 L 147.50 623.50 L 147.20 616.80 L 147.50 610.20 L 148.30 603.80 L 149.60 597.60 L 151.30 591.60 L 153.50 585.70 L 156.20 580.10 L 159.20 574.70 L 162.70 569.60 L 166.50 564.80 L 170.70 560.30 L 175.10 556.10 L 180.00 552.30 L 185.10 548.80 L 190.40 545.80 L 196.10 543.20 L 201.90 540.90 L 208.00 539.20 L 214.20 537.90 L 220.60 537.10 L 227.20 536.80 L 233.90 537.10 L 240.30 537.90 L 246.50 539.20 L 252.50 540.90 L 258.40 543.20 L 264.00 545.80 L 269.40 548.80 L 274.50 552.30 L 279.30 556.10 L 283.80 560.30 L 288.00 564.80 L 291.80 569.60 L 295.20 574.70 L 298.30 580.10 L 300.90 585.70 L 303.20 591.60 L 304.90 597.60 L 306.20 603.80 L 306.90 610.20 L 307.20 616.80 Z" fill="#110d2e" fill-rule="evenodd" group-id="1,3,4,5" id="椭圆形备份-14" node-id="18" stroke="none" target-height="160" target-width="160.00002" target-x="147.2" target-y="536.8"></path><path d="M 449.10 808.00 L 448.80 816.70 L 448.10 825.10 L 447.00 833.40 L 445.50 841.50 L 443.50 849.50 L 441.10 857.40 L 438.30 865.00 L 435.20 872.50 L 431.70 879.70 L 427.80 886.70 L 422.40 895.30 L 416.60 903.30 L 410.20 911.00 L 403.40 918.30 L 396.10 925.10 L 388.40 931.50 L 380.30 937.30 L 371.80 942.70 L 364.80 946.60 L 357.50 950.10 L 350.10 953.20 L 342.40 956.00 L 334.50 958.40 L 326.60 960.40 L 318.50 961.90 L 310.20 963.10 L 301.70 963.80 L 293.10 964.00 L 284.40 963.80 L 276.00 963.10 L 267.70 961.90 L 259.60 960.40 L 251.60 958.40 L 243.70 956.00 L 236.10 953.20 L 228.60 950.10 L 221.40 946.60 L 214.30 942.70 L 205.80 937.30 L 197.70 931.50 L 190.10 925.10 L 182.80 918.30 L 175.90 911.00 L 169.60 903.30 L 163.70 895.30 L 158.40 886.70 L 154.50 879.70 L 151.00 872.50 L 147.80 865.00 L 145.10 857.40 L 142.60 849.50 L 140.70 841.50 L 139.10 833.40 L 138.00 825.10 L 137.30 816.70 L 137.10 808.00 L 137.30 799.30 L 138.00 790.90 L 139.10 782.60 L 140.70 774.50 L 142.60 766.50 L 145.10 758.60 L 147.80 751.00 L 151.00 743.50 L 154.50 736.30 L 158.40 729.30 L 163.70 720.70 L 169.60 712.70 L 175.90 705.00 L 182.80 697.70 L 190.10 690.90 L 197.70 684.50 L 205.80 678.70 L 214.30 673.30 L 221.40 669.40 L 228.60 665.90 L 236.10 662.80 L 243.70 660.00 L 251.60 657.60 L 259.60 655.60 L 267.70 654.10 L 276.00 652.90 L 284.40 652.20 L 293.10 652.00 L 301.70 652.20 L 310.20 652.90 L 318.50 654.10 L 326.60 655.60 L 334.50 657.60 L 342.40 660.00 L 350.10 662.80 L 357.50 665.90 L 364.80 669.40 L 371.80 673.30 L 380.30 678.70 L 388.40 684.50 L 396.10 690.90 L 403.40 697.70 L 410.20 705.00 L 416.60 712.70 L 422.40 720.80 L 427.80 729.30 L 431.70 736.30 L 435.20 743.50 L 438.30 751.00 L 441.10 758.60 L 443.50 766.50 L 445.50 774.50 L 447.00 782.60 L 448.10 790.90 L 448.80 799.30 L 449.10 808.00 Z" fill="#110d2e" fill-rule="evenodd" group-id="1,3,4,5" id="椭圆形备份-17" node-id="19" stroke="none" target-height="312" target-width="312" target-x="137.1" target-y="652"></path></g><g node-id="160"><path d="M 716.60 616.80 L 716.90 623.50 L 717.60 629.90 L 718.90 636.10 L 720.70 642.10 L 722.90 648.00 L 725.50 653.60 L 728.60 659.00 L 732.00 664.10 L 735.80 668.90 L 740.00 673.40 L 744.50 677.60 L 749.30 681.40 L 754.40 684.90 L 759.80 687.90 L 765.40 690.50 L 771.30 692.80 L 777.30 694.50 L 783.50 695.80 L 789.90 696.60 L 796.60 696.80 L 803.20 696.60 L 809.60 695.80 L 815.80 694.50 L 821.90 692.80 L 827.80 690.50 L 833.40 687.90 L 838.70 684.90 L 843.80 681.40 L 848.70 677.60 L 853.10 673.40 L 857.30 668.90 L 861.10 664.10 L 864.60 659.00 L 867.60 653.60 L 870.30 648.00 L 872.50 642.10 L 874.20 636.10 L 875.50 629.90 L 876.30 623.50 L 876.60 616.80 L 876.30 610.20 L 875.50 603.80 L 874.20 597.60 L 872.50 591.60 L 870.30 585.70 L 867.60 580.10 L 864.60 574.70 L 861.10 569.60 L 857.30 564.80 L 853.10 560.30 L 848.70 556.10 L 843.80 552.30 L 838.70 548.80 L 833.40 545.80 L 827.80 543.20 L 821.90 540.90 L 815.80 539.20 L 809.60 537.90 L 803.20 537.10 L 796.60 536.80 L 789.90 537.10 L 783.50 537.90 L 777.30 539.20 L 771.30 540.90 L 765.40 543.20 L 759.80 545.80 L 754.40 548.80 L 749.30 552.30 L 744.50 556.10 L 740.00 560.30 L 735.80 564.80 L 732.00 569.60 L 728.60 574.70 L 725.50 580.10 L 722.90 585.70 L 720.70 591.60 L 718.90 597.60 L 717.60 603.80 L 716.90 610.20 L 716.60 616.80 Z" fill="#110d2e" fill-rule="evenodd" group-id="1,3,4,6" id="椭圆形备份-14" node-id="21" stroke="none" target-height="160" target-width="160" target-x="716.6" target-y="536.8"></path><path d="M 574.70 808.00 L 575.00 816.70 L 575.70 825.10 L 576.80 833.40 L 578.30 841.50 L 580.30 849.50 L 582.70 857.40 L 585.50 865.00 L 588.60 872.50 L 592.10 879.70 L 596.00 886.70 L 601.40 895.30 L 607.20 903.30 L 613.60 911.00 L 620.40 918.30 L 627.70 925.10 L 635.40 931.50 L 643.50 937.30 L 652.00 942.70 L 659.00 946.60 L 666.30 950.10 L 673.70 953.20 L 681.40 956.00 L 689.30 958.40 L 697.20 960.40 L 705.30 961.90 L 713.60 963.10 L 722.10 963.80 L 730.70 964.00 L 739.40 963.80 L 747.90 963.10 L 756.10 961.90 L 764.20 960.40 L 772.20 958.40 L 780.10 956.00 L 787.80 953.20 L 795.20 950.10 L 802.40 946.60 L 809.50 942.70 L 818.00 937.30 L 826.10 931.50 L 833.70 925.10 L 841.00 918.30 L 847.90 911.00 L 854.20 903.30 L 860.10 895.30 L 865.40 886.70 L 869.30 879.70 L 872.80 872.50 L 876.00 865.00 L 878.80 857.40 L 881.20 849.50 L 883.10 841.50 L 884.70 833.40 L 885.80 825.10 L 886.50 816.70 L 886.70 808.00 L 886.50 799.30 L 885.80 790.90 L 884.70 782.60 L 883.10 774.50 L 881.20 766.50 L 878.80 758.60 L 876.00 751.00 L 872.80 743.50 L 869.30 736.30 L 865.40 729.30 L 860.10 720.70 L 854.20 712.70 L 847.90 705.00 L 841.00 697.70 L 833.70 690.90 L 826.10 684.50 L 818.00 678.70 L 809.50 673.30 L 802.40 669.40 L 795.20 665.90 L 787.80 662.80 L 780.10 660.00 L 772.20 657.60 L 764.20 655.60 L 756.10 654.10 L 747.90 652.90 L 739.40 652.20 L 730.70 652.00 L 722.10 652.20 L 713.60 652.90 L 705.30 654.10 L 697.20 655.60 L 689.30 657.60 L 681.40 660.00 L 673.70 662.80 L 666.30 665.90 L 659.00 669.40 L 652.00 673.30 L 643.50 678.70 L 635.40 684.50 L 627.70 690.90 L 620.40 697.70 L 613.60 705.00 L 607.20 712.70 L 601.40 720.80 L 596.00 729.30 L 592.10 736.30 L 588.60 743.50 L 585.50 751.00 L 582.70 758.60 L 580.30 766.50 L 578.30 774.50 L 576.80 782.60 L 575.70 790.90 L 575.00 799.30 L 574.70 808.00 Z" fill="#110d2e" fill-rule="evenodd" group-id="1,3,4,6" id="椭圆形备份-17" node-id="22" stroke="none" target-height="312" target-width="312" target-x="574.7" target-y="652"></path></g><path d="M 322.00 487.50 L 321.70 494.10 L 320.90 500.50 L 319.70 506.60 L 317.90 512.60 L 315.70 518.50 L 313.10 524.10 L 310.10 529.40 L 306.70 534.50 L 302.80 539.30 L 298.70 543.70 L 294.30 547.80 L 289.50 551.70 L 284.40 555.10 L 279.10 558.10 L 273.50 560.70 L 267.60 562.90 L 261.60 564.70 L 255.50 565.90 L 249.10 566.70 L 242.50 567.00 L 235.90 566.70 L 229.50 565.90 L 223.40 564.70 L 217.40 562.90 L 211.50 560.70 L 205.90 558.10 L 200.60 555.10 L 195.50 551.70 L 190.70 547.80 L 186.30 543.70 L 182.20 539.30 L 178.30 534.50 L 174.90 529.40 L 171.90 524.10 L 169.30 518.50 L 167.10 512.60 L 165.30 506.60 L 164.10 500.50 L 163.30 494.10 L 163.00 487.50 L 163.30 480.90 L 164.10 474.50 L 165.30 468.40 L 167.10 462.40 L 169.30 456.50 L 171.90 450.90 L 174.90 445.60 L 178.30 440.50 L 182.20 435.70 L 186.30 431.30 L 190.70 427.20 L 195.50 423.30 L 200.60 419.90 L 205.90 416.90 L 211.50 414.30 L 217.40 412.10 L 223.40 410.30 L 229.50 409.10 L 235.90 408.30 L 242.50 408.00 L 249.10 408.30 L 255.50 409.10 L 261.60 410.30 L 267.60 412.10 L 273.50 414.30 L 279.10 416.90 L 284.40 419.90 L 289.50 423.30 L 294.30 427.20 L 298.70 431.30 L 302.80 435.70 L 306.70 440.50 L 310.10 445.60 L 313.10 450.90 L 315.70 456.50 L 317.90 462.40 L 319.70 468.40 L 320.90 474.50 L 321.70 480.90 L 322.00 487.50 Z" fill="#110d2e" fill-rule="evenodd" group-id="1,3,4" id="椭圆形备份-8" node-id="23" stroke="none" target-height="159" target-width="159" target-x="163" target-y="408"></path><path d="M 861.00 487.50 L 860.70 494.10 L 859.90 500.50 L 858.70 506.60 L 856.90 512.60 L 854.70 518.50 L 852.10 524.10 L 849.10 529.40 L 845.70 534.50 L 841.80 539.30 L 837.70 543.70 L 833.30 547.80 L 828.50 551.70 L 823.40 555.10 L 818.10 558.10 L 812.50 560.70 L 806.60 562.90 L 800.60 564.70 L 794.50 565.90 L 788.10 566.70 L 781.50 567.00 L 774.90 566.70 L 768.50 565.90 L 762.40 564.70 L 756.40 562.90 L 750.50 560.70 L 744.90 558.10 L 739.60 555.10 L 734.50 551.70 L 729.70 547.80 L 725.30 543.70 L 721.20 539.30 L 717.30 534.50 L 713.90 529.40 L 710.90 524.10 L 708.30 518.50 L 706.10 512.60 L 704.30 506.60 L 703.10 500.50 L 702.30 494.10 L 702.00 487.50 L 702.30 480.90 L 703.10 474.50 L 704.30 468.40 L 706.10 462.40 L 708.30 456.50 L 710.90 450.90 L 713.90 445.60 L 717.30 440.50 L 721.20 435.70 L 725.30 431.30 L 729.70 427.20 L 734.50 423.30 L 739.60 419.90 L 744.90 416.90 L 750.50 414.30 L 756.40 412.10 L 762.40 410.30 L 768.50 409.10 L 774.90 408.30 L 781.50 408.00 L 788.10 408.30 L 794.50 409.10 L 800.60 410.30 L 806.60 412.10 L 812.50 414.30 L 818.10 416.90 L 823.40 419.90 L 828.50 423.30 L 833.30 427.20 L 837.70 431.30 L 841.80 435.70 L 845.70 440.50 L 849.10 445.60 L 852.10 450.90 L 854.70 456.50 L 856.90 462.40 L 858.70 468.40 L 859.90 474.50 L 860.70 480.90 L 861.00 487.50 Z" fill="#110d2e" fill-rule="evenodd" group-id="1,3,4" id="椭圆形备份-9" node-id="24" stroke="none" target-height="159" target-width="159" target-x="702" target-y="408"></path><path d="M 275.40 629.80 L 278.60 628.00 L 281.30 625.90 L 283.70 623.50 L 285.70 620.80 L 287.40 617.90 L 288.70 614.70 L 289.70 611.30 L 290.30 607.70 L 290.30 600.30 L 288.80 592.30 L 285.90 584.40 L 281.30 576.30 L 277.50 571.30 L 273.30 566.80 L 268.80 562.80 L 263.90 559.20 L 258.90 556.30 L 253.80 554.00 L 245.90 551.70 L 238.30 550.80 L 234.40 551.00 L 230.80 551.50 L 227.30 552.50 L 223.90 553.90 L 220.80 555.70 L 218.10 557.80 L 215.70 560.20 L 213.70 562.90 L 212.00 565.90 L 210.70 569.00 L 209.70 572.40 L 209.10 576.00 L 209.10 583.40 L 210.60 591.40 L 213.50 599.30 L 218.10 607.40 L 221.90 612.50 L 226.10 617.00 L 230.60 621.00 L 235.50 624.50 L 240.50 627.40 L 245.60 629.70 L 253.50 632.00 L 261.10 632.90 L 265.00 632.70 L 268.60 632.20 L 272.10 631.20 L 275.40 629.80 Z" fill="#fbb4b4" fill-rule="evenodd" group-id="1,3,4" id="椭圆形备份-4" node-id="25" stroke="none" target-height="82.10004" target-width="81.19998" target-x="209.1" target-y="550.8"></path><path d="M 747.90 629.80 L 744.80 628.00 L 742.10 625.90 L 739.70 623.50 L 737.70 620.80 L 736.00 617.90 L 734.70 614.70 L 733.70 611.30 L 733.10 607.70 L 733.10 600.30 L 734.60 592.30 L 737.50 584.40 L 742.10 576.30 L 745.90 571.30 L 750.10 566.80 L 754.60 562.80 L 759.50 559.20 L 764.50 556.30 L 769.60 554.00 L 777.50 551.70 L 785.10 550.80 L 789.00 551.00 L 792.60 551.50 L 796.10 552.50 L 799.50 553.90 L 802.60 555.70 L 805.30 557.80 L 807.70 560.20 L 809.70 562.90 L 811.40 565.90 L 812.70 569.00 L 813.70 572.40 L 814.30 576.00 L 814.30 583.40 L 812.80 591.40 L 809.90 599.30 L 805.30 607.40 L 801.50 612.50 L 797.30 617.00 L 792.80 621.00 L 787.90 624.50 L 782.90 627.40 L 777.80 629.70 L 769.90 632.00 L 762.30 632.90 L 758.40 632.70 L 754.80 632.20 L 751.30 631.20 L 747.90 629.80 Z" fill="#fbb4b4" fill-rule="evenodd" group-id="1,3,4" id="椭圆形备份-12" node-id="26" stroke="none" target-height="82.10004" target-width="81.20001" target-x="733.1" target-y="550.8"></path><g node-id="161"><path d="M 379.50 953.50 L 353.50 1039.60" fill="none" group-id="1,3,4,7" id="路径-6" node-id="27" stroke="#000000" stroke-linecap="round" stroke-opacity="0.10692633" stroke-width="7" target-height="86.099976" target-width="26" target-x="353.5" target-y="953.5"></path></g><g node-id="162"><path d="M 644.50 953.50 L 670.50 1039.60" fill="none" group-id="1,3,4,8" id="路径-6备份" node-id="28" stroke="#000000" stroke-linecap="round" stroke-opacity="0.10692633" stroke-width="7" target-height="86.099976" target-width="26" target-x="644.5" target-y="953.5"></path></g><g node-id="163"><g node-id="170"><path d="M 465.00 712.00 L 559.00 712.00 L 559.00 845.00 L 465.00 845.00 Z" fill="#ffcaca" fill-rule="evenodd" group-id="1,3,4,9,16" node-id="132" stroke="none" target-height="133" target-width="94" target-x="465" target-y="712"></path></g><path d="M 591.00 717.00 L 590.70 720.90 L 590.00 724.60 L 588.70 728.30 L 587.00 731.90 L 584.80 735.20 L 579.30 741.70 L 575.80 744.80 L 570.80 748.40 L 565.10 751.80 L 558.70 754.90 L 552.00 757.50 L 544.80 759.80 L 537.00 761.60 L 529.10 762.90 L 520.70 763.70 L 512.00 764.00 L 503.30 763.70 L 494.90 762.90 L 487.00 761.60 L 479.20 759.80 L 472.00 757.50 L 465.30 754.90 L 458.90 751.80 L 453.20 748.40 L 448.20 744.80 L 444.70 741.70 L 441.70 738.50 L 439.20 735.20 L 437.00 731.90 L 435.30 728.30 L 434.00 724.60 L 433.30 720.90 L 433.00 717.00 L 433.30 713.10 L 434.00 709.40 L 435.30 705.70 L 437.00 702.10 L 439.20 698.80 L 441.70 695.50 L 444.70 692.30 L 448.20 689.20 L 453.20 685.60 L 458.90 682.20 L 465.30 679.10 L 472.00 676.50 L 479.20 674.20 L 487.00 672.40 L 494.90 671.10 L 503.30 670.30 L 512.00 670.00 L 520.70 670.30 L 529.10 671.10 L 537.00 672.40 L 544.80 674.20 L 552.00 676.50 L 558.70 679.10 L 565.10 682.20 L 570.80 685.60 L 575.80 689.20 L 579.30 692.30 L 584.80 698.80 L 587.00 702.10 L 588.70 705.70 L 590.00 709.40 L 590.70 713.10 L 591.00 717.00 Z" fill="#ec8484" fill-opacity="0.21490623" fill-rule="evenodd" group-id="1,3,4,9,17" node-id="137" stroke="none" target-height="94" target-width="158" target-x="433" target-y="670"></path></g><path d="M 767.00 524.00 L 766.70 534.70 L 765.90 545.20 L 764.50 555.50 L 762.70 565.60 L 760.30 575.60 L 757.40 585.50 L 754.00 595.10 L 750.20 604.60 L 745.90 613.90 L 741.10 622.90 L 735.90 631.80 L 730.30 640.40 L 724.30 648.70 L 717.80 656.80 L 711.00 664.70 L 703.80 672.30 L 696.30 679.50 L 688.40 686.50 L 680.10 693.20 L 671.50 699.60 L 662.60 705.60 L 653.50 711.20 L 644.00 716.50 L 634.30 721.50 L 624.10 726.10 L 613.90 730.30 L 603.50 734.10 L 592.70 737.50 L 581.70 740.50 L 570.50 743.10 L 559.20 745.20 L 547.70 746.80 L 536.00 748.00 L 524.10 748.70 L 512.00 749.00 L 499.90 748.70 L 488.00 748.00 L 476.30 746.80 L 464.80 745.20 L 453.50 743.10 L 442.30 740.50 L 431.30 737.50 L 420.50 734.10 L 410.10 730.30 L 399.90 726.10 L 389.70 721.50 L 380.00 716.50 L 370.50 711.20 L 361.40 705.60 L 352.50 699.60 L 343.90 693.20 L 335.60 686.50 L 327.70 679.50 L 320.20 672.30 L 313.00 664.70 L 306.20 656.80 L 299.70 648.70 L 293.70 640.40 L 288.10 631.80 L 282.90 622.90 L 278.10 613.90 L 273.80 604.60 L 270.00 595.10 L 266.60 585.50 L 263.70 575.60 L 261.30 565.60 L 259.50 555.50 L 258.10 545.20 L 257.30 534.70 L 257.00 524.00 L 257.30 513.30 L 258.10 502.80 L 259.50 492.50 L 261.30 482.40 L 263.70 472.40 L 266.60 462.50 L 270.00 452.90 L 273.80 443.40 L 278.10 434.10 L 282.90 425.10 L 288.10 416.20 L 293.70 407.60 L 299.70 399.30 L 306.20 391.20 L 313.00 383.30 L 320.20 375.70 L 327.70 368.50 L 335.60 361.50 L 343.90 354.80 L 352.50 348.40 L 361.40 342.40 L 370.50 336.80 L 380.00 331.50 L 389.70 326.50 L 399.90 321.90 L 410.10 317.70 L 420.50 313.90 L 431.30 310.50 L 442.30 307.50 L 453.50 304.90 L 464.80 302.80 L 476.30 301.20 L 488.00 300.00 L 499.90 299.30 L 512.00 299.00 L 524.10 299.30 L 536.00 300.00 L 547.70 301.20 L 559.20 302.80 L 570.50 304.90 L 581.70 307.50 L 592.70 310.50 L 603.50 313.90 L 613.90 317.70 L 624.10 321.90 L 634.30 326.50 L 644.00 331.50 L 653.50 336.80 L 662.60 342.40 L 671.50 348.40 L 680.10 354.80 L 688.40 361.50 L 696.30 368.50 L 703.80 375.70 L 711.00 383.30 L 717.80 391.20 L 724.30 399.30 L 730.30 407.60 L 735.90 416.20 L 741.10 425.10 L 745.90 434.10 L 750.20 443.40 L 754.00 452.90 L 757.40 462.50 L 760.30 472.40 L 762.70 482.40 L 764.50 492.50 L 765.90 502.80 L 766.70 513.30 L 767.00 524.00 Z" fill="#ffcaca" fill-rule="evenodd" group-id="1,3,4" id="椭圆形" node-id="34" stroke="none" target-height="450" target-width="510" target-x="257" target-y="299"></path><path d="M 502.00 594.00 L 502.00 620.00 L 502.20 622.60 L 502.90 624.90 L 503.90 627.10 L 505.30 629.00 L 507.00 630.70 L 508.90 632.10 L 511.10 633.10 L 513.40 633.80 L 516.00 634.00 L 522.80 634.00" fill="none" group-id="1,3,4" id="路径-5备份" node-id="35" stroke="#ff9494" stroke-linecap="round" stroke-width="8" target-height="40" target-width="20.799988" target-x="502" target-y="594"></path><path d="M 434.00 567.00 L 433.70 570.50 L 432.80 573.60 L 431.40 576.60 L 429.50 579.30 L 427.30 581.50 L 424.60 583.40 L 421.60 584.80 L 418.50 585.70 L 415.00 586.00 L 411.50 585.70 L 408.40 584.80 L 405.40 583.40 L 402.70 581.50 L 400.50 579.30 L 398.60 576.60 L 397.20 573.60 L 396.30 570.50 L 396.00 567.00 L 396.30 563.50 L 397.20 560.40 L 398.60 557.40 L 400.50 554.70 L 402.70 552.50 L 405.40 550.60 L 408.40 549.20 L 411.50 548.30 L 415.00 548.00 L 418.50 548.30 L 421.60 549.20 L 424.60 550.60 L 427.30 552.50 L 429.50 554.70 L 431.40 557.40 L 432.80 560.40 L 433.70 563.50 L 434.00 567.00 Z" fill="#110d2e" fill-rule="evenodd" group-id="1,3,4" id="椭圆形" node-id="36" stroke="none" target-height="38" target-width="38" target-x="396" target-y="548"></path><path d="M 628.00 567.00 L 627.70 570.50 L 626.80 573.60 L 625.40 576.60 L 623.50 579.30 L 621.30 581.50 L 618.60 583.40 L 615.60 584.80 L 612.50 585.70 L 609.00 586.00 L 605.50 585.70 L 602.40 584.80 L 599.40 583.40 L 596.70 581.50 L 594.50 579.30 L 592.60 576.60 L 591.20 573.60 L 590.30 570.50 L 590.00 567.00 L 590.30 563.50 L 591.20 560.40 L 592.60 557.40 L 594.50 554.70 L 596.70 552.50 L 599.40 550.60 L 602.40 549.20 L 605.50 548.30 L 609.00 548.00 L 612.50 548.30 L 615.60 549.20 L 618.60 550.60 L 621.30 552.50 L 623.50 554.70 L 625.40 557.40 L 626.80 560.40 L 627.70 563.50 L 628.00 567.00 Z" fill="#110d2e" fill-rule="evenodd" group-id="1,3,4" id="椭圆形备份-7" node-id="37" stroke="none" target-height="38" target-width="38" target-x="590" target-y="548"></path><path d="M 469.00 680.50 L 481.50 685.60 L 487.30 687.40 L 493.30 688.70 L 499.30 689.60 L 505.40 690.00 L 511.50 690.00 L 517.50 689.60 L 523.50 688.60 L 529.50 687.30 L 535.30 685.50 L 541.00 683.20 L 546.60 680.50" fill="none" group-id="1,3,4" id="路径-35" node-id="38" stroke="#ec8484" stroke-linecap="round" stroke-width="10" target-height="9.5" target-width="77.599976" target-x="469" target-y="680.5"></path><path d="M 380.00 519.60 L 391.00 517.00 L 400.30 515.20 L 408.10 514.30 L 414.50 514.00 L 420.90 514.30 L 428.70 515.20 L 438.30 516.90 L 449.80 519.60" fill="none" group-id="1,3,4" id="路径-4备份" node-id="39" stroke="#110d2e" stroke-linecap="round" stroke-width="6" target-height="5.5999756" target-width="69.79999" target-x="380" target-y="514"></path><g node-id="164"><path d="M 643.80 519.60 L 632.70 517.00 L 623.40 515.20 L 615.70 514.30 L 609.30 514.00 L 602.90 514.30 L 595.00 515.20 L 585.50 516.90 L 574.00 519.60" fill="none" group-id="1,3,4,10" id="路径-4备份-2" node-id="40" stroke="#110d2e" stroke-linecap="round" stroke-width="6" target-height="5.5999756" target-width="69.79999" target-x="574" target-y="514"></path></g><g node-id="165"><g node-id="172"><path d="M 512.00 781.00 L 523.20 781.30 L 534.20 782.20 L 545.00 783.60 L 555.70 785.50 L 566.20 788.00 L 576.60 791.00 L 586.90 794.50 L 597.00 798.50 L 606.90 803.00 L 616.70 808.00 L 626.20 813.50 L 635.50 819.30 L 644.70 825.70 L 653.60 832.50 L 662.40 839.70 L 670.80 847.30 L 679.00 855.30 L 687.00 863.70 L 694.70 872.50 L 702.20 881.80 L 709.30 891.20 L 716.20 901.00 L 722.70 911.20 L 729.00 921.70 L 735.10 932.70 L 740.70 943.70 L 745.90 955.10 L 750.90 966.70 L 755.50 978.80 L 759.90 991.10 L 763.70 1003.50 L 767.20 1016.10 L 770.40 1029.00 L 773.10 1042.20 L 775.50 1055.70 L 777.50 1069.10 L 779.00 1082.70 L 780.10 1096.60 L 780.80 1110.70 L 781.00 1125.00 L 780.80 1139.30 L 780.10 1153.40 L 779.00 1167.30 L 777.50 1180.90 L 775.50 1194.30 L 773.10 1207.80 L 770.40 1221.00 L 767.20 1233.90 L 763.70 1246.50 L 759.90 1258.90 L 755.50 1271.20 L 750.90 1283.30 L 745.90 1294.90 L 740.70 1306.30 L 735.10 1317.30 L 729.00 1328.30 L 722.70 1338.80 L 716.20 1349.00 L 709.30 1358.80 L 702.20 1368.20 L 694.70 1377.50 L 687.00 1386.30 L 679.00 1394.70 L 670.80 1402.70 L 662.40 1410.30 L 653.60 1417.50 L 644.70 1424.30 L 635.50 1430.70 L 626.20 1436.50 L 616.70 1442.00 L 606.90 1447.00 L 597.00 1451.50 L 586.90 1455.50 L 576.60 1459.00 L 566.20 1462.00 L 555.70 1464.50 L 545.00 1466.40 L 534.20 1467.80 L 523.20 1468.70 L 512.00 1469.00 L 500.80 1468.70 L 489.80 1467.80 L 479.00 1466.40 L 468.30 1464.50 L 457.80 1462.00 L 447.40 1459.00 L 437.10 1455.50 L 427.00 1451.50 L 417.10 1447.00 L 407.30 1442.00 L 397.80 1436.50 L 388.50 1430.70 L 379.30 1424.30 L 370.40 1417.50 L 361.60 1410.30 L 353.20 1402.70 L 345.00 1394.70 L 337.00 1386.30 L 329.30 1377.50 L 321.80 1368.20 L 314.70 1358.80 L 307.80 1349.00 L 301.30 1338.80 L 295.00 1328.30 L 288.90 1317.30 L 283.30 1306.30 L 278.10 1294.90 L 273.10 1283.30 L 268.50 1271.20 L 264.10 1258.90 L 260.30 1246.50 L 256.80 1233.90 L 253.60 1221.00 L 250.90 1207.80 L 248.50 1194.30 L 246.50 1180.90 L 245.00 1167.30 L 243.90 1153.40 L 243.20 1139.30 L 243.00 1125.00 L 243.20 1110.70 L 243.90 1096.60 L 245.00 1082.70 L 246.50 1069.10 L 248.50 1055.70 L 250.90 1042.20 L 253.60 1029.00 L 256.80 1016.10 L 260.30 1003.50 L 264.10 991.10 L 268.50 978.80 L 273.10 966.70 L 278.10 955.10 L 283.30 943.70 L 288.90 932.70 L 295.00 921.70 L 301.30 911.20 L 307.80 901.00 L 314.70 891.20 L 321.80 881.80 L 329.30 872.50 L 337.00 863.70 L 345.00 855.30 L 353.20 847.30 L 361.60 839.70 L 370.40 832.50 L 379.30 825.70 L 388.50 819.30 L 397.80 813.50 L 407.30 808.00 L 417.10 803.00 L 427.00 798.50 L 437.10 794.50 L 447.40 791.00 L 457.80 788.00 L 468.30 785.50 L 479.00 783.60 L 489.80 782.20 L 500.80 781.30 L 512.00 781.00 Z" fill="#339456" fill-rule="evenodd" group-id="1,3,4,11,18" node-id="153" stroke="none" target-height="688" target-width="538" target-x="243" target-y="781"></path></g><g node-id="173"><path d="M 584.00 783.00 L 583.70 785.30 L 582.70 787.60 L 581.00 789.90 L 578.30 792.30 L 572.10 796.20 L 562.90 800.00 L 556.30 801.90 L 548.70 803.70 L 540.00 805.10 L 531.30 806.10 L 522.00 806.80 L 512.00 807.00 L 502.00 806.80 L 492.70 806.10 L 484.00 805.10 L 475.30 803.70 L 467.70 801.90 L 461.10 800.00 L 451.90 796.20 L 445.70 792.30 L 443.00 789.90 L 441.30 787.60 L 440.30 785.30 L 440.00 783.00 L 440.30 780.70 L 441.30 778.40 L 443.00 776.10 L 445.70 773.70 L 451.90 769.80 L 461.10 766.00 L 467.70 764.10 L 475.30 762.30 L 484.00 760.90 L 492.70 759.90 L 502.00 759.20 L 512.00 759.00 L 522.00 759.20 L 531.30 759.90 L 540.00 760.90 L 548.70 762.30 L 556.30 764.10 L 562.90 766.00 L 572.10 769.80 L 578.30 773.70 L 581.00 776.10 L 582.70 778.40 L 583.70 780.70 L 584.00 783.00 Z" fill="#ffcaca" fill-rule="evenodd" group-id="1,3,4,11,19" id="椭圆形" node-id="45" stroke="none" target-height="48" target-width="144" target-x="440" target-y="759"></path></g><g node-id="174"><path d="M 568.00 788.10 L 512.00 807.00 L 565.90 862.80 L 603.80 793.10 L 586.10 791.20 L 568.00 788.10 Z" fill="#ffffff" fill-rule="evenodd" group-id="1,3,4,11,20" id="路径-23备份" node-id="46" stroke="none" target-height="74.70001" target-width="91.79999" target-x="512" target-y="788.1"></path></g><path d="M 455.80 788.10 L 511.80 807.00 L 457.90 862.80 L 420.00 793.10 L 437.70 791.20 L 455.80 788.10 Z" fill="#ffffff" fill-rule="evenodd" group-id="1,3,4,11,21" id="路径-23备份" node-id="47" stroke="none" target-height="74.70001" target-width="91.79999" target-x="420" target-y="788.1"></path></g><path d="M 520.00 871.00 L 519.70 873.10 L 518.90 875.00 L 517.70 876.70 L 516.00 877.90 L 514.10 878.70 L 512.00 879.00 L 509.90 878.70 L 508.00 877.90 L 506.30 876.70 L 505.10 875.00 L 504.30 873.10 L 504.00 871.00 L 504.30 868.90 L 505.10 867.00 L 506.30 865.30 L 508.00 864.10 L 509.90 863.30 L 512.00 863.00 L 514.10 863.30 L 516.00 864.10 L 517.70 865.30 L 518.90 867.00 L 519.70 868.90 L 520.00 871.00 Z" fill="#10592a" fill-rule="evenodd" group-id="1,3,4" id="椭圆形" node-id="48" stroke="none" target-height="16" target-width="16" target-x="504" target-y="863"></path><path d="M 520.00 934.00 L 519.70 936.10 L 518.90 938.00 L 517.70 939.70 L 516.00 940.90 L 514.10 941.70 L 512.00 942.00 L 509.90 941.70 L 508.00 940.90 L 506.30 939.70 L 505.10 938.00 L 504.30 936.10 L 504.00 934.00 L 504.30 931.90 L 505.10 930.00 L 506.30 928.30 L 508.00 927.10 L 509.90 926.30 L 512.00 926.00 L 514.10 926.30 L 516.00 927.10 L 517.70 928.30 L 518.90 930.00 L 519.70 931.90 L 520.00 934.00 Z" fill="#10592a" fill-rule="evenodd" group-id="1,3,4" id="椭圆形备份-2" node-id="49" stroke="none" target-height="16" target-width="16" target-x="504" target-y="926"></path><path d="M 520.00 997.00 L 519.70 999.10 L 518.90 1001.00 L 517.70 1002.70 L 516.00 1003.90 L 514.10 1004.70 L 512.00 1005.00 L 509.90 1004.70 L 508.00 1003.90 L 506.30 1002.70 L 505.10 1001.00 L 504.30 999.10 L 504.00 997.00 L 504.30 994.90 L 505.10 993.00 L 506.30 991.30 L 508.00 990.10 L 509.90 989.30 L 512.00 989.00 L 514.10 989.30 L 516.00 990.10 L 517.70 991.30 L 518.90 993.00 L 519.70 994.90 L 520.00 997.00 Z" fill="#10592a" fill-rule="evenodd" group-id="1,3,4" id="椭圆形备份-3" node-id="50" stroke="none" target-height="16" target-width="16" target-x="504" target-y="989"></path><g node-id="166"><path d="M 379.50 953.50 L 353.50 1039.60" fill="none" group-id="1,3,4,12" id="路径-6" node-id="51" stroke="#000000" stroke-linecap="round" stroke-opacity="0.10692633" stroke-width="7" target-height="86.099976" target-width="26" target-x="353.5" target-y="953.5"></path></g><g node-id="167"><path d="M 644.50 953.50 L 670.50 1039.60" fill="none" group-id="1,3,4,13" id="路径-6备份" node-id="52" stroke="#000000" stroke-linecap="round" stroke-opacity="0.10692633" stroke-width="7" target-height="86.099976" target-width="26" target-x="644.5" target-y="953.5"></path></g><path d="M 593.50 295.50 L 593.20 303.10 L 592.30 310.40 L 590.80 317.50 L 588.80 324.40 L 586.30 331.20 L 583.30 337.60 L 579.80 343.70 L 575.80 349.50 L 571.50 355.10 L 566.70 360.20 L 561.60 365.00 L 556.00 369.30 L 550.20 373.30 L 544.10 376.80 L 537.70 379.80 L 530.90 382.30 L 524.00 384.30 L 516.90 385.80 L 509.60 386.70 L 502.00 387.00 L 494.40 386.70 L 487.10 385.80 L 480.00 384.30 L 473.10 382.30 L 466.30 379.80 L 459.90 376.80 L 453.80 373.30 L 448.00 369.30 L 442.40 365.00 L 437.30 360.20 L 432.50 355.10 L 428.20 349.50 L 424.20 343.70 L 420.70 337.60 L 417.70 331.20 L 415.20 324.40 L 413.20 317.50 L 411.70 310.40 L 410.80 303.10 L 410.50 295.50 L 410.80 287.90 L 411.70 280.60 L 413.20 273.50 L 415.20 266.60 L 417.70 259.80 L 420.70 253.40 L 424.20 247.30 L 428.20 241.50 L 432.50 235.90 L 437.30 230.80 L 442.40 226.00 L 448.00 221.70 L 453.80 217.70 L 459.90 214.20 L 466.30 211.20 L 473.10 208.70 L 480.00 206.70 L 487.10 205.20 L 494.40 204.30 L 502.00 204.00 L 509.60 204.30 L 516.90 205.20 L 524.00 206.70 L 530.90 208.70 L 537.70 211.20 L 544.10 214.20 L 550.20 217.70 L 556.00 221.70 L 561.60 226.00 L 566.70 230.80 L 571.50 235.90 L 575.80 241.50 L 579.80 247.30 L 583.30 253.40 L 586.30 259.80 L 588.80 266.60 L 590.80 273.50 L 592.30 280.60 L 593.20 287.90 L 593.50 295.50 Z" fill="#110d2e" fill-rule="evenodd" group-id="1,3,4" id="椭圆形" node-id="53" stroke="none" target-height="183" target-width="183" target-x="410.5" target-y="204"></path><path d="M 259.40 556.50 L 299.80 537.40 L 335.30 520.10 L 366.50 504.30 L 393.50 490.00 L 416.90 477.10 L 436.90 465.50 L 453.80 455.00 L 468.10 445.60 L 479.90 437.20 L 489.60 429.80 L 497.50 423.10 L 503.70 417.20 L 508.40 412.00 L 512.00 407.30 L 537.20 428.10 L 560.90 446.80 L 583.00 463.60 L 603.60 478.60 L 622.90 492.00 L 640.90 503.70 L 657.70 514.00 L 673.30 522.90 L 687.80 530.60 L 701.30 537.10 L 713.90 542.60 L 725.50 547.00 L 736.30 550.60 L 746.40 553.30 L 755.70 555.30 L 764.40 556.50 L 814.50 402.50 L 616.20 299.00 L 556.50 286.50 L 502.00 286.50 L 257.00 341.30 L 208.90 441.10 L 259.40 556.50 Z" fill="#110d2e" fill-rule="evenodd" group-id="1,3,4" id="路径-38" node-id="54" stroke="none" target-height="270" target-width="605.6" target-x="208.9" target-y="286.5"></path><g node-id="168"><path d="M 834.50 428.50 L 830.90 433.70 L 827.00 438.60 L 822.60 443.00 L 817.90 447.10 L 812.70 450.90 L 807.30 454.30 L 801.60 457.30 L 795.50 459.90 L 789.00 462.30 L 782.20 464.30 L 773.60 466.10 L 764.60 467.50 L 755.10 468.30 L 745.10 468.50 L 735.30 468.20 L 725.10 467.30 L 714.50 465.90 L 703.60 463.80 L 692.90 461.20 L 682.00 458.10 L 671.00 454.40 L 659.70 450.00 L 648.70 445.20 L 637.60 439.80 L 626.60 433.80 L 615.40 427.20 L 604.60 420.10 L 594.40 412.80 L 584.70 405.20 L 575.60 397.50 L 566.70 389.20 L 558.50 380.90 L 550.90 372.50 L 543.90 364.00 L 537.30 355.10 L 531.30 346.30 L 526.10 337.50 L 521.50 328.80 L 517.30 319.70 L 513.80 310.80 L 511.10 302.10 L 509.10 293.60 L 507.80 286.60 L 507.10 279.70 L 506.80 273.10 L 507.00 266.60 L 507.70 260.30 L 508.80 254.00 L 510.40 247.90 L 512.50 242.10 L 515.10 236.40 L 518.20 230.90 L 521.80 225.70 L 525.80 220.80 L 530.10 216.40 L 534.90 212.20 L 540.10 208.50 L 545.50 205.10 L 551.20 202.10 L 557.30 199.50 L 563.70 197.10 L 570.60 195.10 L 579.10 193.20 L 588.10 191.90 L 597.60 191.10 L 607.60 190.80 L 617.50 191.20 L 627.70 192.10 L 638.30 193.50 L 649.20 195.60 L 659.90 198.20 L 670.70 201.30 L 681.80 205.00 L 693.10 209.40 L 704.10 214.20 L 715.10 219.60 L 726.20 225.50 L 737.30 232.20 L 748.20 239.30 L 758.40 246.60 L 768.10 254.10 L 777.20 261.90 L 786.10 270.20 L 794.30 278.50 L 801.90 286.90 L 808.80 295.40 L 815.50 304.30 L 821.40 313.10 L 826.70 321.90 L 831.30 330.60 L 835.50 339.70 L 838.90 348.60 L 841.60 357.30 L 843.70 365.80 L 844.90 372.80 L 845.70 379.70 L 845.90 386.30 L 845.70 392.80 L 845.10 399.10 L 844.00 405.40 L 842.40 411.40 L 840.30 417.30 L 837.70 423.00 L 834.50 428.50 Z" fill="#110d2e" fill-rule="evenodd" group-id="1,3,4,14" id="椭圆形" node-id="55" stroke="none" target-height="277.7" target-width="339.10004" target-x="506.8" target-y="190.8"></path></g><path d="M 159.20 430.50 L 162.80 435.70 L 166.80 440.60 L 171.10 445.00 L 175.90 449.10 L 181.10 452.90 L 186.50 456.30 L 192.20 459.30 L 198.30 461.90 L 204.70 464.30 L 211.60 466.30 L 220.10 468.10 L 229.10 469.50 L 238.60 470.30 L 248.60 470.50 L 258.50 470.20 L 268.70 469.30 L 279.30 467.90 L 290.20 465.80 L 300.90 463.20 L 311.70 460.10 L 322.80 456.40 L 334.10 452.00 L 345.10 447.20 L 356.10 441.80 L 367.20 435.80 L 378.30 429.20 L 389.20 422.10 L 399.40 414.80 L 409.10 407.20 L 418.20 399.50 L 427.10 391.20 L 435.30 382.90 L 442.90 374.50 L 449.80 366.00 L 456.50 357.10 L 462.40 348.30 L 467.70 339.50 L 472.30 330.80 L 476.50 321.70 L 479.90 312.80 L 482.60 304.10 L 484.70 295.60 L 485.90 288.60 L 486.70 281.70 L 486.90 275.10 L 486.70 268.60 L 486.10 262.30 L 485.00 256.00 L 483.40 249.90 L 481.30 244.10 L 478.70 238.40 L 475.50 232.90 L 471.90 227.70 L 468.00 222.80 L 463.60 218.40 L 458.90 214.20 L 453.70 210.50 L 448.30 207.10 L 442.60 204.10 L 436.50 201.50 L 430.00 199.10 L 423.20 197.10 L 414.60 195.20 L 405.60 193.90 L 396.10 193.10 L 386.10 192.80 L 376.30 193.20 L 366.10 194.10 L 355.50 195.50 L 344.60 197.60 L 333.90 200.20 L 323.00 203.30 L 312.00 207.00 L 300.70 211.40 L 289.70 216.20 L 278.60 221.60 L 267.60 227.50 L 256.40 234.20 L 245.60 241.30 L 235.40 248.60 L 225.70 256.10 L 216.60 263.90 L 207.70 272.20 L 199.50 280.50 L 191.90 288.90 L 184.90 297.40 L 178.30 306.30 L 172.30 315.10 L 167.10 323.90 L 162.50 332.60 L 158.30 341.70 L 154.80 350.60 L 152.10 359.30 L 150.10 367.80 L 148.80 374.80 L 148.10 381.70 L 147.80 388.30 L 148.00 394.80 L 148.70 401.10 L 149.80 407.40 L 151.40 413.40 L 153.50 419.30 L 156.10 425.00 L 159.20 430.50 Z" fill="#110d2e" fill-rule="evenodd" group-id="1,3,4,15" id="椭圆形备份" node-id="56" stroke="none" target-height="277.7" target-width="339.09998" target-x="147.8" target-y="192.8"></path></g></g></g></svg>