<?xml version="1.0" standalone="no"?><!DOCTYPE svg PUBLIC "-//W3C//DTD SVG 1.1//EN" "http://www.w3.org/Graphics/SVG/1.1/DTD/svg11.dtd"><svg height="1024" node-id="1" sillyvg="true" template-height="1024" template-width="1024" version="1.1" viewBox="0 0 1024 1024" width="1024" xmlns="http://www.w3.org/2000/svg" xmlns:xlink="http://www.w3.org/1999/xlink"><defs node-id="45"><mask height="1526.9995" id="mask-2" maskUnits="userSpaceOnUse" node-id="11" width="739.20245" x="905.642" y="5365.3984"><path d="M 1787.20 5808.10 L 1787.00 5824.50 L 1786.20 5840.70 L 1784.90 5856.80 L 1783.20 5872.80 L 1780.90 5888.70 L 1778.10 5904.60 L 1774.80 5920.30 L 1771.10 5935.90 L 1766.80 5951.30 L 1762.10 5966.60 L 1756.90 5981.70 L 1751.30 5996.70 L 1745.20 6011.40 L 1738.60 6026.00 L 1731.50 6040.40 L 1724.10 6054.50 L 1716.20 6068.40 L 1707.80 6082.10 L 1699.00 6095.50 L 1689.70 6108.70 L 1680.10 6121.60 L 1670.00 6134.20 L 1659.60 6146.40 L 1648.60 6158.50 L 1637.30 6170.20 L 1625.60 6181.50 L 1613.50 6192.50 L 1601.30 6202.90 L 1588.70 6213.00 L 1575.80 6222.70 L 1562.60 6231.90 L 1549.20 6240.70 L 1535.50 6249.10 L 1521.60 6257.00 L 1507.50 6264.50 L 1493.10 6271.50 L 1478.50 6278.10 L 1463.80 6284.20 L 1448.80 6289.80 L 1433.70 6295.00 L 1418.40 6299.70 L 1403.00 6304.00 L 1387.40 6307.70 L 1371.70 6311.00 L 1355.80 6313.80 L 1339.90 6316.10 L 1323.90 6317.80 L 1307.80 6319.10 L 1291.60 6319.90 L 1275.20 6320.10 L 1258.90 6319.90 L 1242.70 6319.10 L 1226.60 6317.80 L 1210.60 6316.10 L 1194.70 6313.80 L 1178.80 6311.00 L 1163.10 6307.70 L 1147.50 6304.00 L 1132.10 6299.70 L 1116.80 6295.00 L 1101.70 6289.80 L 1086.70 6284.20 L 1072.00 6278.10 L 1057.40 6271.50 L 1043.00 6264.50 L 1028.90 6257.00 L 1015.00 6249.10 L 1001.30 6240.70 L 987.90 6231.90 L 974.70 6222.70 L 961.80 6213.00 L 949.20 6202.90 L 936.90 6192.50 L 924.90 6181.50 L 913.20 6170.20 L 901.80 6158.50 L 890.90 6146.40 L 880.40 6134.20 L 870.40 6121.60 L 860.70 6108.70 L 851.50 6095.50 L 842.70 6082.10 L 834.30 6068.40 L 826.40 6054.50 L 818.90 6040.40 L 811.90 6026.00 L 805.30 6011.40 L 799.20 5996.70 L 793.60 5981.70 L 788.40 5966.60 L 783.70 5951.30 L 779.40 5935.90 L 775.70 5920.30 L 772.40 5904.60 L 769.60 5888.70 L 767.30 5872.80 L 765.60 5856.80 L 764.30 5840.70 L 763.50 5824.50 L 763.20 5808.10 L 763.50 5791.80 L 764.30 5775.60 L 765.60 5759.50 L 767.30 5743.50 L 769.60 5727.60 L 772.40 5711.70 L 775.70 5696.00 L 779.40 5680.40 L 783.70 5665.00 L 788.40 5649.70 L 793.60 5634.60 L 799.20 5619.60 L 805.30 5604.90 L 811.90 5590.30 L 818.90 5575.90 L 826.40 5561.80 L 834.30 5547.90 L 842.70 5534.20 L 851.50 5520.80 L 860.70 5507.60 L 870.40 5494.70 L 880.40 5482.10 L 890.90 5469.80 L 901.80 5457.80 L 913.20 5446.10 L 924.90 5434.80 L 936.90 5423.80 L 949.20 5413.30 L 961.80 5403.30 L 974.70 5393.60 L 987.90 5384.40 L 1001.30 5375.60 L 1015.00 5367.20 L 1028.90 5359.30 L 1043.00 5351.80 L 1057.40 5344.80 L 1072.00 5338.20 L 1086.70 5332.10 L 1101.70 5326.50 L 1116.80 5321.30 L 1132.10 5316.60 L 1147.50 5312.30 L 1163.10 5308.60 L 1178.80 5305.30 L 1194.70 5302.50 L 1210.60 5300.20 L 1226.60 5298.50 L 1242.70 5297.20 L 1258.90 5296.40 L 1275.20 5296.10 L 1291.60 5296.40 L 1307.80 5297.20 L 1323.90 5298.50 L 1339.90 5300.20 L 1355.80 5302.50 L 1371.70 5305.30 L 1387.40 5308.60 L 1403.00 5312.30 L 1418.40 5316.60 L 1433.70 5321.30 L 1448.80 5326.50 L 1463.80 5332.10 L 1478.50 5338.20 L 1493.10 5344.80 L 1507.50 5351.80 L 1521.60 5359.30 L 1535.50 5367.20 L 1549.20 5375.60 L 1562.60 5384.40 L 1575.80 5393.60 L 1588.70 5403.30 L 1601.30 5413.30 L 1613.50 5423.80 L 1625.60 5434.80 L 1637.30 5446.10 L 1648.60 5457.80 L 1659.60 5469.80 L 1670.00 5482.10 L 1680.10 5494.70 L 1689.70 5507.60 L 1699.00 5520.80 L 1707.80 5534.20 L 1716.20 5547.90 L 1724.10 5561.80 L 1731.50 5575.90 L 1738.60 5590.30 L 1745.20 5604.90 L 1751.30 5619.60 L 1756.90 5634.60 L 1762.10 5649.70 L 1766.80 5665.00 L 1771.10 5680.40 L 1774.80 5696.00 L 1778.10 5711.70 L 1780.90 5727.60 L 1783.20 5743.50 L 1784.90 5759.50 L 1786.20 5775.60 L 1787.00 5791.80 L 1787.20 5808.10 Z" fill="#ffffff" fill-rule="evenodd" node-id="50" stroke="none" target-height="1024" target-width="1023.99994" target-x="763.2" target-y="5296.1"></path></mask><mask height="112.8" id="mask-4" maskUnits="userSpaceOnUse" node-id="22" width="189.6" x="-47.8" y="-51.4"><path d="M 0.00 0.00 L 94.00 0.00 L 94.00 125.00 L 0.00 125.00 Z" fill="#ffffff" fill-rule="evenodd" node-id="57" stroke="none" target-height="125" target-width="94" target-x="0" target-y="0"></path></mask><mask height="105.45883" id="mask-6" maskUnits="userSpaceOnUse" node-id="34" width="199.20001" x="169.4" y="-50.27891"><path d="M 336.90 0.00 L 346.40 3.40 L 355.80 7.30 L 365.10 11.50 L 374.20 16.20 L 383.10 21.40 L 392.00 26.90 L 402.20 34.00 L 412.10 41.60 L 421.80 49.80 L 431.30 58.50 L 440.50 67.90 L 449.20 77.50 L 457.50 87.60 L 465.60 98.20 L 473.40 109.30 L 480.80 120.90 L 487.70 132.70 L 494.30 144.90 L 500.40 157.50 L 506.20 170.60 L 511.60 184.10 L 516.40 197.60 L 520.80 211.50 L 524.70 225.80 L 528.10 240.40 L 531.10 255.40 L 533.60 270.40 L 535.50 285.60 L 536.90 301.10 L 537.70 316.90 L 538.00 333.00 L 537.80 347.30 L 537.10 361.40 L 536.00 375.20 L 534.50 388.90 L 532.50 402.30 L 530.10 415.80 L 527.40 428.90 L 524.20 441.80 L 520.70 454.50 L 516.90 466.90 L 512.50 479.20 L 507.90 491.20 L 502.90 502.90 L 497.70 514.20 L 492.10 525.30 L 486.00 536.20 L 479.70 546.80 L 473.20 556.90 L 466.30 566.80 L 459.20 576.20 L 451.70 585.40 L 444.00 594.30 L 436.00 602.70 L 427.80 610.60 L 419.40 618.20 L 410.60 625.50 L 401.70 632.30 L 392.50 638.60 L 383.20 644.50 L 373.70 649.90 L 363.90 654.90 L 354.00 659.40 L 343.90 663.40 L 333.60 666.90 L 323.20 670.00 L 312.70 672.50 L 302.00 674.40 L 291.20 675.80 L 280.20 676.60 L 269.00 677.00 L 257.80 676.60 L 246.80 675.80 L 236.00 674.40 L 225.30 672.50 L 214.80 670.00 L 204.40 666.90 L 194.10 663.40 L 184.00 659.40 L 174.10 654.90 L 164.30 649.90 L 154.80 644.50 L 145.50 638.60 L 136.30 632.30 L 127.40 625.50 L 118.60 618.20 L 110.20 610.60 L 102.00 602.70 L 94.00 594.30 L 86.30 585.40 L 78.80 576.20 L 71.70 566.80 L 64.80 556.90 L 58.30 546.80 L 52.00 536.20 L 45.90 525.30 L 40.30 514.20 L 35.10 502.90 L 30.10 491.20 L 25.50 479.20 L 21.10 466.90 L 17.30 454.50 L 13.80 441.80 L 10.60 428.90 L 7.90 415.80 L 5.50 402.30 L 3.50 388.90 L 2.00 375.20 L 0.90 361.40 L 0.20 347.30 L 0.00 333.00 L 0.30 316.90 L 1.10 301.10 L 2.50 285.60 L 4.40 270.40 L 6.90 255.40 L 9.90 240.40 L 13.30 225.80 L 17.20 211.50 L 21.60 197.60 L 26.40 184.10 L 31.80 170.60 L 37.60 157.50 L 43.70 144.90 L 50.30 132.70 L 57.20 120.90 L 64.60 109.30 L 72.40 98.20 L 80.50 87.60 L 88.80 77.50 L 97.50 67.90 L 106.70 58.50 L 116.20 49.80 L 125.90 41.60 L 135.80 34.00 L 146.00 26.90 L 154.90 21.40 L 163.80 16.20 L 172.90 11.50 L 182.20 7.30 L 191.60 3.40 L 201.10 0.00 L 201.80 3.40 L 203.10 6.80 L 204.90 10.10 L 207.50 13.30 L 210.30 16.20 L 213.70 18.90 L 217.60 21.50 L 222.20 24.10 L 231.90 28.10 L 243.40 31.30 L 251.40 32.70 L 259.90 33.60 L 269.00 34.00 L 278.00 33.60 L 286.50 32.70 L 294.50 31.30 L 305.90 28.20 L 315.60 24.20 L 320.10 21.70 L 324.10 19.10 L 327.50 16.30 L 330.40 13.50 L 332.90 10.30 L 334.80 7.00 L 336.10 3.70 L 336.90 0.30 Z" fill="#ffffff" fill-rule="evenodd" node-id="64" stroke="none" target-height="677" target-width="538" target-x="0" target-y="0"></path></mask></defs><path d="M 0.00 0.00 L 1024.00 0.00 L 1024.00 1024.00 L 0.00 1024.00 Z" fill="#ffffff" fill-rule="evenodd" node-id="70" stroke="none" target-height="1024" target-width="1024" target-x="0" target-y="0"></path><g node-id="115"><g node-id="116"><path d="M 1024.00 512.00 L 1023.70 528.30 L 1023.00 544.50 L 1021.70 560.60 L 1019.90 576.70 L 1017.60 592.60 L 1014.80 608.40 L 1011.60 624.20 L 1007.80 639.70 L 1003.60 655.20 L 998.90 670.40 L 993.70 685.60 L 988.00 700.50 L 981.90 715.30 L 975.30 729.80 L 968.30 744.20 L 960.80 758.40 L 952.90 772.30 L 944.60 785.90 L 935.80 799.40 L 926.50 812.60 L 916.90 825.40 L 906.80 838.00 L 896.30 850.30 L 885.40 862.30 L 874.00 874.00 L 862.30 885.40 L 850.30 896.30 L 838.00 906.80 L 825.40 916.90 L 812.60 926.50 L 799.40 935.80 L 785.90 944.60 L 772.30 952.90 L 758.40 960.80 L 744.20 968.30 L 729.80 975.30 L 715.30 981.90 L 700.50 988.00 L 685.60 993.70 L 670.40 998.90 L 655.20 1003.60 L 639.70 1007.80 L 624.20 1011.60 L 608.40 1014.80 L 592.60 1017.60 L 576.70 1019.90 L 560.60 1021.70 L 544.50 1023.00 L 528.30 1023.70 L 512.00 1024.00 L 495.70 1023.70 L 479.50 1023.00 L 463.40 1021.70 L 447.30 1019.90 L 431.40 1017.60 L 415.60 1014.80 L 399.80 1011.60 L 384.30 1007.80 L 368.80 1003.60 L 353.60 998.90 L 338.40 993.70 L 323.50 988.00 L 308.70 981.90 L 294.20 975.30 L 279.80 968.30 L 265.60 960.80 L 251.70 952.90 L 238.10 944.60 L 224.60 935.80 L 211.40 926.50 L 198.60 916.90 L 186.00 906.80 L 173.70 896.30 L 161.70 885.40 L 150.00 874.00 L 138.60 862.30 L 127.70 850.30 L 117.20 838.00 L 107.10 825.40 L 97.50 812.60 L 88.20 799.40 L 79.40 785.90 L 71.10 772.30 L 63.20 758.40 L 55.70 744.20 L 48.70 729.80 L 42.10 715.30 L 36.00 700.50 L 30.30 685.60 L 25.10 670.40 L 20.40 655.20 L 16.20 639.70 L 12.40 624.20 L 9.20 608.40 L 6.40 592.60 L 4.10 576.70 L 2.30 560.60 L 1.00 544.50 L 0.30 528.30 L 0.00 512.00 L 0.30 495.70 L 1.00 479.50 L 2.30 463.40 L 4.10 447.30 L 6.40 431.40 L 9.20 415.60 L 12.40 399.80 L 16.20 384.30 L 20.40 368.80 L 25.10 353.60 L 30.30 338.40 L 36.00 323.50 L 42.10 308.70 L 48.70 294.20 L 55.70 279.80 L 63.20 265.60 L 71.10 251.70 L 79.40 238.10 L 88.20 224.60 L 97.50 211.40 L 107.10 198.60 L 117.20 186.00 L 127.70 173.70 L 138.60 161.70 L 150.00 150.00 L 161.70 138.60 L 173.70 127.70 L 186.00 117.20 L 198.60 107.10 L 211.40 97.50 L 224.60 88.20 L 238.10 79.40 L 251.70 71.10 L 265.60 63.20 L 279.80 55.70 L 294.20 48.70 L 308.70 42.10 L 323.50 36.00 L 338.40 30.30 L 353.60 25.10 L 368.80 20.40 L 384.30 16.20 L 399.80 12.40 L 415.60 9.20 L 431.40 6.40 L 447.30 4.10 L 463.40 2.30 L 479.50 1.00 L 495.70 0.30 L 512.00 0.00 L 528.30 0.30 L 544.50 1.00 L 560.60 2.30 L 576.70 4.10 L 592.60 6.40 L 608.40 9.20 L 624.20 12.40 L 639.70 16.20 L 655.20 20.40 L 670.40 25.10 L 685.60 30.30 L 700.50 36.00 L 715.30 42.10 L 729.80 48.70 L 744.20 55.70 L 758.40 63.20 L 772.30 71.10 L 785.90 79.40 L 799.40 88.20 L 812.60 97.50 L 825.40 107.10 L 838.00 117.20 L 850.30 127.70 L 862.30 138.60 L 874.00 150.00 L 885.40 161.70 L 896.30 173.70 L 906.80 186.00 L 916.90 198.60 L 926.50 211.40 L 935.80 224.60 L 944.60 238.10 L 952.90 251.70 L 960.80 265.60 L 968.30 279.80 L 975.30 294.20 L 981.90 308.70 L 988.00 323.50 L 993.70 338.40 L 998.90 353.60 L 1003.60 368.80 L 1007.80 384.30 L 1011.60 399.80 L 1014.80 415.60 L 1017.60 431.40 L 1019.90 447.30 L 1021.70 463.40 L 1023.00 479.50 L 1023.70 495.70 L 1024.00 512.00 Z" fill="#ffae50" fill-opacity="0.2" fill-rule="evenodd" group-id="1,2" node-id="74" stroke="none" target-height="1024" target-width="1024" target-x="0" target-y="0"></path></g><g node-id="117"><g node-id="118"><path d="M 235.00 514.00 L 790.00 514.00 L 790.00 628.00 L 789.70 635.40 L 788.80 642.50 L 787.40 649.40 L 785.50 656.10 L 783.00 662.70 L 780.10 668.90 L 776.70 674.90 L 772.80 680.60 L 768.60 685.90 L 763.90 690.90 L 758.90 695.60 L 753.60 699.80 L 747.90 703.70 L 741.90 707.10 L 735.70 710.00 L 729.10 712.50 L 722.40 714.40 L 715.50 715.80 L 708.40 716.70 L 701.00 717.00 L 324.00 717.00 L 316.60 716.70 L 309.50 715.80 L 302.60 714.40 L 295.90 712.50 L 289.30 710.00 L 283.10 707.10 L 277.10 703.70 L 271.40 699.80 L 266.10 695.60 L 261.10 690.90 L 256.40 685.90 L 252.20 680.60 L 248.30 674.90 L 244.90 668.90 L 242.00 662.70 L 239.50 656.10 L 237.60 649.40 L 236.20 642.50 L 235.30 635.40 L 235.00 628.00 L 235.00 514.00 Z" fill="#110d2e" fill-rule="evenodd" group-id="1,3,4" id="矩形" node-id="16" stroke="none" target-height="203" target-width="555" target-x="235" target-y="514"></path><path d="M 820.00 456.50 L 819.80 466.80 L 819.10 476.90 L 817.90 486.90 L 816.30 496.80 L 814.30 506.50 L 811.90 516.10 L 808.40 527.50 L 804.30 538.70 L 799.70 549.60 L 794.50 560.30 L 788.70 570.80 L 782.40 581.00 L 775.70 590.90 L 768.40 600.60 L 760.60 610.00 L 752.30 619.10 L 743.70 627.80 L 734.60 636.20 L 725.10 644.20 L 715.10 652.00 L 704.60 659.40 L 694.00 666.30 L 682.90 672.80 L 671.50 679.00 L 659.70 684.70 L 647.50 690.10 L 635.10 694.90 L 622.50 699.30 L 609.50 703.20 L 596.20 706.60 L 582.60 709.60 L 569.00 712.10 L 555.20 714.00 L 541.00 715.40 L 526.70 716.20 L 512.00 716.50 L 497.30 716.20 L 483.00 715.40 L 468.80 714.00 L 455.00 712.10 L 441.40 709.60 L 427.80 706.60 L 414.50 703.20 L 401.50 699.30 L 388.90 694.90 L 376.50 690.10 L 364.30 684.70 L 352.50 679.00 L 341.10 672.80 L 330.00 666.30 L 319.40 659.40 L 308.90 652.00 L 298.90 644.20 L 289.40 636.20 L 280.30 627.80 L 271.70 619.10 L 263.40 610.00 L 255.60 600.60 L 248.30 590.90 L 241.60 581.00 L 235.30 570.80 L 229.50 560.30 L 224.30 549.60 L 219.70 538.70 L 215.60 527.50 L 212.10 516.10 L 209.70 506.50 L 207.70 496.80 L 206.10 486.90 L 204.90 476.90 L 204.30 466.80 L 204.00 456.50 L 204.30 446.20 L 204.90 436.10 L 206.10 426.10 L 207.70 416.20 L 209.70 406.50 L 212.10 396.90 L 215.60 385.50 L 219.70 374.30 L 224.30 363.40 L 229.50 352.70 L 235.30 342.20 L 241.60 332.00 L 248.30 322.10 L 255.60 312.40 L 263.40 303.00 L 271.70 293.90 L 280.30 285.20 L 289.40 276.80 L 298.90 268.80 L 308.90 261.00 L 319.40 253.60 L 330.00 246.70 L 341.10 240.20 L 352.50 234.00 L 364.30 228.30 L 376.50 222.90 L 388.90 218.10 L 401.50 213.70 L 414.50 209.80 L 427.80 206.40 L 441.40 203.40 L 455.00 200.90 L 468.80 199.00 L 483.00 197.60 L 497.30 196.80 L 512.00 196.50 L 526.70 196.80 L 541.00 197.60 L 555.20 199.00 L 569.00 200.90 L 582.60 203.40 L 596.20 206.40 L 609.50 209.80 L 622.50 213.70 L 635.10 218.10 L 647.50 222.90 L 659.70 228.30 L 671.50 234.00 L 682.90 240.20 L 694.00 246.70 L 704.60 253.60 L 715.10 261.00 L 725.10 268.80 L 734.60 276.80 L 743.70 285.20 L 752.30 293.90 L 760.60 303.00 L 768.40 312.40 L 775.70 322.10 L 782.40 332.00 L 788.70 342.20 L 794.50 352.70 L 799.70 363.40 L 804.30 374.30 L 808.40 385.50 L 811.90 396.90 L 814.30 406.50 L 816.30 416.20 L 817.90 426.10 L 819.10 436.10 L 819.70 446.20 L 820.00 456.50 Z" fill="#110d2e" fill-rule="evenodd" group-id="1,3,4" id="椭圆形" node-id="17" stroke="#979797" stroke-linecap="butt" stroke-width="1" target-height="520" target-width="616" target-x="204" target-y="196.5"></path><path d="M 275.40 629.80 L 278.60 628.00 L 281.30 625.90 L 283.70 623.50 L 285.70 620.80 L 287.40 617.90 L 288.70 614.70 L 289.70 611.30 L 290.30 607.70 L 290.30 600.30 L 288.80 592.30 L 285.90 584.40 L 281.30 576.30 L 277.50 571.30 L 273.30 566.80 L 268.80 562.80 L 263.90 559.20 L 258.90 556.30 L 253.80 554.00 L 245.90 551.70 L 238.30 550.80 L 234.40 551.00 L 230.80 551.50 L 227.30 552.50 L 223.90 553.90 L 220.80 555.70 L 218.10 557.80 L 215.70 560.20 L 213.70 562.90 L 212.00 565.90 L 210.70 569.00 L 209.70 572.40 L 209.10 576.00 L 209.10 583.40 L 210.60 591.40 L 213.50 599.30 L 218.10 607.40 L 221.90 612.50 L 226.10 617.00 L 230.60 621.00 L 235.50 624.50 L 240.50 627.40 L 245.60 629.70 L 253.50 632.00 L 261.10 632.90 L 265.00 632.70 L 268.60 632.20 L 272.10 631.20 L 275.40 629.80 Z" fill="#fbb4b4" fill-rule="evenodd" group-id="1,3,4" id="椭圆形备份-4" node-id="18" stroke="none" target-height="82.10004" target-width="81.19998" target-x="209.1" target-y="550.8"></path><path d="M 747.90 629.80 L 744.80 628.00 L 742.10 625.90 L 739.70 623.50 L 737.70 620.80 L 736.00 617.90 L 734.70 614.70 L 733.70 611.30 L 733.10 607.70 L 733.10 600.30 L 734.60 592.30 L 737.50 584.40 L 742.10 576.30 L 745.90 571.30 L 750.10 566.80 L 754.60 562.80 L 759.50 559.20 L 764.50 556.30 L 769.60 554.00 L 777.50 551.70 L 785.10 550.80 L 789.00 551.00 L 792.60 551.50 L 796.10 552.50 L 799.40 553.90 L 802.60 555.70 L 805.30 557.80 L 807.70 560.20 L 809.70 562.90 L 811.40 565.90 L 812.70 569.00 L 813.70 572.40 L 814.30 576.00 L 814.30 583.40 L 812.80 591.40 L 809.90 599.30 L 805.30 607.40 L 801.50 612.50 L 797.30 617.00 L 792.80 621.00 L 787.90 624.50 L 782.90 627.40 L 777.80 629.70 L 769.90 632.00 L 762.30 632.90 L 758.40 632.70 L 754.80 632.20 L 751.30 631.20 L 747.90 629.80 Z" fill="#fbb4b4" fill-rule="evenodd" group-id="1,3,4" id="椭圆形备份-12" node-id="19" stroke="none" target-height="82.10004" target-width="81.20001" target-x="733.1" target-y="550.8"></path><path d="M 512.00 781.00 L 523.70 781.30 L 535.20 782.20 L 546.60 783.80 L 557.90 785.90 L 569.00 788.70 L 579.90 792.00 L 579.20 795.40 L 577.90 798.80 L 576.10 802.10 L 573.50 805.30 L 570.70 808.20 L 567.30 810.90 L 563.40 813.60 L 558.80 816.10 L 549.10 820.10 L 537.60 823.30 L 529.60 824.70 L 521.10 825.60 L 512.00 826.00 L 502.90 825.60 L 494.40 824.70 L 486.40 823.30 L 474.90 820.10 L 465.20 816.10 L 460.60 813.60 L 456.70 810.90 L 453.30 808.20 L 450.50 805.30 L 447.90 802.10 L 446.10 798.80 L 444.80 795.40 L 444.10 792.00 L 455.00 788.70 L 466.10 785.90 L 477.40 783.80 L 488.80 782.20 L 500.30 781.30 L 512.00 781.00 Z" fill="#d38020" fill-rule="evenodd" group-id="1,3,4" id="形状结合" node-id="20" stroke="none" target-height="45" target-width="135.80002" target-x="444.1" target-y="781"></path><g node-id="119"><g node-id="124"><path d="M 465.00 712.00 L 559.00 712.00 L 559.00 837.00 L 465.00 837.00 Z" fill="#ffcaca" fill-rule="evenodd" group-id="1,3,4,5,10" node-id="87" stroke="none" target-height="125" target-width="94" target-x="465" target-y="712"></path></g><path d="M 591.00 717.00 L 590.70 720.90 L 590.00 724.60 L 588.70 728.30 L 587.00 731.90 L 584.80 735.20 L 579.30 741.70 L 575.80 744.80 L 570.80 748.40 L 565.10 751.80 L 558.70 754.90 L 552.00 757.50 L 544.80 759.80 L 537.00 761.60 L 529.10 762.90 L 520.70 763.70 L 512.00 764.00 L 503.30 763.70 L 494.90 762.90 L 487.00 761.60 L 479.20 759.80 L 472.00 757.50 L 465.30 754.90 L 458.90 751.80 L 453.20 748.40 L 448.20 744.80 L 444.70 741.70 L 441.70 738.50 L 439.20 735.20 L 437.00 731.90 L 435.30 728.30 L 434.00 724.60 L 433.30 720.90 L 433.00 717.00 L 433.30 713.10 L 434.00 709.40 L 435.30 705.70 L 437.00 702.10 L 439.20 698.80 L 441.70 695.50 L 444.70 692.30 L 448.20 689.20 L 453.20 685.60 L 458.90 682.20 L 465.30 679.10 L 472.00 676.50 L 479.20 674.20 L 487.00 672.40 L 494.90 671.10 L 503.30 670.30 L 512.00 670.00 L 520.70 670.30 L 529.10 671.10 L 537.00 672.40 L 544.80 674.20 L 552.00 676.50 L 558.70 679.10 L 565.10 682.20 L 570.80 685.60 L 575.80 689.20 L 579.30 692.30 L 584.80 698.80 L 587.00 702.10 L 588.70 705.70 L 590.00 709.40 L 590.70 713.10 L 591.00 717.00 Z" fill="#ec8484" fill-opacity="0.21490623" fill-rule="evenodd" group-id="1,3,4,5,11" node-id="92" stroke="none" target-height="94" target-width="158" target-x="433" target-y="670"></path></g><path d="M 767.00 524.00 L 766.70 534.70 L 765.90 545.20 L 764.50 555.50 L 762.70 565.60 L 760.30 575.60 L 757.40 585.50 L 754.00 595.10 L 750.20 604.60 L 745.90 613.90 L 741.10 622.90 L 735.90 631.80 L 730.30 640.40 L 724.30 648.70 L 717.80 656.80 L 711.00 664.70 L 703.80 672.30 L 696.30 679.50 L 688.40 686.50 L 680.10 693.20 L 671.50 699.60 L 662.60 705.60 L 653.50 711.20 L 644.00 716.50 L 634.30 721.50 L 624.10 726.10 L 613.90 730.30 L 603.50 734.10 L 592.70 737.50 L 581.70 740.50 L 570.50 743.10 L 559.20 745.20 L 547.70 746.80 L 536.00 748.00 L 524.10 748.70 L 512.00 749.00 L 499.90 748.70 L 488.00 748.00 L 476.30 746.80 L 464.80 745.20 L 453.50 743.10 L 442.30 740.50 L 431.30 737.50 L 420.50 734.10 L 410.10 730.30 L 399.90 726.10 L 389.70 721.50 L 380.00 716.50 L 370.50 711.20 L 361.40 705.60 L 352.50 699.60 L 343.90 693.20 L 335.60 686.50 L 327.70 679.50 L 320.20 672.30 L 313.00 664.70 L 306.20 656.80 L 299.70 648.70 L 293.70 640.40 L 288.10 631.80 L 282.90 622.90 L 278.10 613.90 L 273.80 604.60 L 270.00 595.10 L 266.60 585.50 L 263.70 575.60 L 261.30 565.60 L 259.50 555.50 L 258.10 545.20 L 257.30 534.70 L 257.00 524.00 L 257.30 513.30 L 258.10 502.80 L 259.50 492.50 L 261.30 482.40 L 263.70 472.40 L 266.60 462.50 L 270.00 452.90 L 273.80 443.40 L 278.10 434.10 L 282.90 425.10 L 288.10 416.20 L 293.70 407.60 L 299.70 399.30 L 306.20 391.20 L 313.00 383.30 L 320.20 375.70 L 327.70 368.50 L 335.60 361.50 L 343.90 354.80 L 352.50 348.40 L 361.40 342.40 L 370.50 336.80 L 380.00 331.50 L 389.70 326.50 L 399.90 321.90 L 410.10 317.70 L 420.50 313.90 L 431.30 310.50 L 442.30 307.50 L 453.50 304.90 L 464.80 302.80 L 476.30 301.20 L 488.00 300.00 L 499.90 299.30 L 512.00 299.00 L 524.10 299.30 L 536.00 300.00 L 547.70 301.20 L 559.20 302.80 L 570.50 304.90 L 581.70 307.50 L 592.70 310.50 L 603.50 313.90 L 613.90 317.70 L 624.10 321.90 L 634.30 326.50 L 644.00 331.50 L 653.50 336.80 L 662.60 342.40 L 671.50 348.40 L 680.10 354.80 L 688.40 361.50 L 696.30 368.50 L 703.80 375.70 L 711.00 383.30 L 717.80 391.20 L 724.30 399.30 L 730.30 407.60 L 735.90 416.20 L 741.10 425.10 L 745.90 434.10 L 750.20 443.40 L 754.00 452.90 L 757.40 462.50 L 760.30 472.40 L 762.70 482.40 L 764.50 492.50 L 765.90 502.80 L 766.70 513.30 L 767.00 524.00 Z" fill="#ffcaca" fill-rule="evenodd" group-id="1,3,4" id="椭圆形" node-id="26" stroke="none" target-height="450" target-width="510" target-x="257" target-y="299"></path><path d="M 502.00 594.00 L 502.00 620.00 L 502.20 622.60 L 502.90 624.90 L 503.90 627.10 L 505.30 629.00 L 507.00 630.70 L 508.90 632.10 L 511.10 633.10 L 513.40 633.80 L 516.00 634.00 L 522.80 634.00" fill="none" group-id="1,3,4" id="路径-5备份" node-id="27" stroke="#ff9494" stroke-linecap="round" stroke-width="8" target-height="40" target-width="20.799988" target-x="502" target-y="594"></path><path d="M 434.00 567.00 L 433.70 570.50 L 432.80 573.60 L 431.40 576.60 L 429.50 579.30 L 427.30 581.50 L 424.60 583.40 L 421.60 584.80 L 418.50 585.70 L 415.00 586.00 L 411.50 585.70 L 408.40 584.80 L 405.40 583.40 L 402.70 581.50 L 400.50 579.30 L 398.60 576.60 L 397.20 573.60 L 396.30 570.50 L 396.00 567.00 L 396.30 563.50 L 397.20 560.40 L 398.60 557.40 L 400.50 554.70 L 402.70 552.50 L 405.40 550.60 L 408.40 549.20 L 411.50 548.30 L 415.00 548.00 L 418.50 548.30 L 421.60 549.20 L 424.60 550.60 L 427.30 552.50 L 429.50 554.70 L 431.40 557.40 L 432.80 560.40 L 433.70 563.50 L 434.00 567.00 Z" fill="#110d2e" fill-rule="evenodd" group-id="1,3,4" id="椭圆形" node-id="28" stroke="none" target-height="38" target-width="38" target-x="396" target-y="548"></path><path d="M 628.00 567.00 L 627.70 570.50 L 626.80 573.60 L 625.40 576.60 L 623.50 579.30 L 621.30 581.50 L 618.60 583.40 L 615.60 584.80 L 612.50 585.70 L 609.00 586.00 L 605.50 585.70 L 602.40 584.80 L 599.40 583.40 L 596.70 581.50 L 594.50 579.30 L 592.60 576.60 L 591.20 573.60 L 590.30 570.50 L 590.00 567.00 L 590.30 563.50 L 591.20 560.40 L 592.60 557.40 L 594.50 554.70 L 596.70 552.50 L 599.40 550.60 L 602.40 549.20 L 605.50 548.30 L 609.00 548.00 L 612.50 548.30 L 615.60 549.20 L 618.60 550.60 L 621.30 552.50 L 623.50 554.70 L 625.40 557.40 L 626.80 560.40 L 627.70 563.50 L 628.00 567.00 Z" fill="#110d2e" fill-rule="evenodd" group-id="1,3,4" id="椭圆形备份-7" node-id="29" stroke="none" target-height="38" target-width="38" target-x="590" target-y="548"></path><path d="M 469.00 680.50 L 481.50 685.60 L 487.30 687.40 L 493.30 688.70 L 499.30 689.60 L 505.40 690.00 L 511.50 690.00 L 517.50 689.60 L 523.50 688.60 L 529.50 687.30 L 535.30 685.50 L 541.00 683.20 L 546.60 680.50" fill="none" group-id="1,3,4" id="路径-35" node-id="30" stroke="#ec8484" stroke-linecap="round" stroke-width="10" target-height="9.5" target-width="77.599976" target-x="469" target-y="680.5"></path><path d="M 380.00 519.60 L 391.00 517.00 L 400.30 515.20 L 408.10 514.30 L 414.50 514.00 L 420.90 514.30 L 428.70 515.20 L 438.30 516.90 L 449.80 519.60" fill="none" group-id="1,3,4" id="路径-4备份" node-id="31" stroke="#110d2e" stroke-linecap="round" stroke-width="6" target-height="5.5999756" target-width="69.79999" target-x="380" target-y="514"></path><g node-id="120"><path d="M 643.80 519.60 L 632.70 517.00 L 623.40 515.20 L 615.70 514.30 L 609.30 514.00 L 602.90 514.30 L 595.00 515.20 L 585.50 516.90 L 574.00 519.60" fill="none" group-id="1,3,4,6" id="路径-4备份-2" node-id="32" stroke="#110d2e" stroke-linecap="round" stroke-width="6" target-height="5.5999756" target-width="69.79999" target-x="574" target-y="514"></path></g><g node-id="121"><g node-id="126"><path d="M 579.90 792.00 L 589.40 795.50 L 598.80 799.30 L 608.10 803.60 L 617.20 808.30 L 626.10 813.40 L 635.00 819.00 L 645.20 826.10 L 655.10 833.70 L 664.80 841.90 L 674.30 850.60 L 683.50 859.90 L 692.20 869.50 L 700.50 879.60 L 708.60 890.20 L 716.40 901.30 L 723.80 913.00 L 730.70 924.70 L 737.30 936.90 L 743.40 949.60 L 749.20 962.60 L 754.60 976.10 L 759.40 989.70 L 763.80 1003.60 L 767.70 1017.80 L 771.10 1032.50 L 774.10 1047.50 L 776.60 1062.40 L 778.50 1077.60 L 779.90 1093.10 L 780.70 1108.90 L 781.00 1125.00 L 780.80 1139.30 L 780.10 1153.40 L 779.00 1167.30 L 777.50 1180.90 L 775.50 1194.30 L 773.10 1207.80 L 770.40 1221.00 L 767.20 1233.90 L 763.70 1246.50 L 759.90 1258.90 L 755.50 1271.20 L 750.90 1283.30 L 745.90 1294.90 L 740.70 1306.30 L 735.10 1317.30 L 729.00 1328.30 L 722.70 1338.80 L 716.20 1349.00 L 709.30 1358.80 L 702.20 1368.20 L 694.70 1377.50 L 687.00 1386.30 L 679.00 1394.70 L 670.80 1402.70 L 662.40 1410.30 L 653.60 1417.50 L 644.70 1424.30 L 635.50 1430.70 L 626.20 1436.50 L 616.70 1442.00 L 606.90 1447.00 L 597.00 1451.50 L 586.90 1455.50 L 576.60 1459.00 L 566.20 1462.00 L 555.70 1464.50 L 545.00 1466.40 L 534.20 1467.80 L 523.20 1468.70 L 512.00 1469.00 L 500.80 1468.70 L 489.80 1467.80 L 479.00 1466.40 L 468.30 1464.50 L 457.80 1462.00 L 447.40 1459.00 L 437.10 1455.50 L 427.00 1451.50 L 417.10 1447.00 L 407.30 1442.00 L 397.80 1436.50 L 388.50 1430.70 L 379.30 1424.30 L 370.40 1417.50 L 361.60 1410.30 L 353.20 1402.70 L 345.00 1394.70 L 337.00 1386.30 L 329.30 1377.50 L 321.80 1368.20 L 314.70 1358.80 L 307.80 1349.00 L 301.30 1338.80 L 295.00 1328.30 L 288.90 1317.30 L 283.30 1306.30 L 278.10 1294.90 L 273.10 1283.30 L 268.50 1271.20 L 264.10 1258.90 L 260.30 1246.50 L 256.80 1233.90 L 253.60 1221.00 L 250.90 1207.80 L 248.50 1194.30 L 246.50 1180.90 L 245.00 1167.30 L 243.90 1153.40 L 243.20 1139.30 L 243.00 1125.00 L 243.30 1108.90 L 244.10 1093.10 L 245.50 1077.60 L 247.40 1062.40 L 249.90 1047.50 L 252.90 1032.50 L 256.30 1017.80 L 260.20 1003.60 L 264.60 989.70 L 269.40 976.10 L 274.80 962.60 L 280.60 949.60 L 286.70 936.90 L 293.30 924.70 L 300.20 913.00 L 307.60 901.30 L 315.40 890.20 L 323.50 879.60 L 331.80 869.50 L 340.50 859.90 L 349.70 850.60 L 359.20 841.90 L 368.90 833.70 L 378.80 826.10 L 389.00 819.00 L 397.90 813.40 L 406.80 808.30 L 415.90 803.60 L 425.20 799.30 L 434.60 795.50 L 444.10 792.00 L 444.80 795.50 L 446.10 798.80 L 447.90 802.10 L 450.50 805.30 L 453.30 808.20 L 456.70 811.00 L 460.60 813.60 L 465.20 816.10 L 474.90 820.20 L 486.40 823.40 L 494.40 824.80 L 502.90 825.70 L 512.00 826.00 L 521.00 825.70 L 529.50 824.80 L 537.50 823.40 L 548.90 820.20 L 558.60 816.20 L 563.10 813.70 L 567.10 811.10 L 570.50 808.40 L 573.40 805.50 L 575.90 802.30 L 577.80 799.10 L 579.10 795.80 L 579.90 792.40 Z" fill="#ffae50" fill-rule="evenodd" group-id="1,3,4,7,12" node-id="108" stroke="none" target-height="677" target-width="538" target-x="243" target-y="792"></path></g><path d="M 595.00 794.50 L 594.70 798.10 L 593.90 801.60 L 592.60 805.00 L 590.80 808.40 L 588.50 811.50 L 582.70 817.50 L 579.00 820.50 L 573.80 823.90 L 567.80 827.00 L 561.00 830.00 L 554.00 832.40 L 546.50 834.50 L 538.20 836.20 L 529.90 837.40 L 521.20 838.20 L 512.00 838.40 L 502.80 838.20 L 494.10 837.40 L 485.80 836.20 L 477.50 834.50 L 470.00 832.40 L 463.00 830.00 L 456.20 827.00 L 450.20 823.90 L 445.00 820.50 L 441.30 817.50 L 438.10 814.60 L 433.20 808.40 L 431.40 805.00 L 430.10 801.60 L 429.30 798.10 L 429.00 794.50 L 429.30 790.90 L 430.10 787.40 L 431.40 784.00 L 433.20 780.60 L 435.50 777.50 L 438.10 774.40 L 441.30 771.50 L 445.00 768.50 L 450.20 765.10 L 456.20 762.00 L 463.00 759.00 L 470.00 756.60 L 477.50 754.50 L 485.80 752.80 L 494.10 751.60 L 502.80 750.80 L 512.00 750.60 L 521.20 750.80 L 529.90 751.60 L 538.20 752.80 L 546.50 754.50 L 554.00 756.60 L 561.00 759.00 L 567.80 762.00 L 573.80 765.10 L 579.00 768.50 L 582.70 771.50 L 585.90 774.40 L 588.50 777.50 L 590.80 780.60 L 592.60 784.00 L 593.90 787.40 L 594.70 790.90 L 595.00 794.50 Z" fill="none" group-id="1,3,4,7,13" node-id="113" stroke-linecap="butt" stroke-width="8" target-height="87.80005" target-width="166" target-x="429" target-y="750.6"></path></g><g node-id="122"><path d="M 379.50 953.50 L 353.50 1039.60" fill="none" group-id="1,3,4,8" id="路径-6" node-id="38" stroke="#000000" stroke-linecap="round" stroke-opacity="0.10692633" stroke-width="7" target-height="86.099976" target-width="26" target-x="353.5" target-y="953.5"></path></g><g node-id="123"><path d="M 644.50 953.50 L 670.50 1039.60" fill="none" group-id="1,3,4,9" id="路径-6备份" node-id="39" stroke="#000000" stroke-linecap="round" stroke-opacity="0.10692633" stroke-width="7" target-height="86.099976" target-width="26" target-x="644.5" target-y="953.5"></path></g><path d="M 559.00 234.30 L 589.20 253.30 L 615.40 270.40 L 638.00 285.80 L 737.30 315.10 L 796.70 424.00 L 765.70 557.10 L 763.20 546.30 L 760.10 535.50 L 756.60 524.80 L 752.60 514.10 L 748.00 503.50 L 743.00 492.80 L 737.30 482.20 L 733.30 475.50 L 728.90 469.30 L 724.10 463.50 L 718.80 458.20 L 713.20 453.20 L 707.20 448.70 L 701.00 444.60 L 694.40 441.00 L 687.60 438.00 L 680.60 435.40 L 673.30 433.40 L 665.90 431.90 L 511.40 431.20 L 356.80 431.90 L 349.50 433.30 L 342.30 435.30 L 335.40 437.90 L 328.60 440.90 L 322.10 444.40 L 315.90 448.40 L 310.00 452.80 L 304.40 457.70 L 299.20 463.00 L 294.30 468.60 L 289.90 474.70 L 285.90 481.20 L 279.70 492.80 L 274.70 503.50 L 270.10 514.10 L 266.10 524.80 L 262.60 535.50 L 259.50 546.30 L 257.00 557.10 L 226.00 424.00 L 285.40 315.10 L 384.70 285.80 L 407.30 270.40 L 433.50 253.30 L 463.70 234.30 L 511.40 248.40 Z" fill="#110d2e" fill-rule="evenodd" group-id="1,3,4" id="形状结合" node-id="40" stroke="none" target-height="322.8" target-width="570.7" target-x="226" target-y="234.3"></path><path d="M 589.00 371.00 L 609.00 434.00 L 569.00 434.00 Z" fill="#ffcaca" fill-rule="evenodd" group-id="1,3,4" id="三角形" node-id="41" stroke="none" target-height="63" target-width="40" target-x="569" target-y="371"></path><path d="M 664.00 396.00 L 684.00 441.00 L 644.00 441.00 Z" fill="#ffcaca" fill-rule="evenodd" group-id="1,3,4" id="三角形备份" node-id="42" stroke="none" target-height="45" target-width="40" target-x="644" target-y="396"></path><path d="M 369.00 396.00 L 389.00 441.00 L 349.00 441.00 Z" fill="#ffcaca" fill-rule="evenodd" group-id="1,3,4" id="三角形备份-2" node-id="43" stroke="none" target-height="45" target-width="40" target-x="349" target-y="396"></path></g></g></g></svg>
