<?xml version="1.0" standalone="no"?><!DOCTYPE svg PUBLIC "-//W3C//DTD SVG 1.1//EN" "http://www.w3.org/Graphics/SVG/1.1/DTD/svg11.dtd"><svg height="1024" node-id="1" sillyvg="true" template-height="1024" template-width="1024" version="1.1" viewBox="0 0 1024 1024" width="1024" xmlns="http://www.w3.org/2000/svg" xmlns:xlink="http://www.w3.org/1999/xlink"><defs node-id="47"><mask height="839.19385" id="mask-2" maskUnits="userSpaceOnUse" node-id="11" width="1538.4004" x="4508.8" y="-135.06787"><path d="M 4962.00 796.80 L 4978.30 796.60 L 4994.50 795.80 L 5010.60 794.50 L 5026.70 792.70 L 5042.60 790.50 L 5058.40 787.70 L 5074.20 784.40 L 5089.70 780.70 L 5105.20 776.40 L 5120.40 771.70 L 5135.60 766.50 L 5150.50 760.90 L 5165.30 754.80 L 5179.80 748.20 L 5194.20 741.10 L 5208.40 733.70 L 5222.30 725.80 L 5235.90 717.40 L 5249.40 708.60 L 5262.60 699.30 L 5275.40 689.70 L 5288.00 679.60 L 5300.30 669.20 L 5312.30 658.20 L 5324.00 646.90 L 5335.40 635.20 L 5346.30 623.10 L 5356.80 610.90 L 5366.90 598.30 L 5376.50 585.40 L 5385.80 572.20 L 5394.60 558.80 L 5402.90 545.10 L 5410.80 531.20 L 5418.30 517.10 L 5425.30 502.70 L 5431.90 488.10 L 5438.00 473.40 L 5443.70 458.40 L 5448.90 443.30 L 5453.60 428.00 L 5457.80 412.60 L 5461.60 397.00 L 5464.80 381.30 L 5467.60 365.40 L 5469.90 349.50 L 5471.70 333.50 L 5473.00 317.40 L 5473.70 301.20 L 5474.00 284.80 L 5473.70 268.50 L 5473.00 252.30 L 5471.70 236.20 L 5469.90 220.20 L 5467.60 204.30 L 5464.80 188.40 L 5461.60 172.70 L 5457.80 157.10 L 5453.60 141.70 L 5448.90 126.40 L 5443.70 111.30 L 5438.00 96.30 L 5431.90 81.60 L 5425.30 67.00 L 5418.30 52.60 L 5410.80 38.50 L 5402.90 24.60 L 5394.60 10.90 L 5385.80 -2.50 L 5376.50 -15.70 L 5366.90 -28.60 L 5356.80 -41.20 L 5346.30 -53.50 L 5335.40 -65.50 L 5324.00 -77.20 L 5312.30 -88.60 L 5300.30 -99.50 L 5288.00 -110.00 L 5275.40 -120.00 L 5262.60 -129.70 L 5249.40 -138.90 L 5235.90 -147.70 L 5222.30 -156.10 L 5208.40 -164.00 L 5194.20 -171.50 L 5179.80 -178.50 L 5165.30 -185.10 L 5150.50 -191.20 L 5135.60 -196.80 L 5120.40 -202.00 L 5105.20 -206.70 L 5089.70 -211.00 L 5074.20 -214.70 L 5058.40 -218.00 L 5042.60 -220.80 L 5026.70 -223.10 L 5010.60 -224.80 L 4994.50 -226.10 L 4978.30 -226.90 L 4962.00 -227.20 L 4945.70 -226.90 L 4929.50 -226.10 L 4913.40 -224.80 L 4897.30 -223.10 L 4881.40 -220.80 L 4865.60 -218.00 L 4849.80 -214.70 L 4834.30 -211.00 L 4818.80 -206.70 L 4803.60 -202.00 L 4788.40 -196.80 L 4773.50 -191.20 L 4758.70 -185.10 L 4744.20 -178.50 L 4729.80 -171.50 L 4715.60 -164.00 L 4701.70 -156.10 L 4688.10 -147.70 L 4674.60 -138.90 L 4661.40 -129.70 L 4648.60 -120.00 L 4636.00 -110.00 L 4623.70 -99.50 L 4611.70 -88.60 L 4600.00 -77.20 L 4588.60 -65.50 L 4577.70 -53.50 L 4567.20 -41.20 L 4557.10 -28.60 L 4547.50 -15.70 L 4538.20 -2.50 L 4529.40 10.90 L 4521.10 24.60 L 4513.20 38.50 L 4505.70 52.60 L 4498.70 67.00 L 4492.10 81.60 L 4486.00 96.30 L 4480.30 111.30 L 4475.10 126.40 L 4470.40 141.70 L 4466.20 157.10 L 4462.40 172.70 L 4459.20 188.40 L 4456.40 204.30 L 4454.10 220.20 L 4452.30 236.20 L 4451.00 252.30 L 4450.30 268.50 L 4450.00 284.80 L 4450.30 301.20 L 4451.00 317.40 L 4452.30 333.50 L 4454.10 349.50 L 4456.40 365.40 L 4459.20 381.30 L 4462.40 397.00 L 4466.20 412.60 L 4470.40 428.00 L 4475.10 443.30 L 4480.30 458.40 L 4486.00 473.40 L 4492.10 488.10 L 4498.70 502.70 L 4505.70 517.10 L 4513.20 531.20 L 4521.10 545.10 L 4529.40 558.80 L 4538.20 572.20 L 4547.50 585.40 L 4557.10 598.30 L 4567.20 610.90 L 4577.70 623.10 L 4588.60 635.20 L 4600.00 646.90 L 4611.70 658.20 L 4623.70 669.20 L 4636.00 679.60 L 4648.60 689.70 L 4661.40 699.30 L 4674.60 708.60 L 4688.10 717.40 L 4701.70 725.80 L 4715.60 733.70 L 4729.80 741.10 L 4744.20 748.20 L 4758.70 754.80 L 4773.50 760.90 L 4788.40 766.50 L 4803.60 771.70 L 4818.80 776.40 L 4834.30 780.70 L 4849.80 784.40 L 4865.60 787.70 L 4881.40 790.50 L 4897.30 792.70 L 4913.40 794.50 L 4929.50 795.80 L 4945.70 796.60 L 4962.00 796.80 Z" fill="#ffffff" fill-rule="evenodd" node-id="52" stroke="none" target-height="1024" target-width="1024" target-x="4450" target-y="-227.2"></path></mask><mask height="112.8" id="mask-4" maskUnits="userSpaceOnUse" node-id="23" width="189.6" x="-47.8" y="-51.4"><path d="M 0.00 0.00 L 94.00 0.00 L 94.00 133.00 L 0.00 133.00 Z" fill="#ffffff" fill-rule="evenodd" node-id="59" stroke="none" target-height="133" target-width="94" target-x="0" target-y="0"></path></mask><mask height="85.15468" id="mask-6" maskUnits="userSpaceOnUse" node-id="38" width="112.80002" x="212.6" y="-14.05846"><path d="M 613.00 344.00 L 612.70 355.20 L 611.80 366.20 L 610.40 377.00 L 608.50 387.70 L 606.00 398.20 L 603.00 408.60 L 599.50 418.90 L 595.50 429.00 L 591.00 438.90 L 586.00 448.70 L 580.50 458.20 L 574.70 467.50 L 568.30 476.70 L 561.50 485.60 L 554.30 494.40 L 546.70 502.80 L 538.70 511.00 L 530.30 519.00 L 521.50 526.70 L 512.20 534.20 L 502.80 541.30 L 493.00 548.20 L 482.80 554.70 L 472.30 561.00 L 461.30 567.10 L 450.30 572.70 L 438.90 577.90 L 427.30 582.90 L 415.20 587.50 L 402.90 591.90 L 390.50 595.70 L 377.90 599.20 L 365.00 602.40 L 351.80 605.10 L 338.30 607.50 L 324.90 609.50 L 311.30 611.00 L 297.40 612.10 L 283.30 612.80 L 269.00 613.00 L 254.70 612.80 L 240.60 612.10 L 226.70 611.00 L 213.10 609.50 L 199.70 607.50 L 186.20 605.10 L 173.00 602.40 L 160.10 599.20 L 147.50 595.70 L 135.10 591.90 L 122.80 587.50 L 110.70 582.90 L 99.10 577.90 L 87.70 572.70 L 76.70 567.10 L 65.70 561.00 L 55.20 554.70 L 45.00 548.20 L 35.20 541.30 L 25.80 534.20 L 16.50 526.70 L 7.70 519.00 L -0.70 511.00 L -8.70 502.80 L -16.30 494.40 L -23.50 485.60 L -30.30 476.70 L -36.70 467.50 L -42.50 458.20 L -48.00 448.70 L -53.00 438.90 L -57.50 429.00 L -61.50 418.90 L -65.00 408.60 L -68.00 398.20 L -70.50 387.70 L -72.40 377.00 L -73.80 366.20 L -74.70 355.20 L -75.00 344.00 L -74.70 332.80 L -73.80 321.80 L -72.40 311.00 L -70.50 300.30 L -68.00 289.80 L -65.00 279.40 L -61.50 269.10 L -57.50 259.00 L -53.00 249.10 L -48.00 239.30 L -42.50 229.80 L -36.70 220.50 L -30.30 211.30 L -23.50 202.40 L -16.30 193.60 L -8.70 185.20 L -0.70 177.00 L 7.70 169.00 L 16.50 161.30 L 25.80 153.80 L 35.20 146.70 L 45.00 139.80 L 55.20 133.30 L 65.70 127.00 L 76.70 120.90 L 87.70 115.30 L 99.10 110.10 L 110.70 105.10 L 122.80 100.50 L 135.10 96.10 L 147.50 92.30 L 160.10 88.80 L 173.00 85.60 L 186.20 82.90 L 199.70 80.50 L 213.10 78.50 L 226.70 77.00 L 240.60 75.90 L 254.70 75.20 L 269.00 75.00 L 283.30 75.20 L 297.40 75.90 L 311.30 77.00 L 324.90 78.50 L 338.30 80.50 L 351.80 82.90 L 365.00 85.60 L 377.90 88.80 L 390.50 92.30 L 402.90 96.10 L 415.20 100.50 L 427.30 105.10 L 438.90 110.10 L 450.30 115.30 L 461.30 120.90 L 472.30 127.00 L 482.80 133.30 L 493.00 139.80 L 502.80 146.70 L 512.20 153.80 L 521.50 161.30 L 530.30 169.00 L 538.70 177.00 L 546.70 185.20 L 554.30 193.60 L 561.50 202.40 L 568.30 211.30 L 574.70 220.50 L 580.50 229.80 L 586.00 239.30 L 591.00 249.10 L 595.50 259.00 L 599.50 269.10 L 603.00 279.40 L 606.00 289.80 L 608.50 300.30 L 610.40 311.00 L 611.80 321.80 L 612.70 332.80 L 613.00 344.00 Z" fill="#ffffff" fill-rule="evenodd" node-id="66" stroke="none" target-height="538" target-width="688" target-x="-75" target-y="75"></path></mask></defs><path d="M 0.00 0.00 L 1024.00 0.00 L 1024.00 1024.00 L 0.00 1024.00 Z" fill="#ffffff" fill-rule="evenodd" node-id="72" stroke="none" target-height="1024" target-width="1024" target-x="0" target-y="0"></path><g node-id="128"><g node-id="129"><path d="M 1024.00 512.00 L 1023.70 528.30 L 1023.00 544.50 L 1021.70 560.60 L 1019.90 576.70 L 1017.60 592.60 L 1014.80 608.40 L 1011.60 624.20 L 1007.80 639.70 L 1003.60 655.20 L 998.90 670.40 L 993.70 685.60 L 988.00 700.50 L 981.90 715.30 L 975.30 729.80 L 968.30 744.20 L 960.80 758.40 L 952.90 772.30 L 944.60 785.90 L 935.80 799.40 L 926.50 812.60 L 916.90 825.40 L 906.80 838.00 L 896.30 850.30 L 885.40 862.30 L 874.00 874.00 L 862.30 885.40 L 850.30 896.30 L 838.00 906.80 L 825.40 916.90 L 812.60 926.50 L 799.40 935.80 L 785.90 944.60 L 772.30 952.90 L 758.40 960.80 L 744.20 968.30 L 729.80 975.30 L 715.30 981.90 L 700.50 988.00 L 685.60 993.70 L 670.40 998.90 L 655.20 1003.60 L 639.70 1007.80 L 624.20 1011.60 L 608.40 1014.80 L 592.60 1017.60 L 576.70 1019.90 L 560.60 1021.70 L 544.50 1023.00 L 528.30 1023.70 L 512.00 1024.00 L 495.70 1023.70 L 479.50 1023.00 L 463.40 1021.70 L 447.30 1019.90 L 431.40 1017.60 L 415.60 1014.80 L 399.80 1011.60 L 384.30 1007.80 L 368.80 1003.60 L 353.60 998.90 L 338.40 993.70 L 323.50 988.00 L 308.70 981.90 L 294.20 975.30 L 279.80 968.30 L 265.60 960.80 L 251.70 952.90 L 238.10 944.60 L 224.60 935.80 L 211.40 926.50 L 198.60 916.90 L 186.00 906.80 L 173.70 896.30 L 161.70 885.40 L 150.00 874.00 L 138.60 862.30 L 127.70 850.30 L 117.20 838.00 L 107.10 825.40 L 97.50 812.60 L 88.20 799.40 L 79.40 785.90 L 71.10 772.30 L 63.20 758.40 L 55.70 744.20 L 48.70 729.80 L 42.10 715.30 L 36.00 700.50 L 30.30 685.60 L 25.10 670.40 L 20.40 655.20 L 16.20 639.70 L 12.40 624.20 L 9.20 608.40 L 6.40 592.60 L 4.10 576.70 L 2.30 560.60 L 1.00 544.50 L 0.30 528.30 L 0.00 512.00 L 0.30 495.70 L 1.00 479.50 L 2.30 463.40 L 4.10 447.30 L 6.40 431.40 L 9.20 415.60 L 12.40 399.80 L 16.20 384.30 L 20.40 368.80 L 25.10 353.60 L 30.30 338.40 L 36.00 323.50 L 42.10 308.70 L 48.70 294.20 L 55.70 279.80 L 63.20 265.60 L 71.10 251.70 L 79.40 238.10 L 88.20 224.60 L 97.50 211.40 L 107.10 198.60 L 117.20 186.00 L 127.70 173.70 L 138.60 161.70 L 150.00 150.00 L 161.70 138.60 L 173.70 127.70 L 186.00 117.20 L 198.60 107.10 L 211.40 97.50 L 224.60 88.20 L 238.10 79.40 L 251.70 71.10 L 265.60 63.20 L 279.80 55.70 L 294.20 48.70 L 308.70 42.10 L 323.50 36.00 L 338.40 30.30 L 353.60 25.10 L 368.80 20.40 L 384.30 16.20 L 399.80 12.40 L 415.60 9.20 L 431.40 6.40 L 447.30 4.10 L 463.40 2.30 L 479.50 1.00 L 495.70 0.30 L 512.00 0.00 L 528.30 0.30 L 544.50 1.00 L 560.60 2.30 L 576.70 4.10 L 592.60 6.40 L 608.40 9.20 L 624.20 12.40 L 639.70 16.20 L 655.20 20.40 L 670.40 25.10 L 685.60 30.30 L 700.50 36.00 L 715.30 42.10 L 729.80 48.70 L 744.20 55.70 L 758.40 63.20 L 772.30 71.10 L 785.90 79.40 L 799.40 88.20 L 812.60 97.50 L 825.40 107.10 L 838.00 117.20 L 850.30 127.70 L 862.30 138.60 L 874.00 150.00 L 885.40 161.70 L 896.30 173.70 L 906.80 186.00 L 916.90 198.60 L 926.50 211.40 L 935.80 224.60 L 944.60 238.10 L 952.90 251.70 L 960.80 265.60 L 968.30 279.80 L 975.30 294.20 L 981.90 308.70 L 988.00 323.50 L 993.70 338.40 L 998.90 353.60 L 1003.60 368.80 L 1007.80 384.30 L 1011.60 399.80 L 1014.80 415.60 L 1017.60 431.40 L 1019.90 447.30 L 1021.70 463.40 L 1023.00 479.50 L 1023.70 495.70 L 1024.00 512.00 Z" fill="#cc5553" fill-opacity="0.2" fill-rule="evenodd" group-id="1,2" node-id="76" stroke="none" target-height="1024" target-width="1024" target-x="0" target-y="0"></path></g><g node-id="130"><g node-id="131"><path d="M 437.90 230.80 L 428.60 227.30 L 419.70 224.60 L 411.00 222.60 L 402.60 221.20 L 394.40 220.40 L 386.40 220.20 L 378.70 220.60 L 371.10 221.60 L 363.60 223.20 L 356.20 225.30 L 349.00 228.00 L 341.80 231.40 L 334.70 235.40 L 327.60 240.00 L 320.60 245.30 L 313.50 251.40 L 306.50 258.30 L 299.50 266.00 L 292.60 274.60 L 285.60 284.20 L 278.60 294.80 L 271.70 306.50 L 264.80 319.40 L 257.90 333.60 L 251.10 349.10 L 244.30 366.00 L 237.60 384.40 L 230.90 404.40 L 224.40 426.10 L 218.00 449.60 L 217.00 457.80 L 215.50 466.90 L 213.40 477.00 L 209.50 492.20 L 204.70 508.90 L 182.50 580.60 L 177.10 599.30 L 172.20 617.80 L 169.30 630.20 L 164.80 654.00 L 163.30 665.80 L 162.30 677.10 L 162.00 687.90 L 162.20 696.00 L 162.90 703.80 L 164.00 711.10 L 165.50 718.10 L 167.10 723.70 L 169.10 728.90 L 171.40 733.90 L 174.00 738.70 L 177.00 743.30 L 178.30 744.40 L 181.00 745.90 L 186.20 747.90 L 194.40 750.40 L 206.30 753.40 L 235.00 759.40 L 251.50 762.40 L 288.80 768.30 L 308.70 771.10 L 349.00 775.90 L 388.40 779.40 L 407.30 780.50 L 424.50 781.10 L 435.80 781.20 L 454.90 780.60 L 464.00 779.90 L 471.40 778.80 L 477.40 777.60 L 482.00 776.10 L 485.40 774.60 L 487.80 773.00 L 489.50 771.40 L 492.00 767.60 L 494.40 762.90 L 496.70 757.00 L 498.80 749.70 L 500.60 740.90 L 502.10 730.30 L 503.20 717.70 L 503.90 702.80 L 504.00 685.30 L 503.50 665.00 L 502.20 641.60 L 500.10 614.70 L 497.00 584.00 L 492.80 549.10 L 487.50 509.70 L 480.80 465.40 L 472.60 415.70 L 462.80 360.40 L 451.30 298.90 L 437.90 230.80 Z" fill="#110d2e" fill-rule="evenodd" group-id="1,3,4" id="路径-2" node-id="16" stroke="none" target-height="561" target-width="342" target-x="162" target-y="220.2"></path><path d="M 635.10 220.40 L 643.20 221.40 L 651.30 222.90 L 659.20 225.00 L 666.90 227.70 L 674.60 230.90 L 682.20 234.70 L 689.70 239.00 L 697.20 244.00 L 704.60 249.60 L 711.90 256.00 L 719.20 263.00 L 726.50 270.80 L 733.80 279.40 L 741.00 288.90 L 748.20 299.30 L 755.40 310.60 L 762.50 323.00 L 769.60 336.50 L 776.60 351.10 L 783.60 366.90 L 790.50 384.00 L 797.30 402.50 L 804.00 422.40 L 810.50 443.70 L 818.60 471.90 L 824.80 495.40 L 830.20 517.50 L 834.20 535.60 L 837.40 552.50 L 839.50 566.10 L 841.00 578.80 L 841.90 588.90 L 842.20 598.40 L 842.20 606.00 L 840.80 630.30 L 840.70 635.70 L 841.00 641.50 L 841.80 647.40 L 843.20 654.50 L 845.20 662.00 L 848.30 671.30 L 859.30 699.20 L 860.60 704.10 L 861.20 708.80 L 861.30 713.20 L 860.80 717.50 L 859.80 721.60 L 858.20 725.60 L 856.10 729.50 L 853.20 733.40 L 849.70 737.20 L 845.40 740.90 L 840.20 744.70 L 834.00 748.40 L 826.70 752.10 L 818.20 755.70 L 808.30 759.20 L 796.80 762.60 L 783.70 765.80 L 768.70 768.90 L 751.70 771.80 L 732.40 774.30 L 710.80 776.60 L 686.60 778.60 L 659.60 780.10 L 629.60 781.20 L 596.40 781.80 L 559.70 781.80 L 519.40 781.20" fill="#110d2e" fill-rule="evenodd" group-id="1,3,4" id="路径-3" node-id="17" stroke="none" target-height="561.4" target-width="341.89996" target-x="519.4" target-y="220.4"></path><path d="M 275.40 629.80 L 278.60 628.00 L 281.30 625.90 L 283.70 623.50 L 285.70 620.80 L 287.40 617.90 L 288.70 614.70 L 289.70 611.30 L 290.30 607.70 L 290.30 600.30 L 288.80 592.30 L 285.90 584.40 L 281.30 576.30 L 277.50 571.30 L 273.30 566.80 L 268.80 562.80 L 263.90 559.20 L 258.90 556.30 L 253.80 554.00 L 245.90 551.70 L 238.30 550.80 L 234.40 551.00 L 230.80 551.50 L 227.30 552.50 L 223.90 553.90 L 220.80 555.70 L 218.10 557.80 L 215.70 560.20 L 213.70 562.90 L 212.00 565.90 L 210.70 569.00 L 209.70 572.40 L 209.10 576.00 L 209.10 583.40 L 210.60 591.40 L 213.50 599.30 L 218.10 607.40 L 221.90 612.50 L 226.10 617.00 L 230.60 621.00 L 235.50 624.50 L 240.50 627.40 L 245.60 629.70 L 253.50 632.00 L 261.10 632.90 L 265.00 632.70 L 268.60 632.20 L 272.10 631.20 L 275.40 629.80 Z" fill="#fbb4b4" fill-rule="evenodd" group-id="1,3,4" id="椭圆形备份-4" node-id="18" stroke="none" target-height="82.10004" target-width="81.19998" target-x="209.1" target-y="550.8"></path><path d="M 747.90 629.80 L 744.80 628.00 L 742.10 625.90 L 739.70 623.50 L 737.70 620.80 L 736.00 617.90 L 734.70 614.70 L 733.70 611.30 L 733.10 607.70 L 733.10 600.30 L 734.60 592.30 L 737.50 584.40 L 742.10 576.30 L 745.90 571.30 L 750.10 566.80 L 754.60 562.80 L 759.50 559.20 L 764.50 556.30 L 769.60 554.00 L 777.50 551.70 L 785.10 550.80 L 789.00 551.00 L 792.60 551.50 L 796.10 552.50 L 799.40 553.90 L 802.60 555.70 L 805.30 557.80 L 807.70 560.20 L 809.70 562.90 L 811.40 565.90 L 812.70 569.00 L 813.70 572.40 L 814.30 576.00 L 814.30 583.40 L 812.80 591.40 L 809.90 599.30 L 805.30 607.40 L 801.50 612.50 L 797.30 617.00 L 792.80 621.00 L 787.90 624.50 L 782.90 627.40 L 777.80 629.70 L 769.90 632.00 L 762.30 632.90 L 758.40 632.70 L 754.80 632.20 L 751.30 631.20 L 747.90 629.80 Z" fill="#fbb4b4" fill-rule="evenodd" group-id="1,3,4" id="椭圆形备份-12" node-id="19" stroke="none" target-height="82.10004" target-width="81.20001" target-x="733.1" target-y="550.8"></path><g node-id="132"><path d="M 379.50 953.50 L 353.50 1039.60" fill="none" group-id="1,3,4,5" id="路径-6" node-id="20" stroke="#000000" stroke-linecap="round" stroke-opacity="0.10692633" stroke-width="7" target-height="86.099976" target-width="26" target-x="353.5" target-y="953.5"></path></g><g node-id="133"><path d="M 644.50 953.50 L 670.50 1039.60" fill="none" group-id="1,3,4,6" id="路径-6备份" node-id="21" stroke="#000000" stroke-linecap="round" stroke-opacity="0.10692633" stroke-width="7" target-height="86.099976" target-width="26" target-x="644.5" target-y="953.5"></path></g><g node-id="134"><g node-id="139"><path d="M 465.00 712.00 L 559.00 712.00 L 559.00 845.00 L 465.00 845.00 Z" fill="#ffcaca" fill-rule="evenodd" group-id="1,3,4,7,12" node-id="96" stroke="none" target-height="133" target-width="94" target-x="465" target-y="712"></path></g><path d="M 591.00 717.00 L 590.70 720.90 L 590.00 724.60 L 588.70 728.30 L 587.00 731.90 L 584.80 735.20 L 579.30 741.70 L 575.80 744.80 L 570.80 748.40 L 565.10 751.80 L 558.70 754.90 L 552.00 757.50 L 544.80 759.80 L 537.00 761.60 L 529.10 762.90 L 520.70 763.70 L 512.00 764.00 L 503.30 763.70 L 494.90 762.90 L 487.00 761.60 L 479.20 759.80 L 472.00 757.50 L 465.30 754.90 L 458.90 751.80 L 453.20 748.40 L 448.20 744.80 L 444.70 741.70 L 441.70 738.50 L 439.20 735.20 L 437.00 731.90 L 435.30 728.30 L 434.00 724.60 L 433.30 720.90 L 433.00 717.00 L 433.30 713.10 L 434.00 709.40 L 435.30 705.70 L 437.00 702.10 L 439.20 698.80 L 441.70 695.50 L 444.70 692.30 L 448.20 689.20 L 453.20 685.60 L 458.90 682.20 L 465.30 679.10 L 472.00 676.50 L 479.20 674.20 L 487.00 672.40 L 494.90 671.10 L 503.30 670.30 L 512.00 670.00 L 520.70 670.30 L 529.10 671.10 L 537.00 672.40 L 544.80 674.20 L 552.00 676.50 L 558.70 679.10 L 565.10 682.20 L 570.80 685.60 L 575.80 689.20 L 579.30 692.30 L 584.80 698.80 L 587.00 702.10 L 588.70 705.70 L 590.00 709.40 L 590.70 713.10 L 591.00 717.00 Z" fill="#ec8484" fill-opacity="0.21490623" fill-rule="evenodd" group-id="1,3,4,7,13" node-id="101" stroke="none" target-height="94" target-width="158" target-x="433" target-y="670"></path></g><path d="M 767.00 524.00 L 766.70 534.70 L 765.90 545.20 L 764.50 555.50 L 762.70 565.60 L 760.30 575.60 L 757.40 585.50 L 754.00 595.10 L 750.20 604.60 L 745.90 613.90 L 741.10 622.90 L 735.90 631.80 L 730.30 640.40 L 724.30 648.70 L 717.80 656.80 L 711.00 664.70 L 703.80 672.30 L 696.30 679.50 L 688.40 686.50 L 680.10 693.20 L 671.50 699.60 L 662.60 705.60 L 653.50 711.20 L 644.00 716.50 L 634.30 721.50 L 624.10 726.10 L 613.90 730.30 L 603.50 734.10 L 592.70 737.50 L 581.70 740.50 L 570.50 743.10 L 559.20 745.20 L 547.70 746.80 L 536.00 748.00 L 524.10 748.70 L 512.00 749.00 L 499.90 748.70 L 488.00 748.00 L 476.30 746.80 L 464.80 745.20 L 453.50 743.10 L 442.30 740.50 L 431.30 737.50 L 420.50 734.10 L 410.10 730.30 L 399.90 726.10 L 389.70 721.50 L 380.00 716.50 L 370.50 711.20 L 361.40 705.60 L 352.50 699.60 L 343.90 693.20 L 335.60 686.50 L 327.70 679.50 L 320.20 672.30 L 313.00 664.70 L 306.20 656.80 L 299.70 648.70 L 293.70 640.40 L 288.10 631.80 L 282.90 622.90 L 278.10 613.90 L 273.80 604.60 L 270.00 595.10 L 266.60 585.50 L 263.70 575.60 L 261.30 565.60 L 259.50 555.50 L 258.10 545.20 L 257.30 534.70 L 257.00 524.00 L 257.30 513.30 L 258.10 502.80 L 259.50 492.50 L 261.30 482.40 L 263.70 472.40 L 266.60 462.50 L 270.00 452.90 L 273.80 443.40 L 278.10 434.10 L 282.90 425.10 L 288.10 416.20 L 293.70 407.60 L 299.70 399.30 L 306.20 391.20 L 313.00 383.30 L 320.20 375.70 L 327.70 368.50 L 335.60 361.50 L 343.90 354.80 L 352.50 348.40 L 361.40 342.40 L 370.50 336.80 L 380.00 331.50 L 389.70 326.50 L 399.90 321.90 L 410.10 317.70 L 420.50 313.90 L 431.30 310.50 L 442.30 307.50 L 453.50 304.90 L 464.80 302.80 L 476.30 301.20 L 488.00 300.00 L 499.90 299.30 L 512.00 299.00 L 524.10 299.30 L 536.00 300.00 L 547.70 301.20 L 559.20 302.80 L 570.50 304.90 L 581.70 307.50 L 592.70 310.50 L 603.50 313.90 L 613.90 317.70 L 624.10 321.90 L 634.30 326.50 L 644.00 331.50 L 653.50 336.80 L 662.60 342.40 L 671.50 348.40 L 680.10 354.80 L 688.40 361.50 L 696.30 368.50 L 703.80 375.70 L 711.00 383.30 L 717.80 391.20 L 724.30 399.30 L 730.30 407.60 L 735.90 416.20 L 741.10 425.10 L 745.90 434.10 L 750.20 443.40 L 754.00 452.90 L 757.40 462.50 L 760.30 472.40 L 762.70 482.40 L 764.50 492.50 L 765.90 502.80 L 766.70 513.30 L 767.00 524.00 Z" fill="#ffcaca" fill-rule="evenodd" group-id="1,3,4" id="椭圆形" node-id="27" stroke="none" target-height="450" target-width="510" target-x="257" target-y="299"></path><path d="M 502.00 594.00 L 502.00 620.00 L 502.20 622.60 L 502.90 624.90 L 503.90 627.10 L 505.30 629.00 L 507.00 630.70 L 508.90 632.10 L 511.10 633.10 L 513.40 633.80 L 516.00 634.00 L 522.80 634.00" fill="none" group-id="1,3,4" id="路径-5备份" node-id="28" stroke="#ff9494" stroke-linecap="round" stroke-width="8" target-height="40" target-width="20.799988" target-x="502" target-y="594"></path><path d="M 434.00 567.00 L 433.70 570.50 L 432.80 573.60 L 431.40 576.60 L 429.50 579.30 L 427.30 581.50 L 424.60 583.40 L 421.60 584.80 L 418.50 585.70 L 415.00 586.00 L 411.50 585.70 L 408.40 584.80 L 405.40 583.40 L 402.70 581.50 L 400.50 579.30 L 398.60 576.60 L 397.20 573.60 L 396.30 570.50 L 396.00 567.00 L 396.30 563.50 L 397.20 560.40 L 398.60 557.40 L 400.50 554.70 L 402.70 552.50 L 405.40 550.60 L 408.40 549.20 L 411.50 548.30 L 415.00 548.00 L 418.50 548.30 L 421.60 549.20 L 424.60 550.60 L 427.30 552.50 L 429.50 554.70 L 431.40 557.40 L 432.80 560.40 L 433.70 563.50 L 434.00 567.00 Z" fill="#110d2e" fill-rule="evenodd" group-id="1,3,4" id="椭圆形" node-id="29" stroke="none" target-height="38" target-width="38" target-x="396" target-y="548"></path><path d="M 628.00 567.00 L 627.70 570.50 L 626.80 573.60 L 625.40 576.60 L 623.50 579.30 L 621.30 581.50 L 618.60 583.40 L 615.60 584.80 L 612.50 585.70 L 609.00 586.00 L 605.50 585.70 L 602.40 584.80 L 599.40 583.40 L 596.70 581.50 L 594.50 579.30 L 592.60 576.60 L 591.20 573.60 L 590.30 570.50 L 590.00 567.00 L 590.30 563.50 L 591.20 560.40 L 592.60 557.40 L 594.50 554.70 L 596.70 552.50 L 599.40 550.60 L 602.40 549.20 L 605.50 548.30 L 609.00 548.00 L 612.50 548.30 L 615.60 549.20 L 618.60 550.60 L 621.30 552.50 L 623.50 554.70 L 625.40 557.40 L 626.80 560.40 L 627.70 563.50 L 628.00 567.00 Z" fill="#110d2e" fill-rule="evenodd" group-id="1,3,4" id="椭圆形备份-7" node-id="30" stroke="none" target-height="38" target-width="38" target-x="590" target-y="548"></path><path d="M 469.00 680.50 L 481.50 685.60 L 487.30 687.40 L 493.30 688.70 L 499.30 689.60 L 505.40 690.00 L 511.50 690.00 L 517.50 689.60 L 523.50 688.60 L 529.50 687.30 L 535.30 685.50 L 541.00 683.20 L 546.60 680.50" fill="none" group-id="1,3,4" id="路径-35" node-id="31" stroke="#ec8484" stroke-linecap="round" stroke-width="10" target-height="9.5" target-width="77.599976" target-x="469" target-y="680.5"></path><path d="M 380.00 519.60 L 391.00 517.00 L 400.30 515.20 L 408.10 514.30 L 414.50 514.00 L 420.90 514.30 L 428.70 515.20 L 438.30 516.90 L 449.80 519.60" fill="none" group-id="1,3,4" id="路径-4备份" node-id="32" stroke="#110d2e" stroke-linecap="round" stroke-width="6" target-height="5.5999756" target-width="69.79999" target-x="380" target-y="514"></path><g node-id="135"><path d="M 643.80 519.60 L 632.70 517.00 L 623.40 515.20 L 615.70 514.30 L 609.30 514.00 L 602.90 514.30 L 595.00 515.20 L 585.50 516.90 L 574.00 519.60" fill="none" group-id="1,3,4,8" id="路径-4备份-2" node-id="33" stroke="#110d2e" stroke-linecap="round" stroke-width="6" target-height="5.5999756" target-width="69.79999" target-x="574" target-y="514"></path></g><g node-id="136"><path d="M 379.50 953.50 L 353.50 1039.60" fill="none" group-id="1,3,4,9" id="路径-6" node-id="34" stroke="#000000" stroke-linecap="round" stroke-opacity="0.10692633" stroke-width="7" target-height="86.099976" target-width="26" target-x="353.5" target-y="953.5"></path></g><g node-id="137"><path d="M 644.50 953.50 L 670.50 1039.60" fill="none" group-id="1,3,4,10" id="路径-6备份" node-id="35" stroke="#000000" stroke-linecap="round" stroke-opacity="0.10692633" stroke-width="7" target-height="86.099976" target-width="26" target-x="644.5" target-y="953.5"></path></g><path d="M 259.40 556.50 L 299.80 537.40 L 335.30 520.10 L 366.50 504.30 L 393.50 490.00 L 416.90 477.10 L 436.90 465.50 L 453.80 455.00 L 468.10 445.60 L 479.90 437.20 L 489.60 429.80 L 497.50 423.10 L 503.70 417.20 L 508.40 412.00 L 512.00 407.30 L 537.20 428.10 L 560.90 446.80 L 583.00 463.60 L 603.60 478.60 L 622.90 492.00 L 640.90 503.70 L 657.70 514.00 L 673.30 522.90 L 687.80 530.60 L 701.30 537.10 L 713.90 542.60 L 725.50 547.00 L 736.30 550.60 L 746.40 553.30 L 755.70 555.30 L 764.40 556.50 L 769.30 541.90 L 773.20 528.70 L 776.20 516.80 L 778.40 506.10 L 779.90 496.60 L 780.70 488.10 L 781.00 480.50 L 780.70 475.90 L 779.70 469.70 L 777.90 461.50 L 774.90 451.10 L 770.40 437.90 L 764.40 421.50 L 616.20 299.00 L 556.50 286.50 L 502.00 286.50 L 494.40 285.50 L 486.30 285.00 L 477.80 285.10 L 468.80 285.70 L 459.30 286.90 L 449.10 288.80 L 438.40 291.50 L 427.10 294.80 L 415.00 299.00 L 401.80 304.20 L 387.20 310.60 L 371.20 318.40 L 353.60 327.50 L 334.40 338.20 L 313.40 350.60 L 290.50 364.90 L 249.70 448.00 L 259.40 556.50 Z" fill="#110d2e" fill-rule="evenodd" group-id="1,3,4" id="路径-38" node-id="36" stroke="none" target-height="271.5" target-width="531.3" target-x="249.7" target-y="285"></path><g node-id="138"><g node-id="141"><path d="M 512.00 781.00 L 523.20 781.30 L 534.20 782.20 L 545.00 783.60 L 555.70 785.50 L 566.20 788.00 L 576.60 791.00 L 586.90 794.50 L 597.00 798.50 L 606.90 803.00 L 616.70 808.00 L 626.20 813.50 L 635.50 819.30 L 644.70 825.70 L 653.60 832.50 L 662.40 839.70 L 670.80 847.30 L 679.00 855.30 L 687.00 863.70 L 694.70 872.50 L 702.20 881.80 L 709.30 891.20 L 716.20 901.00 L 722.70 911.20 L 729.00 921.70 L 735.10 932.70 L 740.70 943.70 L 745.90 955.10 L 750.90 966.70 L 755.50 978.80 L 759.90 991.10 L 763.70 1003.50 L 767.20 1016.10 L 770.40 1029.00 L 773.10 1042.20 L 775.50 1055.70 L 777.50 1069.10 L 779.00 1082.70 L 780.10 1096.60 L 780.80 1110.70 L 781.00 1125.00 L 780.80 1139.30 L 780.10 1153.40 L 779.00 1167.30 L 777.50 1180.90 L 775.50 1194.30 L 773.10 1207.80 L 770.40 1221.00 L 767.20 1233.90 L 763.70 1246.50 L 759.90 1258.90 L 755.50 1271.20 L 750.90 1283.30 L 745.90 1294.90 L 740.70 1306.30 L 735.10 1317.30 L 729.00 1328.30 L 722.70 1338.80 L 716.20 1349.00 L 709.30 1358.80 L 702.20 1368.20 L 694.70 1377.50 L 687.00 1386.30 L 679.00 1394.70 L 670.80 1402.70 L 662.40 1410.30 L 653.60 1417.50 L 644.70 1424.30 L 635.50 1430.70 L 626.20 1436.50 L 616.70 1442.00 L 606.90 1447.00 L 597.00 1451.50 L 586.90 1455.50 L 576.60 1459.00 L 566.20 1462.00 L 555.70 1464.50 L 545.00 1466.40 L 534.20 1467.80 L 523.20 1468.70 L 512.00 1469.00 L 500.80 1468.70 L 489.80 1467.80 L 479.00 1466.40 L 468.30 1464.50 L 457.80 1462.00 L 447.40 1459.00 L 437.10 1455.50 L 427.00 1451.50 L 417.10 1447.00 L 407.30 1442.00 L 397.80 1436.50 L 388.50 1430.70 L 379.30 1424.30 L 370.40 1417.50 L 361.60 1410.30 L 353.20 1402.70 L 345.00 1394.70 L 337.00 1386.30 L 329.30 1377.50 L 321.80 1368.20 L 314.70 1358.80 L 307.80 1349.00 L 301.30 1338.80 L 295.00 1328.30 L 288.90 1317.30 L 283.30 1306.30 L 278.10 1294.90 L 273.10 1283.30 L 268.50 1271.20 L 264.10 1258.90 L 260.30 1246.50 L 256.80 1233.90 L 253.60 1221.00 L 250.90 1207.80 L 248.50 1194.30 L 246.50 1180.90 L 245.00 1167.30 L 243.90 1153.40 L 243.20 1139.30 L 243.00 1125.00 L 243.20 1110.70 L 243.90 1096.60 L 245.00 1082.70 L 246.50 1069.10 L 248.50 1055.70 L 250.90 1042.20 L 253.60 1029.00 L 256.80 1016.10 L 260.30 1003.50 L 264.10 991.10 L 268.50 978.80 L 273.10 966.70 L 278.10 955.10 L 283.30 943.70 L 288.90 932.70 L 295.00 921.70 L 301.30 911.20 L 307.80 901.00 L 314.70 891.20 L 321.80 881.80 L 329.30 872.50 L 337.00 863.70 L 345.00 855.30 L 353.20 847.30 L 361.60 839.70 L 370.40 832.50 L 379.30 825.70 L 388.50 819.30 L 397.80 813.50 L 407.30 808.00 L 417.10 803.00 L 427.00 798.50 L 437.10 794.50 L 447.40 791.00 L 457.80 788.00 L 468.30 785.50 L 479.00 783.60 L 489.80 782.20 L 500.80 781.30 L 512.00 781.00 Z" fill="#cc5553" fill-rule="evenodd" group-id="1,3,4,11,14" node-id="126" stroke="none" target-height="688" target-width="538" target-x="243" target-y="781"></path></g><path d="M 465.00 786.70 L 512.00 845.00 L 559.00 786.70 L 547.40 782.30 L 537.50 779.00 L 529.20 776.60 L 522.20 775.10 L 516.40 774.30 L 511.70 774.00 L 507.00 774.30 L 501.20 775.10 L 494.30 776.60 L 486.10 779.00 L 476.40 782.30 L 465.00 786.70 Z" fill="#ffcaca" fill-rule="evenodd" group-id="1,3,4,11,15" id="路径-39" node-id="41" stroke="none" target-height="71" target-width="94" target-x="465" target-y="774"></path></g><path d="M 520.00 871.00 L 519.70 873.10 L 518.90 875.00 L 517.70 876.70 L 516.00 877.90 L 514.10 878.70 L 512.00 879.00 L 509.90 878.70 L 508.00 877.90 L 506.30 876.70 L 505.10 875.00 L 504.30 873.10 L 504.00 871.00 L 504.30 868.90 L 505.10 867.00 L 506.30 865.30 L 508.00 864.10 L 509.90 863.30 L 512.00 863.00 L 514.10 863.30 L 516.00 864.10 L 517.70 865.30 L 518.90 867.00 L 519.70 868.90 L 520.00 871.00 Z" fill="#ffffff" fill-rule="evenodd" group-id="1,3,4" id="椭圆形" node-id="42" stroke="none" target-height="16" target-width="16" target-x="504" target-y="863"></path><path d="M 520.00 934.00 L 519.70 936.10 L 518.90 938.00 L 517.70 939.70 L 516.00 940.90 L 514.10 941.70 L 512.00 942.00 L 509.90 941.70 L 508.00 940.90 L 506.30 939.70 L 505.10 938.00 L 504.30 936.10 L 504.00 934.00 L 504.30 931.90 L 505.10 930.00 L 506.30 928.30 L 508.00 927.10 L 509.90 926.30 L 512.00 926.00 L 514.10 926.30 L 516.00 927.10 L 517.70 928.30 L 518.90 930.00 L 519.70 931.90 L 520.00 934.00 Z" fill="#ffffff" fill-rule="evenodd" group-id="1,3,4" id="椭圆形备份-2" node-id="43" stroke="none" target-height="16" target-width="16" target-x="504" target-y="926"></path><path d="M 520.00 997.00 L 519.70 999.10 L 518.90 1001.00 L 517.70 1002.70 L 516.00 1003.90 L 514.10 1004.70 L 512.00 1005.00 L 509.90 1004.70 L 508.00 1003.90 L 506.30 1002.70 L 505.10 1001.00 L 504.30 999.10 L 504.00 997.00 L 504.30 994.90 L 505.10 993.00 L 506.30 991.30 L 508.00 990.10 L 509.90 989.30 L 512.00 989.00 L 514.10 989.30 L 516.00 990.10 L 517.70 991.30 L 518.90 993.00 L 519.70 994.90 L 520.00 997.00 Z" fill="#ffffff" fill-rule="evenodd" group-id="1,3,4" id="椭圆形备份-3" node-id="44" stroke="none" target-height="16" target-width="16" target-x="504" target-y="989"></path><path d="M 707.00 281.00 L 706.70 286.10 L 705.80 291.20 L 704.40 296.10 L 702.40 301.10 L 699.80 306.00 L 696.80 310.50 L 693.30 315.10 L 689.20 319.60 L 684.60 324.00 L 679.40 328.40 L 672.70 333.40 L 665.20 338.20 L 656.90 342.90 L 647.70 347.50 L 638.50 351.50 L 628.60 355.30 L 618.00 358.80 L 606.70 362.20 L 595.40 365.00 L 583.70 367.50 L 571.30 369.80 L 558.30 371.60 L 545.50 373.10 L 532.20 374.10 L 518.60 374.80 L 504.50 375.00 L 490.40 374.80 L 476.80 374.10 L 463.50 373.10 L 450.70 371.60 L 437.70 369.80 L 425.30 367.50 L 413.60 365.00 L 402.30 362.20 L 391.00 358.80 L 380.40 355.30 L 370.50 351.50 L 361.30 347.50 L 352.10 342.90 L 343.80 338.20 L 336.30 333.40 L 329.60 328.40 L 324.40 324.00 L 319.80 319.60 L 315.70 315.10 L 312.20 310.50 L 309.20 306.00 L 306.60 301.10 L 304.60 296.10 L 303.20 291.20 L 302.30 286.10 L 302.00 281.00 L 302.30 275.90 L 303.20 270.80 L 304.60 265.90 L 306.60 260.90 L 309.20 256.00 L 312.20 251.50 L 315.70 246.90 L 319.80 242.40 L 324.40 238.00 L 329.60 233.60 L 336.30 228.60 L 343.80 223.80 L 352.10 219.10 L 361.30 214.50 L 370.50 210.50 L 380.40 206.70 L 391.00 203.20 L 402.30 199.80 L 413.60 197.00 L 425.30 194.50 L 437.70 192.20 L 450.70 190.40 L 463.50 188.90 L 476.80 187.90 L 490.40 187.20 L 504.50 187.00 L 518.60 187.20 L 532.20 187.90 L 545.50 188.90 L 558.30 190.40 L 571.30 192.20 L 583.70 194.50 L 595.40 197.00 L 606.70 199.80 L 618.00 203.20 L 628.60 206.70 L 638.50 210.50 L 647.70 214.50 L 656.90 219.10 L 665.20 223.80 L 672.70 228.60 L 679.40 233.60 L 684.60 238.00 L 689.20 242.40 L 693.30 246.90 L 696.80 251.50 L 699.80 256.00 L 702.40 260.90 L 704.40 265.90 L 705.80 270.80 L 706.70 275.90 L 707.00 281.00 Z" fill="#110d2e" fill-rule="evenodd" group-id="1,3,4" id="椭圆形" node-id="45" stroke="none" target-height="188" target-width="405" target-x="302" target-y="187"></path></g></g></g></svg>