<?xml version="1.0" standalone="no"?><!DOCTYPE svg PUBLIC "-//W3C//DTD SVG 1.1//EN" "http://www.w3.org/Graphics/SVG/1.1/DTD/svg11.dtd"><svg height="1024" node-id="1" sillyvg="true" template-height="1024" template-width="1024" version="1.1" viewBox="0 0 1024 1024" width="1024" xmlns="http://www.w3.org/2000/svg" xmlns:xlink="http://www.w3.org/1999/xlink"><defs node-id="59"><mask height="4014.622" id="mask-2" maskUnits="userSpaceOnUse" node-id="11" width="4014.622" x="3393.1128" y="-8123.004"><path d="M 4888.70 -5827.70 L 4888.90 -5844.00 L 4889.70 -5860.30 L 4891.00 -5876.40 L 4892.80 -5892.40 L 4895.00 -5908.30 L 4897.80 -5924.20 L 4901.10 -5939.90 L 4904.90 -5955.40 L 4909.10 -5970.90 L 4913.80 -5986.20 L 4919.00 -6001.30 L 4924.60 -6016.30 L 4930.80 -6031.00 L 4937.30 -6045.60 L 4944.40 -6059.90 L 4951.80 -6074.10 L 4959.80 -6088.00 L 4968.10 -6101.70 L 4976.90 -6115.10 L 4986.20 -6128.30 L 4995.80 -6141.10 L 5005.90 -6153.70 L 5016.40 -6166.00 L 5027.30 -6178.00 L 5038.60 -6189.80 L 5050.40 -6201.10 L 5062.40 -6212.00 L 5074.70 -6222.50 L 5087.20 -6232.60 L 5100.10 -6242.20 L 5113.30 -6251.50 L 5126.70 -6260.30 L 5140.40 -6268.60 L 5154.30 -6276.50 L 5168.40 -6284.00 L 5182.80 -6291.10 L 5197.40 -6297.60 L 5212.10 -6303.70 L 5227.10 -6309.40 L 5242.20 -6314.60 L 5257.50 -6319.30 L 5272.90 -6323.50 L 5288.50 -6327.30 L 5304.20 -6330.60 L 5320.10 -6333.30 L 5336.00 -6335.60 L 5352.00 -6337.40 L 5368.10 -6338.70 L 5384.30 -6339.50 L 5400.70 -6339.70 L 5417.00 -6339.50 L 5433.20 -6338.70 L 5449.30 -6337.40 L 5465.30 -6335.60 L 5481.20 -6333.30 L 5497.10 -6330.60 L 5512.80 -6327.30 L 5528.40 -6323.50 L 5543.80 -6319.30 L 5574.30 -6309.40 L 5604.00 -6297.60 L 5618.50 -6291.10 L 5632.90 -6284.00 L 5647.00 -6276.50 L 5660.90 -6268.60 L 5674.60 -6260.30 L 5688.00 -6251.50 L 5701.20 -6242.20 L 5714.10 -6232.60 L 5726.70 -6222.50 L 5739.00 -6212.00 L 5751.00 -6201.10 L 5762.70 -6189.80 L 5774.10 -6178.00 L 5785.00 -6166.00 L 5795.50 -6153.70 L 5805.50 -6141.10 L 5815.20 -6128.30 L 5824.40 -6115.10 L 5833.20 -6101.70 L 5841.60 -6088.00 L 5849.50 -6074.10 L 5857.00 -6059.90 L 5864.00 -6045.60 L 5870.60 -6031.00 L 5876.70 -6016.30 L 5882.30 -6001.30 L 5887.50 -5986.20 L 5892.20 -5970.90 L 5896.50 -5955.40 L 5903.50 -5924.20 L 5906.30 -5908.30 L 5908.60 -5892.40 L 5910.40 -5876.40 L 5911.60 -5860.30 L 5912.70 -5827.70 L 5912.40 -5811.40 L 5911.60 -5795.20 L 5910.40 -5779.10 L 5908.60 -5763.10 L 5903.50 -5731.30 L 5900.20 -5715.60 L 5896.50 -5700.00 L 5892.20 -5684.60 L 5887.50 -5669.30 L 5882.30 -5654.10 L 5876.70 -5639.20 L 5870.60 -5624.40 L 5864.00 -5609.90 L 5857.00 -5595.50 L 5849.50 -5581.30 L 5841.60 -5567.40 L 5833.20 -5553.80 L 5824.40 -5540.40 L 5815.20 -5527.20 L 5805.50 -5514.30 L 5795.50 -5501.70 L 5785.00 -5489.40 L 5774.10 -5477.40 L 5762.70 -5465.70 L 5751.00 -5454.30 L 5739.00 -5443.40 L 5726.70 -5432.90 L 5714.10 -5422.90 L 5701.20 -5413.20 L 5688.00 -5404.00 L 5674.60 -5395.20 L 5647.00 -5378.90 L 5632.90 -5371.40 L 5618.50 -5364.40 L 5604.00 -5357.80 L 5589.20 -5351.70 L 5574.30 -5346.00 L 5559.10 -5340.90 L 5543.80 -5336.10 L 5528.40 -5331.90 L 5512.80 -5328.20 L 5497.10 -5324.90 L 5481.20 -5322.10 L 5465.30 -5319.80 L 5449.30 -5318.00 L 5433.20 -5316.80 L 5417.00 -5316.00 L 5400.70 -5315.70 L 5384.30 -5316.00 L 5368.10 -5316.80 L 5352.00 -5318.00 L 5336.00 -5319.80 L 5320.10 -5322.10 L 5304.20 -5324.90 L 5288.50 -5328.20 L 5272.90 -5331.90 L 5257.50 -5336.10 L 5242.20 -5340.90 L 5227.10 -5346.00 L 5212.10 -5351.70 L 5197.40 -5357.80 L 5182.80 -5364.40 L 5154.30 -5378.90 L 5140.40 -5386.80 L 5126.70 -5395.20 L 5113.30 -5404.00 L 5100.10 -5413.20 L 5087.20 -5422.90 L 5074.70 -5432.90 L 5062.40 -5443.40 L 5050.40 -5454.30 L 5038.60 -5465.70 L 5027.30 -5477.40 L 5016.40 -5489.40 L 5005.90 -5501.70 L 4995.80 -5514.30 L 4986.20 -5527.20 L 4976.90 -5540.40 L 4968.10 -5553.80 L 4959.80 -5567.40 L 4951.80 -5581.30 L 4944.40 -5595.50 L 4937.30 -5609.90 L 4930.80 -5624.40 L 4924.60 -5639.20 L 4919.00 -5654.10 L 4913.80 -5669.30 L 4909.10 -5684.60 L 4904.90 -5700.00 L 4901.10 -5715.60 L 4897.80 -5731.30 L 4895.00 -5747.10 L 4892.80 -5763.10 L 4891.00 -5779.10 L 4889.70 -5795.20 L 4888.90 -5811.40 L 4888.70 -5827.70 Z" fill="#ffffff" fill-rule="evenodd" node-id="64" stroke="none" target-height="1024" target-width="1024" target-x="4888.7" target-y="-6339.7"></path></mask><mask height="112.8" id="mask-4" maskUnits="userSpaceOnUse" node-id="33" width="189.6" x="-47.8" y="-51.4"><path d="M 0.00 0.00 L 94.00 0.00 L 94.00 133.00 L 0.00 133.00 Z" fill="#ffffff" fill-rule="evenodd" node-id="71" stroke="none" target-height="133" target-width="94" target-x="0" target-y="0"></path></mask><mask height="434.40002" id="mask-6" maskUnits="userSpaceOnUse" node-id="45" width="229.20001" x="-19.1" y="-36.2"><path d="M 613.00 344.00 L 612.70 355.20 L 611.80 366.20 L 610.40 377.00 L 608.50 387.70 L 606.00 398.20 L 603.00 408.60 L 599.50 418.90 L 595.50 429.00 L 591.00 438.90 L 586.00 448.70 L 580.50 458.20 L 574.70 467.50 L 568.30 476.70 L 561.50 485.60 L 554.30 494.40 L 546.70 502.80 L 538.70 511.00 L 530.30 519.00 L 521.50 526.70 L 512.20 534.20 L 502.80 541.30 L 493.00 548.20 L 482.80 554.70 L 472.30 561.00 L 461.30 567.10 L 450.30 572.70 L 438.90 577.90 L 427.30 582.90 L 415.20 587.50 L 402.90 591.90 L 390.50 595.70 L 377.90 599.20 L 365.00 602.40 L 351.80 605.10 L 338.30 607.50 L 324.90 609.50 L 311.30 611.00 L 297.40 612.10 L 283.30 612.80 L 269.00 613.00 L 254.70 612.80 L 240.60 612.10 L 226.70 611.00 L 213.10 609.50 L 199.70 607.50 L 186.20 605.10 L 173.00 602.40 L 160.10 599.20 L 147.50 595.70 L 135.10 591.90 L 122.80 587.50 L 110.70 582.90 L 99.10 577.90 L 87.70 572.70 L 76.70 567.10 L 65.70 561.00 L 55.20 554.70 L 45.00 548.20 L 35.20 541.30 L 25.80 534.20 L 16.50 526.70 L 7.70 519.00 L -0.70 511.00 L -8.70 502.80 L -16.30 494.40 L -23.50 485.60 L -30.30 476.70 L -36.70 467.50 L -42.50 458.20 L -48.00 448.70 L -53.00 438.90 L -57.50 429.00 L -61.50 418.90 L -65.00 408.60 L -68.00 398.20 L -70.50 387.70 L -72.40 377.00 L -73.80 366.20 L -74.70 355.20 L -75.00 344.00 L -74.70 332.80 L -73.80 321.80 L -72.40 311.00 L -70.50 300.30 L -68.00 289.80 L -65.00 279.40 L -61.50 269.10 L -57.50 259.00 L -53.00 249.10 L -48.00 239.30 L -42.50 229.80 L -36.70 220.50 L -30.30 211.30 L -23.50 202.40 L -16.30 193.60 L -8.70 185.20 L -0.70 177.00 L 7.70 169.00 L 16.50 161.30 L 25.80 153.80 L 35.20 146.70 L 45.00 139.80 L 55.20 133.30 L 65.70 127.00 L 76.70 120.90 L 87.70 115.30 L 99.10 110.10 L 110.70 105.10 L 122.80 100.50 L 135.10 96.10 L 147.50 92.30 L 160.10 88.80 L 173.00 85.60 L 186.20 82.90 L 199.70 80.50 L 213.10 78.50 L 226.70 77.00 L 240.60 75.90 L 254.70 75.20 L 269.00 75.00 L 283.30 75.20 L 297.40 75.90 L 311.30 77.00 L 324.90 78.50 L 338.30 80.50 L 351.80 82.90 L 365.00 85.60 L 377.90 88.80 L 390.50 92.30 L 402.90 96.10 L 415.20 100.50 L 427.30 105.10 L 438.90 110.10 L 450.30 115.30 L 461.30 120.90 L 472.30 127.00 L 482.80 133.30 L 493.00 139.80 L 502.80 146.70 L 512.20 153.80 L 521.50 161.30 L 530.30 169.00 L 538.70 177.00 L 546.70 185.20 L 554.30 193.60 L 561.50 202.40 L 568.30 211.30 L 574.70 220.50 L 580.50 229.80 L 586.00 239.30 L 591.00 249.10 L 595.50 259.00 L 599.50 269.10 L 603.00 279.40 L 606.00 289.80 L 608.50 300.30 L 610.40 311.00 L 611.80 321.80 L 612.70 332.80 L 613.00 344.00 Z" fill="#ffffff" fill-rule="evenodd" node-id="78" stroke="none" target-height="538" target-width="688" target-x="-75" target-y="75"></path></mask><mask height="434.40002" id="mask1" maskUnits="userSpaceOnUse" node-id="82" width="229.19998" x="321.9" y="-36.2"><path d="M 613.00 344.00 L 612.70 355.20 L 611.80 366.20 L 610.40 377.00 L 608.50 387.70 L 606.00 398.20 L 603.00 408.60 L 599.50 418.90 L 595.50 429.00 L 591.00 438.90 L 586.00 448.70 L 580.50 458.20 L 574.70 467.50 L 568.30 476.70 L 561.50 485.60 L 554.30 494.40 L 546.70 502.80 L 538.70 511.00 L 530.30 519.00 L 521.50 526.70 L 512.20 534.20 L 502.80 541.30 L 493.00 548.20 L 482.80 554.70 L 472.30 561.00 L 461.30 567.10 L 450.30 572.70 L 438.90 577.90 L 427.30 582.90 L 415.20 587.50 L 402.90 591.90 L 390.50 595.70 L 377.90 599.20 L 365.00 602.40 L 351.80 605.10 L 338.30 607.50 L 324.90 609.50 L 311.30 611.00 L 297.40 612.10 L 283.30 612.80 L 269.00 613.00 L 254.70 612.80 L 240.60 612.10 L 226.70 611.00 L 213.10 609.50 L 199.70 607.50 L 186.20 605.10 L 173.00 602.40 L 160.10 599.20 L 147.50 595.70 L 135.10 591.90 L 122.80 587.50 L 110.70 582.90 L 99.10 577.90 L 87.70 572.70 L 76.70 567.10 L 65.70 561.00 L 55.20 554.70 L 45.00 548.20 L 35.20 541.30 L 25.80 534.20 L 16.50 526.70 L 7.70 519.00 L -0.70 511.00 L -8.70 502.80 L -16.30 494.40 L -23.50 485.60 L -30.30 476.70 L -36.70 467.50 L -42.50 458.20 L -48.00 448.70 L -53.00 438.90 L -57.50 429.00 L -61.50 418.90 L -65.00 408.60 L -68.00 398.20 L -70.50 387.70 L -72.40 377.00 L -73.80 366.20 L -74.70 355.20 L -75.00 344.00 L -74.70 332.80 L -73.80 321.80 L -72.40 311.00 L -70.50 300.30 L -68.00 289.80 L -65.00 279.40 L -61.50 269.10 L -57.50 259.00 L -53.00 249.10 L -48.00 239.30 L -42.50 229.80 L -36.70 220.50 L -30.30 211.30 L -23.50 202.40 L -16.30 193.60 L -8.70 185.20 L -0.70 177.00 L 7.70 169.00 L 16.50 161.30 L 25.80 153.80 L 35.20 146.70 L 45.00 139.80 L 55.20 133.30 L 65.70 127.00 L 76.70 120.90 L 87.70 115.30 L 99.10 110.10 L 110.70 105.10 L 122.80 100.50 L 135.10 96.10 L 147.50 92.30 L 160.10 88.80 L 173.00 85.60 L 186.20 82.90 L 199.70 80.50 L 213.10 78.50 L 226.70 77.00 L 240.60 75.90 L 254.70 75.20 L 269.00 75.00 L 283.30 75.20 L 297.40 75.90 L 311.30 77.00 L 324.90 78.50 L 338.30 80.50 L 351.80 82.90 L 365.00 85.60 L 377.90 88.80 L 390.50 92.30 L 402.90 96.10 L 415.20 100.50 L 427.30 105.10 L 438.90 110.10 L 450.30 115.30 L 461.30 120.90 L 472.30 127.00 L 482.80 133.30 L 493.00 139.80 L 502.80 146.70 L 512.20 153.80 L 521.50 161.30 L 530.30 169.00 L 538.70 177.00 L 546.70 185.20 L 554.30 193.60 L 561.50 202.40 L 568.30 211.30 L 574.70 220.50 L 580.50 229.80 L 586.00 239.30 L 591.00 249.10 L 595.50 259.00 L 599.50 269.10 L 603.00 279.40 L 606.00 289.80 L 608.50 300.30 L 610.40 311.00 L 611.80 321.80 L 612.70 332.80 L 613.00 344.00 Z" fill="#ffffff" fill-rule="evenodd" node-id="86" stroke="none" target-height="538" target-width="688" target-x="-75" target-y="75"></path></mask><mask height="57.600002" id="mask2" maskUnits="userSpaceOnUse" node-id="90" width="172.80002" x="182.6" y="-26.8"><path d="M 613.00 344.00 L 612.70 355.20 L 611.80 366.20 L 610.40 377.00 L 608.50 387.70 L 606.00 398.20 L 603.00 408.60 L 599.50 418.90 L 595.50 429.00 L 591.00 438.90 L 586.00 448.70 L 580.50 458.20 L 574.70 467.50 L 568.30 476.70 L 561.50 485.60 L 554.30 494.40 L 546.70 502.80 L 538.70 511.00 L 530.30 519.00 L 521.50 526.70 L 512.20 534.20 L 502.80 541.30 L 493.00 548.20 L 482.80 554.70 L 472.30 561.00 L 461.30 567.10 L 450.30 572.70 L 438.90 577.90 L 427.30 582.90 L 415.20 587.50 L 402.90 591.90 L 390.50 595.70 L 377.90 599.20 L 365.00 602.40 L 351.80 605.10 L 338.30 607.50 L 324.90 609.50 L 311.30 611.00 L 297.40 612.10 L 283.30 612.80 L 269.00 613.00 L 254.70 612.80 L 240.60 612.10 L 226.70 611.00 L 213.10 609.50 L 199.70 607.50 L 186.20 605.10 L 173.00 602.40 L 160.10 599.20 L 147.50 595.70 L 135.10 591.90 L 122.80 587.50 L 110.70 582.90 L 99.10 577.90 L 87.70 572.70 L 76.70 567.10 L 65.70 561.00 L 55.20 554.70 L 45.00 548.20 L 35.20 541.30 L 25.80 534.20 L 16.50 526.70 L 7.70 519.00 L -0.70 511.00 L -8.70 502.80 L -16.30 494.40 L -23.50 485.60 L -30.30 476.70 L -36.70 467.50 L -42.50 458.20 L -48.00 448.70 L -53.00 438.90 L -57.50 429.00 L -61.50 418.90 L -65.00 408.60 L -68.00 398.20 L -70.50 387.70 L -72.40 377.00 L -73.80 366.20 L -74.70 355.20 L -75.00 344.00 L -74.70 332.80 L -73.80 321.80 L -72.40 311.00 L -70.50 300.30 L -68.00 289.80 L -65.00 279.40 L -61.50 269.10 L -57.50 259.00 L -53.00 249.10 L -48.00 239.30 L -42.50 229.80 L -36.70 220.50 L -30.30 211.30 L -23.50 202.40 L -16.30 193.60 L -8.70 185.20 L -0.70 177.00 L 7.70 169.00 L 16.50 161.30 L 25.80 153.80 L 35.20 146.70 L 45.00 139.80 L 55.20 133.30 L 65.70 127.00 L 76.70 120.90 L 87.70 115.30 L 99.10 110.10 L 110.70 105.10 L 122.80 100.50 L 135.10 96.10 L 147.50 92.30 L 160.10 88.80 L 173.00 85.60 L 186.20 82.90 L 199.70 80.50 L 213.10 78.50 L 226.70 77.00 L 240.60 75.90 L 254.70 75.20 L 269.00 75.00 L 283.30 75.20 L 297.40 75.90 L 311.30 77.00 L 324.90 78.50 L 338.30 80.50 L 351.80 82.90 L 365.00 85.60 L 377.90 88.80 L 390.50 92.30 L 402.90 96.10 L 415.20 100.50 L 427.30 105.10 L 438.90 110.10 L 450.30 115.30 L 461.30 120.90 L 472.30 127.00 L 482.80 133.30 L 493.00 139.80 L 502.80 146.70 L 512.20 153.80 L 521.50 161.30 L 530.30 169.00 L 538.70 177.00 L 546.70 185.20 L 554.30 193.60 L 561.50 202.40 L 568.30 211.30 L 574.70 220.50 L 580.50 229.80 L 586.00 239.30 L 591.00 249.10 L 595.50 259.00 L 599.50 269.10 L 603.00 279.40 L 606.00 289.80 L 608.50 300.30 L 610.40 311.00 L 611.80 321.80 L 612.70 332.80 L 613.00 344.00 Z" fill="#ffffff" fill-rule="evenodd" node-id="94" stroke="none" target-height="538" target-width="688" target-x="-75" target-y="75"></path></mask></defs><path d="M 0.00 0.00 L 1024.00 0.00 L 1024.00 1024.00 L 0.00 1024.00 Z" fill="#ffffff" fill-rule="evenodd" node-id="100" stroke="none" target-height="1024" target-width="1024" target-x="0" target-y="0"></path><g node-id="165"><g node-id="166"><path d="M 1024.00 512.00 L 1023.70 528.30 L 1023.00 544.50 L 1021.70 560.60 L 1019.90 576.70 L 1017.60 592.60 L 1014.80 608.40 L 1011.60 624.20 L 1007.80 639.70 L 1003.60 655.20 L 998.90 670.40 L 993.70 685.60 L 988.00 700.50 L 981.90 715.30 L 975.30 729.80 L 968.30 744.20 L 960.80 758.40 L 952.90 772.30 L 944.60 785.90 L 935.80 799.40 L 926.50 812.60 L 916.90 825.40 L 906.80 838.00 L 896.30 850.30 L 885.40 862.30 L 874.00 874.00 L 862.30 885.40 L 850.30 896.30 L 838.00 906.80 L 825.40 916.90 L 812.60 926.50 L 799.40 935.80 L 785.90 944.60 L 772.30 952.90 L 758.40 960.80 L 744.20 968.30 L 729.80 975.30 L 715.30 981.90 L 700.50 988.00 L 685.60 993.70 L 670.40 998.90 L 655.20 1003.60 L 639.70 1007.80 L 624.20 1011.60 L 608.40 1014.80 L 592.60 1017.60 L 576.70 1019.90 L 560.60 1021.70 L 544.50 1023.00 L 528.30 1023.70 L 512.00 1024.00 L 495.70 1023.70 L 479.50 1023.00 L 463.40 1021.70 L 447.30 1019.90 L 431.40 1017.60 L 415.60 1014.80 L 399.80 1011.60 L 384.30 1007.80 L 368.80 1003.60 L 353.60 998.90 L 338.40 993.70 L 323.50 988.00 L 308.70 981.90 L 294.20 975.30 L 279.80 968.30 L 265.60 960.80 L 251.70 952.90 L 238.10 944.60 L 224.60 935.80 L 211.40 926.50 L 198.60 916.90 L 186.00 906.80 L 173.70 896.30 L 161.70 885.40 L 150.00 874.00 L 138.60 862.30 L 127.70 850.30 L 117.20 838.00 L 107.10 825.40 L 97.50 812.60 L 88.20 799.40 L 79.40 785.90 L 71.10 772.30 L 63.20 758.40 L 55.70 744.20 L 48.70 729.80 L 42.10 715.30 L 36.00 700.50 L 30.30 685.60 L 25.10 670.40 L 20.40 655.20 L 16.20 639.70 L 12.40 624.20 L 9.20 608.40 L 6.40 592.60 L 4.10 576.70 L 2.30 560.60 L 1.00 544.50 L 0.30 528.30 L 0.00 512.00 L 0.30 495.70 L 1.00 479.50 L 2.30 463.40 L 4.10 447.30 L 6.40 431.40 L 9.20 415.60 L 12.40 399.80 L 16.20 384.30 L 20.40 368.80 L 25.10 353.60 L 30.30 338.40 L 36.00 323.50 L 42.10 308.70 L 48.70 294.20 L 55.70 279.80 L 63.20 265.60 L 71.10 251.70 L 79.40 238.10 L 88.20 224.60 L 97.50 211.40 L 107.10 198.60 L 117.20 186.00 L 127.70 173.70 L 138.60 161.70 L 150.00 150.00 L 161.70 138.60 L 173.70 127.70 L 186.00 117.20 L 198.60 107.10 L 211.40 97.50 L 224.60 88.20 L 238.10 79.40 L 251.70 71.10 L 265.60 63.20 L 279.80 55.70 L 294.20 48.70 L 308.70 42.10 L 323.50 36.00 L 338.40 30.30 L 353.60 25.10 L 368.80 20.40 L 384.30 16.20 L 399.80 12.40 L 415.60 9.20 L 431.40 6.40 L 447.30 4.10 L 463.40 2.30 L 479.50 1.00 L 495.70 0.30 L 512.00 0.00 L 528.30 0.30 L 544.50 1.00 L 560.60 2.30 L 576.70 4.10 L 592.60 6.40 L 608.40 9.20 L 624.20 12.40 L 639.70 16.20 L 655.20 20.40 L 670.40 25.10 L 685.60 30.30 L 700.50 36.00 L 715.30 42.10 L 729.80 48.70 L 744.20 55.70 L 758.40 63.20 L 772.30 71.10 L 785.90 79.40 L 799.40 88.20 L 812.60 97.50 L 825.40 107.10 L 838.00 117.20 L 850.30 127.70 L 862.30 138.60 L 874.00 150.00 L 885.40 161.70 L 896.30 173.70 L 906.80 186.00 L 916.90 198.60 L 926.50 211.40 L 935.80 224.60 L 944.60 238.10 L 952.90 251.70 L 960.80 265.60 L 968.30 279.80 L 975.30 294.20 L 981.90 308.70 L 988.00 323.50 L 993.70 338.40 L 998.90 353.60 L 1003.60 368.80 L 1007.80 384.30 L 1011.60 399.80 L 1014.80 415.60 L 1017.60 431.40 L 1019.90 447.30 L 1021.70 463.40 L 1023.00 479.50 L 1023.70 495.70 L 1024.00 512.00 Z" fill="#1c8784" fill-opacity="0.2" fill-rule="evenodd" group-id="1,2" node-id="104" stroke="none" target-height="1024" target-width="1024" target-x="0" target-y="0"></path></g><g node-id="167"><g node-id="168"><path d="M 339.00 556.50 L 338.70 566.80 L 338.00 576.70 L 336.90 586.30 L 335.30 595.50 L 333.20 604.80 L 330.80 613.50 L 328.10 621.70 L 325.00 629.40 L 321.40 637.10 L 317.60 644.10 L 313.60 650.40 L 309.30 656.20 L 305.50 660.60 L 301.60 664.60 L 297.60 668.10 L 293.60 671.10 L 289.40 673.70 L 285.00 676.00 L 280.50 677.70 L 275.90 679.00 L 271.30 679.70 L 266.50 680.00 L 261.70 679.70 L 257.10 679.00 L 252.50 677.70 L 248.00 676.00 L 243.60 673.70 L 239.40 671.10 L 235.40 668.10 L 231.40 664.60 L 227.50 660.60 L 223.70 656.20 L 219.40 650.40 L 215.40 644.10 L 211.60 637.10 L 208.00 629.40 L 204.90 621.70 L 202.20 613.50 L 199.80 604.80 L 197.70 595.50 L 196.10 586.30 L 195.00 576.70 L 194.30 566.80 L 194.00 556.50 L 194.30 546.20 L 195.00 536.30 L 196.10 526.70 L 197.70 517.50 L 199.80 508.20 L 202.20 499.50 L 204.90 491.30 L 208.00 483.60 L 211.60 475.90 L 215.40 468.90 L 219.40 462.60 L 223.70 456.80 L 227.50 452.40 L 235.40 444.90 L 239.40 441.90 L 243.60 439.30 L 248.00 437.00 L 252.50 435.30 L 257.10 434.00 L 261.70 433.30 L 266.50 433.00 L 271.30 433.30 L 275.90 434.00 L 280.50 435.30 L 285.00 437.00 L 289.40 439.30 L 293.60 441.90 L 297.60 444.90 L 301.60 448.40 L 305.50 452.40 L 309.30 456.80 L 313.60 462.60 L 317.60 468.90 L 321.40 475.90 L 325.00 483.60 L 328.10 491.30 L 330.80 499.50 L 333.20 508.20 L 335.30 517.50 L 336.90 526.70 L 338.00 536.30 L 338.70 546.20 L 339.00 556.50 Z" fill="#110d2e" fill-rule="evenodd" group-id="1,3,4" id="椭圆形" node-id="16" stroke="none" target-height="247" target-width="145" target-x="194" target-y="433"></path><path d="M 830.00 556.50 L 829.70 566.80 L 829.00 576.70 L 827.90 586.30 L 826.30 595.50 L 824.20 604.80 L 821.80 613.50 L 819.10 621.70 L 816.00 629.40 L 812.40 637.10 L 808.60 644.10 L 804.60 650.40 L 800.30 656.20 L 796.50 660.60 L 788.60 668.10 L 780.40 673.70 L 776.00 676.00 L 771.50 677.70 L 766.90 679.00 L 762.30 679.70 L 757.50 680.00 L 752.70 679.70 L 748.10 679.00 L 743.50 677.70 L 739.00 676.00 L 734.60 673.70 L 730.40 671.10 L 726.40 668.10 L 722.40 664.60 L 718.50 660.60 L 714.70 656.20 L 710.40 650.40 L 706.40 644.10 L 702.60 637.10 L 699.00 629.40 L 695.90 621.70 L 693.20 613.50 L 690.80 604.80 L 688.70 595.50 L 687.10 586.30 L 686.00 576.70 L 685.30 566.80 L 685.00 556.50 L 685.30 546.20 L 686.00 536.30 L 687.10 526.70 L 688.70 517.50 L 690.80 508.20 L 693.20 499.50 L 695.90 491.30 L 699.00 483.60 L 702.60 475.90 L 706.40 468.90 L 710.40 462.60 L 714.70 456.80 L 718.50 452.40 L 726.40 444.90 L 730.40 441.90 L 734.60 439.30 L 739.00 437.00 L 743.50 435.30 L 748.10 434.00 L 752.70 433.30 L 757.50 433.00 L 762.30 433.30 L 766.90 434.00 L 771.50 435.30 L 776.00 437.00 L 780.40 439.30 L 784.60 441.90 L 792.60 448.40 L 796.50 452.40 L 800.30 456.80 L 804.60 462.60 L 808.60 468.90 L 812.40 475.90 L 816.00 483.60 L 819.10 491.30 L 821.80 499.50 L 824.20 508.20 L 826.30 517.50 L 827.90 526.70 L 829.00 536.30 L 829.70 546.20 L 830.00 556.50 Z" fill="#110d2e" fill-rule="evenodd" group-id="1,3,4" id="椭圆形备份-9" node-id="17" stroke="none" target-height="247" target-width="145" target-x="685" target-y="433"></path><g node-id="169"><path d="M 339.00 676.50 L 338.70 682.50 L 338.00 688.30 L 336.90 694.00 L 335.30 699.40 L 333.30 704.80 L 330.90 709.80 L 328.10 714.70 L 325.00 719.30 L 321.50 723.70 L 317.80 727.80 L 313.70 731.50 L 309.30 735.00 L 304.70 738.10 L 299.80 740.90 L 294.80 743.30 L 289.40 745.30 L 284.00 746.90 L 278.30 748.00 L 272.50 748.70 L 266.50 749.00 L 260.50 748.70 L 254.70 748.00 L 249.00 746.90 L 243.60 745.30 L 238.20 743.30 L 233.20 740.90 L 228.30 738.10 L 223.70 735.00 L 219.30 731.50 L 215.20 727.80 L 211.50 723.70 L 208.00 719.30 L 204.90 714.70 L 202.10 709.80 L 199.70 704.80 L 197.70 699.40 L 196.10 694.00 L 195.00 688.30 L 194.30 682.50 L 194.00 676.50 L 194.30 670.50 L 195.00 664.70 L 196.10 659.00 L 197.70 653.60 L 199.70 648.20 L 202.10 643.20 L 204.90 638.30 L 208.00 633.70 L 211.50 629.30 L 215.20 625.20 L 219.30 621.50 L 223.70 618.00 L 228.30 614.90 L 233.20 612.10 L 238.20 609.70 L 243.60 607.70 L 249.00 606.10 L 254.70 605.00 L 260.50 604.30 L 266.50 604.00 L 272.50 604.30 L 278.30 605.00 L 284.00 606.10 L 289.40 607.70 L 294.80 609.70 L 299.80 612.10 L 304.70 614.90 L 309.30 618.00 L 313.70 621.50 L 317.80 625.20 L 321.50 629.30 L 325.00 633.70 L 328.10 638.30 L 330.90 643.20 L 333.30 648.20 L 335.30 653.60 L 336.90 659.00 L 338.00 664.70 L 338.70 670.50 L 339.00 676.50 Z" fill="#110d2e" fill-rule="evenodd" group-id="1,3,4,5" id="椭圆形备份-5" node-id="19" stroke="none" target-height="145" target-width="145" target-x="194" target-y="604"></path><path d="M 260.00 745.50 L 259.70 750.60 L 259.00 755.50 L 257.80 760.20 L 256.10 764.80 L 254.00 769.10 L 251.50 773.20 L 248.70 777.00 L 245.50 780.50 L 242.00 783.70 L 238.20 786.50 L 234.10 789.00 L 229.80 791.10 L 225.20 792.80 L 220.50 794.00 L 215.60 794.70 L 210.50 795.00 L 205.40 794.70 L 200.50 794.00 L 195.80 792.80 L 191.20 791.10 L 186.90 789.00 L 182.80 786.50 L 179.00 783.70 L 175.50 780.50 L 172.30 777.00 L 169.50 773.20 L 167.00 769.10 L 164.90 764.80 L 163.20 760.20 L 162.00 755.50 L 161.30 750.60 L 161.00 745.50 L 161.30 740.40 L 162.00 735.50 L 163.20 730.80 L 164.90 726.20 L 167.00 721.90 L 169.50 717.80 L 172.30 714.00 L 175.50 710.50 L 179.00 707.30 L 182.80 704.50 L 186.90 702.00 L 191.20 699.90 L 195.80 698.20 L 200.50 697.00 L 205.40 696.30 L 210.50 696.00 L 215.60 696.30 L 220.50 697.00 L 225.20 698.20 L 229.80 699.90 L 234.10 702.00 L 238.20 704.50 L 242.00 707.30 L 245.50 710.50 L 248.70 714.00 L 251.50 717.80 L 254.00 721.90 L 256.10 726.20 L 257.80 730.80 L 259.00 735.50 L 259.70 740.40 L 260.00 745.50 Z" fill="#110d2e" fill-rule="evenodd" group-id="1,3,4,5" id="椭圆形备份-6" node-id="20" stroke="none" target-height="99" target-width="99" target-x="161" target-y="696"></path><path d="M 209.00 790.00 L 208.20 797.90 L 205.90 805.20 L 203.70 809.70 L 200.90 813.80 L 197.60 817.60 L 193.80 820.90 L 189.70 823.70 L 185.20 825.90 L 177.90 828.20 L 170.00 829.00 L 162.10 828.20 L 154.80 825.90 L 150.30 823.70 L 146.20 820.90 L 142.40 817.60 L 139.10 813.80 L 136.30 809.70 L 134.10 805.20 L 131.80 797.90 L 131.20 794.00 L 131.00 790.00 L 131.20 786.00 L 132.80 778.40 L 134.10 774.80 L 136.30 770.30 L 139.10 766.20 L 142.40 762.40 L 146.20 759.10 L 150.30 756.30 L 154.80 754.10 L 162.10 751.80 L 170.00 751.00 L 177.90 751.80 L 185.20 754.10 L 189.70 756.30 L 193.80 759.10 L 197.60 762.40 L 200.90 766.20 L 203.70 770.30 L 205.90 774.80 L 208.20 782.10 L 209.00 790.00 Z" fill="#110d2e" fill-rule="evenodd" group-id="1,3,4,5" id="椭圆形备份-8" node-id="21" stroke="none" target-height="78" target-width="78" target-x="131" target-y="751"></path><g node-id="180"><path d="M 179.40 789.20 L 124.00 842.00 L 121.90 843.60 L 119.70 844.80 L 117.40 845.60 L 115.00 846.10 L 110.10 845.70 L 107.80 844.90 L 105.60 843.80 L 95.60 835.00 L 94.00 833.10 L 92.70 831.10 L 91.80 828.90 L 91.20 824.30 L 91.50 821.90 L 92.20 819.70 L 93.30 817.60 L 94.80 815.50 L 96.70 813.80 L 98.80 812.50 L 101.20 811.60 L 179.40 789.20 Z" fill="#110d2e" fill-rule="evenodd" group-id="1,3,4,5,16" id="路径-41" node-id="22" stroke="none" target-height="56.899963" target-width="88.2" target-x="91.2" target-y="789.2"></path></g></g><g node-id="170"><path d="M 685.50 676.50 L 685.70 682.50 L 686.40 688.30 L 687.60 694.00 L 689.20 699.40 L 691.20 704.80 L 693.60 709.80 L 696.30 714.70 L 699.50 719.30 L 702.90 723.70 L 706.70 727.80 L 710.80 731.50 L 715.20 735.00 L 719.80 738.10 L 724.60 740.90 L 729.70 743.30 L 735.10 745.30 L 740.50 746.90 L 746.10 748.00 L 752.00 748.70 L 758.00 749.00 L 764.00 748.70 L 769.80 748.00 L 775.40 746.90 L 780.90 745.30 L 786.20 743.30 L 791.30 740.90 L 796.20 738.10 L 800.80 735.00 L 805.20 731.50 L 809.20 727.80 L 813.00 723.70 L 816.50 719.30 L 819.60 714.70 L 822.40 709.80 L 824.80 704.80 L 826.80 699.40 L 828.40 694.00 L 829.50 688.30 L 830.20 682.50 L 830.50 676.50 L 830.20 670.50 L 829.50 664.70 L 828.40 659.00 L 826.80 653.60 L 824.80 648.20 L 822.40 643.20 L 819.60 638.30 L 816.50 633.70 L 813.00 629.30 L 809.20 625.20 L 805.20 621.50 L 800.80 618.00 L 796.20 614.90 L 791.30 612.10 L 786.20 609.70 L 780.90 607.70 L 775.40 606.10 L 769.80 605.00 L 764.00 604.30 L 758.00 604.00 L 752.00 604.30 L 746.10 605.00 L 740.50 606.10 L 735.10 607.70 L 729.70 609.70 L 724.60 612.10 L 719.80 614.90 L 715.20 618.00 L 710.80 621.50 L 706.70 625.20 L 702.90 629.30 L 699.50 633.70 L 696.30 638.30 L 693.60 643.20 L 691.20 648.20 L 689.20 653.60 L 687.60 659.00 L 686.40 664.70 L 685.70 670.50 L 685.50 676.50 Z" fill="#110d2e" fill-rule="evenodd" group-id="1,3,4,6" id="椭圆形备份-5" node-id="24" stroke="none" target-height="145" target-width="145" target-x="685.5" target-y="604"></path><path d="M 764.50 745.50 L 764.80 750.60 L 765.50 755.50 L 766.70 760.20 L 768.40 764.80 L 770.50 769.10 L 772.90 773.20 L 775.80 777.00 L 779.00 780.50 L 782.50 783.70 L 786.30 786.50 L 790.40 789.00 L 794.70 791.10 L 799.20 792.80 L 803.90 794.00 L 808.80 794.70 L 814.00 795.00 L 819.10 794.70 L 824.00 794.00 L 828.70 792.80 L 833.20 791.10 L 837.60 789.00 L 841.70 786.50 L 845.50 783.70 L 849.00 780.50 L 852.20 777.00 L 855.00 773.20 L 857.50 769.10 L 859.60 764.80 L 861.30 760.20 L 862.50 755.50 L 863.20 750.60 L 863.50 745.50 L 863.20 740.40 L 862.50 735.50 L 861.30 730.80 L 859.60 726.20 L 857.50 721.90 L 855.00 717.80 L 852.20 714.00 L 849.00 710.50 L 845.50 707.30 L 841.70 704.50 L 837.60 702.00 L 833.20 699.90 L 828.70 698.20 L 824.00 697.00 L 819.10 696.30 L 814.00 696.00 L 808.80 696.30 L 803.90 697.00 L 799.20 698.20 L 794.70 699.90 L 790.40 702.00 L 786.30 704.50 L 782.50 707.30 L 779.00 710.50 L 775.80 714.00 L 772.90 717.80 L 770.50 721.90 L 768.40 726.20 L 766.70 730.80 L 765.50 735.50 L 764.80 740.40 L 764.50 745.50 Z" fill="#110d2e" fill-rule="evenodd" group-id="1,3,4,6" id="椭圆形备份-6" node-id="25" stroke="none" target-height="99" target-width="99" target-x="764.5" target-y="696"></path><path d="M 815.50 790.00 L 816.30 797.90 L 817.20 801.60 L 818.50 805.20 L 820.80 809.70 L 823.60 813.80 L 826.90 817.60 L 830.70 820.90 L 834.80 823.70 L 839.30 825.90 L 846.60 828.20 L 854.50 829.00 L 862.40 828.20 L 869.70 825.90 L 874.20 823.70 L 878.30 820.90 L 882.10 817.60 L 885.40 813.80 L 888.10 809.70 L 890.40 805.20 L 892.70 797.90 L 893.30 794.00 L 893.50 790.00 L 893.30 786.00 L 891.70 778.40 L 890.40 774.80 L 888.10 770.30 L 885.40 766.20 L 882.10 762.40 L 878.30 759.10 L 874.20 756.30 L 869.70 754.10 L 862.40 751.80 L 854.50 751.00 L 846.60 751.80 L 839.30 754.10 L 834.80 756.30 L 830.70 759.10 L 826.90 762.40 L 823.60 766.20 L 820.80 770.30 L 818.50 774.80 L 817.20 778.40 L 816.30 782.10 L 815.50 790.00 Z" fill="#110d2e" fill-rule="evenodd" group-id="1,3,4,6" id="椭圆形备份-8" node-id="26" stroke="none" target-height="78" target-width="78" target-x="815.5" target-y="751"></path><g node-id="181"><path d="M 845.10 789.20 L 900.50 842.00 L 902.60 843.60 L 904.70 844.80 L 907.10 845.60 L 911.90 846.10 L 914.40 845.70 L 916.70 844.90 L 918.90 843.80 L 928.80 835.00 L 930.50 833.10 L 931.80 831.10 L 932.70 828.90 L 933.20 826.60 L 933.30 824.30 L 933.00 821.90 L 932.30 819.70 L 931.20 817.60 L 929.70 815.50 L 927.80 813.80 L 925.70 812.50 L 923.30 811.60 L 845.10 789.20 Z" fill="#110d2e" fill-rule="evenodd" group-id="1,3,4,6,17" id="路径-41" node-id="27" stroke="none" target-height="56.899963" target-width="88.20001" target-x="845.1" target-y="789.2"></path></g></g><path d="M 275.40 629.80 L 278.60 628.00 L 281.30 625.90 L 283.70 623.50 L 285.70 620.80 L 287.40 617.90 L 288.70 614.70 L 289.70 611.30 L 290.30 607.70 L 290.30 600.30 L 288.80 592.30 L 285.90 584.40 L 281.30 576.30 L 277.50 571.30 L 273.30 566.80 L 268.80 562.80 L 263.90 559.20 L 258.90 556.30 L 253.80 554.00 L 245.90 551.70 L 238.30 550.80 L 234.40 551.00 L 230.80 551.50 L 227.30 552.50 L 223.90 553.90 L 220.80 555.70 L 218.10 557.80 L 215.70 560.20 L 213.70 562.90 L 212.00 565.90 L 210.70 569.00 L 209.70 572.40 L 209.10 576.00 L 209.10 583.40 L 210.60 591.40 L 213.50 599.30 L 218.10 607.40 L 221.90 612.50 L 226.10 617.00 L 230.60 621.00 L 235.50 624.50 L 240.50 627.40 L 245.60 629.70 L 253.50 632.00 L 261.10 632.90 L 265.00 632.70 L 268.60 632.20 L 272.10 631.20 L 275.40 629.80 Z" fill="#fbb4b4" fill-rule="evenodd" group-id="1,3,4" id="椭圆形备份-4" node-id="28" stroke="none" target-height="82.10004" target-width="81.19998" target-x="209.1" target-y="550.8"></path><path d="M 747.90 629.80 L 744.80 628.00 L 742.10 625.90 L 739.70 623.50 L 737.70 620.80 L 736.00 617.90 L 734.70 614.70 L 733.70 611.30 L 733.10 607.70 L 733.10 600.30 L 734.60 592.30 L 737.50 584.40 L 742.10 576.30 L 745.90 571.30 L 750.10 566.80 L 754.60 562.80 L 759.50 559.20 L 764.50 556.30 L 769.60 554.00 L 777.50 551.70 L 785.10 550.80 L 789.00 551.00 L 792.60 551.50 L 796.10 552.50 L 799.40 553.90 L 802.60 555.70 L 805.30 557.80 L 807.70 560.20 L 809.70 562.90 L 811.40 565.90 L 812.70 569.00 L 813.70 572.40 L 814.30 576.00 L 814.30 583.40 L 812.80 591.40 L 809.90 599.30 L 805.30 607.40 L 801.50 612.50 L 797.30 617.00 L 792.80 621.00 L 787.90 624.50 L 782.90 627.40 L 777.80 629.70 L 769.90 632.00 L 762.30 632.90 L 758.40 632.70 L 754.80 632.20 L 751.30 631.20 L 747.90 629.80 Z" fill="#fbb4b4" fill-rule="evenodd" group-id="1,3,4" id="椭圆形备份-12" node-id="29" stroke="none" target-height="82.10004" target-width="81.20001" target-x="733.1" target-y="550.8"></path><g node-id="171"><path d="M 379.50 953.50 L 353.50 1039.60" fill="none" group-id="1,3,4,7" id="路径-6" node-id="30" stroke="#000000" stroke-linecap="round" stroke-opacity="0.10692633" stroke-width="7" target-height="86.099976" target-width="26" target-x="353.5" target-y="953.5"></path></g><g node-id="172"><path d="M 644.50 953.50 L 670.50 1039.60" fill="none" group-id="1,3,4,8" id="路径-6备份" node-id="31" stroke="#000000" stroke-linecap="round" stroke-opacity="0.10692633" stroke-width="7" target-height="86.099976" target-width="26" target-x="644.5" target-y="953.5"></path></g><g node-id="173"><g node-id="182"><path d="M 465.00 712.00 L 559.00 712.00 L 559.00 845.00 L 465.00 845.00 Z" fill="#ffcaca" fill-rule="evenodd" group-id="1,3,4,9,18" node-id="142" stroke="none" target-height="133" target-width="94" target-x="465" target-y="712"></path></g><path d="M 591.00 717.00 L 590.70 720.90 L 590.00 724.60 L 588.70 728.30 L 587.00 731.90 L 584.80 735.20 L 579.30 741.70 L 575.80 744.80 L 570.80 748.40 L 565.10 751.80 L 558.70 754.90 L 552.00 757.50 L 544.80 759.80 L 537.00 761.60 L 529.10 762.90 L 520.70 763.70 L 512.00 764.00 L 503.30 763.70 L 494.90 762.90 L 487.00 761.60 L 479.20 759.80 L 472.00 757.50 L 465.30 754.90 L 458.90 751.80 L 453.20 748.40 L 448.20 744.80 L 444.70 741.70 L 441.70 738.50 L 439.20 735.20 L 437.00 731.90 L 435.30 728.30 L 434.00 724.60 L 433.30 720.90 L 433.00 717.00 L 433.30 713.10 L 434.00 709.40 L 435.30 705.70 L 437.00 702.10 L 439.20 698.80 L 441.70 695.50 L 444.70 692.30 L 448.20 689.20 L 453.20 685.60 L 458.90 682.20 L 465.30 679.10 L 472.00 676.50 L 479.20 674.20 L 487.00 672.40 L 494.90 671.10 L 503.30 670.30 L 512.00 670.00 L 520.70 670.30 L 529.10 671.10 L 537.00 672.40 L 544.80 674.20 L 552.00 676.50 L 558.70 679.10 L 565.10 682.20 L 570.80 685.60 L 575.80 689.20 L 579.30 692.30 L 584.80 698.80 L 587.00 702.10 L 588.70 705.70 L 590.00 709.40 L 590.70 713.10 L 591.00 717.00 Z" fill="#ec8484" fill-opacity="0.21490623" fill-rule="evenodd" group-id="1,3,4,9,19" node-id="147" stroke="none" target-height="94" target-width="158" target-x="433" target-y="670"></path></g><path d="M 767.00 524.00 L 766.70 534.70 L 765.90 545.20 L 764.50 555.50 L 762.70 565.60 L 760.30 575.60 L 757.40 585.50 L 754.00 595.10 L 750.20 604.60 L 745.90 613.90 L 741.10 622.90 L 735.90 631.80 L 730.30 640.40 L 724.30 648.70 L 717.80 656.80 L 711.00 664.70 L 703.80 672.30 L 696.30 679.50 L 688.40 686.50 L 680.10 693.20 L 671.50 699.60 L 662.60 705.60 L 653.50 711.20 L 644.00 716.50 L 634.30 721.50 L 624.10 726.10 L 613.90 730.30 L 603.50 734.10 L 592.70 737.50 L 581.70 740.50 L 570.50 743.10 L 559.20 745.20 L 547.70 746.80 L 536.00 748.00 L 524.10 748.70 L 512.00 749.00 L 499.90 748.70 L 488.00 748.00 L 476.30 746.80 L 464.80 745.20 L 453.50 743.10 L 442.30 740.50 L 431.30 737.50 L 420.50 734.10 L 410.10 730.30 L 399.90 726.10 L 389.70 721.50 L 380.00 716.50 L 370.50 711.20 L 361.40 705.60 L 352.50 699.60 L 343.90 693.20 L 335.60 686.50 L 327.70 679.50 L 320.20 672.30 L 313.00 664.70 L 306.20 656.80 L 299.70 648.70 L 293.70 640.40 L 288.10 631.80 L 282.90 622.90 L 278.10 613.90 L 273.80 604.60 L 270.00 595.10 L 266.60 585.50 L 263.70 575.60 L 261.30 565.60 L 259.50 555.50 L 258.10 545.20 L 257.30 534.70 L 257.00 524.00 L 257.30 513.30 L 258.10 502.80 L 259.50 492.50 L 261.30 482.40 L 263.70 472.40 L 266.60 462.50 L 270.00 452.90 L 273.80 443.40 L 278.10 434.10 L 282.90 425.10 L 288.10 416.20 L 293.70 407.60 L 299.70 399.30 L 306.20 391.20 L 313.00 383.30 L 320.20 375.70 L 327.70 368.50 L 335.60 361.50 L 343.90 354.80 L 352.50 348.40 L 361.40 342.40 L 370.50 336.80 L 380.00 331.50 L 389.70 326.50 L 399.90 321.90 L 410.10 317.70 L 420.50 313.90 L 431.30 310.50 L 442.30 307.50 L 453.50 304.90 L 464.80 302.80 L 476.30 301.20 L 488.00 300.00 L 499.90 299.30 L 512.00 299.00 L 524.10 299.30 L 536.00 300.00 L 547.70 301.20 L 559.20 302.80 L 570.50 304.90 L 581.70 307.50 L 592.70 310.50 L 603.50 313.90 L 613.90 317.70 L 624.10 321.90 L 634.30 326.50 L 644.00 331.50 L 653.50 336.80 L 662.60 342.40 L 671.50 348.40 L 680.10 354.80 L 688.40 361.50 L 696.30 368.50 L 703.80 375.70 L 711.00 383.30 L 717.80 391.20 L 724.30 399.30 L 730.30 407.60 L 735.90 416.20 L 741.10 425.10 L 745.90 434.10 L 750.20 443.40 L 754.00 452.90 L 757.40 462.50 L 760.30 472.40 L 762.70 482.40 L 764.50 492.50 L 765.90 502.80 L 766.70 513.30 L 767.00 524.00 Z" fill="#ffcaca" fill-rule="evenodd" group-id="1,3,4" id="椭圆形" node-id="37" stroke="none" target-height="450" target-width="510" target-x="257" target-y="299"></path><path d="M 502.00 594.00 L 502.00 620.00 L 502.20 622.60 L 502.90 624.90 L 503.90 627.10 L 505.30 629.00 L 507.00 630.70 L 508.90 632.10 L 511.10 633.10 L 513.40 633.80 L 516.00 634.00 L 522.80 634.00" fill="none" group-id="1,3,4" id="路径-5备份" node-id="38" stroke="#ff9494" stroke-linecap="round" stroke-width="8" target-height="40" target-width="20.799988" target-x="502" target-y="594"></path><path d="M 434.00 567.00 L 433.70 570.50 L 432.80 573.60 L 431.40 576.60 L 429.50 579.30 L 427.30 581.50 L 424.60 583.40 L 421.60 584.80 L 418.50 585.70 L 415.00 586.00 L 411.50 585.70 L 408.40 584.80 L 405.40 583.40 L 402.70 581.50 L 400.50 579.30 L 398.60 576.60 L 397.20 573.60 L 396.30 570.50 L 396.00 567.00 L 396.30 563.50 L 397.20 560.40 L 398.60 557.40 L 400.50 554.70 L 402.70 552.50 L 405.40 550.60 L 408.40 549.20 L 411.50 548.30 L 415.00 548.00 L 418.50 548.30 L 421.60 549.20 L 424.60 550.60 L 427.30 552.50 L 429.50 554.70 L 431.40 557.40 L 432.80 560.40 L 433.70 563.50 L 434.00 567.00 Z" fill="#110d2e" fill-rule="evenodd" group-id="1,3,4" id="椭圆形" node-id="39" stroke="none" target-height="38" target-width="38" target-x="396" target-y="548"></path><path d="M 628.00 567.00 L 627.70 570.50 L 626.80 573.60 L 625.40 576.60 L 623.50 579.30 L 621.30 581.50 L 618.60 583.40 L 615.60 584.80 L 612.50 585.70 L 609.00 586.00 L 605.50 585.70 L 602.40 584.80 L 599.40 583.40 L 596.70 581.50 L 594.50 579.30 L 592.60 576.60 L 591.20 573.60 L 590.30 570.50 L 590.00 567.00 L 590.30 563.50 L 591.20 560.40 L 592.60 557.40 L 594.50 554.70 L 596.70 552.50 L 599.40 550.60 L 602.40 549.20 L 605.50 548.30 L 609.00 548.00 L 612.50 548.30 L 615.60 549.20 L 618.60 550.60 L 621.30 552.50 L 623.50 554.70 L 625.40 557.40 L 626.80 560.40 L 627.70 563.50 L 628.00 567.00 Z" fill="#110d2e" fill-rule="evenodd" group-id="1,3,4" id="椭圆形备份-7" node-id="40" stroke="none" target-height="38" target-width="38" target-x="590" target-y="548"></path><path d="M 469.00 680.50 L 481.50 685.60 L 487.30 687.40 L 493.30 688.70 L 499.30 689.60 L 505.40 690.00 L 511.50 690.00 L 517.50 689.60 L 523.50 688.60 L 529.50 687.30 L 535.30 685.50 L 541.00 683.20 L 546.60 680.50" fill="none" group-id="1,3,4" id="路径-35" node-id="41" stroke="#ec8484" stroke-linecap="round" stroke-width="10" target-height="9.5" target-width="77.599976" target-x="469" target-y="680.5"></path><path d="M 380.00 519.60 L 391.00 517.00 L 400.30 515.20 L 408.10 514.30 L 414.50 514.00 L 420.90 514.30 L 428.70 515.20 L 438.30 516.90 L 449.80 519.60" fill="none" group-id="1,3,4" id="路径-4备份" node-id="42" stroke="#110d2e" stroke-linecap="round" stroke-width="6" target-height="5.5999756" target-width="69.79999" target-x="380" target-y="514"></path><g node-id="174"><path d="M 643.80 519.60 L 632.70 517.00 L 623.40 515.20 L 615.70 514.30 L 609.30 514.00 L 602.90 514.30 L 595.00 515.20 L 585.50 516.90 L 574.00 519.60" fill="none" group-id="1,3,4,10" id="路径-4备份-2" node-id="43" stroke="#110d2e" stroke-linecap="round" stroke-width="6" target-height="5.5999756" target-width="69.79999" target-x="574" target-y="514"></path></g><g node-id="175"><g node-id="184"><path d="M 512.00 781.00 L 523.20 781.30 L 534.20 782.20 L 545.00 783.60 L 555.70 785.50 L 566.20 788.00 L 576.60 791.00 L 586.90 794.50 L 597.00 798.50 L 606.90 803.00 L 616.70 808.00 L 626.20 813.50 L 635.50 819.30 L 644.70 825.70 L 653.60 832.50 L 662.40 839.70 L 670.80 847.30 L 679.00 855.30 L 687.00 863.70 L 694.70 872.50 L 702.20 881.80 L 709.30 891.20 L 716.20 901.00 L 722.70 911.20 L 729.00 921.70 L 735.10 932.70 L 740.70 943.70 L 745.90 955.10 L 750.90 966.70 L 755.50 978.80 L 759.90 991.10 L 763.70 1003.50 L 767.20 1016.10 L 770.40 1029.00 L 773.10 1042.20 L 775.50 1055.70 L 777.50 1069.10 L 779.00 1082.70 L 780.10 1096.60 L 780.80 1110.70 L 781.00 1125.00 L 780.80 1139.30 L 780.10 1153.40 L 779.00 1167.30 L 777.50 1180.90 L 775.50 1194.30 L 773.10 1207.80 L 770.40 1221.00 L 767.20 1233.90 L 763.70 1246.50 L 759.90 1258.90 L 755.50 1271.20 L 750.90 1283.30 L 745.90 1294.90 L 740.70 1306.30 L 735.10 1317.30 L 729.00 1328.30 L 722.70 1338.80 L 716.20 1349.00 L 709.30 1358.80 L 702.20 1368.20 L 694.70 1377.50 L 687.00 1386.30 L 679.00 1394.70 L 670.80 1402.70 L 662.40 1410.30 L 653.60 1417.50 L 644.70 1424.30 L 635.50 1430.70 L 626.20 1436.50 L 616.70 1442.00 L 606.90 1447.00 L 597.00 1451.50 L 586.90 1455.50 L 576.60 1459.00 L 566.20 1462.00 L 555.70 1464.50 L 545.00 1466.40 L 534.20 1467.80 L 523.20 1468.70 L 512.00 1469.00 L 500.80 1468.70 L 489.80 1467.80 L 479.00 1466.40 L 468.30 1464.50 L 457.80 1462.00 L 447.40 1459.00 L 437.10 1455.50 L 427.00 1451.50 L 417.10 1447.00 L 407.30 1442.00 L 397.80 1436.50 L 388.50 1430.70 L 379.30 1424.30 L 370.40 1417.50 L 361.60 1410.30 L 353.20 1402.70 L 345.00 1394.70 L 337.00 1386.30 L 329.30 1377.50 L 321.80 1368.20 L 314.70 1358.80 L 307.80 1349.00 L 301.30 1338.80 L 295.00 1328.30 L 288.90 1317.30 L 283.30 1306.30 L 278.10 1294.90 L 273.10 1283.30 L 268.50 1271.20 L 264.10 1258.90 L 260.30 1246.50 L 256.80 1233.90 L 253.60 1221.00 L 250.90 1207.80 L 248.50 1194.30 L 246.50 1180.90 L 245.00 1167.30 L 243.90 1153.40 L 243.20 1139.30 L 243.00 1125.00 L 243.20 1110.70 L 243.90 1096.60 L 245.00 1082.70 L 246.50 1069.10 L 248.50 1055.70 L 250.90 1042.20 L 253.60 1029.00 L 256.80 1016.10 L 260.30 1003.50 L 264.10 991.10 L 268.50 978.80 L 273.10 966.70 L 278.10 955.10 L 283.30 943.70 L 288.90 932.70 L 295.00 921.70 L 301.30 911.20 L 307.80 901.00 L 314.70 891.20 L 321.80 881.80 L 329.30 872.50 L 337.00 863.70 L 345.00 855.30 L 353.20 847.30 L 361.60 839.70 L 370.40 832.50 L 379.30 825.70 L 388.50 819.30 L 397.80 813.50 L 407.30 808.00 L 417.10 803.00 L 427.00 798.50 L 437.10 794.50 L 447.40 791.00 L 457.80 788.00 L 468.30 785.50 L 479.00 783.60 L 489.80 782.20 L 500.80 781.30 L 512.00 781.00 Z" fill="#ffffff" fill-rule="evenodd" group-id="1,3,4,11,20" node-id="163" stroke="none" target-height="688" target-width="538" target-x="243" target-y="781"></path></g><g node-id="185"><path d="M 243.00 781.00 L 434.00 781.00 L 434.00 1143.00 L 243.00 1143.00 Z" fill="#1c8784" fill-opacity="0" fill-rule="nonzero" group-id="1,3,4,11,21" id="矩形" node-id="48" stroke="none" target-height="362" target-width="191" target-x="243" target-y="781"></path></g><g node-id="186"><path d="M 584.00 781.00 L 775.00 781.00 L 775.00 1143.00 L 584.00 1143.00 Z" fill="#1c8784" fill-opacity="0" fill-rule="nonzero" group-id="1,3,4,11,22" id="矩形备份" node-id="49" stroke="none" target-height="362" target-width="191" target-x="584" target-y="781"></path></g><path d="M 584.00 783.00 L 583.70 785.30 L 582.70 787.60 L 581.00 789.90 L 578.30 792.30 L 572.10 796.20 L 562.90 800.00 L 556.30 801.90 L 548.70 803.70 L 540.00 805.10 L 531.30 806.10 L 522.00 806.80 L 512.00 807.00 L 502.00 806.80 L 492.70 806.10 L 484.00 805.10 L 475.30 803.70 L 467.70 801.90 L 461.10 800.00 L 451.90 796.20 L 445.70 792.30 L 443.00 789.90 L 441.30 787.60 L 440.30 785.30 L 440.00 783.00 L 440.30 780.70 L 441.30 778.40 L 443.00 776.10 L 445.70 773.70 L 451.90 769.80 L 461.10 766.00 L 467.70 764.10 L 475.30 762.30 L 484.00 760.90 L 492.70 759.90 L 502.00 759.20 L 512.00 759.00 L 522.00 759.20 L 531.30 759.90 L 540.00 760.90 L 548.70 762.30 L 556.30 764.10 L 562.90 766.00 L 572.10 769.80 L 578.30 773.70 L 581.00 776.10 L 582.70 778.40 L 583.70 780.70 L 584.00 783.00 Z" fill="#ffcaca" fill-rule="evenodd" group-id="1,3,4,11,23" id="椭圆形" node-id="50" stroke="none" target-height="48" target-width="144" target-x="440" target-y="759"></path></g><path d="M 520.00 871.00 L 519.70 873.10 L 518.90 875.00 L 517.70 876.70 L 516.00 877.90 L 514.10 878.70 L 512.00 879.00 L 509.90 878.70 L 508.00 877.90 L 506.30 876.70 L 505.10 875.00 L 504.30 873.10 L 504.00 871.00 L 504.30 868.90 L 505.10 867.00 L 506.30 865.30 L 508.00 864.10 L 509.90 863.30 L 512.00 863.00 L 514.10 863.30 L 516.00 864.10 L 517.70 865.30 L 518.90 867.00 L 519.70 868.90 L 520.00 871.00 Z" fill="#1c8784" fill-rule="evenodd" group-id="1,3,4" id="椭圆形" node-id="51" stroke="none" target-height="16" target-width="16" target-x="504" target-y="863"></path><path d="M 520.00 934.00 L 519.70 936.10 L 518.90 938.00 L 517.70 939.70 L 516.00 940.90 L 514.10 941.70 L 512.00 942.00 L 509.90 941.70 L 508.00 940.90 L 506.30 939.70 L 505.10 938.00 L 504.30 936.10 L 504.00 934.00 L 504.30 931.90 L 505.10 930.00 L 506.30 928.30 L 508.00 927.10 L 509.90 926.30 L 512.00 926.00 L 514.10 926.30 L 516.00 927.10 L 517.70 928.30 L 518.90 930.00 L 519.70 931.90 L 520.00 934.00 Z" fill="#1c8784" fill-rule="evenodd" group-id="1,3,4" id="椭圆形备份-2" node-id="52" stroke="none" target-height="16" target-width="16" target-x="504" target-y="926"></path><path d="M 520.00 997.00 L 519.70 999.10 L 518.90 1001.00 L 517.70 1002.70 L 516.00 1003.90 L 514.10 1004.70 L 512.00 1005.00 L 509.90 1004.70 L 508.00 1003.90 L 506.30 1002.70 L 505.10 1001.00 L 504.30 999.10 L 504.00 997.00 L 504.30 994.90 L 505.10 993.00 L 506.30 991.30 L 508.00 990.10 L 509.90 989.30 L 512.00 989.00 L 514.10 989.30 L 516.00 990.10 L 517.70 991.30 L 518.90 993.00 L 519.70 994.90 L 520.00 997.00 Z" fill="#1c8784" fill-rule="evenodd" group-id="1,3,4" id="椭圆形备份-3" node-id="53" stroke="none" target-height="16" target-width="16" target-x="504" target-y="989"></path><g node-id="176"><path d="M 379.50 953.50 L 353.50 1039.60" fill="none" group-id="1,3,4,12" id="路径-6" node-id="54" stroke="#000000" stroke-linecap="round" stroke-opacity="0.10692633" stroke-width="7" target-height="86.099976" target-width="26" target-x="353.5" target-y="953.5"></path></g><g node-id="177"><path d="M 644.50 953.50 L 670.50 1039.60" fill="none" group-id="1,3,4,13" id="路径-6备份" node-id="55" stroke="#000000" stroke-linecap="round" stroke-opacity="0.10692633" stroke-width="7" target-height="86.099976" target-width="26" target-x="644.5" target-y="953.5"></path></g><g node-id="178"><path d="M 457.80 467.90 L 447.40 477.80 L 436.90 487.00 L 426.30 495.50 L 415.50 503.30 L 404.40 510.70 L 393.20 517.30 L 382.10 523.30 L 371.00 528.50 L 361.90 532.40 L 344.00 538.70 L 326.60 543.20 L 317.70 544.80 L 309.00 546.00 L 300.60 546.70 L 292.40 546.90 L 284.40 546.70 L 276.30 546.00 L 268.50 544.80 L 261.00 543.20 L 253.80 541.10 L 246.90 538.60 L 240.10 535.50 L 233.70 532.00 L 227.60 528.00 L 221.80 523.50 L 216.30 518.40 L 211.30 513.00 L 206.70 507.20 L 202.70 501.10 L 199.20 494.60 L 196.10 487.80 L 193.60 480.90 L 191.50 473.70 L 189.90 466.20 L 188.70 458.40 L 188.00 450.30 L 187.80 442.30 L 188.10 434.10 L 188.80 425.70 L 189.90 417.10 L 191.60 408.20 L 196.00 390.80 L 202.30 372.90 L 206.20 363.70 L 211.40 352.60 L 217.40 341.50 L 224.00 330.40 L 231.40 319.20 L 239.30 308.40 L 247.80 297.80 L 256.90 287.30 L 266.90 277.00 L 277.20 267.10 L 287.70 257.90 L 298.30 249.40 L 309.10 241.60 L 320.30 234.20 L 331.40 227.50 L 342.50 221.60 L 353.60 216.30 L 362.80 212.40 L 380.70 206.10 L 398.10 201.70 L 407.00 200.00 L 415.60 198.90 L 424.00 198.20 L 432.20 198.00 L 440.20 198.20 L 448.30 198.80 L 456.10 200.00 L 463.60 201.60 L 470.80 203.70 L 477.70 206.20 L 484.50 209.30 L 491.00 212.80 L 497.10 216.90 L 502.80 221.40 L 508.30 226.40 L 513.40 231.90 L 517.90 237.70 L 521.90 243.80 L 525.40 250.20 L 528.50 257.00 L 531.00 263.90 L 533.10 271.10 L 534.70 278.60 L 535.90 286.40 L 536.60 294.50 L 536.80 302.50 L 536.50 310.70 L 535.90 319.10 L 534.70 327.80 L 533.10 336.70 L 528.60 354.10 L 522.30 372.00 L 518.40 381.20 L 513.20 392.20 L 507.20 403.30 L 500.60 414.50 L 493.20 425.70 L 485.40 436.40 L 476.90 447.00 L 467.70 457.50 L 457.80 467.90 Z" fill="#110d2e" fill-rule="evenodd" group-id="1,3,4,14" id="椭圆形" node-id="56" stroke="none" target-height="348.90002" target-width="349" target-x="187.8" target-y="198"></path></g><path d="M 566.90 467.90 L 577.20 477.80 L 587.70 487.00 L 598.30 495.50 L 609.10 503.30 L 620.30 510.70 L 631.40 517.30 L 642.50 523.30 L 653.60 528.50 L 671.80 535.80 L 689.40 541.20 L 698.10 543.20 L 707.00 544.80 L 715.60 546.00 L 724.00 546.70 L 732.20 546.90 L 740.20 546.70 L 748.30 546.00 L 756.10 544.80 L 763.60 543.20 L 770.80 541.10 L 777.70 538.60 L 784.50 535.50 L 791.00 532.00 L 797.10 528.00 L 802.80 523.50 L 808.30 518.40 L 813.40 513.00 L 817.90 507.20 L 821.90 501.10 L 825.40 494.60 L 828.50 487.80 L 831.00 480.90 L 833.10 473.70 L 834.70 466.20 L 835.90 458.40 L 836.60 450.30 L 836.80 442.30 L 836.50 434.10 L 835.90 425.70 L 834.70 417.10 L 833.10 408.20 L 831.00 399.50 L 825.70 381.90 L 818.40 363.70 L 813.20 352.60 L 807.20 341.50 L 800.60 330.40 L 793.20 319.20 L 785.40 308.40 L 776.90 297.80 L 767.70 287.30 L 757.80 277.00 L 747.40 267.10 L 736.90 257.90 L 726.30 249.40 L 715.50 241.60 L 704.40 234.20 L 693.20 227.50 L 682.10 221.60 L 671.00 216.30 L 652.80 209.10 L 635.20 203.70 L 626.60 201.70 L 617.70 200.00 L 609.00 198.90 L 600.60 198.20 L 592.40 198.00 L 584.40 198.20 L 576.30 198.80 L 568.50 200.00 L 561.00 201.60 L 553.80 203.70 L 546.90 206.20 L 540.10 209.30 L 533.70 212.80 L 527.60 216.90 L 521.80 221.40 L 516.30 226.40 L 511.30 231.90 L 506.70 237.70 L 502.70 243.80 L 499.20 250.20 L 496.10 257.00 L 493.60 263.90 L 491.50 271.10 L 489.90 278.60 L 488.70 286.40 L 488.00 294.50 L 487.80 302.50 L 488.10 310.70 L 488.80 319.10 L 489.90 327.80 L 491.60 336.70 L 493.60 345.30 L 498.90 363.00 L 506.20 381.20 L 511.40 392.20 L 517.40 403.30 L 524.00 414.50 L 531.40 425.70 L 539.30 436.40 L 547.80 447.00 L 556.90 457.50 L 566.90 467.90 Z" fill="#110d2e" fill-rule="evenodd" group-id="1,3,4,15" id="椭圆形备份" node-id="57" stroke="none" target-height="348.90002" target-width="349" target-x="487.8" target-y="198"></path></g></g></g></svg>