<?xml version="1.0" standalone="no"?><!DOCTYPE svg PUBLIC "-//W3C//DTD SVG 1.1//EN" "http://www.w3.org/Graphics/SVG/1.1/DTD/svg11.dtd"><svg height="1024" node-id="1" sillyvg="true" template-height="1024" template-width="1024" version="1.1" viewBox="0 0 1024 1024" width="1024" xmlns="http://www.w3.org/2000/svg" xmlns:xlink="http://www.w3.org/1999/xlink"><defs node-id="85"><linearGradient gradientUnits="objectBoundingBox" id="_路径_00000009568576152199012280000001771916269362694309_" node-id="4" spreadMethod="pad" x1="1.5371" x2="1.5371" y1="1022.684" y2="1023.684"><stop offset="0" stop-color="#ffffff" stop-opacity="0.1"></stop><stop offset="1" stop-color="#c1e7f7"></stop></linearGradient><linearGradient gradientUnits="objectBoundingBox" id="_路径-2_00000176040277557324731780000016163293850416311990_" node-id="8" spreadMethod="pad" x1="1.4304" x2="1.4304" y1="1021.8094" y2="1022.8094"><stop offset="0" stop-color="#ffffff" stop-opacity="0.1"></stop><stop offset="1" stop-color="#c1e7f7"></stop></linearGradient><linearGradient gradientUnits="objectBoundingBox" id="_路径-3_00000103985198148637090110000002793530865497059226_" node-id="12" spreadMethod="pad" x1="1.4621" x2="1.4621" y1="1023.0066" y2="1024.0066"><stop offset="0" stop-color="#ffffff" stop-opacity="0.1"></stop><stop offset="1" stop-color="#c1e7f7"></stop></linearGradient><linearGradient gradientUnits="objectBoundingBox" id="_路径-4_00000106865455819959313680000001602099751032273033_" node-id="16" spreadMethod="pad" x1="-0.8588" x2="-0.8588" y1="1022.7066" y2="1023.7066"><stop offset="0" stop-color="#ffffff" stop-opacity="0.1"></stop><stop offset="1" stop-color="#c1e7f7"></stop></linearGradient><linearGradient gradientUnits="objectBoundingBox" id="SVGID_1_" node-id="20" spreadMethod="pad" x1="512" x2="512" y1="1116.95" y2="725.95"><stop offset="0" stop-color="#ffffff" stop-opacity="0.1"></stop><stop offset="0.13" stop-color="#fbfdff" stop-opacity="0.19"></stop><stop offset="0.41" stop-color="#f1f7ff" stop-opacity="0.43"></stop><stop offset="0.81" stop-color="#e1eeff" stop-opacity="0.82"></stop><stop offset="1" stop-color="#bfdaff"></stop></linearGradient><linearGradient gradientUnits="objectBoundingBox" id="SVGID_00000035492414724079257560000003154589303317539718_" node-id="30" spreadMethod="pad" x1="235.4479" x2="180.3399" y1="751.5295" y2="719.7049"><stop offset="0" stop-color="#2abcf8"></stop><stop offset="1" stop-color="#bce8fd"></stop></linearGradient><linearGradient gradientUnits="objectBoundingBox" id="SVGID_00000005947204232757406520000005572111713885347976_" node-id="37" spreadMethod="pad" x1="962.584" x2="907.4676" y1="795.3671" y2="763.5533"><stop offset="0" stop-color="#2abcf8"></stop><stop offset="1" stop-color="#bce8fd"></stop></linearGradient><linearGradient gradientUnits="objectBoundingBox" id="SVGID_00000029008543034704474210000001374436952418982581_" node-id="44" spreadMethod="pad" x1="204.4332" x2="149.3241" y1="769.413" y2="737.5978"><stop offset="0" stop-color="#2abcf8"></stop><stop offset="1" stop-color="#bce8fd"></stop></linearGradient><linearGradient gradientUnits="objectBoundingBox" id="_路径-9_00000108270821973926730840000009374457010628464808_" node-id="48" spreadMethod="pad" x1="1.3497" x2="0.8697" y1="1025.6788" y2="1025.759"><stop offset="0" stop-color="#e1e8ff" stop-opacity="0"></stop><stop offset="1" stop-color="#c6e9f7"></stop></linearGradient><linearGradient gradientUnits="objectBoundingBox" id="_路径-7_00000119835360202164506370000016847474769601824670_" node-id="53" spreadMethod="pad" x1="0.5554" x2="0.7154" y1="1025.4667" y2="1025.0167"><stop offset="0" stop-color="#ecf5f8"></stop><stop offset="1" stop-color="#8dd9f7"></stop></linearGradient><linearGradient gradientUnits="objectBoundingBox" id="_路径-5_00000023277273545001057820000016641626733804967579_" node-id="59" spreadMethod="pad" x1="0.3793" x2="0.5393" y1="1025.8184" y2="1025.5684"><stop offset="0" stop-color="#ebf4f7"></stop><stop offset="1" stop-color="#8dd9f7"></stop></linearGradient><linearGradient gradientUnits="objectBoundingBox" id="_路径-10_00000117648600247250343720000014430233671163970976_" node-id="63" spreadMethod="pad" x1="0.4515" x2="0.4515" y1="1026.3843" y2="1025.6542"><stop offset="0" stop-color="#d7eef7"></stop><stop offset="1" stop-color="#8dd9f7"></stop></linearGradient><linearGradient gradientUnits="objectBoundingBox" id="_路径-4_00000073002197087905009790000016724161362596667319_" node-id="67" spreadMethod="pad" x1="0.8913" x2="0.7813" y1="1025.7681" y2="1025.5979"><stop offset="0" stop-color="#ebf4f7"></stop><stop offset="1" stop-color="#8dd9f7"></stop></linearGradient><linearGradient gradientUnits="objectBoundingBox" id="Path-9_00000127002467726606588030000000874661824947251878_" node-id="73" spreadMethod="pad" x1="40.7304" x2="40.7304" y1="1022.655" y2="1021.8447"><stop offset="0" stop-color="#1c4588"></stop><stop offset="1" stop-color="#2e5696"></stop></linearGradient></defs><path d="M 174.10 268.20 L 172.90 263.30 L 171.20 258.70 L 168.90 254.40 L 166.20 250.40 L 163.10 246.80 L 159.60 243.60 L 155.70 240.80 L 151.60 238.40 L 147.20 236.60 L 142.60 235.20 L 137.80 234.40 L 132.70 234.20 L 128.70 234.40 L 120.90 235.80 L 113.50 238.70 L 110.00 240.70 L 103.60 245.50 L 96.60 243.20 L 89.40 242.50 L 85.50 242.60 L 81.80 243.20 L 78.20 244.20 L 74.80 245.60 L 68.60 249.50 L 65.80 251.90 L 63.30 254.70 L 59.30 260.90 L 56.80 268.20 L 52.90 269.40 L 49.30 271.10 L 46.10 273.30 L 43.30 275.90 L 40.80 278.90 L 38.80 282.20 L 37.30 285.80 L 36.30 289.60 L 35.90 293.70 L 36.30 297.40 L 37.10 300.90 L 38.30 304.20 L 42.00 310.20 L 44.30 312.70 L 47.00 315.00 L 49.90 316.90 L 53.00 318.40 L 56.40 319.50 L 59.90 320.10 L 63.60 320.30 L 167.20 320.30 L 170.90 320.10 L 174.40 319.50 L 177.80 318.40 L 183.80 315.10 L 186.50 312.80 L 188.80 310.30 L 192.50 304.30 L 193.70 301.00 L 194.50 297.50 L 194.90 293.80 L 194.50 289.70 L 193.50 285.90 L 192.00 282.30 L 190.00 279.00 L 187.60 276.00 L 184.70 273.40 L 181.50 271.20 L 178.00 269.50 L 174.10 268.20 Z" fill="url(#_路径_00000009568576152199012280000001771916269362694309_)" fill-rule="nonzero" id="_路径" node-id="7" stroke="none" target-height="86.09999" target-width="159" target-x="35.9" target-y="234.2"></path><path d="M 759.40 178.10 L 755.30 173.00 L 750.30 168.90 L 744.50 166.00 L 741.50 165.00 L 735.00 164.10 L 732.90 161.20 L 728.00 156.40 L 722.20 152.80 L 715.70 150.70 L 708.80 150.00 L 704.60 150.30 L 700.60 151.00 L 696.60 152.40 L 692.90 154.20 L 689.50 156.50 L 686.30 159.30 L 680.70 158.20 L 674.50 158.20 L 671.40 158.80 L 665.60 160.80 L 662.20 162.90 L 659.20 165.40 L 656.60 168.40 L 653.90 173.40 L 652.50 179.10 L 649.20 180.10 L 646.20 181.60 L 643.50 183.50 L 639.00 188.30 L 637.30 191.20 L 636.00 194.20 L 635.10 197.50 L 634.70 201.00 L 634.90 204.10 L 635.60 207.10 L 636.70 209.90 L 638.20 212.60 L 640.00 215.00 L 642.20 217.20 L 647.30 220.80 L 653.30 223.20 L 656.60 223.80 L 757.40 224.00 L 760.90 223.80 L 764.20 223.20 L 767.30 222.20 L 772.90 219.20 L 777.50 215.00 L 779.30 212.60 L 781.80 207.10 L 782.50 204.10 L 782.70 201.00 L 782.00 195.20 L 779.70 189.90 L 777.40 186.80 L 774.60 184.10 L 771.30 181.80 L 768.60 180.40 L 762.70 178.50 L 759.40 178.10 Z" fill="url(#_路径-2_00000176040277557324731780000016163293850416311990_)" fill-rule="nonzero" id="_路径-2" node-id="11" stroke="none" target-height="74" target-width="148" target-x="634.7" target-y="150"></path><path d="M 940.30 146.70 L 937.70 142.00 L 934.70 137.50 L 931.40 133.50 L 927.70 129.70 L 923.60 126.30 L 919.40 123.40 L 914.80 120.80 L 910.00 118.60 L 905.10 116.90 L 894.70 114.90 L 889.20 114.60 L 883.20 115.00 L 877.30 115.90 L 871.50 117.50 L 865.90 119.70 L 860.60 122.50 L 855.60 125.80 L 850.60 117.90 L 844.60 111.00 L 840.00 107.00 L 835.10 103.60 L 829.80 100.70 L 824.20 98.30 L 818.50 96.60 L 812.50 95.50 L 803.40 95.00 L 798.70 95.40 L 794.00 96.10 L 789.40 97.20 L 780.70 100.40 L 776.70 102.60 L 771.60 105.90 L 766.90 109.70 L 762.70 113.90 L 758.90 118.60 L 755.70 123.70 L 753.00 129.10 L 750.00 137.70 L 748.50 147.00 L 743.50 148.80 L 738.90 151.00 L 734.50 153.60 L 730.50 156.50 L 726.70 159.80 L 723.20 163.30 L 720.10 167.10 L 714.80 175.50 L 712.80 180.00 L 709.90 189.50 L 709.10 194.40 L 708.70 199.40 L 708.80 204.60 L 709.40 209.80 L 710.40 215.00 L 711.90 219.90 L 713.70 224.60 L 716.00 229.00 L 718.60 233.30 L 721.60 237.20 L 724.90 240.90 L 728.50 244.30 L 736.50 250.00 L 740.90 252.40 L 745.50 254.40 L 750.20 255.90 L 755.20 257.00 L 760.20 257.70 L 765.50 258.00 L 923.80 258.00 L 929.10 257.80 L 934.20 257.10 L 939.10 255.90 L 943.90 254.40 L 948.50 252.40 L 952.90 250.00 L 957.00 247.30 L 960.90 244.20 L 964.60 240.80 L 967.90 237.20 L 973.50 228.90 L 975.80 224.40 L 979.10 214.70 L 980.10 209.50 L 980.70 199.10 L 980.30 194.10 L 979.40 189.10 L 978.10 184.30 L 976.40 179.60 L 974.30 175.10 L 971.80 170.80 L 969.00 166.70 L 965.80 162.90 L 962.30 159.40 L 954.30 153.30 L 949.90 150.80 L 940.30 146.70 Z" fill="url(#_路径-3_00000103985198148637090110000002793530865497059226_)" fill-rule="nonzero" id="_路径-3" node-id="15" stroke="none" target-height="163" target-width="272" target-x="708.7" target-y="95"></path><path d="M 309.00 196.20 L 306.40 191.50 L 303.40 187.00 L 300.10 183.00 L 296.40 179.20 L 292.30 175.80 L 288.10 172.90 L 283.50 170.30 L 278.70 168.10 L 273.80 166.40 L 263.40 164.40 L 257.90 164.10 L 251.90 164.50 L 246.00 165.40 L 240.20 167.00 L 234.60 169.20 L 229.30 172.00 L 224.30 175.30 L 219.30 167.40 L 213.30 160.50 L 208.70 156.50 L 203.80 153.10 L 198.50 150.20 L 192.90 147.80 L 187.20 146.10 L 181.20 145.00 L 172.10 144.50 L 167.40 144.90 L 162.70 145.60 L 158.10 146.70 L 149.40 149.90 L 145.40 152.10 L 140.30 155.40 L 135.60 159.20 L 131.40 163.40 L 127.60 168.10 L 124.40 173.20 L 121.70 178.60 L 118.70 187.20 L 117.20 196.50 L 112.20 198.30 L 107.60 200.50 L 103.20 203.10 L 99.20 206.00 L 95.40 209.30 L 91.90 212.80 L 88.80 216.60 L 83.50 225.00 L 81.50 229.50 L 78.60 239.00 L 77.80 243.90 L 77.40 248.90 L 77.50 254.10 L 78.10 259.30 L 79.10 264.50 L 80.60 269.40 L 82.40 274.10 L 84.70 278.50 L 87.30 282.80 L 90.30 286.70 L 93.60 290.40 L 97.20 293.80 L 105.20 299.50 L 109.60 301.90 L 114.20 303.90 L 118.90 305.40 L 123.90 306.50 L 128.90 307.20 L 134.20 307.50 L 292.50 307.50 L 297.80 307.30 L 302.90 306.60 L 307.80 305.40 L 312.60 303.90 L 317.20 301.90 L 321.60 299.50 L 325.70 296.80 L 329.60 293.70 L 333.30 290.30 L 336.60 286.70 L 342.20 278.40 L 344.50 273.90 L 347.80 264.20 L 348.80 259.00 L 349.40 248.60 L 349.00 243.60 L 348.10 238.60 L 346.80 233.80 L 345.10 229.10 L 343.00 224.60 L 340.50 220.30 L 337.70 216.20 L 334.50 212.40 L 331.00 208.90 L 323.00 202.80 L 318.60 200.30 L 309.00 196.20 Z" fill="url(#_路径-4_00000106865455819959313680000001602099751032273033_)" fill-rule="nonzero" id="_路径-4" node-id="19" stroke="none" target-height="163" target-width="272" target-x="77.4" target-y="144.5"></path><path d="M 1024.00 733.50 L 1023.70 739.90 L 1022.90 746.30 L 1021.50 752.60 L 1019.60 759.00 L 1017.20 765.40 L 1014.10 771.80 L 1010.70 777.80 L 1006.70 783.80 L 1002.20 789.90 L 997.20 796.00 L 991.40 802.10 L 985.00 808.30 L 977.40 815.00 L 968.90 821.70 L 959.50 828.50 L 949.30 835.20 L 938.00 842.00 L 926.90 848.00 L 915.10 854.10 L 902.30 860.00 L 888.70 865.90 L 874.00 871.70 L 844.60 882.10 L 828.90 887.10 L 796.30 896.10 L 762.10 904.10 L 744.20 907.70 L 720.40 912.10 L 695.80 916.00 L 670.40 919.40 L 645.00 922.30 L 619.10 924.70 L 592.60 926.60 L 566.00 927.90 L 539.20 928.70 L 512.00 929.00 L 484.80 928.70 L 458.00 927.90 L 431.40 926.60 L 404.90 924.70 L 379.00 922.30 L 353.60 919.40 L 328.20 916.00 L 303.60 912.10 L 279.80 907.70 L 261.90 904.10 L 227.70 896.10 L 195.10 887.10 L 179.40 882.10 L 150.00 871.70 L 135.30 865.90 L 121.70 860.00 L 108.90 854.10 L 97.10 848.00 L 86.00 842.00 L 74.70 835.20 L 64.50 828.50 L 55.10 821.70 L 46.60 815.00 L 39.00 808.30 L 32.60 802.10 L 26.80 796.00 L 21.80 789.90 L 17.30 783.80 L 13.30 777.80 L 9.90 771.80 L 6.80 765.40 L 4.40 759.00 L 2.50 752.60 L 1.10 746.30 L 0.30 739.90 L 0.00 733.50 L 0.30 727.10 L 1.10 720.70 L 2.50 714.40 L 4.40 708.00 L 6.80 701.60 L 9.90 695.20 L 13.30 689.20 L 17.30 683.20 L 21.80 677.10 L 26.80 671.00 L 32.60 664.90 L 39.00 658.70 L 46.60 652.00 L 55.10 645.30 L 64.50 638.50 L 74.70 631.80 L 86.00 625.00 L 97.10 619.00 L 108.90 612.90 L 121.70 607.00 L 135.30 601.10 L 150.00 595.30 L 179.40 584.90 L 195.10 579.90 L 227.70 570.90 L 261.90 562.90 L 279.80 559.30 L 303.60 554.90 L 328.20 551.00 L 353.60 547.60 L 379.00 544.70 L 404.90 542.30 L 431.40 540.40 L 458.00 539.10 L 484.80 538.30 L 512.00 538.00 L 539.20 538.30 L 566.00 539.10 L 592.60 540.40 L 619.10 542.30 L 645.00 544.70 L 670.40 547.60 L 695.80 551.00 L 720.40 554.90 L 744.20 559.30 L 762.10 562.90 L 796.30 570.90 L 828.90 579.90 L 844.60 584.90 L 874.00 595.30 L 888.70 601.10 L 902.30 607.00 L 915.10 612.90 L 926.90 619.00 L 938.00 625.00 L 949.30 631.80 L 959.50 638.50 L 968.90 645.30 L 977.40 652.00 L 985.00 658.70 L 991.40 664.90 L 997.20 671.00 L 1002.20 677.10 L 1006.70 683.20 L 1010.70 689.20 L 1014.10 695.20 L 1017.20 701.60 L 1019.60 708.00 L 1021.50 714.40 L 1022.90 720.70 L 1023.70 727.10 L 1024.00 733.50 Z" fill="url(#SVGID_1_)" fill-rule="nonzero" node-id="182" stroke="none" target-height="391" target-width="1024" target-x="0" target-y="538"></path><g node-id="222"><path d="M 197.60 601.20 L 197.20 602.30 L 197.20 604.60 L 198.30 606.60 L 199.30 607.30 L 218.90 619.00 L 220.00 619.20 L 222.20 618.60 L 223.90 616.90 L 224.40 615.80 L 224.40 613.50 L 223.20 611.50 L 222.30 610.80 L 202.60 599.10 L 201.50 598.90 L 199.30 599.50 L 197.60 601.20 Z" fill="#bce9f7" fill-rule="evenodd" group-id="1" id="_矩形备份-3" node-id="28" stroke="none" target-height="20.299988" target-width="27.199997" target-x="197.2" target-y="598.9"></path><path d="M 199.00 567.80 L 206.20 567.80 L 207.50 568.30 L 208.00 569.60 L 208.00 602.10 L 207.70 603.50 L 207.00 604.70 L 205.80 605.40 L 204.40 605.70 L 200.80 605.70 L 199.40 605.40 L 198.20 604.70 L 197.50 603.50 L 197.20 602.10 L 197.20 569.60 L 197.70 568.40 L 199.00 567.80 Z" fill="#28b3dd" fill-rule="nonzero" group-id="1" node-id="187" stroke="none" target-height="37.900024" target-width="10.800003" target-x="197.2" target-y="567.8"></path><path d="M 227.60 572.90 L 214.50 553.20 L 221.10 553.20 L 222.50 552.90 L 223.60 552.30 L 224.40 551.30 L 224.80 550.10 L 224.80 548.80 L 224.30 547.40 L 212.00 527.20 L 217.20 526.90 L 218.30 526.30 L 219.10 525.30 L 219.50 524.10 L 219.50 522.80 L 219.00 521.50 L 205.80 499.30 L 204.90 498.20 L 203.80 497.60 L 202.50 497.40 L 201.30 497.60 L 200.20 498.20 L 199.30 499.30 L 186.10 521.50 L 185.60 522.80 L 185.60 524.10 L 186.10 525.30 L 186.80 526.30 L 187.90 526.90 L 193.10 527.20 L 180.70 547.40 L 180.20 548.70 L 180.20 550.00 L 180.70 551.20 L 181.40 552.30 L 182.50 552.90 L 183.90 553.20 L 190.50 553.20 L 177.40 573.00 L 176.80 574.30 L 176.80 575.60 L 177.20 576.90 L 178.00 577.90 L 179.10 578.60 L 180.50 578.90 L 224.10 578.90 L 225.70 578.60 L 226.90 577.90 L 227.80 576.80 L 228.20 575.50 L 228.20 574.20 L 227.60 572.90 Z" fill="url(#SVGID_00000035492414724079257560000003154589303317539718_)" fill-rule="nonzero" group-id="1" node-id="189" stroke="none" target-height="81.50003" target-width="51.399994" target-x="176.8" target-y="497.4"></path></g><g node-id="223"><path d="M 924.80 645.00 L 924.40 646.10 L 924.40 648.40 L 925.50 650.40 L 946.10 662.80 L 947.20 663.00 L 949.40 662.40 L 951.10 660.70 L 951.60 659.60 L 951.60 657.30 L 950.40 655.30 L 949.50 654.60 L 929.80 643.00 L 928.70 642.80 L 926.50 643.40 L 924.80 645.00 Z" fill="#bce9f7" fill-rule="evenodd" group-id="2" id="_矩形备份-3-2" node-id="35" stroke="none" target-height="20.200012" target-width="27.199951" target-x="924.4" target-y="642.8"></path><path d="M 926.20 611.80 L 933.40 611.80 L 934.70 612.30 L 935.20 613.60 L 935.20 646.00 L 934.90 647.40 L 934.20 648.60 L 933.00 649.30 L 931.60 649.60 L 928.00 649.60 L 926.60 649.30 L 925.50 648.60 L 924.70 647.40 L 924.40 646.00 L 924.40 613.50 L 924.90 612.30 L 926.20 611.80 Z" fill="#28b3dd" fill-rule="nonzero" group-id="2" node-id="195" stroke="none" target-height="37.799988" target-width="10.799988" target-x="924.4" target-y="611.8"></path><path d="M 954.70 616.80 L 941.60 597.10 L 948.20 597.10 L 949.60 596.80 L 950.70 596.20 L 951.50 595.20 L 951.90 594.00 L 951.90 592.70 L 951.40 591.30 L 939.00 571.10 L 944.20 570.80 L 945.30 570.20 L 946.10 569.20 L 946.50 568.00 L 946.50 566.70 L 933.00 543.20 L 932.10 542.10 L 931.00 541.50 L 929.80 541.30 L 928.50 541.50 L 927.40 542.10 L 926.50 543.20 L 913.30 565.40 L 912.80 566.70 L 912.80 568.00 L 913.30 569.20 L 914.00 570.20 L 915.10 570.80 L 920.30 571.10 L 907.90 591.30 L 907.40 592.60 L 907.40 593.90 L 907.90 595.10 L 908.60 596.20 L 909.70 596.80 L 911.10 597.10 L 917.70 597.10 L 904.60 616.80 L 904.00 618.10 L 904.00 619.40 L 904.40 620.70 L 905.20 621.70 L 906.30 622.40 L 907.80 622.70 L 951.40 622.70 L 952.90 622.40 L 954.10 621.70 L 954.90 620.60 L 955.30 619.40 L 955.30 618.10 L 954.70 616.80 Z" fill="url(#SVGID_00000005947204232757406520000005572111713885347976_)" fill-rule="nonzero" group-id="2" node-id="197" stroke="none" target-height="81.400024" target-width="51.299988" target-x="904" target-y="541.3"></path></g><g node-id="224"><path d="M 166.60 619.00 L 166.20 620.10 L 166.20 622.40 L 167.30 624.40 L 187.90 636.80 L 189.00 637.00 L 191.20 636.40 L 192.90 634.70 L 193.40 633.60 L 193.40 631.30 L 192.20 629.30 L 191.30 628.60 L 171.60 617.00 L 170.50 616.80 L 168.30 617.40 L 166.60 619.00 Z" fill="#bce9f7" fill-rule="evenodd" group-id="3" id="_矩形备份-3-3" node-id="42" stroke="none" target-height="20.200012" target-width="27.199997" target-x="166.2" target-y="616.8"></path><path d="M 168.00 585.80 L 175.20 585.80 L 176.50 586.30 L 177.00 587.60 L 177.00 620.00 L 176.70 621.40 L 176.00 622.60 L 174.80 623.30 L 173.40 623.60 L 169.80 623.60 L 168.40 623.30 L 167.30 622.60 L 166.50 621.40 L 166.20 620.00 L 166.20 587.50 L 166.70 586.30 L 168.00 585.80 Z" fill="#28b3dd" fill-rule="nonzero" group-id="3" node-id="203" stroke="none" target-height="37.799988" target-width="10.800003" target-x="166.2" target-y="585.8"></path><path d="M 196.60 590.80 L 183.50 571.10 L 190.10 571.10 L 191.50 570.80 L 192.60 570.20 L 193.40 569.20 L 193.80 568.00 L 193.80 566.70 L 193.30 565.30 L 181.00 545.20 L 186.20 544.90 L 187.30 544.30 L 188.10 543.30 L 188.50 542.10 L 188.50 540.80 L 188.00 539.50 L 174.80 517.30 L 173.90 516.20 L 172.80 515.60 L 171.50 515.40 L 170.30 515.60 L 169.20 516.20 L 168.30 517.30 L 155.10 539.50 L 154.60 540.80 L 154.60 542.10 L 155.10 543.30 L 155.80 544.30 L 156.90 544.90 L 162.10 545.20 L 149.70 565.40 L 149.20 566.70 L 149.20 568.00 L 149.70 569.20 L 150.40 570.30 L 151.50 570.90 L 152.90 571.20 L 159.50 571.20 L 146.40 590.90 L 145.80 592.20 L 145.80 593.50 L 146.20 594.80 L 147.00 595.80 L 148.10 596.50 L 149.50 596.80 L 193.10 596.80 L 194.70 596.50 L 195.90 595.80 L 196.80 594.70 L 197.20 593.40 L 197.20 592.10 L 196.60 590.80 Z" fill="url(#SVGID_00000029008543034704474210000001374436952418982581_)" fill-rule="nonzero" group-id="3" node-id="205" stroke="none" target-height="81.39996" target-width="51.399994" target-x="145.8" target-y="515.4"></path></g><path d="M 352.70 630.30 L 705.80 829.00 L 851.70 687.30 L 705.80 630.50 L 352.70 630.30 Z" fill="url(#_路径-9_00000108270821973926730840000009374457010628464808_)" fill-rule="evenodd" id="_路径-9" node-id="51" stroke="none" target-height="198.70001" target-width="499" target-x="352.7" target-y="630.3"></path><g node-id="225"><path d="M 352.70 429.80 L 352.70 630.40 L 546.10 687.20 L 546.10 485.80 L 352.70 429.80 Z" fill="url(#_路径-7_00000119835360202164506370000016847474769601824670_)" fill-rule="evenodd" group-id="4" id="_路径-7" node-id="56" stroke="none" target-height="257.40002" target-width="193.39996" target-x="352.7" target-y="429.8"></path><path d="M 352.70 429.20 L 507.40 374.00 L 705.80 429.30 L 546.20 485.80 L 352.70 429.20 Z" fill="#76d6f4" fill-rule="evenodd" group-id="4" id="_路径-6" node-id="57" stroke="none" target-height="111.79999" target-width="353.09998" target-x="352.7" target-y="374"></path><path d="M 546.10 485.80 L 546.10 687.30 L 701.60 633.00 L 705.80 429.80 L 546.10 485.80 Z" fill="#76d6f4" fill-rule="evenodd" group-id="4" id="_路径-8" node-id="58" stroke="none" target-height="257.5" target-width="159.70001" target-x="546.1" target-y="429.8"></path><path d="M 546.10 485.80 L 604.80 576.30 L 756.40 513.50 L 705.80 429.40 L 546.10 485.80 Z" fill="url(#_路径-5_00000023277273545001057820000016641626733804967579_)" fill-rule="evenodd" group-id="4" id="_路径-5" node-id="62" stroke="none" target-height="146.9" target-width="210.30005" target-x="546.1" target-y="429.4"></path><path d="M 352.70 429.20 L 507.40 374.00 L 507.40 475.70 L 352.70 429.20 Z" fill="url(#_路径-10_00000117648600247250343720000014430233671163970976_)" fill-rule="evenodd" group-id="4" id="_路径-10" node-id="66" stroke="none" target-height="101.70001" target-width="154.69998" target-x="352.7" target-y="374"></path><path d="M 352.70 429.20 L 546.10 485.70 L 491.20 576.20 L 299.80 512.10 L 352.70 429.20 Z" fill="url(#_路径-4_00000073002197087905009790000016724161362596667319_)" fill-rule="evenodd" group-id="4" id="_路径-4_00000155834665641619225500000004107110736049590173_" node-id="70" stroke="none" target-height="147" target-width="246.29999" target-x="299.8" target-y="429.2"></path></g><g node-id="226"><path d="M 604.00 667.30 L 613.10 670.20 L 617.10 671.90 L 624.40 675.90 L 629.90 680.40 L 632.00 682.80 L 633.40 685.00 L 634.40 687.50 L 634.80 689.80 L 634.60 692.10 L 633.80 694.20 L 632.40 696.00 L 630.30 697.80 L 628.00 699.10 L 625.10 700.20 L 621.70 701.10 L 614.20 702.00 L 605.50 701.60 L 600.90 701.00 L 596.00 700.00 L 586.90 697.10 L 582.90 695.40 L 575.60 691.40 L 570.10 686.90 L 568.10 684.50 L 566.60 682.30 L 565.60 679.80 L 565.20 677.50 L 565.40 675.20 L 566.30 673.10 L 567.60 671.30 L 569.70 669.50 L 574.90 667.10 L 581.90 665.60 L 590.20 665.30 L 599.10 666.30 L 604.00 667.30 Z" fill="#bce9f7" fill-rule="nonzero" group-id="5" node-id="220" stroke="none" target-height="36.700012" target-width="69.599976" target-x="565.2" target-y="665.3"></path></g><g node-id="227"><path d="M 561.50 669.00 L 562.80 674.70 L 563.80 676.60 L 564.80 677.70 L 569.10 680.50 L 572.60 681.20 L 580.10 681.20 L 584.20 680.50 L 588.60 679.30 L 593.30 677.40 L 598.40 674.80 L 607.30 692.00 L 608.90 691.80 L 614.20 690.00 L 611.50 673.30 L 617.80 682.50 L 620.60 687.50 L 621.30 687.70 L 623.20 687.30 L 627.30 686.00 L 624.00 668.30 L 622.10 660.80 L 618.00 647.80 L 615.70 644.10 L 612.10 639.60 L 610.20 637.90 L 607.30 636.20 L 603.50 636.20 L 600.80 638.00 L 598.20 640.90 L 595.40 639.70 L 592.60 639.00 L 589.90 638.80 L 587.10 639.00 L 584.30 639.70 L 581.50 640.90 L 578.50 642.80 L 575.30 645.20 L 572.00 648.40 L 568.40 652.40 L 564.70 657.50 L 560.70 663.70 L 561.50 669.00 Z" fill="url(#Path-9_00000127002467726606588030000000874661824947251878_)" fill-rule="evenodd" group-id="6" id="Path-9" node-id="76" stroke="none" target-height="55.799988" target-width="66.599976" target-x="560.7" target-y="636.2"></path><path d="M 600.10 658.60 L 607.50 658.00 L 609.00 657.30 L 609.70 656.60 L 609.90 655.80 L 609.60 654.80 L 604.30 655.20 L 602.60 655.00 L 602.00 652.10 L 601.30 652.70 L 600.30 654.80 L 600.10 658.60 Z" fill="#facebb" fill-rule="evenodd" group-id="6" id="Path-12" node-id="77" stroke="none" target-height="6.5" target-width="9.800049" target-x="600.1" target-y="652.1"></path><path d="M 620.20 649.50 L 617.40 648.80 L 614.60 647.30 L 614.80 648.20 L 616.30 650.40 L 614.70 651.90 L 611.30 651.80 L 610.30 652.20 L 609.10 653.90 L 608.90 655.40 L 618.00 655.20 L 620.20 653.40 L 621.90 651.20 L 620.20 649.50 Z" fill="#facebb" fill-rule="evenodd" group-id="6" id="Path-11" node-id="78" stroke="none" target-height="8.100037" target-width="13" target-x="608.9" target-y="647.3"></path><path d="M 596.70 598.80 L 593.40 598.60 L 591.10 598.80 L 588.00 600.10 L 586.20 601.60 L 584.00 604.10 L 581.30 607.80 L 582.00 611.60 L 582.60 618.40 L 585.00 620.60 L 586.50 621.10 L 588.10 621.20 L 592.10 620.20 L 592.10 614.00 L 594.40 613.80 L 597.90 612.40 L 599.10 611.30 L 600.10 609.80 L 601.30 605.60 L 601.10 599.20 L 596.70 598.80 Z" fill="#facebb" fill-rule="evenodd" group-id="6" id="Path-13" node-id="79" stroke="none" target-height="22.600037" target-width="20" target-x="581.3" target-y="598.6"></path><path d="M 592.00 618.10 L 591.10 619.50 L 589.60 620.40 L 588.50 620.30 L 585.90 619.30 L 582.00 616.40 L 576.70 618.60 L 572.40 621.60 L 570.00 624.00 L 568.00 626.60 L 566.20 629.50 L 563.50 635.70 L 561.50 643.70 L 560.50 656.90 L 561.00 666.00 L 562.80 664.50 L 573.50 651.10 L 577.40 654.20 L 583.10 656.90 L 586.60 658.00 L 593.20 659.40 L 598.40 659.90 L 601.10 659.80 L 601.30 657.10 L 600.70 653.90 L 589.90 645.60 L 588.50 644.20 L 587.60 642.20 L 587.80 641.80 L 590.50 641.40 L 594.20 640.00 L 596.80 640.30 L 599.50 641.30 L 600.80 639.40 L 602.20 638.10 L 603.60 637.40 L 605.10 637.10 L 606.70 637.30 L 608.60 638.00 L 610.80 639.50 L 613.40 641.80 L 616.50 645.40 L 621.20 651.70 L 621.90 651.90 L 622.30 651.70 L 623.10 648.20 L 623.40 645.00 L 623.20 641.90 L 622.60 638.90 L 621.60 636.10 L 620.10 633.30 L 615.80 627.90 L 612.70 625.30 L 609.00 622.80 L 604.50 620.30 L 599.20 617.90 L 592.90 615.60 L 592.00 618.10 Z" fill="#32bcf8" fill-rule="evenodd" group-id="6" id="Path-8" node-id="80" stroke="none" target-height="50.400024" target-width="62.900024" target-x="560.5" target-y="615.6"></path><path d="M 602.40 596.90 L 601.60 593.70 L 598.30 590.50 L 595.40 589.00 L 594.20 588.90 L 590.50 589.60 L 584.30 590.10 L 580.50 591.60 L 578.20 593.60 L 577.20 595.40 L 576.60 598.80 L 577.20 601.00 L 577.70 601.10 L 578.10 601.70 L 578.80 603.60 L 580.00 608.40 L 581.90 608.40 L 582.20 607.30 L 583.50 605.80 L 589.50 599.80 L 591.00 598.80 L 596.10 598.50 L 597.60 598.80 L 599.10 599.80 L 600.60 601.50 L 601.00 599.80 L 602.40 599.80 L 602.40 596.90 Z" fill="#000e1e" fill-rule="evenodd" group-id="6" id="Path-14" node-id="81" stroke="none" target-height="19.5" target-width="25.800049" target-x="576.6" target-y="588.9"></path><path d="M 622.20 687.20 L 622.00 687.70 L 622.20 690.40 L 623.10 693.20 L 631.20 695.10 L 633.80 695.00 L 634.70 694.00 L 634.70 692.80 L 634.30 692.10 L 631.60 691.10 L 629.30 689.80 L 627.50 688.20 L 626.00 686.30 L 622.20 687.20 Z" fill="#000e1e" fill-rule="evenodd" group-id="6" id="Path-15" node-id="82" stroke="none" target-height="8.799988" target-width="12.700012" target-x="622" target-y="686.3"></path><path d="M 608.20 691.60 L 608.20 693.50 L 610.10 698.00 L 618.20 700.00 L 620.80 699.80 L 621.50 699.40 L 621.70 698.80 L 621.70 697.60 L 621.30 696.80 L 617.30 695.00 L 614.40 692.20 L 613.30 690.30 L 608.20 691.60 Z" fill="#000e1e" fill-rule="evenodd" group-id="6" id="Path-15-Copy" node-id="83" stroke="none" target-height="9.700012" target-width="13.5" target-x="608.2" target-y="690.3"></path></g></svg>