<svg height="429" node-id="1" sillyvg="true" template-height="429" template-width="395" version="1.1" viewBox="0 0 395 429" width="395" xmlns="http://www.w3.org/2000/svg" xmlns:xlink="http://www.w3.org/1999/xlink"><defs node-id="19"></defs><g node-id="21"><g node-id="22"><g node-id="23"><path d="M 134.50 0.70 L 139.50 28.60 L 144.30 50.00 L 147.50 60.90 L 150.00 68.10 L 152.90 75.20 L 156.10 82.10 L 159.80 88.70 L 164.00 95.10 L 168.70 101.10 L 172.50 105.30 L 176.70 109.20 L 181.20 112.90 L 186.10 116.30 L 191.30 119.20 L 196.80 121.90 L 202.90 124.10 L 209.50 126.10 L 214.50 117.70 L 218.10 108.40 L 219.90 102.00 L 221.10 95.30 L 221.80 88.40 L 222.00 81.40 L 221.70 74.50 L 220.90 67.50 L 219.50 60.70 L 217.80 54.00 L 215.60 47.50 L 212.90 41.30 L 209.80 35.40 L 206.30 30.00 L 203.30 26.10 L 196.80 19.40 L 193.30 16.60 L 187.20 12.50 L 181.40 9.20 L 175.80 6.60 L 164.80 2.80 L 159.80 1.60 L 152.60 0.50 L 146.70 0.00 L 141.30 0.00 L 134.50 0.70 Z" fill="#a1dc5a" fill-rule="evenodd" group-id="1,2,3" id="路径-423" node-id="10" stroke="none" target-height="126.1" target-width="87.5" target-x="134.5" target-y="0"/><g node-id="24"><path d="M 301.60 126.60 L 306.30 127.40 L 312.50 127.90 L 321.50 127.60 L 326.80 127.00 L 332.00 126.00 L 337.50 124.50 L 343.30 122.50 L 349.00 120.00 L 354.80 116.70 L 360.90 112.70 L 365.20 109.40 L 373.80 101.20 L 378.30 96.20 L 382.30 91.10 L 386.30 85.30 L 390.30 78.80 L 394.30 71.40 L 388.80 68.60 L 384.60 67.10 L 378.20 65.30 L 365.00 63.10 L 353.60 62.50 L 347.80 62.60 L 336.30 64.10 L 330.80 65.50 L 325.50 67.40 L 320.60 69.70 L 317.20 71.80 L 314.00 74.20 L 311.10 77.00 L 308.50 80.10 L 305.00 85.60 L 302.30 90.60 L 300.40 95.10 L 299.00 99.90 L 298.20 104.10 L 297.80 111.80 L 298.50 117.90 L 299.50 121.80 L 301.60 126.60 Z" fill="#8fcc5a" fill-rule="evenodd" group-id="1,2,3,4" id="路径-423" node-id="11" stroke="none" target-height="65.4" target-width="96.5" target-x="297.8" target-y="62.5"/></g><g node-id="25"><path d="M 0.20 212.80 L 14.90 219.40 L 23.30 222.80 L 32.60 225.90 L 39.00 227.70 L 45.60 229.10 L 52.40 230.10 L 59.20 230.60 L 66.10 230.60 L 73.20 229.80 L 78.30 228.90 L 83.50 227.40 L 88.80 225.40 L 94.10 222.90 L 99.00 220.00 L 104.00 216.50 L 109.00 212.20 L 114.10 207.10 L 112.40 202.90 L 110.20 198.90 L 107.70 195.10 L 104.80 191.50 L 98.20 185.20 L 90.40 179.80 L 84.80 177.00 L 79.00 174.60 L 72.90 172.80 L 66.60 171.60 L 60.40 171.10 L 54.10 171.10 L 49.50 171.60 L 45.00 172.50 L 40.60 173.80 L 36.30 175.50 L 30.90 178.30 L 26.10 181.20 L 21.90 184.20 L 14.50 190.90 L 7.70 199.10 L 2.60 207.40 L 0.20 212.80 Z" fill="#8ecc5a" fill-rule="evenodd" group-id="1,2,3,5" id="路径-423" node-id="12" stroke="none" target-height="59.5" target-width="113.9" target-x="0.2" target-y="171.1"/></g><g node-id="26"><path d="M 115.80 168.00 L 114.90 177.10 L 114.90 182.20 L 116.10 191.20 L 118.40 198.50 L 120.10 201.90 L 122.30 205.30 L 125.10 208.60 L 128.20 211.50 L 131.90 214.20 L 136.50 216.80 L 139.30 215.20 L 140.90 213.60 L 142.90 210.80 L 144.70 207.00 L 145.90 203.00 L 146.70 198.50 L 146.80 195.50 L 145.80 189.40 L 144.80 186.50 L 143.20 183.70 L 141.10 181.10 L 138.00 178.20 L 132.20 173.80 L 127.80 171.40 L 124.10 169.90 L 120.50 168.80 L 115.80 168.00 Z" fill="#92ce5a" fill-rule="evenodd" group-id="1,2,3,6" id="路径-423" node-id="13" stroke="none" target-height="48.800003" target-width="31.900002" target-x="114.9" target-y="168"/></g><path d="M 202.20 113.40 L 203.20 132.50 L 203.50 150.50 L 203.20 167.60 L 202.40 183.70 L 201.10 198.90 L 199.20 213.20 L 196.90 226.80 L 194.20 239.50 L 191.00 251.60 L 157.80 227.70 L 138.50 214.40 L 112.00 202.80 L 109.50 207.70 L 136.80 218.40 L 188.60 263.60 L 177.90 312.90 L 185.10 426.40 L 224.70 428.60 L 219.40 417.40 L 215.00 409.00 L 211.40 402.90 L 208.40 398.60 L 206.00 395.70 L 203.60 383.60 L 199.60 357.90 L 193.10 311.10 L 211.30 214.40 L 309.50 119.10 L 307.80 115.90 L 214.00 195.60 L 209.50 113.40 L 202.20 113.40 Z" fill="#cb8f70" fill-rule="evenodd" group-id="1,2,3" id="路径-424" node-id="14" stroke="none" target-height="315.2" target-width="200" target-x="109.5" target-y="113.4"/><g node-id="27"><path d="M 162.30 167.00 L 164.90 171.60 L 170.30 179.30 L 175.90 184.60 L 179.10 186.80 L 182.60 188.60 L 186.50 189.90 L 189.50 190.50 L 196.40 190.60 L 200.30 190.00 L 201.30 188.40 L 201.90 186.40 L 202.10 184.00 L 201.20 179.00 L 200.10 176.20 L 198.60 173.60 L 196.60 171.10 L 194.20 168.80 L 191.50 166.80 L 188.30 165.20 L 184.60 163.90 L 178.70 163.40 L 174.30 163.50 L 170.20 164.00 L 164.90 165.50 L 162.30 167.00 Z" fill="#90cd5a" fill-rule="evenodd" group-id="1,2,3,7" id="路径-423" node-id="15" stroke="none" target-height="27.200012" target-width="39.800003" target-x="162.3" target-y="163.4"/></g><g node-id="28"><path d="M 130.10 283.80 L 135.60 293.60 L 138.90 298.50 L 142.70 303.00 L 145.50 305.90 L 151.80 310.70 L 155.20 312.60 L 158.90 314.10 L 162.90 315.20 L 167.00 315.70 L 171.50 315.60 L 176.40 315.00 L 177.40 313.40 L 178.00 311.50 L 178.40 309.10 L 178.00 304.20 L 176.30 298.60 L 173.30 293.00 L 171.30 290.40 L 166.40 285.60 L 163.50 283.60 L 160.30 282.00 L 156.70 280.60 L 147.70 279.70 L 139.50 280.20 L 136.10 281.00 L 133.20 282.00 L 130.10 283.80 Z" fill="#90cd5a" fill-rule="evenodd" group-id="1,2,3,8" id="路径-423" node-id="16" stroke="none" target-height="36" target-width="48.299988" target-x="130.1" target-y="279.7"/></g><path d="M 246.40 171.90 L 250.60 178.30 L 253.40 181.70 L 256.50 184.90 L 260.10 188.00 L 264.40 191.00 L 269.00 193.50 L 274.20 195.80 L 280.30 197.70 L 290.00 199.40 L 302.00 199.90 L 314.80 198.70 L 330.30 195.60 L 328.80 188.70 L 325.60 180.70 L 320.80 172.60 L 318.00 168.70 L 314.70 165.00 L 311.10 161.60 L 307.20 158.60 L 302.90 156.00 L 298.30 153.90 L 294.80 152.70 L 291.00 152.00 L 287.00 151.60 L 282.70 151.60 L 277.10 152.30 L 272.20 153.20 L 268.00 154.50 L 260.60 157.80 L 257.70 159.60 L 253.80 162.60 L 248.80 168.10 L 246.40 171.90 Z" fill="#8ecb5a" fill-rule="evenodd" group-id="1,2,3,9" id="路径-423" node-id="17" stroke="none" target-height="48.299988" target-width="83.899994" target-x="246.4" target-y="151.6"/></g></g></g></svg>
